<svg width="10" height="11" viewBox="0 0 10 11" fill="none" xmlns="http://www.w3.org/2000/svg">
<path fill-rule="evenodd" clip-rule="evenodd" d="M5 0.5C3.03856 0.5 1.38889 2.02505 1.38889 3.94737H1.88889L1.38889 3.94738V3.94742V3.94747V3.94756V3.94766V3.94779V3.94794V3.94812V3.94832V3.94854V3.94879V3.94906V3.94935V3.94966V3.95V3.95036V3.95074V3.95115V3.95158V3.95203V3.95251V3.953V3.95352V3.95407V3.95463V3.95522V3.95583V3.95646V3.95712V3.95779V3.95849V3.95922V3.95996V3.96073V3.96151V3.96232V3.96316V3.96401V3.96489V3.96579V3.96671V3.96765V3.96861V3.9696V3.9706V3.97163V3.97268V3.97375V3.97485V3.97596V3.9771V3.97825V3.97943V3.98063V3.98185V3.9831V3.98436V3.98564V3.98695V3.98828V3.98962V3.99099V3.99238V3.99379V3.99522V3.99667V3.99815V3.99964V4.00115V4.00269V4.00424V4.00582V4.00741V4.00903V4.01066V4.01232V4.014V4.01569V4.01741V4.01915V4.02091V4.02268V4.02448V4.0263V4.02814V4.02999V4.03187V4.03377V4.03568V4.03762V4.03957V4.04155V4.04354V4.04556V4.04759V4.04965V4.05172V4.05381V4.05592V4.05805V4.0602V4.06237V4.06456V4.06676V4.06899V4.07123V4.0735V4.07578V4.07808V4.0804V4.08274V4.0851V4.08748V4.08987V4.09228V4.09472V4.09717V4.09964V4.10212V4.10463V4.10715V4.10969V4.11226V4.11483V4.11743V4.12005V4.12268V4.12533V4.128V4.13068V4.13339V4.13611V4.13885V4.14161V4.14439V4.14718V4.14999V4.15282V4.15566V4.15853V4.16141V4.16431V4.16722V4.17015V4.1731V4.17607V4.17906V4.18206V4.18508V4.18811V4.19116V4.19423V4.19732V4.20042V4.20354V4.20668V4.20983V4.213V4.21619V4.21939V4.22261V4.22585V4.2291V4.23237V4.23566V4.23896V4.24228V4.24561V4.24896V4.25233V4.25571V4.25911V4.26252V4.26595V4.2694V4.27286V4.27634V4.27984V4.28335V4.28687V4.29041V4.29397V4.29754V4.30113V4.30473V4.30835V4.31199V4.31564V4.3193V4.32298V4.32668V4.33039V4.33411V4.33785V4.34161V4.34538V4.34916V4.35297V4.35678V4.36061V4.36446V4.36832V4.37219V4.37608V4.37998V4.3839V4.38783V4.39178V4.39574V4.39972V4.40371V4.40771V4.41173V4.41576V4.41981V4.42387V4.42795V4.43203V4.43614V4.44026V4.44439V4.44853V4.45269V4.45686V4.46105V4.46525V4.46946V4.47369V4.47793V4.48218V4.48645V4.49073V4.49502V4.49933V4.50365V4.50799V4.51233V4.51669V4.52107V4.52545V4.52985V4.53426V4.53869V4.54313V4.54758V4.55204V4.55652V4.56101V4.56551V4.57002V4.57455V4.57909V4.58364V4.5882V4.59278V4.59737V4.60197V4.60658V4.61121V4.61585V4.6205V4.62516V4.62983V4.63452V4.63922V4.64393V4.64865V4.65338V4.65813V4.66288V4.66765V4.67243V4.67722V4.68203V4.68684V4.69167V4.6965V4.70135V4.70621V4.71108V4.71597V4.72086V4.72577V4.73068V4.73561V4.74055V4.7455V4.75046V4.75543V4.76041V4.7654V4.77041V4.77542V4.78045V4.78548V4.79053V4.79558V4.80065V4.80573V4.81081V4.81591V4.82102V4.82614V4.83127V4.83641V4.84156V4.84671V4.85188V4.85706V4.86225V4.86745V4.87266V4.87788V4.88311V4.88834V4.89359V4.89885V4.90412V4.90939V4.91468V4.91997V4.92528V4.93059V4.93592V4.94125V4.94659V4.95194V4.9573V4.96267V4.96805V4.97344V4.97884V4.98424V4.98966V4.99508V5.00051V5.00595V5.0114V5.01686V5.02233V5.0278V5.03329V5.03878V5.04428V5.04979V5.05531V5.06083V5.06637V5.07191V5.07746V5.08302V5.08858V5.09416V5.09974V5.10533V5.11093V5.11654V5.12215V5.12777V5.1334V5.13904V5.14469V5.15034V5.156V5.16167V5.16734V5.17303V5.17872V5.18441V5.19012V5.19583V5.20155V5.20727V5.21301V5.21875V5.2245V5.23025V5.23601V5.24178V5.24756V5.25334V5.25913V5.26492V5.27072V5.27653V5.28235V5.28817V5.294V5.29983V5.30567V5.31152V5.31738V5.32324V5.3291V5.33497V5.34085V5.34674V5.35263V5.35853V5.36443V5.37034V5.37625V5.38217V5.3881V5.39403V5.39997V5.40591V5.41186V5.41781V5.42377V5.42974V5.43571V5.44169V5.44767V5.45366V5.45965V5.46564V5.47165V5.47765V5.48367V5.48969V5.49571V5.50174V5.50777V5.51381V5.51985V5.5259V5.53195V5.538V5.54406V5.55013V5.5562V5.56228V5.56835V5.57444V5.58053V5.58662V5.59271V5.59882V5.60492V5.61103V5.61714V5.62326V5.62938V5.63551V5.64164V5.64777V5.65391V5.66005V5.66619V5.67234V5.67849V5.68465V5.69081V5.69697V5.70313V5.7093V5.71548V5.72165V5.72783V5.73402V5.7402V5.74639V5.75258V5.75878V5.76498V5.77118V5.77738V5.78359V5.7898V5.79601V5.80223V5.80845V5.81467V5.82089V5.82712V5.83335V5.83958V5.84581V5.85205V5.85829V5.86453V5.87077V5.87702V5.88327V5.88952V5.89577V5.90202V5.90828V5.91454V5.9208V5.92706V5.93332V5.93959V5.94586V5.95213V5.9584V5.96467V5.97094V5.97722V5.9835V5.98978V5.99606V6.00234V6.00862V6.0149V6.02119V6.02748V6.03376V6.04005V6.04634V6.05263C1.38889 6.80867 1.18878 7.47799 0.983821 7.96341C0.881878 8.20485 0.780353 8.39696 0.705579 8.52683C0.668256 8.59166 0.637791 8.64064 0.617541 8.67216C0.607422 8.68791 0.599875 8.69926 0.595321 8.70602L0.590932 8.71249L0.590798 8.71267L0.590621 8.71293L0.59053 8.71306L0.590368 8.71329C0.483616 8.86581 0.470425 9.06506 0.556226 9.23036C0.642222 9.39603 0.813341 9.5 1 9.5H3.58592C3.79261 10.0816 4.34903 10.5 5 10.5C5.65097 10.5 6.20739 10.0816 6.41409 9.5H9C9.18666 9.5 9.35778 9.39603 9.44378 9.23036C9.52973 9.06477 9.51634 8.86511 9.40907 8.71249L9.40891 8.71225L9.40468 8.70602C9.40013 8.69926 9.39258 8.68791 9.38246 8.67216C9.36221 8.64064 9.33175 8.59166 9.29442 8.52683C9.21965 8.39696 9.11812 8.20485 9.01618 7.96341C8.81123 7.47799 8.61111 6.80867 8.61111 6.05263V6.04634V6.04005V6.03376V6.02748V6.02119V6.0149V6.00862V6.00234V5.99606V5.98978V5.9835V5.97722V5.97094V5.96467V5.9584V5.95213V5.94586V5.93959V5.93332V5.92706V5.9208V5.91454V5.90828V5.90202V5.89577V5.88952V5.88327V5.87702V5.87077V5.86453V5.85829V5.85205V5.84581V5.83958V5.83335V5.82712V5.82089V5.81467V5.80845V5.80223V5.79601V5.7898V5.78359V5.77738V5.77118V5.76498V5.75878V5.75258V5.74639V5.7402V5.73402V5.72783V5.72165V5.71548V5.7093V5.70313V5.69697V5.69081V5.68465V5.67849V5.67234V5.66619V5.66005V5.65391V5.64777V5.64164V5.63551V5.62938V5.62326V5.61714V5.61103V5.60492V5.59882V5.59271V5.58662V5.58053V5.57444V5.56835V5.56228V5.5562V5.55013V5.54406V5.538V5.53195V5.5259V5.51985V5.51381V5.50777V5.50174V5.49571V5.48969V5.48367V5.47765V5.47165V5.46564V5.45965V5.45366V5.44767V5.44169V5.43571V5.42974V5.42377V5.41781V5.41186V5.40591V5.39997V5.39403V5.3881V5.38217V5.37625V5.37034V5.36443V5.35853V5.35263V5.34674V5.34085V5.33497V5.3291V5.32324V5.31738V5.31152V5.30567V5.29983V5.294V5.28817V5.28235V5.27653V5.27072V5.26492V5.25913V5.25334V5.24756V5.24178V5.23601V5.23025V5.2245V5.21875V5.21301V5.20727V5.20155V5.19583V5.19012V5.18441V5.17872V5.17303V5.16734V5.16167V5.156V5.15034V5.14469V5.13904V5.1334V5.12777V5.12215V5.11654V5.11093V5.10533V5.09974V5.09416V5.08858V5.08302V5.07746V5.07191V5.06637V5.06083V5.05531V5.04979V5.04428V5.03878V5.03329V5.0278V5.02233V5.01686V5.0114V5.00595V5.00051V4.99508V4.98966V4.98424V4.97884V4.97344V4.96805V4.96267V4.9573V4.95194V4.94659V4.94125V4.93592V4.93059V4.92528V4.91997V4.91468V4.90939V4.90412V4.89885V4.89359V4.88834V4.88311V4.87788V4.87266V4.86745V4.86225V4.85706V4.85188V4.84671V4.84156V4.83641V4.83127V4.82614V4.82102V4.81591V4.81081V4.80573V4.80065V4.79558V4.79053V4.78548V4.78045V4.77542V4.77041V4.7654V4.76041V4.75543V4.75046V4.7455V4.74055V4.73561V4.73068V4.72577V4.72086V4.71597V4.71108V4.70621V4.70135V4.6965V4.69167V4.68684V4.68203V4.67722V4.67243V4.66765V4.66288V4.65813V4.65338V4.64865V4.64393V4.63922V4.63452V4.62983V4.62516V4.6205V4.61585V4.61121V4.60658V4.60197V4.59737V4.59278V4.5882V4.58364V4.57909V4.57455V4.57002V4.56551V4.56101V4.55652V4.55204V4.54758V4.54313V4.53869V4.53426V4.52985V4.52545V4.52107V4.51669V4.51233V4.50799V4.50365V4.49933V4.49502V4.49073V4.48645V4.48218V4.47793V4.47369V4.46946V4.46525V4.46105V4.45686V4.45269V4.44853V4.44439V4.44026V4.43614V4.43203V4.42795V4.42387V4.41981V4.41576V4.41173V4.40771V4.40371V4.39972V4.39574V4.39178V4.38783V4.3839V4.37998V4.37608V4.37219V4.36832V4.36446V4.36061V4.35678V4.35297V4.34916V4.34538V4.34161V4.33785V4.33411V4.33039V4.32668V4.32298V4.3193V4.31564V4.31199V4.30835V4.30473V4.30113V4.29754V4.29397V4.29041V4.28687V4.28335V4.27984V4.27634V4.27286V4.2694V4.26595V4.26252V4.25911V4.25571V4.25233V4.24896V4.24561V4.24228V4.23896V4.23566V4.23237V4.2291V4.22585V4.22261V4.21939V4.21619V4.213V4.20983V4.20668V4.20354V4.20042V4.19732V4.19423V4.19116V4.18811V4.18508V4.18206V4.17906V4.17607V4.1731V4.17015V4.16722V4.16431V4.16141V4.15853V4.15566V4.15282V4.14999V4.14718V4.14439V4.14161V4.13885V4.13611V4.13339V4.13068V4.128V4.12533V4.12268V4.12005V4.11743V4.11483V4.11226V4.10969V4.10715V4.10463V4.10212V4.09964V4.09717V4.09472V4.09228V4.08987V4.08748V4.0851V4.08274V4.0804V4.07808V4.07578V4.0735V4.07123V4.06899V4.06676V4.06456V4.06237V4.0602V4.05805V4.05592V4.05381V4.05172V4.04965V4.04759V4.04556V4.04354V4.04155V4.03957V4.03762V4.03568V4.03377V4.03187V4.02999V4.02814V4.0263V4.02448V4.02268V4.02091V4.01915V4.01741V4.01569V4.014V4.01232V4.01066V4.00903V4.00741V4.00582V4.00424V4.00269V4.00115V3.99964V3.99815V3.99667V3.99522V3.99379V3.99238V3.99099V3.98962V3.98828V3.98695V3.98564V3.98436V3.9831V3.98185V3.98063V3.97943V3.97825V3.9771V3.97596V3.97485V3.97375V3.97268V3.97163V3.9706V3.9696V3.96861V3.96765V3.96671V3.96579V3.96489V3.96401V3.96316V3.96232V3.96151V3.96073V3.95996V3.95922V3.95849V3.95779V3.95712V3.95646V3.95583V3.95522V3.95463V3.95407V3.95352V3.953V3.95251V3.95203V3.95158V3.95115V3.95074V3.95036V3.95V3.94966V3.94935V3.94906V3.94879V3.94854V3.94832V3.94812V3.94794V3.94779V3.94766V3.94756V3.94747V3.94742V3.94737C8.61111 2.02505 6.96144 0.5 5 0.5ZM6 8.5H8.15944C8.13803 8.45264 8.11648 8.40341 8.09493 8.35238C7.85544 7.78517 7.61111 6.98081 7.61111 6.05263V6.04634V6.04005V6.03376V6.02748V6.02119V6.0149V6.00862V6.00234V5.99606V5.98978V5.9835V5.97722V5.97094V5.96467V5.9584V5.95213V5.94586V5.93959V5.93332V5.92706V5.9208V5.91454V5.90828V5.90202V5.89577V5.88952V5.88327V5.87702V5.87077V5.86453V5.85829V5.85205V5.84581V5.83958V5.83335V5.82712V5.82089V5.81467V5.80845V5.80223V5.79601V5.7898V5.78359V5.77738V5.77118V5.76498V5.75878V5.75258V5.74639V5.7402V5.73402V5.72783V5.72165V5.71548V5.7093V5.70313V5.69697V5.69081V5.68465V5.67849V5.67234V5.66619V5.66005V5.65391V5.64777V5.64164V5.63551V5.62938V5.62326V5.61714V5.61103V5.60492V5.59882V5.59271V5.58662V5.58053V5.57444V5.56835V5.56228V5.5562V5.55013V5.54406V5.538V5.53195V5.5259V5.51985V5.51381V5.50777V5.50174V5.49571V5.48969V5.48367V5.47765V5.47165V5.46564V5.45965V5.45366V5.44767V5.44169V5.43571V5.42974V5.42377V5.41781V5.41186V5.40591V5.39997V5.39403V5.3881V5.38217V5.37625V5.37034V5.36443V5.35853V5.35263V5.34674V5.34085V5.33497V5.3291V5.32324V5.31738V5.31152V5.30567V5.29983V5.294V5.28817V5.28235V5.27653V5.27072V5.26492V5.25913V5.25334V5.24756V5.24178V5.23601V5.23025V5.2245V5.21875V5.21301V5.20727V5.20155V5.19583V5.19012V5.18441V5.17872V5.17303V5.16734V5.16167V5.156V5.15034V5.14469V5.13904V5.1334V5.12777V5.12215V5.11654V5.11093V5.10533V5.09974V5.09416V5.08858V5.08302V5.07746V5.07191V5.06637V5.06083V5.05531V5.04979V5.04428V5.03878V5.03329V5.0278V5.02233V5.01686V5.0114V5.00595V5.00051V4.99508V4.98966V4.98424V4.97884V4.97344V4.96805V4.96267V4.9573V4.95194V4.94659V4.94125V4.93592V4.93059V4.92528V4.91997V4.91468V4.90939V4.90412V4.89885V4.89359V4.88834V4.88311V4.87788V4.87266V4.86745V4.86225V4.85706V4.85188V4.84671V4.84156V4.83641V4.83127V4.82614V4.82102V4.81591V4.81081V4.80573V4.80065V4.79558V4.79053V4.78548V4.78045V4.77542V4.77041V4.7654V4.76041V4.75543V4.75046V4.7455V4.74055V4.73561V4.73068V4.72577V4.72086V4.71597V4.71108V4.70621V4.70135V4.6965V4.69167V4.68684V4.68203V4.67722V4.67243V4.66765V4.66288V4.65813V4.65338V4.64865V4.64393V4.63922V4.63452V4.62983V4.62516V4.6205V4.61585V4.61121V4.60658V4.60197V4.59737V4.59278V4.5882V4.58364V4.57909V4.57455V4.57002V4.56551V4.56101V4.55652V4.55204V4.54758V4.54313V4.53869V4.53426V4.52985V4.52545V4.52107V4.51669V4.51233V4.50799V4.50365V4.49933V4.49502V4.49073V4.48645V4.48218V4.47793V4.47369V4.46946V4.46525V4.46105V4.45686V4.45269V4.44853V4.44439V4.44026V4.43614V4.43203V4.42795V4.42387V4.41981V4.41576V4.41173V4.40771V4.40371V4.39972V4.39574V4.39178V4.38783V4.3839V4.37998V4.37608V4.37219V4.36832V4.36446V4.36061V4.35678V4.35297V4.34916V4.34538V4.34161V4.33785V4.33411V4.33039V4.32668V4.32298V4.3193V4.31564V4.31199V4.30835V4.30473V4.30113V4.29754V4.29397V4.29041V4.28687V4.28335V4.27984V4.27634V4.27286V4.2694V4.26595V4.26252V4.25911V4.25571V4.25233V4.24896V4.24561V4.24228V4.23896V4.23566V4.23237V4.2291V4.22585V4.22261V4.21939V4.21619V4.213V4.20983V4.20668V4.20354V4.20042V4.19732V4.19423V4.19116V4.18811V4.18508V4.18206V4.17906V4.17607V4.1731V4.17015V4.16722V4.16431V4.16141V4.15853V4.15566V4.15282V4.14999V4.14718V4.14439V4.14161V4.13885V4.13611V4.13339V4.13068V4.128V4.12533V4.12268V4.12005V4.11743V4.11483V4.11226V4.10969V4.10715V4.10463V4.10212V4.09964V4.09717V4.09472V4.09228V4.08987V4.08748V4.0851V4.08274V4.0804V4.07808V4.07578V4.0735V4.07123V4.06899V4.06676V4.06456V4.06237V4.0602V4.05805V4.05592V4.05381V4.05172V4.04965V4.04759V4.04556V4.04354V4.04155V4.03957V4.03762V4.03568V4.03377V4.03187V4.02999V4.02814V4.0263V4.02448V4.02268V4.02091V4.01915V4.01741V4.01569V4.014V4.01232V4.01066V4.00903V4.00741V4.00582V4.00424V4.00269V4.00115V3.99964V3.99815V3.99667V3.99522V3.99379V3.99238V3.99099V3.98962V3.98828V3.98695V3.98564V3.98436V3.9831V3.98185V3.98063V3.97943V3.97825V3.9771V3.97596V3.97485V3.97375V3.97268V3.97163V3.9706V3.9696V3.96861V3.96765V3.96671V3.96579V3.96489V3.96401V3.96316V3.96232V3.96151V3.96073V3.95996V3.95922V3.95849V3.95779V3.95712V3.95646V3.95583V3.95522V3.95463V3.95407V3.95352V3.953V3.95251V3.95203V3.95158V3.95115V3.95074V3.95036V3.95V3.94966V3.94935V3.94906V3.94879V3.94854V3.94832V3.94812V3.94794V3.94779V3.94766V3.94756V3.94747V3.94742V3.94738L8.11111 3.94737H7.61111C7.61111 2.62759 6.46079 1.5 5 1.5C3.53922 1.5 2.38889 2.62759 2.38889 3.94737H1.88889L2.38889 3.94738V3.94742V3.94747V3.94756V3.94766V3.94779V3.94794V3.94812V3.94832V3.94854V3.94879V3.94906V3.94935V3.94966V3.95V3.95036V3.95074V3.95115V3.95158V3.95203V3.95251V3.953V3.95352V3.95407V3.95463V3.95522V3.95583V3.95646V3.95712V3.95779V3.95849V3.95922V3.95996V3.96073V3.96151V3.96232V3.96316V3.96401V3.96489V3.96579V3.96671V3.96765V3.96861V3.9696V3.9706V3.97163V3.97268V3.97375V3.97485V3.97596V3.9771V3.97825V3.97943V3.98063V3.98185V3.9831V3.98436V3.98564V3.98695V3.98828V3.98962V3.99099V3.99238V3.99379V3.99522V3.99667V3.99815V3.99964V4.00115V4.00269V4.00424V4.00582V4.00741V4.00903V4.01066V4.01232V4.014V4.01569V4.01741V4.01915V4.02091V4.02268V4.02448V4.0263V4.02814V4.02999V4.03187V4.03377V4.03568V4.03762V4.03957V4.04155V4.04354V4.04556V4.04759V4.04965V4.05172V4.05381V4.05592V4.05805V4.0602V4.06237V4.06456V4.06676V4.06899V4.07123V4.0735V4.07578V4.07808V4.0804V4.08274V4.0851V4.08748V4.08987V4.09228V4.09472V4.09717V4.09964V4.10212V4.10463V4.10715V4.10969V4.11226V4.11483V4.11743V4.12005V4.12268V4.12533V4.128V4.13068V4.13339V4.13611V4.13885V4.14161V4.14439V4.14718V4.14999V4.15282V4.15566V4.15853V4.16141V4.16431V4.16722V4.17015V4.1731V4.17607V4.17906V4.18206V4.18508V4.18811V4.19116V4.19423V4.19732V4.20042V4.20354V4.20668V4.20983V4.213V4.21619V4.21939V4.22261V4.22585V4.2291V4.23237V4.23566V4.23896V4.24228V4.24561V4.24896V4.25233V4.25571V4.25911V4.26252V4.26595V4.2694V4.27286V4.27634V4.27984V4.28335V4.28687V4.29041V4.29397V4.29754V4.30113V4.30473V4.30835V4.31199V4.31564V4.3193V4.32298V4.32668V4.33039V4.33411V4.33785V4.34161V4.34538V4.34916V4.35297V4.35678V4.36061V4.36446V4.36832V4.37219V4.37608V4.37998V4.3839V4.38783V4.39178V4.39574V4.39972V4.40371V4.40771V4.41173V4.41576V4.41981V4.42387V4.42795V4.43203V4.43614V4.44026V4.44439V4.44853V4.45269V4.45686V4.46105V4.46525V4.46946V4.47369V4.47793V4.48218V4.48645V4.49073V4.49502V4.49933V4.50365V4.50799V4.51233V4.51669V4.52107V4.52545V4.52985V4.53426V4.53869V4.54313V4.54758V4.55204V4.55652V4.56101V4.56551V4.57002V4.57455V4.57909V4.58364V4.5882V4.59278V4.59737V4.60197V4.60658V4.61121V4.61585V4.6205V4.62516V4.62983V4.63452V4.63922V4.64393V4.64865V4.65338V4.65813V4.66288V4.66765V4.67243V4.67722V4.68203V4.68684V4.69167V4.6965V4.70135V4.70621V4.71108V4.71597V4.72086V4.72577V4.73068V4.73561V4.74055V4.7455V4.75046V4.75543V4.76041V4.7654V4.77041V4.77542V4.78045V4.78548V4.79053V4.79558V4.80065V4.80573V4.81081V4.81591V4.82102V4.82614V4.83127V4.83641V4.84156V4.84671V4.85188V4.85706V4.86225V4.86745V4.87266V4.87788V4.88311V4.88834V4.89359V4.89885V4.90412V4.90939V4.91468V4.91997V4.92528V4.93059V4.93592V4.94125V4.94659V4.95194V4.9573V4.96267V4.96805V4.97344V4.97884V4.98424V4.98966V4.99508V5.00051V5.00595V5.0114V5.01686V5.02233V5.0278V5.03329V5.03878V5.04428V5.04979V5.05531V5.06083V5.06637V5.07191V5.07746V5.08302V5.08858V5.09416V5.09974V5.10533V5.11093V5.11654V5.12215V5.12777V5.1334V5.13904V5.14469V5.15034V5.156V5.16167V5.16734V5.17303V5.17872V5.18441V5.19012V5.19583V5.20155V5.20727V5.21301V5.21875V5.2245V5.23025V5.23601V5.24178V5.24756V5.25334V5.25913V5.26492V5.27072V5.27653V5.28235V5.28817V5.294V5.29983V5.30567V5.31152V5.31738V5.32324V5.3291V5.33497V5.34085V5.34674V5.35263V5.35853V5.36443V5.37034V5.37625V5.38217V5.3881V5.39403V5.39997V5.40591V5.41186V5.41781V5.42377V5.42974V5.43571V5.44169V5.44767V5.45366V5.45965V5.46564V5.47165V5.47765V5.48367V5.48969V5.49571V5.50174V5.50777V5.51381V5.51985V5.5259V5.53195V5.538V5.54406V5.55013V5.5562V5.56228V5.56835V5.57444V5.58053V5.58662V5.59271V5.59882V5.60492V5.61103V5.61714V5.62326V5.62938V5.63551V5.64164V5.64777V5.65391V5.66005V5.66619V5.67234V5.67849V5.68465V5.69081V5.69697V5.70313V5.7093V5.71548V5.72165V5.72783V5.73402V5.7402V5.74639V5.75258V5.75878V5.76498V5.77118V5.77738V5.78359V5.7898V5.79601V5.80223V5.80845V5.81467V5.82089V5.82712V5.83335V5.83958V5.84581V5.85205V5.85829V5.86453V5.87077V5.87702V5.88327V5.88952V5.89577V5.90202V5.90828V5.91454V5.9208V5.92706V5.93332V5.93959V5.94586V5.95213V5.9584V5.96467V5.97094V5.97722V5.9835V5.98978V5.99606V6.00234V6.00862V6.0149V6.02119V6.02748V6.03376V6.04005V6.04634V6.05263C2.38889 6.98081 2.14456 7.78517 1.90507 8.35238C1.88353 8.40341 1.86197 8.45264 1.84056 8.5H4H6Z" fill="#64727D"/>
</svg>
