<svg width="42" height="42" viewBox="0 0 42 42" fill="none" xmlns="http://www.w3.org/2000/svg">
<g clip-path="url(#clip0_416_10786)">
<path d="M31.4883 8.73779H9.89681C8.89179 8.73779 8.07715 9.55243 8.07715 10.5575V32.1489C8.07715 33.1539 8.89179 33.9686 9.89681 33.9686H21.5549V24.2114H18.2779V20.3922H21.5549V17.5816C21.5549 14.3223 23.5447 12.5482 26.4522 12.5482C27.8447 12.5482 29.0414 12.652 29.3902 12.6984V16.105H27.3854C25.8035 16.105 25.4972 16.8567 25.4972 17.9599V20.3922H29.2794L28.7866 24.2114H25.4972V33.9686H31.4883C32.4933 33.9686 33.3079 33.1539 33.3079 32.1489V10.5575C33.3079 9.55243 32.4933 8.73779 31.4883 8.73779V8.73779Z" fill="white"/>
</g>
<rect x="0.980844" y="1.64149" width="39.4231" height="39.4231" rx="5.51923" stroke="white" stroke-width="1.57692"/>
<defs>
<clipPath id="clip0_416_10786">
<rect width="25.2308" height="25.2308" fill="white" transform="translate(8.07715 8.73779)"/>
</clipPath>
</defs>
</svg>
