<svg width="41" height="42" viewBox="0 0 41 42" fill="none" xmlns="http://www.w3.org/2000/svg">
<g clip-path="url(#clip0_416_10781)">
<path d="M29.4196 8.73779H11.5807C9.54292 8.73779 7.88477 10.3959 7.88477 12.4337V30.2726C7.88477 32.3104 9.54292 33.9686 11.5807 33.9686H29.4196C31.4574 33.9686 33.1155 32.3104 33.1155 30.2726V12.4337C33.1155 10.3959 31.4574 8.73779 29.4196 8.73779ZM20.5494 27.9565C16.881 27.9565 13.8968 24.9723 13.8968 21.3039C13.8968 17.6355 16.881 14.6513 20.5494 14.6513C24.2178 14.6513 27.2021 17.6355 27.2021 21.3039C27.2021 24.9723 24.2178 27.9565 20.5494 27.9565ZM27.9413 16.1296C26.7185 16.1296 25.7237 15.1348 25.7237 13.9121C25.7237 12.6893 26.7185 11.6945 27.9413 11.6945C29.164 11.6945 30.1588 12.6893 30.1588 13.9121C30.1588 15.1348 29.164 16.1296 27.9413 16.1296Z" fill="white"/>
<path d="M27.9413 13.1733C27.5334 13.1733 27.2021 13.5046 27.2021 13.9125C27.2021 14.3204 27.5334 14.6517 27.9413 14.6517C28.3492 14.6517 28.6805 14.3204 28.6805 13.9125C28.6805 13.5046 28.3492 13.1733 27.9413 13.1733Z" fill="white"/>
<path d="M20.5493 16.1299C17.6965 16.1299 15.375 18.4514 15.375 21.3042C15.375 24.1569 17.6965 26.4784 20.5493 26.4784C23.4021 26.4784 25.7236 24.1569 25.7236 21.3042C25.7236 18.4514 23.4021 16.1299 20.5493 16.1299Z" fill="white"/>
</g>
<rect x="0.788462" y="1.64149" width="39.4231" height="39.4231" rx="5.51923" stroke="white" stroke-width="1.57692"/>
<defs>
<clipPath id="clip0_416_10781">
<rect width="25.2308" height="25.2308" fill="white" transform="translate(7.88477 8.73779)"/>
</clipPath>
</defs>
</svg>
