<svg width="113" height="57" viewBox="0 0 113 57" fill="none" xmlns="http://www.w3.org/2000/svg">
<g clip-path="url(#clip0_416_10772)">
<path d="M101.959 31.2446L88.6488 44.3772C88.3854 44.637 88.3854 45.0583 88.6488 45.3181L97.4418 53.9936C97.7051 54.2535 98.1321 54.2535 98.3955 53.9936L111.706 40.8611C111.969 40.6013 111.969 40.18 111.706 39.9201L102.913 31.2446C102.65 30.9847 102.223 30.9848 101.959 31.2446Z" stroke="white"/>
<path d="M76.2768 19.7985L76.426 19.9667H76.6508H86.5338V37.8704H76.6569H76.5249L76.4101 37.9356L50.5729 52.6066C50.5723 52.6069 50.5718 52.6072 50.5712 52.6076C50.4962 52.6485 50.4048 52.6563 50.3283 52.6304L50.3272 52.63L39.3946 48.9602L39.3801 48.9553L39.3654 48.9514C39.1588 48.8958 38.9073 48.9278 38.7103 49.1004L38.7063 49.1041L30.7663 56.2208L30.763 56.2239C30.564 56.4055 30.2414 56.3865 30.0633 56.178L30.0626 56.1771L22.0371 46.8247L22.0314 46.818L22.0254 46.8115C21.8153 46.5835 21.4848 46.523 21.2123 46.6471L21.2089 46.6486L12.4081 50.7342L12.4078 50.7343L7.93726 52.8071L7.9372 52.807L7.92639 52.8123L7.87389 52.8382C5.04535 52.7964 2.6057 51.214 1.37581 48.9039L1.37095 48.8948L1.36571 48.8859C1.31067 48.7921 1.26427 48.696 1.20809 48.579L1.20323 48.5689L1.19793 48.559C1.10379 48.3836 1.02748 48.1972 0.950444 47.9926L0.950024 47.9915C0.654926 47.2132 0.5 46.3575 0.5 45.463V44.6652C0.565795 43.9164 0.710327 42.8738 0.884428 41.618C1.33306 38.382 1.97805 33.7296 1.97805 29.036C1.97805 24.3426 1.33346 19.5253 0.884808 16.1723C0.710586 14.8703 0.56591 13.7891 0.5 13.0217V12.374C0.5 8.37564 3.85053 5.80654 8.07166 4.98888L8.07169 4.98888C9.7496 4.66374 12.4273 4.28584 14.6966 3.98816C15.8289 3.83963 16.8556 3.71158 17.5992 3.62066C17.971 3.5752 18.272 3.53903 18.4799 3.51424L18.7192 3.48584L18.7813 3.47853L18.7971 3.47668L18.8011 3.47622L18.802 3.4761L18.8023 3.47608L18.7443 2.97944L18.8023 3.47614L18.811 3.47498C18.976 3.45278 19.1356 3.48237 19.2768 3.56096L19.2775 3.56133L31.519 10.3503C31.8477 10.5391 32.2759 10.4294 32.4689 10.0908L32.4704 10.0882L35.9029 3.98379L35.9033 3.98307C36.0273 3.76159 36.3104 3.66981 36.5529 3.78941L36.5532 3.78957L46.7714 8.82139C47.0123 8.95271 47.2728 8.91056 47.4545 8.80301L47.4546 8.80308L47.4622 8.79837L59.4249 1.42384C59.4252 1.42365 59.4255 1.42345 59.4258 1.42325C59.6379 1.29465 59.9056 1.33856 60.0594 1.51366L60.061 1.51546L76.2768 19.7985Z" stroke="white"/>
<path d="M20.9856 21.8779L23.2576 25.9696L25.9206 21.8779H30.5013L21.0894 36.4127H16.5087L20.8634 29.6937L15.9346 21.8779H20.9917H20.9856Z" fill="white"/>
<path d="M41.1834 21.8779V25.6261H35.9858V26.9097H40.3222C41.8613 26.9097 43.0707 27.2773 43.944 28.0185C44.8174 28.7597 45.2572 29.8203 45.2572 31.2062C45.2572 31.9414 45.1778 32.6224 45.019 33.2611C44.8602 33.8999 44.5976 34.4543 44.225 34.9183C43.8524 35.3883 43.3638 35.7559 42.7592 36.015C42.1545 36.2802 41.4094 36.4127 40.5299 36.4127H31.6982V21.8779H41.1895H41.1834ZM39.4916 32.8514C39.7115 32.8514 39.913 32.8333 40.1024 32.8031C40.2856 32.767 40.4444 32.7007 40.5787 32.5983C40.707 32.4958 40.8108 32.3512 40.8902 32.1584C40.9635 31.9655 41.0063 31.7185 41.0063 31.4051C41.0063 30.6338 40.5665 30.2421 39.687 30.2421H35.9308V32.8453H39.5038L39.4916 32.8514Z" fill="white"/>
<path d="M57.7531 28.0907C57.4783 27.1928 57.0263 26.4938 56.4033 25.9816C55.7742 25.4754 55.0474 25.2163 54.2046 25.2163C53.093 25.2163 52.2013 25.5477 51.5355 26.2166C50.8698 26.8795 50.5339 27.8135 50.5339 29.0067C50.5339 29.6033 50.6194 30.1516 50.7843 30.6458C50.9492 31.1399 51.1874 31.5677 51.505 31.9172C51.8226 32.2728 52.2013 32.544 52.6471 32.7428C53.093 32.9417 53.606 33.0381 54.1863 33.0381C54.571 33.0381 54.9558 32.9718 55.3406 32.8332C55.7254 32.7006 56.0857 32.5018 56.4155 32.2547C56.7454 32.0016 57.0324 31.7063 57.2828 31.3568C57.5332 31.0133 57.7104 30.6217 57.8203 30.1878H61.7597C61.6742 31.1218 61.4116 31.9956 60.9657 32.8031C60.5199 33.6106 59.9457 34.3096 59.2556 34.9001C58.5593 35.4907 57.7775 35.9547 56.9041 36.2861C56.0308 36.6176 55.1268 36.7863 54.1924 36.7863C52.9953 36.7863 51.9081 36.5874 50.9309 36.1837C49.9537 35.786 49.123 35.2316 48.4329 34.5326C47.7427 33.8335 47.2113 33.008 46.8327 32.0619C46.454 31.1098 46.2646 30.0853 46.2646 28.9886C46.2646 27.9581 46.454 26.9879 46.8327 26.078C47.2113 25.1681 47.7488 24.3726 48.4451 23.6977C49.1413 23.0168 49.9781 22.4805 50.9553 22.0767C51.9325 21.679 53.0136 21.4741 54.1924 21.4741C55.1818 21.4741 56.1163 21.6248 57.0019 21.92C57.8814 22.2213 58.6631 22.6552 59.3411 23.2217C60.019 23.7941 60.5809 24.4871 61.0207 25.3067C61.4604 26.1262 61.7353 27.0542 61.8452 28.0847H57.7592L57.7531 28.0907Z" fill="white"/>
</g>
<defs>
<clipPath id="clip0_416_10772">
<rect width="113" height="56" fill="white" transform="translate(0 0.853027)"/>
</clipPath>
</defs>
</svg>
