<svg width="95" height="48" viewBox="0 0 95 48" fill="none" xmlns="http://www.w3.org/2000/svg">
<path d="M82.7906 45.3071L75.2323 37.7722C75.209 37.7489 75.209 37.7022 75.2323 37.6789L86.593 26.3183C86.6163 26.2949 86.663 26.2949 86.6863 26.3183L94.2445 33.8765C94.2678 33.8998 94.2678 33.9465 94.2445 33.9698L82.8839 45.3305C82.8605 45.3305 82.8139 45.3304 82.7906 45.3071Z" fill="#AFD85A"/>
<path d="M64.8513 15.9603V32.1731L42.9932 44.7468C42.8299 44.8401 42.6199 44.8634 42.4333 44.7935L33.1955 41.6442C33.1488 41.6209 33.0788 41.6442 33.0322 41.6675L26.3138 47.7794C25.9639 48.106 25.4273 48.0594 25.1241 47.7094L18.3123 39.708C18.2657 39.6613 18.1724 39.638 18.1024 39.6613L10.6608 43.1605L6.88171 44.9334L6.74174 45.0034C4.15235 45.0034 1.88955 43.5338 0.769819 41.4109C0.723163 41.3176 0.676506 41.2243 0.62985 41.1077C0.536539 40.921 0.466556 40.7578 0.396572 40.5711C0.139966 39.848 0 39.0548 0 38.2617V37.5618C0.20995 35.2057 1.2597 29.747 1.2597 24.1717C1.2597 18.5963 0.20995 12.881 0 10.4549V9.87171C0 6.13926 3.1026 3.82981 6.76507 3.10665C9.63439 2.54678 15.8629 1.80029 15.8629 1.80029C16.0962 1.77696 16.3061 1.82361 16.5161 1.91692L26.8736 7.74888C26.9436 7.79554 27.0603 7.77221 27.1069 7.6789L30.0229 2.45346C30.2329 2.05689 30.7227 1.91692 31.1193 2.10354L39.7739 6.44252C39.8206 6.46585 39.8906 6.46585 39.9372 6.44252L50.0615 0.12068C50.4114 -0.0892708 50.8546 -0.0192845 51.1346 0.283977L64.8513 15.9603Z" fill="#AFD85A"/>
<path d="M73.5527 32.1738H62.8686C62.8219 32.1738 62.7986 32.1504 62.7986 32.1038V16.0309C62.7986 15.9843 62.8219 15.9609 62.8686 15.9609H73.5527C73.5994 15.9609 73.6227 15.9843 73.6227 16.0309V32.1038C73.6227 32.1271 73.5994 32.1738 73.5527 32.1738Z" fill="#AFD85A"/>
<path d="M17.729 18.0156L19.6418 21.5148L21.9046 18.0156H25.7771L17.8223 30.496H13.9498L17.6356 24.734L13.46 18.039H17.729V18.0156Z" fill="#020203"/>
<path d="M34.8282 18.0156V21.2349H30.4426V22.3313H34.1051C35.4114 22.3313 36.4379 22.6579 37.161 23.2877C37.9075 23.9176 38.2808 24.8273 38.2808 26.0171C38.2808 26.6469 38.2108 27.2301 38.0708 27.79C37.9308 28.3265 37.7209 28.8164 37.3943 29.213C37.091 29.6096 36.6711 29.9361 36.1579 30.1461C35.6447 30.3794 35.0149 30.496 34.2684 30.496H26.8035V18.039H34.8282V18.0156ZM33.4052 27.4401C33.5919 27.4401 33.7552 27.4167 33.9185 27.3934C34.0817 27.3701 34.1984 27.3001 34.315 27.2301C34.4317 27.1368 34.5017 27.0202 34.5716 26.8569C34.6416 26.6936 34.6649 26.4836 34.6649 26.2037C34.6649 25.5505 34.2917 25.2006 33.5452 25.2006H30.3726V27.4401H33.4052Z" fill="#020203"/>
<path d="M48.8483 23.3563C48.615 22.5864 48.2418 21.9799 47.7052 21.56C47.1687 21.1168 46.5622 20.9068 45.839 20.9068C44.9059 20.9068 44.1361 21.1868 43.5762 21.77C43.0163 22.3298 42.7364 23.1463 42.7364 24.1727C42.7364 24.686 42.8064 25.1525 42.9464 25.5724C43.0863 25.9923 43.2963 26.3656 43.5529 26.6688C43.8095 26.9721 44.1361 27.2054 44.5327 27.3687C44.9059 27.5319 45.3491 27.6253 45.839 27.6253C46.1656 27.6253 46.4922 27.5786 46.8188 27.462C47.1454 27.3453 47.4486 27.182 47.7286 26.9721C48.0085 26.7621 48.2418 26.5055 48.4517 26.2023C48.6617 25.899 48.8016 25.5724 48.895 25.1992H52.2308C52.1609 25.9923 51.9276 26.7388 51.5543 27.4386C51.1811 28.1385 50.6912 28.7217 50.108 29.2349C49.5248 29.7481 48.8483 30.1447 48.1251 30.4246C47.3786 30.7045 46.6322 30.8445 45.839 30.8445C44.8359 30.8445 43.9028 30.6812 43.0863 30.3313C42.2699 29.9814 41.5467 29.5148 40.9635 28.9083C40.3803 28.3018 39.9371 27.6019 39.6105 26.7855C39.2839 25.969 39.1206 25.0825 39.1206 24.1494C39.1206 23.263 39.2839 22.4232 39.6105 21.6533C39.9371 20.8835 40.3803 20.1837 40.9635 19.6005C41.5467 19.0173 42.2699 18.5507 43.0863 18.2241C43.9028 17.8742 44.8359 17.7109 45.839 17.7109C46.6788 17.7109 47.472 17.8276 48.2185 18.0842C48.9649 18.3408 49.6181 18.714 50.2013 19.2039C50.7845 19.6938 51.2511 20.3003 51.6243 21.0002C51.9976 21.7 52.2308 22.4931 52.3241 23.3796H48.8483V23.3563Z" fill="#020203"/>
</svg>
