<svg width="98" height="50" viewBox="0 0 98 50" fill="none" xmlns="http://www.w3.org/2000/svg">
<g clip-path="url(#clip0_416_10637)">
<path d="M88.3319 26.9776L76.7884 38.3365C76.5087 38.6116 76.5088 39.0578 76.7884 39.3329L84.4141 46.8367C84.6938 47.1119 85.1472 47.1119 85.4268 46.8367L96.9703 35.4778C97.2499 35.2027 97.25 34.7566 96.9703 34.4814L89.3446 26.9776C89.0649 26.7024 88.6115 26.7024 88.3319 26.9776Z" stroke="#87BC1E" stroke-width="1.12644"/>
<path d="M66.0551 17.2559L66.2231 17.4449H66.4759H74.9174V32.669H66.4812H66.3328L66.2037 32.7422L43.7974 45.4311C43.7969 45.4314 43.7964 45.4317 43.7959 45.4319C43.7618 45.4502 43.72 45.4529 43.6887 45.4424L43.6874 45.4419L34.206 42.2677L34.1897 42.2623L34.1732 42.2578C33.9584 42.2002 33.6945 42.2328 33.4869 42.4144L33.4869 42.4143L33.4823 42.4184L26.5964 48.574L26.5926 48.5774C26.4742 48.6852 26.2779 48.6745 26.1706 48.5493L26.1698 48.5483L19.2097 40.459L19.2032 40.4515L19.1965 40.4442C18.9755 40.2051 18.6291 40.1421 18.3433 40.2719L18.3396 40.2736L10.707 43.8073L10.7067 43.8074L6.82965 45.6003L6.82958 45.6002L6.81741 45.6062L6.79981 45.6148C4.40724 45.5684 2.34737 44.2295 1.30728 42.2812L1.30178 42.2709L1.29586 42.2608C1.25132 42.1851 1.21333 42.1069 1.16429 42.005L1.1588 41.9936L1.1528 41.9825C1.07533 41.8385 1.01157 41.6837 0.945385 41.5083L0.94491 41.5071C0.694929 40.8496 0.563218 40.1254 0.563218 39.367V38.6828C0.61973 38.0444 0.743783 37.1519 0.893487 36.0748C1.28262 33.2749 1.84507 29.2282 1.84507 25.1586C1.84507 21.0894 1.28316 16.9007 0.894009 13.9997C0.744125 12.8824 0.61987 11.9562 0.563218 11.3014V10.7469C0.563218 7.38165 3.38936 5.18985 7.02457 4.48757L7.0246 4.48757C8.47543 4.20719 10.794 3.88077 12.7624 3.62326C13.7439 3.49485 14.634 3.38414 15.2786 3.30552C15.6009 3.26622 15.8618 3.23496 16.042 3.21352L16.2494 3.18898L16.3032 3.18267L16.3168 3.18107L16.3202 3.18067L16.3211 3.18058L16.3213 3.18055L16.2562 2.62116L16.3213 3.18063L16.3311 3.17933C16.4476 3.16369 16.5581 3.18455 16.6555 3.23864L16.6563 3.23906L27.272 9.11068C27.6176 9.30806 28.0676 9.19342 28.2712 8.8373L28.2728 8.83439L31.2496 3.55446L31.2501 3.55364C31.3229 3.42395 31.4934 3.36513 31.6439 3.43921L31.6443 3.43938L40.5036 7.79041C40.7585 7.92792 41.0321 7.88235 41.2207 7.77101L41.2207 7.77109L41.2293 7.7658L51.6035 1.3876C51.6038 1.38738 51.6042 1.38716 51.6045 1.38695C51.7363 1.30756 51.8992 1.33701 51.99 1.44014L51.9918 1.44216L66.0551 17.2559ZM75.3323 17.4449C75.3306 17.4449 75.3288 17.4449 75.327 17.4449H75.3323Z" stroke="#87BC1E" stroke-width="1.12644"/>
<path d="M18.1999 18.9669L20.1703 22.506L22.4797 18.9669H26.4524L18.2899 31.5387H14.3172L18.0939 25.7271L13.8193 18.9669H18.2052H18.1999Z" fill="#87BC1E"/>
<path d="M35.7163 18.9669V22.2089H31.2086V23.3191H34.9694C36.3043 23.3191 37.353 23.637 38.1105 24.2781C38.8679 24.9192 39.2493 25.8366 39.2493 27.0354C39.2493 27.6712 39.1805 28.2602 39.0427 28.8127C38.905 29.3652 38.6773 29.8447 38.3542 30.2461C38.031 30.6526 37.6073 30.9705 37.0829 31.1947C36.5585 31.424 35.9123 31.5387 35.1495 31.5387H27.4902V18.9669H35.7216H35.7163ZM34.2491 28.4583C34.4398 28.4583 34.6145 28.4426 34.7788 28.4166C34.9377 28.3853 35.0754 28.328 35.1919 28.2394C35.3031 28.1508 35.3932 28.0257 35.462 27.8589C35.5256 27.6921 35.5627 27.4784 35.5627 27.2074C35.5627 26.5402 35.1813 26.2014 34.4186 26.2014H31.161V28.4531H34.2597L34.2491 28.4583Z" fill="#87BC1E"/>
<path d="M50.0875 24.3407C49.8491 23.564 49.4571 22.9594 48.9169 22.5164C48.3713 22.0786 47.7409 21.8545 47.01 21.8545C46.0459 21.8545 45.2726 22.1411 44.6952 22.7197C44.1179 23.293 43.8265 24.1009 43.8265 25.1329C43.8265 25.6489 43.9007 26.1232 44.0437 26.5506C44.1867 26.978 44.3933 27.3481 44.6688 27.6504C44.9442 27.9579 45.2726 28.1925 45.6593 28.3645C46.0459 28.5365 46.4909 28.6199 46.9941 28.6199C47.3278 28.6199 47.6615 28.5625 47.9952 28.4426C48.3289 28.328 48.6414 28.156 48.9275 27.9423C49.2135 27.7234 49.4624 27.468 49.6796 27.1657C49.8968 26.8686 50.0504 26.5298 50.1457 26.1545H53.5622C53.4881 26.9624 53.2603 27.7182 52.8736 28.4166C52.487 29.115 51.989 29.7196 51.3905 30.2304C50.7867 30.7412 50.1087 31.1426 49.3512 31.4292C48.5937 31.7159 47.8098 31.8618 46.9994 31.8618C45.9612 31.8618 45.0183 31.6898 44.1708 31.3406C43.3233 30.9966 42.603 30.5171 42.0044 29.9125C41.4059 29.3079 40.945 28.5938 40.6166 27.7755C40.2882 26.952 40.124 26.0659 40.124 25.1173C40.124 24.226 40.2882 23.3868 40.6166 22.5998C40.945 21.8128 41.4112 21.1247 42.015 20.541C42.6189 19.952 43.3445 19.4881 44.192 19.1389C45.0395 18.7949 45.9771 18.6177 46.9994 18.6177C47.8575 18.6177 48.6679 18.748 49.436 19.0034C50.1987 19.264 50.8767 19.6393 51.4647 20.1292C52.0526 20.6244 52.5399 21.2238 52.9213 21.9326C53.3027 22.6415 53.541 23.4442 53.6364 24.3354H50.0928L50.0875 24.3407Z" fill="#87BC1E"/>
</g>
<defs>
<clipPath id="clip0_416_10637">
<rect width="98" height="48.4368" fill="white" transform="translate(0 0.781609)"/>
</clipPath>
</defs>
</svg>
