<svg width="41" height="41" viewBox="0 0 41 41" fill="none" xmlns="http://www.w3.org/2000/svg">
<g clip-path="url(#clip0_1311_10644)">
<path d="M33.1148 16.2945C33.1148 17.9579 32.6215 19.5838 31.6974 20.9669C30.7733 22.3499 29.4599 23.4278 27.9231 24.0643C26.3864 24.7009 24.6954 24.8674 23.0641 24.5429C21.4327 24.2184 19.9342 23.4174 18.758 22.2413C17.5818 21.0651 16.7809 19.5666 16.4564 17.9352C16.1319 16.3039 16.2984 14.6129 16.9349 13.0762C17.5715 11.5394 18.6494 10.226 20.0324 9.30186C21.4154 8.37776 23.0414 7.88452 24.7048 7.88452C26.9345 7.88696 29.0722 8.77379 30.6488 10.3504C32.2255 11.9271 33.1123 14.0648 33.1148 16.2945ZM12.0898 7.88452H9.98727C9.42965 7.88452 8.89487 8.10603 8.50057 8.50033C8.10628 8.89462 7.88477 9.4294 7.88477 9.98702V29.9608C7.88477 30.5184 8.10628 31.0532 8.50057 31.4475C8.89487 31.8418 9.42965 32.0633 9.98727 32.0633H12.0898C12.6474 32.0633 13.1822 31.8418 13.5765 31.4475C13.9708 31.0532 14.1923 30.5184 14.1923 29.9608V9.98702C14.1923 9.4294 13.9708 8.89462 13.5765 8.50033C13.1822 8.10603 12.6474 7.88452 12.0898 7.88452Z" fill="white"/>
</g>
<rect x="0.788462" y="0.788462" width="39.4231" height="39.4231" rx="5.51923" stroke="white" stroke-width="1.57692"/>
<defs>
<clipPath id="clip0_1311_10644">
<rect width="25.23" height="25.23" fill="white" transform="translate(7.88477 7.88452)"/>
</clipPath>
</defs>
</svg>
