<svg width="11" height="10" viewBox="0 0 11 10" fill="none" xmlns="http://www.w3.org/2000/svg">
<path fill-rule="evenodd" clip-rule="evenodd" d="M8 4.5C8 6.433 6.433 8 4.5 8C2.567 8 1 6.433 1 4.5C1 2.567 2.567 1 4.5 1C6.433 1 8 2.567 8 4.5ZM7.68198 7.68198C6.86764 8.49632 5.74264 9 4.5 9C2.01472 9 0 6.98528 0 4.5C0 2.01472 2.01472 0 4.5 0C6.98528 0 9 2.01472 9 4.5C9 5.38054 8.74709 6.20201 8.30995 6.89574L10.3536 8.93934C10.5488 9.1346 10.5488 9.45118 10.3536 9.64645C10.1583 9.84171 9.84171 9.84171 9.64645 9.64645L7.68198 7.68198Z" fill="#64727D"/>
</svg>
