<svg width="42" height="42" viewBox="0 0 42 42" fill="none" xmlns="http://www.w3.org/2000/svg">
<g clip-path="url(#clip0_416_10789)">
<path d="M18.1696 24.6972L17.7523 30.5676C18.3494 30.5676 18.608 30.3111 18.9182 30.003L21.7177 27.3275L27.5187 31.5758C28.5826 32.1687 29.3322 31.8564 29.6192 30.597L33.4269 12.7547L33.4279 12.7536C33.7654 11.1809 32.8592 10.5659 31.8226 10.9517L9.44085 19.5207C7.91333 20.1136 7.93646 20.9652 9.18118 21.351L14.9033 23.1308L28.1947 14.8141C28.8202 14.3999 29.3889 14.6291 28.9211 15.0433L18.1696 24.6972Z" fill="white"/>
</g>
<rect x="1.17323" y="1.64149" width="39.4231" height="39.4231" rx="5.51923" stroke="white" stroke-width="1.57692"/>
<defs>
<clipPath id="clip0_416_10789">
<rect width="25.2308" height="25.2308" fill="white" transform="translate(8.26953 8.73779)"/>
</clipPath>
</defs>
</svg>
