<svg width="41" height="41" viewBox="0 0 41 41" fill="none" xmlns="http://www.w3.org/2000/svg">
<g clip-path="url(#clip0_1311_10639)">
<path d="M33 15.5544V20.184C33 20.4296 32.8987 20.6651 32.7184 20.8387C32.538 21.0124 32.2935 21.1099 32.0385 21.1099C30.0298 21.1144 28.0501 20.6493 26.2692 19.7546V24.3507C26.2692 26.6836 25.3068 28.921 23.5938 30.5706C21.8807 32.2202 19.5573 33.147 17.1346 33.147C14.712 33.147 12.3885 32.2202 10.6755 30.5706C8.96239 28.921 8 26.6836 8 24.3507C8 20.0798 11.2344 16.3044 15.524 15.5683C15.6624 15.5446 15.8045 15.5504 15.9403 15.5853C16.0761 15.6202 16.2023 15.6834 16.31 15.7703C16.4177 15.8573 16.5043 15.9659 16.5637 16.0886C16.6232 16.2112 16.6539 16.345 16.6538 16.4803V21.4213C16.6539 21.5965 16.6023 21.7682 16.5051 21.9163C16.4079 22.0644 16.269 22.1829 16.1046 22.2581C15.7159 22.4356 15.3838 22.7102 15.143 23.0534C14.9021 23.3966 14.7613 23.7958 14.7352 24.2092C14.7091 24.6227 14.7987 25.0353 14.9946 25.404C15.1906 25.7728 15.4857 26.0842 15.8492 26.3057C16.2126 26.5272 16.6312 26.6507 17.0611 26.6633C17.4911 26.676 17.9167 26.5773 18.2935 26.3776C18.6704 26.1779 18.9847 25.8845 19.2037 25.528C19.4226 25.1715 19.5383 24.7649 19.5385 24.3507V9.0729C19.5385 8.82733 19.6398 8.59181 19.8201 8.41817C20.0004 8.24453 20.245 8.14697 20.5 8.14697H25.3077C25.5627 8.14697 25.8073 8.24453 25.9876 8.41817C26.1679 8.59181 26.2692 8.82733 26.2692 9.0729C26.2708 10.5459 26.8792 11.958 27.9608 12.9996C29.0424 14.0411 30.5089 14.6269 32.0385 14.6285C32.2935 14.6285 32.538 14.726 32.7184 14.8997C32.8987 15.0733 33 15.3088 33 15.5544Z" fill="white"/>
</g>
<rect x="0.788462" y="0.788462" width="39.4231" height="39.4231" rx="5.51923" stroke="white" stroke-width="1.57692"/>
<defs>
<clipPath id="clip0_1311_10639">
<rect width="25.23" height="25.23" fill="white" transform="translate(7.88477 7.88452)"/>
</clipPath>
</defs>
</svg>
