<svg width="42" height="42" viewBox="0 0 42 42" fill="none" xmlns="http://www.w3.org/2000/svg">
<g clip-path="url(#clip0_416_10792)">
<path d="M33.2567 15.389C32.9478 14.0472 31.8503 13.0572 30.529 12.9095C27.4003 12.5603 24.2335 12.5585 21.0813 12.5603C17.9286 12.5585 14.7613 12.5603 11.6326 12.9095C10.3121 13.0572 9.21539 14.0472 8.9065 15.389C8.46686 17.2999 8.46191 19.3858 8.46191 21.3532C8.46191 23.3206 8.46191 25.4063 8.90155 27.3169C9.20992 28.6585 10.3069 29.6484 11.6282 29.7964C14.7566 30.1459 17.9237 30.1477 21.0764 30.1459C24.2296 30.1477 27.3959 30.1459 30.5241 29.7964C31.8446 29.6487 32.9423 28.6587 33.2512 27.3169C33.6911 25.406 33.6927 23.3204 33.6927 21.3532C33.6927 19.3858 33.6963 17.2999 33.2567 15.389ZM17.8213 25.2693C17.8213 22.4783 17.8213 19.7166 17.8213 16.9254C20.4953 18.3206 23.1516 19.7064 25.8426 21.1102C23.16 22.5015 20.5024 23.879 17.8213 25.2693Z" fill="white"/>
</g>
<rect x="1.36561" y="1.64149" width="39.4231" height="39.4231" rx="5.51923" stroke="white" stroke-width="1.57692"/>
<defs>
<clipPath id="clip0_416_10792">
<rect width="25.2308" height="25.2308" fill="white" transform="translate(8.46191 8.73779)"/>
</clipPath>
</defs>
</svg>
