<svg width="838" height="3581" viewBox="0 0 838 3581" fill="none" xmlns="http://www.w3.org/2000/svg">
<path d="M687 2.5C784 56 884.253 453.051 748.999 492.5C688.998 510 685.966 452.643 716.998 427.5C785.498 372 871.998 422 818.999 525C752.212 654.794 483.499 673.5 337.999 619C277.999 598.5 173.499 586.5 125.499 665C66.9124 760.813 126.702 863.897 173.499 923.5C220.999 984 391.998 1386 173.499 1435C109.498 1444 129.29 1383.94 148.498 1367C203.499 1318.5 318.161 1312.4 457.999 1393.5C571.499 1459.32 637.999 1548 670.499 1610C729.499 1722.56 771.498 1958.5 670.499 2117.5C562.999 2297 261.998 2356.32 148.499 2300C82.9999 2267.5 138.999 2175.5 210.499 2262.5C247.498 2336 145.848 2389 81.9979 2466.5C-14.3942 2583.5 -57.5016 2855.85 160.497 3036.5C362.499 3203.9 582.998 3165.17 652.998 3066C679.822 3028 637.498 2954 571.999 3036.5C505.498 3146.98 555.498 3250.5 619.999 3301C652.998 3326.84 833 3407.5 785.5 3578.5" stroke="#CACFD3" stroke-width="5" stroke-linecap="round" stroke-linejoin="round" stroke-dasharray="10 10"/>
<path fill-rule="evenodd" clip-rule="evenodd" d="M731.669 52.0285C735.596 43.2491 738.403 23.2888 727.383 17.3051C718.314 12.3806 712.42 18.9787 712.756 23.0232L712.811 22.9806C719.776 31.1059 726.334 42.5456 728.313 45.9973C728.37 46.0971 728.424 46.1903 728.473 46.2764L718.488 31.87L712.162 23.7748C707.124 22.2956 698.553 25.3981 699.624 34.5535C700.931 45.7259 713.327 48.2341 724.97 50.59C727.262 51.0537 729.525 51.5116 731.669 52.0285Z" fill="#13AA57"/>
<path fill-rule="evenodd" clip-rule="evenodd" d="M121.332 672.267C117.146 663.608 113.75 643.739 124.588 637.432C133.508 632.242 139.594 638.662 139.378 642.715L139.322 642.674C132.6 651.002 126.383 662.631 124.507 666.14C124.453 666.241 124.402 666.336 124.356 666.423L133.91 651.728L139.993 643.449C144.985 641.821 153.645 644.669 152.845 653.852C151.869 665.058 139.553 667.932 127.984 670.631C125.707 671.163 123.459 671.687 121.332 672.267Z" fill="#13AA57"/>
<path fill-rule="evenodd" clip-rule="evenodd" d="M545.556 1458.95C547.937 1449.63 547.319 1429.48 535.444 1425.45C525.671 1422.14 520.982 1429.64 521.999 1433.57L522.045 1433.52C530.287 1440.34 538.69 1450.5 541.226 1453.57C541.299 1453.66 541.368 1453.74 541.431 1453.82L529.147 1441.31L521.541 1434.41C516.325 1433.81 508.403 1438.32 511.012 1447.16C514.195 1457.95 526.836 1458.32 538.71 1458.66C541.048 1458.73 543.356 1458.8 545.556 1458.95Z" fill="#13AA57"/>
<path fill-rule="evenodd" clip-rule="evenodd" d="M410.921 2298.05C412.552 2288.58 421.344 2270.44 433.829 2271.61C444.103 2272.57 445.32 2281.34 442.788 2284.51L442.766 2284.44C432.455 2287.31 420.634 2293.15 417.068 2294.92C416.965 2294.97 416.868 2295.01 416.779 2295.06L433.099 2288.66L442.862 2285.46C447.869 2287.04 453.258 2294.39 447.267 2301.4C439.955 2309.95 428.265 2305.12 417.284 2300.59C415.122 2299.7 412.988 2298.82 410.921 2298.05Z" fill="#13AA57"/>
<path fill-rule="evenodd" clip-rule="evenodd" d="M559.988 3215.88C565.262 3207.83 571.209 3188.57 561.282 3180.91C553.112 3174.61 546.244 3180.18 545.932 3184.23L545.993 3184.2C551.576 3193.33 556.23 3205.67 557.635 3209.39C557.675 3209.5 557.713 3209.6 557.748 3209.69L550.183 3193.88L545.226 3184.88C540.488 3182.62 531.531 3184.32 531.132 3193.52C530.645 3204.76 542.484 3209.21 553.604 3213.39C555.793 3214.21 557.954 3215.02 559.988 3215.88Z" fill="#13AA57"/>
</svg>
