<svg width="485" height="776" viewBox="0 0 485 776" fill="none" xmlns="http://www.w3.org/2000/svg">
<mask id="mask0" mask-type="alpha" maskUnits="userSpaceOnUse" x="0" y="0" width="485" height="776">
<path d="M0 3.99998C0 1.79084 1.79086 0 4 0H485V776H4.00001C1.79087 776 0 774.209 0 772V3.99998Z" fill="white"/>
</mask>
<g mask="url(#mask0)">
<g filter="url(#filter0_d)">
<path fill-rule="evenodd" clip-rule="evenodd" d="M109.91 482.927C71.515 515.309 65.5649 576.541 39.5611 621.714C30.5089 637.433 18.8123 651.5 12.7097 668.938C-1.30086 708.852 17.9816 754.127 43.7905 785.828C56.0974 800.951 70.4724 814.805 87.8648 821.18C101.24 826.082 115.581 826.286 129.659 826.413L376.306 828.967C403.844 829.247 434.441 828.235 454.241 806.84C467.887 792.108 473.43 770.594 478.134 750.059C483.915 724.825 489.153 697.422 480.16 673.389C469.887 645.892 443.909 630.31 427.771 606.583C401.581 568.141 402.182 509.999 368.83 479.31C353.26 464.988 332.714 459.371 312.695 456.562C274.952 451.26 239.201 461.269 202.136 459.873C170.453 458.681 136.194 460.758 109.91 482.927Z" fill="white"/>
</g>
<path opacity="0.2" fill-rule="evenodd" clip-rule="evenodd" d="M0 322C0 322 31.0169 355 77.5424 355C124.068 355 175.763 375 232.627 418C289.492 461 361.864 449 361.864 449C361.864 449 273.983 419 289.492 379C305 339 428.034 355 428.034 355C428.034 355 468.458 361 485 328V786H4.00001C1.79087 786 0 784.209 0 782V322Z" fill="#C5E6FF"/>
<path fill-rule="evenodd" clip-rule="evenodd" d="M236.301 528.804C236.301 528.804 234.915 542.695 243.409 547.605L244.41 548.215C244.41 548.215 242.858 555.816 229.98 556.872C223.338 545.478 221.542 538.774 221.897 526.704L236.301 528.804Z" fill="#F1CB8F"/>
<path fill-rule="evenodd" clip-rule="evenodd" d="M228.362 461.151C228.362 461.151 257.528 515.904 252.928 526.122C226.567 538.171 206.803 534.793 193.731 528.63C191.093 527.386 184.904 531.062 183.168 528.59C182.454 527.573 177.361 522.007 178.829 518.368C180.297 514.728 185.212 515.658 185.212 515.658C178.489 507.9 171.324 497.137 166.004 484.604L228.362 461.151Z" fill="#F1CB8F"/>
<path fill-rule="evenodd" clip-rule="evenodd" d="M218.692 466.763L229.197 435.891C229.667 434.51 228.806 433.031 227.371 432.76L220.259 431.414L214.961 436.679L203.473 441.556L200.377 441.362L193.994 444.071L187.79 444.199C187 444.215 186.268 444.62 185.834 445.281L167.313 473.492L165.064 474.447C163.313 475.19 162.133 476.859 162.015 478.757L162.361 504.43C162.424 509.159 164.129 513.719 167.183 517.33L185.836 539.382C187.963 541.897 191.718 542.227 194.251 540.123L199.904 535.427C200.409 535.008 200.483 534.261 200.071 533.75L194.6 526.977C194.514 526.871 194.387 526.805 194.251 526.797L188.35 526.427C185.266 526.234 183.276 523.077 184.433 520.211C186.013 516.294 191.22 515.518 193.874 518.803L194.306 519.338L198.87 515.893L189.198 506.421C187.08 504.348 185.472 501.812 184.498 499.014L179.12 483.561L218.692 466.763Z" fill="#393738" stroke="#4A4A4A"/>
<path fill-rule="evenodd" clip-rule="evenodd" d="M227.886 438.733L229.125 445.747L227.264 449.553L234.154 457.185C235.966 459.192 236.501 462.045 235.538 464.572L232.996 471.247L217.805 464.124L227.886 438.733Z" fill="#393738"/>
<path d="M239.843 471.121L227.27 473.442C226.618 473.562 225.992 473.132 225.872 472.48C225.752 471.828 226.183 471.202 226.834 471.082L239.408 468.761C240.06 468.64 240.685 469.071 240.806 469.723C240.926 470.375 240.495 471.001 239.843 471.121Z" fill="#656364"/>
<path d="M209.1 477.951L203.61 486.313C203.246 486.867 202.502 487.021 201.948 486.658C201.394 486.294 201.24 485.55 201.604 484.996L207.093 476.634C207.457 476.08 208.201 475.926 208.755 476.289C209.309 476.653 209.463 477.397 209.1 477.951Z" fill="#656364"/>
<path fill-rule="evenodd" clip-rule="evenodd" d="M247.411 484.732L233.369 490.693C233.369 490.693 226.669 478.457 234.328 475.206C241.987 471.955 247.411 484.732 247.411 484.732Z" fill="white" stroke="#4A4A4A"/>
<path fill-rule="evenodd" clip-rule="evenodd" d="M240.113 483.51C239.761 483.66 238.989 482.637 238.39 481.226C237.791 479.814 237.591 478.549 237.944 478.399C238.296 478.25 239.068 479.273 239.667 480.684C240.266 482.095 240.466 483.361 240.113 483.51Z" fill="#005461" stroke="#005461" stroke-width="1.2"/>
<path fill-rule="evenodd" clip-rule="evenodd" d="M218.05 497.195L201.455 504.239C201.455 504.239 201.68 490.572 205.51 488.946C213.169 485.695 218.05 497.195 218.05 497.195Z" fill="white" stroke="#4A4A4A"/>
<path fill-rule="evenodd" clip-rule="evenodd" d="M212.498 496.536C212.146 496.685 211.374 495.663 210.775 494.251C210.176 492.84 209.976 491.574 210.329 491.425C210.681 491.275 211.452 492.298 212.052 493.709C212.651 495.121 212.851 496.386 212.498 496.536Z" fill="#005461" stroke="#005461" stroke-width="1.2"/>
<path d="M234.996 494.526L240.619 497.562C241.504 498.04 241.444 499.329 240.518 499.722L233.879 502.54L231.868 504.902" stroke="#4A4A4A"/>
<path fill-rule="evenodd" clip-rule="evenodd" d="M238.059 505.29L220.73 514.154C220.73 514.154 235.281 520.041 240.579 514.776L238.059 505.29Z" fill="white" stroke="#4A4A4A"/>
<path fill-rule="evenodd" clip-rule="evenodd" d="M217.29 449.263C225.65 454.762 219.777 469.319 181.322 478.102C202.289 470.71 226.543 460.415 217.29 449.263Z" fill="#656364"/>
<path fill-rule="evenodd" clip-rule="evenodd" d="M168.912 488.337C164.462 499.352 163.826 500.925 179.655 520.063C171.527 506.782 165.265 495.1 168.912 488.337Z" fill="#656364"/>
<path fill-rule="evenodd" clip-rule="evenodd" d="M197.204 450.679C187.667 449.57 186.305 449.411 181.134 463.278C186.105 455.569 190.906 449.384 197.204 450.679Z" fill="#656364"/>
<path fill-rule="evenodd" clip-rule="evenodd" d="M395.255 483.165C364 556 375.84 578.714 294.945 572.236L295 543C317.455 544.277 329 554 341 546C353 538 361.881 518.334 366.132 488.024C366.132 488.024 366.617 485.311 365.8 483.839C363.92 480.452 358.043 473.449 358.043 473.449C358.043 473.449 351.571 463.732 361.279 468.59C370.986 473.449 370.986 468.59 370.986 468.59V451.789C370.986 451.135 371.208 450.493 371.703 450.065C373.683 448.355 379.076 445.518 379.076 465.351L395.255 478.307C395.255 478.307 396.796 481.722 395.255 483.165Z" fill="#F1CB8F"/>
<rect width="6.4716" height="16.1946" rx="2.8" transform="matrix(-1 0 0 1 392.8 464.239)" fill="#E7C184"/>
<rect width="5.6" height="12.6" rx="2.8" transform="matrix(-1 0 0 1 398 471.239)" fill="#E7C184"/>
<rect width="6.4716" height="16.1946" rx="2.8" transform="matrix(-1 0 0 1 387.165 460.493)" fill="#E7C184"/>
<path fill-rule="evenodd" clip-rule="evenodd" d="M179.684 568.217C159.233 561.539 157.133 564.948 147.684 564.217C136.397 563.344 120.352 544.525 107.684 519.217L111.652 508.445C111.652 508.445 118.109 498.657 107.619 503.11L101.394 509.276L94.4931 494.902C94.0887 494.06 92.9888 493.843 92.2944 494.468L84.4826 501.498C83.9684 501.961 83.2702 502.261 82.7584 502.727C81.7125 503.677 79.9862 506.403 78.684 514.217C77.684 526.217 95.684 541.217 95.684 541.217C95.684 541.217 127.684 597.217 171.05 594.216C171.05 594.216 188.643 571.143 179.684 568.217Z" fill="#F1CB8F"/>
<rect x="84.0371" y="499.783" width="6" height="16.1946" rx="2.8" transform="rotate(-24 84.0371 499.783)" fill="#E7C184"/>
<rect x="79.6494" y="505.137" width="6" height="16.1946" rx="2.8" transform="rotate(-24 79.6494 505.137)" fill="#E7C184"/>
<rect x="76.3369" y="509.779" width="5" height="12.6" rx="2.5" transform="rotate(-24 76.3369 509.779)" fill="#E7C184"/>
<rect x="87.9951" y="493.92" width="6" height="16.1946" rx="2.8" transform="rotate(-24 87.9951 493.92)" fill="#E7C184"/>
<path fill-rule="evenodd" clip-rule="evenodd" d="M280 684C280 684 286 744 284 776H244.046L242 730C242 730 234.041 729.181 233 732C224.527 754.929 224.69 774.219 222 776H182.413C182.413 776 176.068 698 191.477 678L280 684Z" fill="#005461"/>
<path fill-rule="evenodd" clip-rule="evenodd" d="M313 582C304 578 302 535 302 535C302 535 297 552 247 542C235 558 222 543 222 543C222 543 209.884 544 199.218 550C188.552 556 166 558 166 558C166 558 172.222 600 166 604C166 604 185.779 594 200 594C214.221 594 203.998 667 180 678C180 678 236.549 717 304.988 681C304.988 681 283.004 645.176 281.014 575.515C289.206 579.255 313 582 313 582Z" fill="url(#paint0_linear)"/>
<path fill-rule="evenodd" clip-rule="evenodd" d="M51.9155 44.491C46.9949 39.5704 39.2936 39.2938 39.2936 39.2938C39.2936 39.2938 39.5702 46.995 44.4908 51.9156C49.4115 56.8363 57.1127 57.1129 57.1127 57.1129C57.1127 57.1129 56.8361 49.4116 51.9155 44.491Z" stroke="white" stroke-width="1.05"/>
<path fill-rule="evenodd" clip-rule="evenodd" d="M55.1818 77.2319C55.1818 80.1314 57.2818 82.4819 57.2818 82.4819C57.2818 82.4819 59.3818 80.1314 59.3818 77.2319C59.3818 74.3324 57.2818 71.9819 57.2818 71.9819C57.2818 71.9819 55.1818 74.3324 55.1818 77.2319Z" fill="white"/>
<path fill-rule="evenodd" clip-rule="evenodd" d="M55.882 39.4316C55.882 42.3311 57.982 44.6816 57.982 44.6816C57.982 44.6816 60.082 42.3311 60.082 39.4316C60.082 36.5321 57.982 34.1816 57.982 34.1816C57.982 34.1816 55.882 36.5321 55.882 39.4316Z" fill="white"/>
<path fill-rule="evenodd" clip-rule="evenodd" d="M76.5312 60.0818C79.4307 60.0818 81.7812 57.9818 81.7812 57.9818C81.7812 57.9818 79.4307 55.8818 76.5312 55.8818C73.6318 55.8818 71.2812 57.9818 71.2812 57.9818C71.2812 57.9818 73.6318 60.0818 76.5312 60.0818Z" fill="white"/>
<path fill-rule="evenodd" clip-rule="evenodd" d="M38.7314 60.7815C41.6309 60.7815 43.9814 58.6815 43.9814 58.6815C43.9814 58.6815 41.6309 56.5815 38.7314 56.5815C35.832 56.5815 33.4814 58.6815 33.4814 58.6815C33.4814 58.6815 35.832 60.7815 38.7314 60.7815Z" fill="white"/>
<path fill-rule="evenodd" clip-rule="evenodd" d="M70.8159 63.3914C65.8953 58.4708 58.194 58.1942 58.194 58.1942C58.194 58.1942 58.4706 65.8954 63.3912 70.816C68.3118 75.7366 76.0131 76.0133 76.0131 76.0133C76.0131 76.0133 75.7365 68.312 70.8159 63.3914Z" stroke="white" stroke-width="1.05"/>
<path fill-rule="evenodd" clip-rule="evenodd" d="M44.491 63.3912C39.5704 68.3118 39.2938 76.013 39.2938 76.013C39.2938 76.013 46.995 75.7364 51.9156 70.8158C56.8363 65.8952 57.1129 58.1939 57.1129 58.1939C57.1129 58.1939 49.4116 58.4706 44.491 63.3912Z" stroke="white" stroke-width="1.05"/>
<path fill-rule="evenodd" clip-rule="evenodd" d="M63.3914 44.4913C58.4708 49.4119 58.1942 57.1131 58.1942 57.1131C58.1942 57.1131 65.8954 56.8365 70.816 51.9159C75.7366 46.9953 76.0133 39.294 76.0133 39.294C76.0133 39.294 68.312 39.5707 63.3914 44.4913Z" stroke="white" stroke-width="1.05"/>
<path fill-rule="evenodd" clip-rule="evenodd" d="M47.7787 63.179C44.9083 66.0493 44.8088 70.6036 44.8088 70.6036C44.8088 70.6036 49.3631 70.5041 52.2334 67.6338C55.1038 64.7634 55.2033 60.2091 55.2033 60.2091C55.2033 60.2091 50.649 60.3086 47.7787 63.179Z" fill="white"/>
<path fill-rule="evenodd" clip-rule="evenodd" d="M63.179 47.7791C60.3087 50.6494 60.2092 55.2037 60.2092 55.2037C60.2092 55.2037 64.7635 55.1042 67.6338 52.2339C70.5042 49.3635 70.6037 44.8092 70.6037 44.8092C70.6037 44.8092 66.0494 44.9087 63.179 47.7791Z" fill="white"/>
<path fill-rule="evenodd" clip-rule="evenodd" d="M63.179 67.6339C66.0493 70.5043 70.6036 70.6038 70.6036 70.6038C70.6036 70.6038 70.5041 66.0495 67.6338 63.1792C64.7634 60.3088 60.2091 60.2093 60.2091 60.2093C60.2091 60.2093 60.3086 64.7636 63.179 67.6339Z" fill="white"/>
<path fill-rule="evenodd" clip-rule="evenodd" d="M47.7786 52.2336C50.6489 55.1039 55.2032 55.2034 55.2032 55.2034C55.2032 55.2034 55.1037 50.6491 52.2334 47.7788C49.363 44.9084 44.8087 44.8089 44.8087 44.8089C44.8087 44.8089 44.9082 49.3632 47.7786 52.2336Z" fill="white"/>
<g clip-path="url(#clip0)">
<path d="M100.253 57.0083C100.253 55.2611 100.665 53.7323 101.488 52.4219C102.311 51.0947 103.42 50.0783 104.815 49.3727C106.226 48.6671 107.788 48.3143 109.502 48.3143C111.316 48.3143 112.837 48.7007 114.063 49.4735C115.289 50.2463 116.23 51.2375 116.885 52.4471L112.601 54.6395C112.316 54.1019 111.896 53.6651 111.341 53.3291C110.804 52.9763 110.191 52.7999 109.502 52.7999C108.712 52.7999 108.007 52.9847 107.385 53.3543C106.763 53.7239 106.276 54.2363 105.923 54.8915C105.587 55.5299 105.419 56.2355 105.419 57.0083C105.419 57.7811 105.587 58.4951 105.923 59.1503C106.276 59.7887 106.763 60.2927 107.385 60.6623C108.007 61.0319 108.712 61.2167 109.502 61.2167C110.039 61.2167 110.552 61.1495 111.039 61.0151C111.526 60.8807 111.929 60.6959 112.249 60.4607V59.7299H108.998V55.5467H117.188V62.3003C115.138 64.5683 112.576 65.7023 109.502 65.7023C107.805 65.7023 106.251 65.3495 104.84 64.6439C103.429 63.9215 102.311 62.9051 101.488 61.5947C100.665 60.2843 100.253 58.7555 100.253 57.0083ZM126.375 60.0071H124.536V65.3999H119.445V48.5915H128.417C129.677 48.5915 130.76 48.8519 131.667 49.3727C132.591 49.8767 133.289 50.5655 133.759 51.4391C134.229 52.3127 134.465 53.2871 134.465 54.3623C134.465 55.6727 134.162 56.7479 133.557 57.5879C132.969 58.4279 132.264 59.0495 131.441 59.4527L134.49 65.3999H128.694L126.375 60.0071ZM129.299 54.2867C129.299 53.8499 129.131 53.4971 128.795 53.2283C128.475 52.9595 128.089 52.8251 127.635 52.8251H124.536V55.7735H127.635C128.089 55.7735 128.475 55.6391 128.795 55.3703C129.131 55.1015 129.299 54.7403 129.299 54.2867ZM136.524 48.5915H149.275V52.8251H141.615V54.7907H149.099V59.0243H141.615V61.1663H149.275V65.3999H136.524V48.5915ZM151.536 48.5915H164.287V52.8251H156.626V54.7907H164.111V59.0243H156.626V61.1663H164.287V65.3999H151.536V48.5915ZM171.638 56.3783V65.3999H166.548V48.5915H171.789L177.636 57.0587V48.5915H182.726V65.3999H177.837L171.638 56.3783ZM193.663 65.7023C191.966 65.7023 190.421 65.3411 189.026 64.6187C187.632 63.8795 186.531 62.8463 185.725 61.5191C184.935 60.1919 184.541 58.6883 184.541 57.0083C184.541 55.3115 184.935 53.8079 185.725 52.4975C186.531 51.1703 187.623 50.1455 189.001 49.4231C190.395 48.6839 191.949 48.3143 193.663 48.3143C195.729 48.3143 197.384 48.7847 198.627 49.7255C199.887 50.6663 200.82 51.8255 201.425 53.2031L197.04 55.2443C196.821 54.5555 196.401 53.9759 195.78 53.5055C195.158 53.0351 194.453 52.7999 193.663 52.7999C192.907 52.7999 192.227 52.9847 191.622 53.3543C191.017 53.7239 190.547 54.2363 190.211 54.8915C189.875 55.5299 189.707 56.2355 189.707 57.0083C189.707 57.7811 189.875 58.4951 190.211 59.1503C190.547 59.7887 191.017 60.2927 191.622 60.6623C192.227 61.0319 192.907 61.2167 193.663 61.2167C194.453 61.2167 195.158 60.9815 195.78 60.5111C196.401 60.0407 196.821 59.4611 197.04 58.7723L201.425 60.7883C200.82 62.1491 199.887 63.3083 198.627 64.2659C197.367 65.2235 195.713 65.7023 193.663 65.7023ZM203.019 48.5915H208.109V65.3999H203.019V48.5915ZM214.424 53.0267H209.913V48.5915H224V53.0267H219.514V65.3999H214.424V53.0267ZM230.293 58.7219L223.993 48.5915H229.713L232.838 54.2615L235.912 48.5915H241.633L235.383 58.7219V65.3999H230.293V58.7219Z" fill="white"/>
</g>
<path fill-rule="evenodd" clip-rule="evenodd" d="M188.259 299.707C194.559 307.933 202.196 318.292 209.263 328C209.56 326.953 210.09 324.982 210.766 322.031C211.798 317.529 212.555 312.491 212.61 312.125L212.61 312.125L212.613 312.104L213 312.164C210.388 307.557 207.454 303.016 204.156 298.766C187.254 276.99 161.252 266.33 155 264C155.301 266.958 156.81 279 162.456 293.771L162.475 293.379C162.475 293.379 162.477 293.38 162.481 293.38C162.693 293.392 167.865 293.692 176.061 295.787C181.318 297.13 185.716 298.714 188.259 299.707ZM188.44 335.636C198.693 345.112 211.929 353.191 229 358C225.873 353.569 202.989 321.206 187.658 300.998C186.389 300.448 180.939 298.168 173.883 296.34C166.682 294.475 161.947 294.066 161 294C165.064 304.652 171.27 316.686 180.748 327.677L196.956 329.376C196.956 329.376 191.242 333.671 188.44 335.636ZM231 358C229.849 352.684 224.908 331.833 214.389 312C214.17 313.49 213.502 317.855 212.65 321.782C211.83 325.575 211.222 327.821 211 328.617C220.421 342.302 228.672 354.54 231 358Z" fill="url(#paint1_radial)"/>
<mask id="mask1" mask-type="alpha" maskUnits="userSpaceOnUse" x="370" y="222" width="14" height="8">
<path fill-rule="evenodd" clip-rule="evenodd" d="M383.378 222.47H370.075V229.898H383.378V222.47Z" fill="white"/>
</mask>
<g mask="url(#mask1)">
<path fill-rule="evenodd" clip-rule="evenodd" d="M370.075 227.671C370.075 227.671 374.459 222.087 379.887 222.491C385.314 222.895 383.619 229.05 380.174 229.778C376.731 230.507 370.075 227.671 370.075 227.671Z" fill="#6EB715"/>
</g>
<mask id="mask2" mask-type="alpha" maskUnits="userSpaceOnUse" x="296" y="224" width="83" height="68">
<path fill-rule="evenodd" clip-rule="evenodd" d="M378.784 224.117H296.077V292H378.784V224.117Z" fill="white"/>
</mask>
<g mask="url(#mask2)">
<path fill-rule="evenodd" clip-rule="evenodd" d="M378.784 224.117C378.784 224.117 341.304 231.805 298.574 292L296.077 289.636C296.077 289.636 339.109 230.866 378.784 224.117Z" fill="#3F8519"/>
</g>
<mask id="mask3" mask-type="alpha" maskUnits="userSpaceOnUse" x="361" y="216" width="8" height="14">
<path fill-rule="evenodd" clip-rule="evenodd" d="M368.827 216.553H361.601V229.724H368.827V216.553Z" fill="white"/>
</mask>
<g mask="url(#mask3)">
<path fill-rule="evenodd" clip-rule="evenodd" d="M362.967 229.724C362.967 229.724 360.131 223.439 362.632 218.701C365.134 213.963 369.514 218.053 368.736 221.469C367.958 224.886 362.967 229.724 362.967 229.724Z" fill="#6EB715"/>
</g>
<path fill-rule="evenodd" clip-rule="evenodd" d="M364.813 230C364.813 230 364.397 224.904 367.378 220C367.378 220 364.572 222.629 363.378 229.98L364.813 230Z" fill="#3F8519"/>
<path fill-rule="evenodd" clip-rule="evenodd" d="M354.735 232C354.735 232 350.662 227.577 351.489 222.808C352.315 218.04 357.095 220.136 357.361 223.257C357.627 226.379 354.735 232 354.735 232Z" fill="#6EB715"/>
<path fill-rule="evenodd" clip-rule="evenodd" d="M355.378 233.557C355.378 233.557 353.151 228.226 354.149 222C354.149 222 352.492 225.729 354.037 234L355.378 233.557Z" fill="#3F8519"/>
<path fill-rule="evenodd" clip-rule="evenodd" d="M345.464 240C345.464 240 341.006 235.979 341.403 231.1C341.799 226.221 346.752 227.83 347.297 230.94C347.841 234.049 345.464 240 345.464 240Z" fill="#6EB715"/>
<path fill-rule="evenodd" clip-rule="evenodd" d="M347.378 241.426C347.378 241.426 345.345 236.318 345.648 230C345.648 230 344.679 233.888 346.412 242L347.378 241.426Z" fill="#3F8519"/>
<path fill-rule="evenodd" clip-rule="evenodd" d="M335.464 246C335.464 246 331.006 241.979 331.403 237.101C331.799 232.221 336.752 233.83 337.297 236.94C337.841 240.049 335.464 246 335.464 246Z" fill="#6EB715"/>
<path fill-rule="evenodd" clip-rule="evenodd" d="M337.378 247.427C337.378 247.427 335.345 242.319 335.648 236C335.648 236 334.679 239.889 336.412 248L337.378 247.427Z" fill="#3F8519"/>
<path fill-rule="evenodd" clip-rule="evenodd" d="M326.347 256C326.347 256 321.543 252.527 321.382 247.519C321.221 242.511 326.238 243.466 327.12 246.549C328 249.632 326.347 256 326.347 256Z" fill="#6EB715"/>
<path fill-rule="evenodd" clip-rule="evenodd" d="M327.378 255.254C327.378 255.254 323.858 250.44 323.474 244C323.474 244 322.607 248.097 326.09 256L327.378 255.254Z" fill="#3F8519"/>
<path fill-rule="evenodd" clip-rule="evenodd" d="M365.378 230.376C365.378 230.376 368.193 236.936 373.326 237.902C378.459 238.868 378.27 232.425 375.235 230.848C372.199 229.272 365.378 230.376 365.378 230.376Z" fill="#6EB715"/>
<path fill-rule="evenodd" clip-rule="evenodd" d="M364.166 230C364.166 230 367.894 233.061 373.378 233.997C373.378 233.997 369.761 234.213 363.378 230.864L364.166 230Z" fill="#3F8519"/>
<path fill-rule="evenodd" clip-rule="evenodd" d="M355.378 234C355.378 234 356.659 241.291 361.07 243.537C365.48 245.782 366.526 239.26 364.107 236.922C361.689 234.584 355.378 234 355.378 234Z" fill="#6EB715"/>
<path fill-rule="evenodd" clip-rule="evenodd" d="M356.485 234C356.485 234 359.67 237.916 365.378 240C365.378 240 361.374 239.484 355.378 234.73L356.485 234Z" fill="#3F8519"/>
<path fill-rule="evenodd" clip-rule="evenodd" d="M347.378 240C347.378 240 348.687 247.317 353.095 249.545C357.502 251.773 358.518 245.215 356.096 242.881C353.674 240.548 347.378 240 347.378 240Z" fill="#6EB715"/>
<path fill-rule="evenodd" clip-rule="evenodd" d="M346.477 242C346.477 242 349.676 245.927 355.378 248C355.378 248 351.384 247.497 345.378 242.739L346.477 242Z" fill="#3F8519"/>
<path fill-rule="evenodd" clip-rule="evenodd" d="M337.378 248.149C337.378 248.149 339.933 254.644 345.106 255.847C350.281 257.051 350.391 250.806 347.378 249.122C344.366 247.438 337.378 248.149 337.378 248.149Z" fill="#6EB715"/>
<path fill-rule="evenodd" clip-rule="evenodd" d="M338.232 248C338.232 248 341.848 252.397 347.378 254C347.378 254 343.681 254.08 337.378 249.133L338.232 248Z" fill="#3F8519"/>
<path fill-rule="evenodd" clip-rule="evenodd" d="M327.378 256.149C327.378 256.149 329.932 262.644 335.106 263.847C340.28 265.051 340.391 258.806 337.377 257.122C334.365 255.438 327.378 256.149 327.378 256.149Z" fill="#6EB715"/>
<path fill-rule="evenodd" clip-rule="evenodd" d="M330.232 256C330.232 256 333.848 260.397 339.378 262C339.378 262 335.682 262.08 329.378 257.133L330.232 256Z" fill="#3F8519"/>
<path fill-rule="evenodd" clip-rule="evenodd" d="M318.347 264C318.347 264 313.542 260.527 313.382 255.519C313.221 250.51 318.238 251.467 319.119 254.55C320.001 257.632 318.347 264 318.347 264Z" fill="#6EB715"/>
<path fill-rule="evenodd" clip-rule="evenodd" d="M319.378 265.254C319.378 265.254 315.858 260.44 315.473 254C315.473 254 314.608 258.097 318.09 266L319.378 265.254Z" fill="#3F8519"/>
<path fill-rule="evenodd" clip-rule="evenodd" d="M319.378 266.149C319.378 266.149 321.933 272.644 327.106 273.847C332.281 275.051 332.391 268.806 329.378 267.122C326.366 265.438 319.378 266.149 319.378 266.149Z" fill="#6EB715"/>
<path fill-rule="evenodd" clip-rule="evenodd" d="M320.232 266C320.232 266 323.848 270.397 329.378 272C329.378 272 325.682 272.08 319.378 267.133L320.232 266Z" fill="#3F8519"/>
<path fill-rule="evenodd" clip-rule="evenodd" d="M308.347 274C308.347 274 303.543 270.527 303.382 265.519C303.221 260.511 308.238 261.466 309.119 264.549C310.001 267.632 308.347 274 308.347 274Z" fill="#6EB715"/>
<path fill-rule="evenodd" clip-rule="evenodd" d="M311.378 275.254C311.378 275.254 307.858 270.44 307.474 264C307.474 264 306.607 268.098 310.09 276L311.378 275.254Z" fill="#3F8519"/>
<path fill-rule="evenodd" clip-rule="evenodd" d="M311.378 274.149C311.378 274.149 313.932 280.643 319.106 281.847C324.281 283.051 324.391 276.806 321.378 275.122C318.365 273.438 311.378 274.149 311.378 274.149Z" fill="#6EB715"/>
<path fill-rule="evenodd" clip-rule="evenodd" d="M312.232 274C312.232 274 315.848 278.397 321.378 280C321.378 280 317.682 280.079 311.378 275.133L312.232 274Z" fill="#3F8519"/>
<mask id="mask4" mask-type="alpha" maskUnits="userSpaceOnUse" x="66" y="154" width="8" height="12">
<path fill-rule="evenodd" clip-rule="evenodd" d="M66.542 154.912L67.8389 165.474L73.7369 164.75L72.44 154.187L66.542 154.912Z" fill="white"/>
</mask>
<g mask="url(#mask4)">
<path fill-rule="evenodd" clip-rule="evenodd" d="M71.9687 164.968C71.9687 164.968 67.1073 162.031 66.899 157.682C66.6913 153.333 71.7434 154.079 72.6573 156.743C73.5717 159.406 71.9687 164.968 71.9687 164.968Z" fill="#6EB715"/>
</g>
<mask id="mask5" mask-type="alpha" maskUnits="userSpaceOnUse" x="68" y="151" width="63" height="74">
<path fill-rule="evenodd" clip-rule="evenodd" d="M68.2979 158.398L76.3614 224.071L130.263 217.453L122.199 151.78L68.2979 158.398Z" fill="white"/>
</mask>
<g mask="url(#mask5)">
<path fill-rule="evenodd" clip-rule="evenodd" d="M68.2979 158.398C68.2979 158.398 78.0563 187.409 130.019 215.47L128.385 217.683C128.385 217.683 77.5251 189.244 68.2979 158.398Z" fill="#3F8519"/>
</g>
<mask id="mask6" mask-type="alpha" maskUnits="userSpaceOnUse" x="63" y="165" width="12" height="8">
<path fill-rule="evenodd" clip-rule="evenodd" d="M63.2627 167.042L63.9672 172.78L74.4253 171.496L73.7208 165.758L63.2627 167.042Z" fill="white"/>
</mask>
<g mask="url(#mask6)">
<path fill-rule="evenodd" clip-rule="evenodd" d="M74.2914 170.411C74.2914 170.411 69.5778 173.276 65.5717 171.752C61.5654 170.228 64.3862 166.351 67.1745 166.636C69.9635 166.92 74.2914 170.411 74.2914 170.411Z" fill="#6EB715"/>
</g>
<path fill-rule="evenodd" clip-rule="evenodd" d="M74.331 168.918C74.331 168.918 70.3255 169.746 66.1406 167.857C66.1406 167.857 68.5017 169.829 74.4547 170.06L74.331 168.918Z" fill="#3F8519"/>
<path fill-rule="evenodd" clip-rule="evenodd" d="M76.9013 176.726C76.9013 176.726 73.7862 180.392 69.9191 180.2C66.0525 180.008 67.2508 176.009 69.7033 175.494C72.1564 174.978 76.9013 176.726 76.9013 176.726Z" fill="#6EB715"/>
<path fill-rule="evenodd" clip-rule="evenodd" d="M78.0753 176.064C78.0753 176.064 74.0594 178.352 69.0183 178.167C69.0183 178.167 72.1407 179.119 78.5576 177.085L78.0753 176.064Z" fill="#3F8519"/>
<path fill-rule="evenodd" clip-rule="evenodd" d="M84.1574 183.308C84.1574 183.308 81.3991 187.24 77.4864 187.4C73.5739 187.561 74.3685 183.472 76.7845 182.736C79.2006 182 84.1574 183.308 84.1574 183.308Z" fill="#6EB715"/>
<path fill-rule="evenodd" clip-rule="evenodd" d="M85.103 181.649C85.103 181.649 81.2454 183.761 76.1989 184.136C76.1989 184.136 79.3805 184.527 85.6529 182.36L85.103 181.649Z" fill="#3F8519"/>
<path fill-rule="evenodd" clip-rule="evenodd" d="M89.8967 190.663C89.8967 190.663 87.1383 194.595 83.2262 194.756C79.313 194.916 80.1076 190.827 82.5237 190.091C84.9399 189.356 89.8967 190.663 89.8967 190.663Z" fill="#6EB715"/>
<path fill-rule="evenodd" clip-rule="evenodd" d="M90.8429 189.004C90.8429 189.004 86.9853 191.116 81.9382 191.491C81.9382 191.491 85.1203 191.882 91.3922 189.715L90.8429 189.004Z" fill="#3F8519"/>
<path fill-rule="evenodd" clip-rule="evenodd" d="M98.7256 196.928C98.7256 196.928 96.436 201.081 92.4753 201.697C88.5145 202.313 88.7841 198.236 91.1463 197.235C93.5079 196.236 98.7256 196.928 98.7256 196.928Z" fill="#6EB715"/>
<path fill-rule="evenodd" clip-rule="evenodd" d="M98.0328 196.182C98.0328 196.182 94.5536 199.446 89.4773 200.379C89.4773 200.379 92.8153 200.668 98.7507 197.132L98.0328 196.182Z" fill="#3F8519"/>
<path fill-rule="evenodd" clip-rule="evenodd" d="M74.5738 168.434C74.5738 168.434 79.5083 165.559 79.7748 161.389C80.0414 157.219 74.9437 157.997 73.9879 160.561C73.0323 163.125 74.5738 168.434 74.5738 168.434Z" fill="#6EB715"/>
<path fill-rule="evenodd" clip-rule="evenodd" d="M74.3942 169.432C74.3942 169.432 76.4614 166.174 76.67 161.728C76.67 161.728 77.1937 164.579 75.1571 169.974L74.3942 169.432Z" fill="#3F8519"/>
<path fill-rule="evenodd" clip-rule="evenodd" d="M78.4271 176.02C78.4271 176.02 84.0916 174.292 85.4447 170.571C86.7978 166.851 81.5168 166.656 79.8963 168.804C78.2757 170.952 78.4271 176.02 78.4271 176.02Z" fill="#6EB715"/>
<path fill-rule="evenodd" clip-rule="evenodd" d="M78.3192 175.141C78.3192 175.141 81.118 172.231 82.2164 167.495C82.2164 167.495 82.197 170.725 79.0068 175.949L78.3192 175.141Z" fill="#3F8519"/>
<path fill-rule="evenodd" clip-rule="evenodd" d="M83.971 181.788C83.971 181.788 89.6533 180.035 90.993 176.318C92.3321 172.602 87.0256 172.434 85.4088 174.584C83.7921 176.735 83.971 181.788 83.971 181.788Z" fill="#6EB715"/>
<path fill-rule="evenodd" clip-rule="evenodd" d="M85.6471 182.308C85.6471 182.308 88.4535 179.385 89.5435 174.656C89.5435 174.656 89.5336 177.876 86.3412 183.109L85.6471 182.308Z" fill="#3F8519"/>
<path fill-rule="evenodd" clip-rule="evenodd" d="M91.4161 188.934C91.4161 188.934 96.3244 186.272 96.7752 182.047C97.2266 177.821 92.2576 178.342 91.214 180.899C90.1704 183.455 91.4161 188.934 91.4161 188.934Z" fill="#6EB715"/>
<path fill-rule="evenodd" clip-rule="evenodd" d="M91.215 188.27C91.215 188.27 94.3538 184.97 95.0874 180.423C95.0874 180.423 95.5112 183.35 92.1976 188.838L91.215 188.27Z" fill="#3F8519"/>
<path fill-rule="evenodd" clip-rule="evenodd" d="M98.7443 196.094C98.7443 196.094 103.653 193.433 104.103 189.207C104.555 184.981 99.5856 185.502 98.5422 188.059C97.4986 190.615 98.7443 196.094 98.7443 196.094Z" fill="#6EB715"/>
<path fill-rule="evenodd" clip-rule="evenodd" d="M98.3477 193.842C98.3477 193.842 101.487 190.542 102.22 185.995C102.22 185.995 102.644 188.922 99.3304 194.41L98.3477 193.842Z" fill="#3F8519"/>
<path fill-rule="evenodd" clip-rule="evenodd" d="M105.858 202.5C105.858 202.5 103.569 206.654 99.6082 207.269C95.647 207.885 95.9172 203.808 98.2793 202.808C100.641 201.807 105.858 202.5 105.858 202.5Z" fill="#6EB715"/>
<path fill-rule="evenodd" clip-rule="evenodd" d="M106.754 201.559C106.754 201.559 103.274 204.824 98.1981 205.757C98.1981 205.757 101.536 206.045 107.471 202.509L106.754 201.559Z" fill="#3F8519"/>
<path fill-rule="evenodd" clip-rule="evenodd" d="M107.464 201.471C107.464 201.471 112.372 198.809 112.823 194.584C113.274 190.358 108.305 190.88 107.262 193.436C106.218 195.992 107.464 201.471 107.464 201.471Z" fill="#6EB715"/>
<path fill-rule="evenodd" clip-rule="evenodd" d="M107.263 200.808C107.263 200.808 110.402 197.508 111.135 192.961C111.135 192.961 111.559 195.888 108.245 201.376L107.263 200.808Z" fill="#3F8519"/>
<path fill-rule="evenodd" clip-rule="evenodd" d="M114.773 209.465C114.773 209.465 112.484 213.618 108.523 214.235C104.562 214.851 104.832 210.773 107.194 209.773C109.556 208.773 114.773 209.465 114.773 209.465Z" fill="#6EB715"/>
<path fill-rule="evenodd" clip-rule="evenodd" d="M115.474 206.936C115.474 206.936 111.995 210.2 106.919 211.133C106.919 211.133 110.257 211.422 116.192 207.886L115.474 206.936Z" fill="#3F8519"/>
<path fill-rule="evenodd" clip-rule="evenodd" d="M114.597 207.044C114.597 207.044 119.505 204.382 119.956 200.157C120.407 195.931 115.438 196.452 114.394 199.009C113.351 201.565 114.597 207.044 114.597 207.044Z" fill="#6EB715"/>
<path fill-rule="evenodd" clip-rule="evenodd" d="M114.395 206.38C114.395 206.38 117.534 203.08 118.267 198.533C118.267 198.533 118.69 201.46 115.377 206.948L114.395 206.38Z" fill="#3F8519"/>
<path fill-rule="evenodd" clip-rule="evenodd" d="M410.236 297.225C410.236 297.225 418.374 286.788 419.749 289.857C421.124 292.925 418.973 295.071 418.973 295.071C418.973 295.071 426.073 282.982 428.333 285.006C430.593 287.03 428.182 289.915 428.182 289.915C428.182 289.915 433.728 279.03 436.744 279.569C439.761 280.109 436.652 284.134 436.652 284.134C436.652 284.134 441.853 273.696 443.999 274.789C446.145 275.883 443.548 278.673 443.548 278.673C443.548 278.673 448.139 272.661 449.991 274.103C451.842 275.545 447.747 280.813 445.611 282.467C445.611 282.467 447.581 281.601 447.785 284.198C447.99 286.795 440.244 289.08 440.244 289.08C440.244 289.08 443.239 288.737 443.366 290.796C443.492 292.855 435.736 297.005 431.34 296.635C431.34 296.635 435.231 297.994 431.888 300.404C428.545 302.814 419.151 301.642 419.151 301.642C419.151 301.642 421.62 303.025 420.518 304.957C419.416 306.888 410.598 305.511 408.214 304.421C405.831 303.332 410.236 297.225 410.236 297.225Z" fill="#6EB715"/>
<path fill-rule="evenodd" clip-rule="evenodd" d="M442.356 276.925C442.356 276.925 440.018 281.926 440.177 283.886C443.052 281.316 444.676 279.525 444.676 279.525C443.243 281.274 441.781 282.893 440.306 284.397C440.405 284.589 441.057 285.261 445.336 285.051C445.336 285.051 440.574 286.225 439.512 285.194C437.193 287.484 434.847 289.488 432.527 291.242C432.962 291.642 434.36 292.321 438.854 292.576C438.854 292.576 432.915 293.405 431.361 292.106C428.455 294.208 425.606 295.924 422.925 297.321C423.554 297.722 425.122 298.263 429.026 298.485C429.026 298.485 423.112 299.311 421.541 298.023C417.697 299.914 414.257 301.146 411.564 301.939C412.191 302.491 413.645 303.33 417.017 304.358C417.017 304.358 411.623 303.84 410.093 302.351C407.294 303.091 405.613 303.286 405.613 303.286C405.613 303.286 377.164 302.753 401.031 302.051C404.046 301.963 406.997 301.536 409.851 300.859C410.871 298.227 416.65 292.62 416.65 292.62C416.65 292.62 411.805 297.928 411.157 300.528C414.684 299.59 418.051 298.281 421.199 296.771C421.669 293.989 426.161 287.289 426.161 287.289C426.161 287.289 422.503 293.521 422.417 296.171C425.53 294.599 428.412 292.845 430.998 291.081C431.249 288.451 435.989 281.381 435.989 281.381C435.989 281.381 432.377 287.532 432.246 290.211C434.998 288.262 437.375 286.336 439.292 284.667C439.175 282.787 442.356 276.925 442.356 276.925Z" fill="#3F8519"/>
<path fill-rule="evenodd" clip-rule="evenodd" d="M137 332C137 332 134.679 281.304 99.8653 262.87C65.0516 244.435 95.2235 226 95.2235 226C95.2235 226 34.8797 228.304 67.3725 274.391C130.037 302.043 137 332 137 332Z" fill="url(#paint2_linear)"/>
<path fill-rule="evenodd" clip-rule="evenodd" d="M311.568 295.092C311.576 295.088 311.588 295.088 311.602 295.093C312.729 295.574 313.589 296.433 314.442 297.277C315.602 298.437 316.692 299.606 317.614 300.959C319.259 303.371 320.342 306.135 320.631 309.061C320.834 311.117 320.114 313.543 318.565 315.071C319.637 318.114 319.373 321.544 317.199 324.403C315.262 326.953 311.538 327.706 308.419 326.826C306.857 328.186 304.363 328.71 302.475 328.656C299.14 328.565 295.846 327.855 292.513 328.611C291.194 328.911 289.933 329.522 289.048 330.567C288.684 330.976 288.366 331.524 288.196 332.101C289.52 331.568 291.064 331.841 291.985 333.198C292.516 333.956 292.235 334.952 291.579 335.55C290.846 336.227 289.438 336.004 288.615 335.703C287.942 335.452 287.478 335.012 287.188 334.458C286.827 334.98 286.543 335.547 286.341 336.011C285.272 338.395 285.516 341.351 285.495 343.9C285.462 346.398 285.294 348.921 284.309 351.267C282.852 354.741 279.506 357.261 275.641 356.845C275.547 356.837 275.469 356.77 275.421 356.685L275.418 356.678C275.326 356.511 275.348 356.277 275.58 356.26C278.615 356.079 281.096 354.759 282.73 352.17C284.676 349.114 284.478 345.335 284.481 341.888C284.492 338.892 284.632 335.781 286.58 333.315C286.648 333.235 286.721 333.152 286.795 333.076C286.723 332.17 286.917 331.215 287.285 330.455C288.438 328.101 291.207 327.223 293.621 326.929C295.031 326.751 296.476 326.775 297.891 326.873C299.83 327.017 301.852 327.437 303.773 327.093C304.823 326.905 305.836 326.643 306.697 326.132C305.612 325.538 304.687 324.701 304.084 323.609C303.576 322.72 303.428 321.853 303.898 320.915C304.376 319.944 305.767 319.337 306.804 319.49C309.326 319.868 310.453 322.624 309.728 324.898C309.618 325.249 309.466 325.559 309.278 325.854C309.606 325.933 309.948 326.005 310.293 326.053C313.981 326.586 317.029 324.292 318.152 320.878C318.731 319.136 318.624 317.259 318.05 315.517C317.747 315.751 317.421 315.947 317.061 316.116C314.571 317.25 311.908 316.525 309.726 315.136C307.805 313.921 305.08 310.77 307.261 308.605C309.14 306.754 312.596 308.119 314.316 309.372C315.602 310.324 316.694 311.524 317.506 312.853C319.335 310.801 319.105 307.42 318.558 304.961C317.829 301.672 315.823 299.063 313.552 296.677C312.974 296.065 312.335 295.53 311.582 295.168C311.549 295.152 311.543 295.108 311.565 295.094L311.568 295.092ZM316.619 313.622C316.767 313.519 316.906 313.42 317.029 313.312C316.545 312.508 315.958 311.784 315.3 311.167C314.196 310.123 312.822 309.235 311.304 308.944C310.494 308.79 309.386 308.941 308.698 309.411C307.68 310.127 308.484 311.373 309.129 311.993C310.942 313.726 313.878 315.159 316.294 313.821C316.403 313.76 316.512 313.693 316.619 313.622ZM308.16 324.748C309.131 323.274 308.402 320.749 306.388 320.907C305.602 320.975 304.817 321.803 304.967 322.576C305.089 323.241 305.748 323.85 306.228 324.284C306.688 324.705 307.195 325.034 307.728 325.295C307.877 325.131 308.026 324.944 308.16 324.748ZM290.668 333.308C290.28 332.99 289.769 332.943 289.291 332.971C288.848 332.999 288.46 333.171 288.123 333.444C288.199 333.768 288.37 334.079 288.655 334.332C289.171 334.793 290.046 334.775 290.656 334.565C290.724 334.544 290.784 334.519 290.834 334.491C291.359 334.2 290.971 333.561 290.668 333.308Z" fill="url(#paint3_radial)"/>
<mask id="mask7" mask-type="alpha" maskUnits="userSpaceOnUse" x="257" y="108" width="70" height="193">
<path fill-rule="evenodd" clip-rule="evenodd" d="M279.483 108.436C279.456 108.496 279.514 108.59 279.615 108.593C281.884 108.696 284.06 109.349 286.172 110.255C294.443 113.785 302.3 118.154 307.731 125.564C311.802 131.111 316.092 139.286 313.805 146.346C310.326 143.901 306.289 142.071 302.044 141.067C296.387 139.774 286.301 140.049 283.668 146.659C280.628 154.372 290.871 159.325 296.984 160.306C303.936 161.448 311.352 160.42 316.297 154.945C317.003 154.145 317.596 153.314 318.091 152.404C321.433 156.132 323.766 160.697 324.252 165.65C325.213 175.343 320.168 184.305 310.409 186.899C309.501 187.143 308.573 187.331 307.671 187.482C307.819 186.547 307.85 185.611 307.736 184.621C307.036 178.185 301.199 172.523 294.513 174.26C291.766 174.983 288.982 177.971 288.86 180.899C288.727 183.737 290.048 185.74 292.292 187.414C294.987 189.493 298.214 190.594 301.56 190.916C299.982 193.106 297.755 194.839 295.351 196.425C290.961 199.324 285.467 200.427 280.493 202.131C276.867 203.389 273.248 204.868 269.94 206.809C264.26 210.109 258.348 215.243 258.076 222.334C257.995 224.617 258.564 227.201 259.742 229.377C259.644 229.649 259.554 229.936 259.475 230.21C257.346 238.423 260.421 246.32 263.694 253.794C267.479 262.382 272.133 271.581 270.665 281.266C269.449 289.455 264.738 295.38 257.393 299.059C256.776 299.377 257.094 300.086 257.586 300.366L257.596 300.372C257.783 300.476 257.996 300.518 258.191 300.45C263.657 298.783 267.789 295.119 270.391 290.483L270.512 290.264C272.62 286.416 273.683 281.915 273.591 277.341C273.462 270.446 271.097 263.987 268.428 257.729C265.676 251.353 261.814 244.253 261.845 237.176C261.838 235.807 261.921 234.09 262.237 232.409C263.572 233.478 265.213 234.083 267.16 233.989C269.535 233.863 273.279 232.922 274.359 230.459C275.331 228.272 274.937 225.492 272.776 224.168C268.993 221.768 264.857 222.732 262.151 225.464C261.938 223.844 262.127 222.146 262.582 220.736C263.629 217.192 266.092 214.329 269.041 212.181C276.487 206.755 285.46 205.019 293.848 201.697C298.601 199.822 304.223 195.868 306.608 190.815C315.324 189.694 323.749 183.85 325.762 175.442C328.016 166.009 324.897 157.185 318.881 150.745C321.052 145.294 320.166 138.485 317.401 133.579C313.457 126.595 307.726 120.862 300.977 116.602C300.265 116.153 299.547 115.725 298.819 115.317L298.329 115.045C295.347 113.413 292.241 112.082 289.041 110.812C285.992 109.609 282.908 108.383 279.579 108.386C279.532 108.388 279.503 108.403 279.488 108.427L279.483 108.436ZM312.449 149.205C308.14 155.984 298.741 155.609 292.042 153.112C289.753 152.255 286.382 150.007 288.126 147.141C289.318 145.234 291.903 143.68 294.086 143.204C298.181 142.314 302.573 143.066 306.466 144.492C308.783 145.333 311.039 146.51 313.123 147.997C313.045 148.166 312.958 148.335 312.863 148.507C312.736 148.736 312.597 148.967 312.449 149.205ZM270.978 228.983C269.693 230.159 267.54 231.134 265.746 230.53C264.766 230.206 263.992 229.61 263.444 228.886C263.988 227.848 264.759 227.01 265.834 226.465C266.989 225.891 268.309 225.461 269.627 225.842C270.597 226.13 272.143 227.2 271.477 228.4C271.371 228.592 271.208 228.787 270.978 228.983ZM298.363 186.814C296.693 186.243 294.386 185.426 293.343 183.899C292.121 182.135 293.166 179.236 295.042 178.232C299.87 175.697 304.465 181.212 303.671 185.915C303.56 186.548 303.394 187.17 303.204 187.739C301.593 187.655 299.965 187.377 298.363 186.814Z" fill="white"/>
</mask>
<g mask="url(#mask7)">
<path fill-rule="evenodd" clip-rule="evenodd" d="M279.483 108.436C279.456 108.496 279.514 108.59 279.615 108.593C281.884 108.696 284.06 109.349 286.172 110.255C294.443 113.785 302.3 118.154 307.731 125.564C311.802 131.111 316.092 139.286 313.805 146.346C310.326 143.901 306.289 142.071 302.044 141.067C296.387 139.774 286.301 140.049 283.668 146.659C280.628 154.372 290.871 159.325 296.984 160.306C303.936 161.448 311.352 160.42 316.297 154.945C317.003 154.145 317.596 153.314 318.091 152.404C321.433 156.132 323.766 160.697 324.252 165.65C325.213 175.343 320.168 184.305 310.409 186.899C309.501 187.143 308.573 187.331 307.671 187.482C307.819 186.547 307.85 185.611 307.736 184.621C307.036 178.185 301.199 172.523 294.513 174.26C291.766 174.983 288.982 177.971 288.86 180.899C288.727 183.737 290.048 185.74 292.292 187.414C294.987 189.493 298.214 190.594 301.56 190.916C299.982 193.106 297.755 194.839 295.351 196.425C290.961 199.324 285.467 200.427 280.493 202.131C276.867 203.389 273.248 204.868 269.94 206.809C264.26 210.109 258.348 215.243 258.076 222.334C257.995 224.617 258.564 227.201 259.742 229.377C259.644 229.649 259.554 229.936 259.475 230.21C257.346 238.423 260.421 246.32 263.694 253.794C267.479 262.382 272.133 271.581 270.665 281.266C269.449 289.455 264.738 295.38 257.393 299.059C256.776 299.377 257.094 300.086 257.586 300.366L257.596 300.372C257.783 300.476 257.996 300.518 258.191 300.45C263.657 298.783 267.789 295.119 270.391 290.483L270.512 290.264C272.62 286.416 273.683 281.915 273.591 277.341C273.462 270.446 271.097 263.987 268.428 257.729C265.676 251.353 261.814 244.253 261.845 237.176C261.838 235.807 261.921 234.09 262.237 232.409C263.572 233.478 265.213 234.083 267.16 233.989C269.535 233.863 273.279 232.922 274.359 230.459C275.331 228.272 274.937 225.492 272.776 224.168C268.993 221.768 264.857 222.732 262.151 225.464C261.938 223.844 262.127 222.146 262.582 220.736C263.629 217.192 266.092 214.329 269.041 212.181C276.487 206.755 285.46 205.019 293.848 201.697C298.601 199.822 304.223 195.868 306.608 190.815C315.324 189.694 323.749 183.85 325.762 175.442C328.016 166.009 324.897 157.185 318.881 150.745C321.052 145.294 320.166 138.485 317.401 133.579C313.457 126.595 307.726 120.862 300.977 116.602C300.265 116.153 299.547 115.725 298.819 115.317L298.329 115.045C295.347 113.413 292.241 112.082 289.041 110.812C285.992 109.609 282.908 108.383 279.579 108.386C279.532 108.388 279.503 108.403 279.488 108.427L279.483 108.436ZM312.449 149.205C308.14 155.984 298.741 155.609 292.042 153.112C289.753 152.255 286.382 150.007 288.126 147.141C289.318 145.234 291.903 143.68 294.086 143.204C298.181 142.314 302.573 143.066 306.466 144.492C308.783 145.333 311.039 146.51 313.123 147.997C313.045 148.166 312.958 148.335 312.863 148.507C312.736 148.736 312.597 148.967 312.449 149.205ZM270.978 228.983C269.693 230.159 267.54 231.134 265.746 230.53C264.766 230.206 263.992 229.61 263.444 228.886C263.988 227.848 264.759 227.01 265.834 226.465C266.989 225.891 268.309 225.461 269.627 225.842C270.597 226.13 272.143 227.2 271.477 228.4C271.371 228.592 271.208 228.787 270.978 228.983ZM298.363 186.814C296.693 186.243 294.386 185.426 293.343 183.899C292.121 182.135 293.166 179.236 295.042 178.232C299.87 175.697 304.465 181.212 303.671 185.915C303.56 186.548 303.394 187.17 303.204 187.739C301.593 187.655 299.965 187.377 298.363 186.814Z" fill="url(#paint4_linear)"/>
</g>
<mask id="mask8" mask-type="alpha" maskUnits="userSpaceOnUse" x="345" y="20" width="102" height="116">
<path fill-rule="evenodd" clip-rule="evenodd" d="M431.448 20.7484C431.464 20.7416 431.487 20.7453 431.514 20.7582C433.634 22.0069 435.138 23.9448 436.63 25.8486C438.657 28.4636 440.543 31.0772 442.055 34.0171C444.75 39.2571 446.25 45.0575 446.14 50.9797C446.062 55.1422 444.07 59.806 440.645 62.4648C442.058 68.82 440.733 75.6088 435.759 80.7676C431.326 85.3693 423.773 85.9255 417.801 83.3706C414.389 85.6895 409.326 86.1 405.597 85.5097C399.011 84.4778 392.651 82.2176 385.874 82.8788C383.19 83.141 380.549 84.04 378.552 85.9039C377.736 86.6284 376.976 87.6427 376.506 88.7518C379.254 88.0255 382.247 88.9644 383.755 91.9121C384.631 93.5622 383.843 95.4813 382.403 96.5095C380.792 97.6738 378.056 96.8703 376.496 96.0575C375.22 95.3841 374.404 94.3876 373.959 93.2062C373.122 94.1569 372.426 95.2167 371.918 96.0931C369.244 100.586 369.037 106.556 368.401 111.645C367.751 116.629 366.831 121.628 364.331 126.066C360.634 132.637 353.417 136.821 345.858 135.002C345.673 134.963 345.534 134.81 345.46 134.626L345.454 134.611C345.312 134.255 345.41 133.792 345.873 133.818C351.928 134.23 357.15 132.226 360.993 127.468C365.562 121.856 366.051 114.253 366.862 107.366C367.582 101.38 368.586 95.198 373.022 90.7653C373.174 90.624 373.339 90.4757 373.503 90.3425C373.571 88.5139 374.179 86.6548 375.085 85.2296C377.919 80.8188 383.61 79.7703 388.46 79.7995C391.295 79.8042 394.152 80.2199 396.932 80.7774C400.74 81.5597 404.648 82.9144 408.534 82.7186C410.658 82.6109 412.727 82.3445 414.551 81.5427C412.541 80.0793 410.902 78.1701 409.963 75.8339C409.165 73.9281 409.075 72.1569 410.223 70.4029C411.397 68.5827 414.294 67.7248 416.313 68.296C421.221 69.6955 422.811 75.4897 420.844 79.8503C420.544 80.5236 420.171 81.1058 419.729 81.6465C420.36 81.888 421.02 82.1193 421.692 82.3031C428.875 84.3104 435.449 80.5024 438.471 73.9665C440.023 70.6324 440.249 66.8523 439.52 63.2256C438.864 63.6156 438.174 63.9247 437.421 64.1706C432.223 65.8005 427.116 63.6726 423.118 60.3395C419.596 57.4203 414.933 50.4279 419.76 46.6571C423.914 43.4365 430.442 47.0461 433.558 49.9912C435.882 52.2208 437.765 54.8987 439.064 57.7625C443.167 54.1268 443.5 47.3117 442.991 42.2562C442.314 35.4977 438.95 29.771 435.007 24.4225C434.005 23.0522 432.864 21.8198 431.457 20.9043C431.395 20.8626 431.394 20.7746 431.44 20.7514L431.448 20.7484ZM437.127 59.0713C437.444 58.9046 437.742 58.7409 438.011 58.5568C437.241 56.8273 436.246 55.2297 435.086 53.828C433.144 51.4611 430.629 49.3347 427.689 48.3652C426.121 47.8514 423.891 47.8699 422.419 48.6353C420.235 49.8068 421.537 52.5012 422.669 53.9052C425.856 57.8313 431.339 61.4445 436.437 59.3868C436.667 59.2939 436.898 59.1876 437.127 59.0713ZM417.772 79.1501C420.04 76.4519 419.185 71.219 415.158 71.0212C413.586 70.9576 411.837 72.4125 411.954 73.9938C412.04 75.3547 413.204 76.7397 414.053 77.7298C414.865 78.6893 415.794 79.4768 416.789 80.134C417.122 79.8439 417.461 79.5085 417.772 79.1501ZM381.122 91.7961C380.426 91.0613 379.425 90.836 378.473 90.7698C377.587 90.7135 376.78 90.9577 376.047 91.4178C376.122 92.0842 376.389 92.7506 376.894 93.3275C377.809 94.3813 379.546 94.5684 380.804 94.3037C380.944 94.2798 381.067 94.2449 381.173 94.2022C382.282 93.7541 381.663 92.3777 381.122 91.7961Z" fill="white"/>
</mask>
<g mask="url(#mask8)">
<path fill-rule="evenodd" clip-rule="evenodd" d="M431.448 20.7484C431.464 20.7416 431.487 20.7453 431.514 20.7582C433.634 22.0069 435.138 23.9448 436.63 25.8486C438.657 28.4636 440.543 31.0772 442.055 34.0171C444.75 39.2571 446.25 45.0575 446.14 50.9797C446.062 55.1422 444.07 59.806 440.645 62.4648C442.058 68.82 440.733 75.6088 435.759 80.7676C431.326 85.3693 423.773 85.9255 417.801 83.3706C414.389 85.6895 409.326 86.1 405.597 85.5097C399.011 84.4778 392.651 82.2176 385.874 82.8788C383.19 83.141 380.549 84.04 378.552 85.9039C377.736 86.6284 376.976 87.6427 376.506 88.7518C379.254 88.0255 382.247 88.9644 383.755 91.9121C384.631 93.5622 383.843 95.4813 382.403 96.5095C380.792 97.6738 378.056 96.8703 376.496 96.0575C375.22 95.3841 374.404 94.3876 373.959 93.2062C373.122 94.1569 372.426 95.2167 371.918 96.0931C369.244 100.586 369.037 106.556 368.401 111.645C367.751 116.629 366.831 121.628 364.331 126.066C360.634 132.637 353.417 136.821 345.858 135.002C345.673 134.963 345.534 134.81 345.46 134.626L345.454 134.611C345.312 134.255 345.41 133.792 345.873 133.818C351.928 134.23 357.15 132.226 360.993 127.468C365.562 121.856 366.051 114.253 366.862 107.366C367.582 101.38 368.586 95.198 373.022 90.7653C373.174 90.624 373.339 90.4757 373.503 90.3425C373.571 88.5139 374.179 86.6548 375.085 85.2296C377.919 80.8188 383.61 79.7703 388.46 79.7995C391.295 79.8042 394.152 80.2199 396.932 80.7774C400.74 81.5597 404.648 82.9144 408.534 82.7186C410.658 82.6109 412.727 82.3445 414.551 81.5427C412.541 80.0793 410.902 78.1701 409.963 75.8339C409.165 73.9281 409.075 72.1569 410.223 70.4029C411.397 68.5827 414.294 67.7248 416.313 68.296C421.221 69.6955 422.811 75.4897 420.844 79.8503C420.544 80.5236 420.171 81.1058 419.729 81.6465C420.36 81.888 421.02 82.1193 421.692 82.3031C428.875 84.3104 435.449 80.5024 438.471 73.9665C440.023 70.6324 440.249 66.8523 439.52 63.2256C438.864 63.6156 438.174 63.9247 437.421 64.1706C432.223 65.8005 427.116 63.6726 423.118 60.3395C419.596 57.4203 414.933 50.4279 419.76 46.6571C423.914 43.4365 430.442 47.0461 433.558 49.9912C435.882 52.2208 437.765 54.8987 439.064 57.7625C443.167 54.1268 443.5 47.3117 442.991 42.2562C442.314 35.4977 438.95 29.771 435.007 24.4225C434.005 23.0522 432.864 21.8198 431.457 20.9043C431.395 20.8626 431.394 20.7746 431.44 20.7514L431.448 20.7484ZM437.127 59.0713C437.444 58.9046 437.742 58.7409 438.011 58.5568C437.241 56.8273 436.246 55.2297 435.086 53.828C433.144 51.4611 430.629 49.3347 427.689 48.3652C426.121 47.8514 423.891 47.8699 422.419 48.6353C420.235 49.8068 421.537 52.5012 422.669 53.9052C425.856 57.8313 431.339 61.4445 436.437 59.3868C436.667 59.2939 436.898 59.1876 437.127 59.0713ZM417.772 79.1501C420.04 76.4519 419.185 71.219 415.158 71.0212C413.586 70.9576 411.837 72.4125 411.954 73.9938C412.04 75.3547 413.204 76.7397 414.053 77.7298C414.865 78.6893 415.794 79.4768 416.789 80.134C417.122 79.8439 417.461 79.5085 417.772 79.1501ZM381.122 91.7961C380.426 91.0613 379.425 90.836 378.473 90.7698C377.587 90.7135 376.78 90.9577 376.047 91.4178C376.122 92.0842 376.389 92.7506 376.894 93.3275C377.809 94.3813 379.546 94.5684 380.804 94.3037C380.944 94.2798 381.067 94.2449 381.173 94.2022C382.282 93.7541 381.663 92.3777 381.122 91.7961Z" fill="url(#paint5_radial)"/>
</g>
<mask id="mask9" mask-type="alpha" maskUnits="userSpaceOnUse" x="99" y="109" width="127" height="88">
<path fill-rule="evenodd" clip-rule="evenodd" d="M99.1548 129.196C99.1456 129.18 99.1455 129.157 99.1541 129.128C100.056 126.839 101.735 125.051 103.382 123.28C105.647 120.868 107.934 118.596 110.601 116.644C115.355 113.162 120.849 110.773 126.716 109.954C130.839 109.381 135.757 110.619 138.919 113.586C144.975 111.196 151.887 111.443 157.761 115.548C162.999 119.207 164.73 126.58 163.141 132.878C165.965 135.885 167.162 140.822 167.163 144.597C167.174 151.263 165.936 157.898 167.65 164.489C168.328 167.098 169.63 169.567 171.783 171.248C172.626 171.94 173.747 172.532 174.916 172.823C173.769 170.223 174.228 167.119 176.903 165.168C178.396 164.045 180.415 164.524 181.655 165.785C183.057 167.194 182.692 170.022 182.133 171.69C181.668 173.055 180.811 174.018 179.714 174.642C180.784 175.32 181.939 175.841 182.884 176.206C187.74 178.144 193.669 177.414 198.795 177.246C203.82 177.109 208.901 177.236 213.675 179.011C220.744 181.635 226.005 188.107 225.392 195.858C225.381 196.047 225.252 196.208 225.082 196.31L225.068 196.319C224.738 196.515 224.266 196.49 224.22 196.028C223.679 189.983 220.883 185.14 215.582 182.088C209.324 178.454 201.738 179.16 194.809 179.436C188.784 179.661 182.522 179.637 177.45 175.949C177.286 175.821 177.114 175.681 176.957 175.54C175.14 175.759 173.209 175.45 171.659 174.778C166.859 172.668 164.933 167.211 164.204 162.416C163.765 159.616 163.728 156.728 163.844 153.896C164.021 150.012 164.748 145.94 163.947 142.133C163.508 140.052 162.921 138.05 161.844 136.374C160.713 138.588 159.084 140.505 156.923 141.799C155.166 142.885 153.43 143.251 151.518 142.391C149.537 141.517 148.236 138.789 148.485 136.705C149.099 131.639 154.573 129.162 159.188 130.424C159.9 130.614 160.533 130.892 161.136 131.243C161.276 130.583 161.401 129.894 161.478 129.202C162.337 121.793 157.547 115.896 150.619 113.934C147.083 112.922 143.314 113.29 139.846 114.578C140.334 115.165 140.747 115.798 141.108 116.503C143.531 121.382 142.228 126.759 139.562 131.229C137.229 135.164 131.052 140.864 126.573 136.686C122.742 133.087 125.286 126.075 127.708 122.537C129.546 119.892 131.897 117.614 134.522 115.883C130.289 112.399 123.506 113.136 118.592 114.43C112.023 116.156 106.893 120.374 102.227 125.105C101.03 126.309 99.9914 127.629 99.3074 129.162C99.2759 129.23 99.1892 129.245 99.1589 129.202L99.1548 129.196ZM136.117 117.591C135.903 117.304 135.695 117.035 135.471 116.799C133.883 117.83 132.461 119.062 131.258 120.427C129.224 122.715 127.517 125.533 127.02 128.587C126.757 130.217 127.125 132.416 128.111 133.751C129.61 135.725 132.067 134.017 133.277 132.679C136.656 128.917 139.367 122.937 136.537 118.223C136.409 118.011 136.268 117.799 136.117 117.591ZM158.977 133.567C155.957 131.749 150.922 133.412 151.357 137.42C151.54 138.983 153.251 140.482 154.794 140.119C156.125 139.822 157.311 138.456 158.156 137.463C158.976 136.51 159.609 135.469 160.103 134.384C159.764 134.1 159.379 133.818 158.977 133.567ZM177.2 167.787C176.584 168.59 176.518 169.614 176.601 170.564C176.684 171.448 177.052 172.207 177.621 172.859C178.267 172.681 178.884 172.313 179.374 171.724C180.272 170.655 180.185 168.91 179.727 167.709C179.682 167.575 179.628 167.458 179.569 167.36C178.953 166.335 177.69 167.162 177.2 167.787Z" fill="white"/>
</mask>
<g mask="url(#mask9)">
<path fill-rule="evenodd" clip-rule="evenodd" d="M99.1548 129.196C99.1456 129.18 99.1455 129.157 99.1541 129.128C100.056 126.839 101.735 125.051 103.382 123.28C105.647 120.868 107.934 118.596 110.601 116.644C115.355 113.162 120.849 110.773 126.716 109.954C130.839 109.381 135.757 110.619 138.919 113.586C144.975 111.196 151.887 111.443 157.761 115.548C162.999 119.207 164.73 126.58 163.141 132.878C165.965 135.885 167.162 140.822 167.163 144.597C167.174 151.263 165.936 157.898 167.65 164.489C168.328 167.098 169.63 169.567 171.783 171.248C172.626 171.94 173.747 172.532 174.916 172.823C173.769 170.223 174.228 167.119 176.903 165.168C178.396 164.045 180.415 164.524 181.655 165.785C183.057 167.194 182.692 170.022 182.133 171.69C181.668 173.055 180.811 174.018 179.714 174.642C180.784 175.32 181.939 175.841 182.884 176.206C187.74 178.144 193.669 177.414 198.795 177.246C203.82 177.109 208.901 177.236 213.675 179.011C220.744 181.635 226.005 188.107 225.392 195.858C225.381 196.047 225.252 196.208 225.082 196.31L225.068 196.319C224.738 196.515 224.266 196.49 224.22 196.028C223.679 189.983 220.883 185.14 215.582 182.088C209.324 178.454 201.738 179.16 194.809 179.436C188.784 179.661 182.522 179.637 177.45 175.949C177.286 175.821 177.114 175.681 176.957 175.54C175.14 175.759 173.209 175.45 171.659 174.778C166.859 172.668 164.933 167.211 164.204 162.416C163.765 159.616 163.728 156.728 163.844 153.896C164.021 150.012 164.748 145.94 163.947 142.133C163.508 140.052 162.921 138.05 161.844 136.374C160.713 138.588 159.084 140.505 156.923 141.799C155.166 142.885 153.43 143.251 151.518 142.391C149.537 141.517 148.236 138.789 148.485 136.705C149.099 131.639 154.573 129.162 159.188 130.424C159.9 130.614 160.533 130.892 161.136 131.243C161.276 130.583 161.401 129.894 161.478 129.202C162.337 121.793 157.547 115.896 150.619 113.934C147.083 112.922 143.314 113.29 139.846 114.578C140.334 115.165 140.747 115.798 141.108 116.503C143.531 121.382 142.228 126.759 139.562 131.229C137.229 135.164 131.052 140.864 126.573 136.686C122.742 133.087 125.286 126.075 127.708 122.537C129.546 119.892 131.897 117.614 134.522 115.883C130.289 112.399 123.506 113.136 118.592 114.43C112.023 116.156 106.893 120.374 102.227 125.105C101.03 126.309 99.9914 127.629 99.3074 129.162C99.2759 129.23 99.1892 129.245 99.1589 129.202L99.1548 129.196ZM136.117 117.591C135.903 117.304 135.695 117.035 135.471 116.799C133.883 117.83 132.461 119.062 131.258 120.427C129.224 122.715 127.517 125.533 127.02 128.587C126.757 130.217 127.125 132.416 128.111 133.751C129.61 135.725 132.067 134.017 133.277 132.679C136.656 128.917 139.367 122.937 136.537 118.223C136.409 118.011 136.268 117.799 136.117 117.591ZM158.977 133.567C155.957 131.749 150.922 133.412 151.357 137.42C151.54 138.983 153.251 140.482 154.794 140.119C156.125 139.822 157.311 138.456 158.156 137.463C158.976 136.51 159.609 135.469 160.103 134.384C159.764 134.1 159.379 133.818 158.977 133.567ZM177.2 167.787C176.584 168.59 176.518 169.614 176.601 170.564C176.684 171.448 177.052 172.207 177.621 172.859C178.267 172.681 178.884 172.313 179.374 171.724C180.272 170.655 180.185 168.91 179.727 167.709C179.682 167.575 179.628 167.458 179.569 167.36C178.953 166.335 177.69 167.162 177.2 167.787Z" fill="url(#paint6_radial)"/>
</g>
</g>
<path fill-rule="evenodd" clip-rule="evenodd" d="M410.342 153.414C417.536 147.63 425.336 141.443 431.382 136.863C444.23 127.132 455.742 121.445 458.956 119.934C454.272 120.372 434.611 122.85 419.134 134.527C416.113 136.806 413.289 139.349 410.671 141.996L410.946 142.025L410.944 142.04C410.915 142.298 410.516 145.852 410.402 149.093C410.327 151.217 410.33 152.651 410.342 153.414ZM422.715 162.301C413.93 166.833 403.344 169.867 390.711 169.976C393.67 167.549 415.314 149.832 429.547 138.961C430.521 138.822 434.689 138.283 439.882 138.346C445.182 138.411 448.518 139.008 449.182 139.137C444.448 145.609 437.986 152.622 429.46 158.325L417.985 156.485C417.985 156.485 421.142 160.451 422.715 162.301ZM390.558 169.22C392.291 165.964 399.387 153.27 410.196 142.285C410.089 143.299 409.79 146.275 409.697 148.998C409.606 151.629 409.637 153.209 409.653 153.771C400.685 160.946 392.787 167.396 390.558 169.22ZM439.735 137.527C435.552 137.469 432.024 137.796 430.258 138.002C430.678 137.685 431.093 137.373 431.497 137.07C445.283 126.751 457.531 121.053 459.621 120.112C458.889 122.033 455.718 129.799 449.268 138.639L449.326 138.374C449.326 138.374 449.324 138.374 449.322 138.373C449.177 138.343 445.636 137.609 439.735 137.527Z" fill="url(#paint7_linear)"/>
<path fill-rule="evenodd" clip-rule="evenodd" d="M267.285 384.018C267.257 383.959 267.228 383.9 267.199 383.842C262.867 375.03 258.145 368.773 256.805 367.067C259.246 368.6 269.316 375.38 274.548 385.97C275.569 388.037 276.409 390.192 277.108 392.346L276.949 392.286L276.946 392.294C276.89 392.441 276.124 394.471 275.288 396.253C274.741 397.421 274.342 398.194 274.123 398.604C271.962 393.865 269.612 388.796 267.657 384.779C266.742 384.176 264.902 383.027 262.599 381.905C259.339 380.315 257.192 379.73 257.104 379.707C257.103 379.706 257.102 379.706 257.102 379.706L257.06 379.865C255.974 373.311 256.388 368.245 256.519 367.007C257.405 368.093 262.545 374.557 267.247 383.94C267.259 383.966 267.272 383.992 267.285 384.018ZM264.967 399.962C268.478 404.833 273.379 409.391 280.196 412.933C279.261 410.806 272.416 395.265 267.7 385.468C267.211 385.124 265.1 383.683 262.268 382.286C259.378 380.86 257.405 380.262 257.01 380.149C257.791 384.952 259.359 390.522 262.407 395.954L269.134 398.124C269.134 398.124 266.329 399.397 264.967 399.962ZM280.542 412.71C280.501 410.476 280.16 401.672 277.341 392.768C277.12 393.345 276.463 395.033 275.763 396.529C275.089 397.974 274.637 398.818 274.474 399.117C277.345 405.457 279.839 411.112 280.542 412.71Z" fill="url(#paint8_radial)"/>
<path fill-rule="evenodd" clip-rule="evenodd" d="M276.624 88.8311C274.942 87.9725 276.965 80.6169 281.143 72.402C285.32 64.1871 290.07 58.2236 291.752 59.0822C293.434 59.9408 291.411 67.2964 287.233 75.5113C285.172 79.5657 282.97 83.0717 281.067 85.4798C282.288 84.4814 283.541 83.4924 284.827 82.513C285.791 80.2188 289.973 75.3076 295.489 70.1535C302.391 63.7044 308.769 59.3173 309.735 60.3547C310.7 61.3921 305.887 67.4611 298.985 73.9102C293.821 78.735 288.951 82.4056 286.421 83.5143C289.279 82.7476 293.027 82.1073 297.153 81.7456C306.32 80.942 313.885 81.8179 314.049 83.702C314.214 85.586 306.916 87.7648 297.749 88.5683C288.606 89.3698 281.057 88.5005 280.854 86.6267C278.595 88.5008 276.449 90.4079 274.418 92.3481C276.632 91.9143 279.659 91.7908 282.967 92.0808C289.548 92.6577 294.75 94.6527 294.585 96.5368C294.421 98.4208 288.952 99.4804 282.371 98.9035C277.048 98.437 272.628 97.0429 271.219 95.5301C267.888 98.9819 264.907 102.535 262.275 106.189C264.24 104.923 267.123 103.628 270.439 102.612C276.982 100.608 282.734 100.449 283.286 102.258C283.838 104.067 278.981 107.158 272.437 109.162C266.336 111.031 260.923 111.295 259.772 109.856C257.668 113.118 255.832 116.457 254.265 119.873C256.742 118.311 260.854 116.58 265.644 115.204C273.809 112.858 280.85 112.43 281.37 114.248C281.89 116.066 275.693 119.442 267.528 121.788C260.854 123.705 254.932 124.341 252.707 123.517C250.946 127.952 249.623 132.515 248.737 137.205L248 137.065C248.612 133.823 249.431 130.642 250.458 127.521C250.304 127.636 250.151 127.69 250.001 127.677C248.591 127.554 247.964 121.535 248.602 114.234C249.239 106.934 250.899 101.115 252.31 101.239C253.72 101.363 254.346 107.381 253.709 114.682C253.512 116.935 253.218 119.047 252.864 120.887C252.927 120.832 252.993 120.777 253.062 120.722C254.544 117.345 256.283 114.043 258.279 110.816C256.891 110.618 256.18 105.776 256.69 99.9351C257.204 94.0474 258.764 89.3748 260.174 89.4984C261.584 89.622 262.311 94.4951 261.797 100.383C261.563 103.059 261.113 105.484 260.56 107.322C262.57 104.399 264.799 101.54 267.245 98.7446C266.973 98.8247 266.72 98.8268 266.492 98.7437C264.719 98.0969 265.113 92.53 267.372 86.3099C269.632 80.0897 272.901 75.5716 274.675 76.2185C276.449 76.8653 276.055 82.4321 273.795 88.6523C273.194 90.3075 272.521 91.8422 271.824 93.1911C272.14 93.0173 272.52 92.859 272.957 92.7178C274.269 91.4347 275.631 90.1661 277.041 88.9118C276.887 88.9203 276.747 88.894 276.624 88.8311ZM283.564 84.4391C283.926 84.1537 284.292 83.8691 284.66 83.5854C284.68 83.6323 284.706 83.6736 284.739 83.7091C284.841 83.8183 285.003 83.8674 285.219 83.8603C284.612 84.0481 284.058 84.2417 283.564 84.4391Z" fill="url(#paint9_linear)"/>
<defs>
<filter id="filter0_d" x="-15" y="423" width="523" height="420" filterUnits="userSpaceOnUse" color-interpolation-filters="sRGB">
<feFlood flood-opacity="0" result="BackgroundImageFix"/>
<feColorMatrix in="SourceAlpha" type="matrix" values="0 0 0 0 0 0 0 0 0 0 0 0 0 0 0 0 0 0 127 0"/>
<feOffset dy="-9"/>
<feGaussianBlur stdDeviation="11.5"/>
<feColorMatrix type="matrix" values="0 0 0 0 0.956863 0 0 0 0 0.960784 0 0 0 0 0.968627 0 0 0 1 0"/>
<feBlend mode="normal" in2="BackgroundImageFix" result="effect1_dropShadow"/>
<feBlend mode="normal" in="SourceGraphic" in2="effect1_dropShadow" result="shape"/>
</filter>
<linearGradient id="paint0_linear" x1="312.166" y1="535" x2="312.166" y2="696.427" gradientUnits="userSpaceOnUse">
<stop stop-color="#FFE200"/>
<stop offset="1" stop-color="#EDC137"/>
</linearGradient>
<radialGradient id="paint1_radial" cx="0" cy="0" r="1" gradientUnits="userSpaceOnUse" gradientTransform="translate(170.83 256.635) rotate(46.9716) scale(68.6288 69.1743)">
<stop stop-color="#7CB342"/>
<stop offset="0.318667" stop-color="#6EB715"/>
<stop offset="0.773043" stop-color="#3F8519"/>
<stop offset="1" stop-color="#3F8519"/>
</radialGradient>
<linearGradient id="paint2_linear" x1="94.3194" y1="253.927" x2="94.3194" y2="304.073" gradientUnits="userSpaceOnUse">
<stop stop-color="#13AA57"/>
<stop offset="1" stop-color="#094B27"/>
</linearGradient>
<radialGradient id="paint3_radial" cx="0" cy="0" r="1" gradientUnits="userSpaceOnUse" gradientTransform="translate(295 326) rotate(151) scale(26.4126 15.6825)">
<stop stop-color="#8CCF15"/>
<stop offset="1" stop-color="#498000"/>
</radialGradient>
<linearGradient id="paint4_linear" x1="257.91" y1="190.996" x2="291.137" y2="209.414" gradientUnits="userSpaceOnUse">
<stop stop-color="#13AA57"/>
<stop offset="1" stop-color="#094B27"/>
</linearGradient>
<radialGradient id="paint5_radial" cx="0" cy="0" r="1" gradientUnits="userSpaceOnUse" gradientTransform="translate(391.409 78.2944) rotate(158) scale(52.5824 31.6595)">
<stop stop-color="#8CCF15"/>
<stop offset="1" stop-color="#498000"/>
</radialGradient>
<radialGradient id="paint6_radial" cx="0" cy="0" r="1" gradientUnits="userSpaceOnUse" gradientTransform="translate(162.256 159.739) rotate(59) scale(52.5824 31.6595)">
<stop stop-color="#8CCF15"/>
<stop offset="1" stop-color="#498000"/>
</radialGradient>
<linearGradient id="paint7_linear" x1="430.445" y1="130.297" x2="422.364" y2="160.456" gradientUnits="userSpaceOnUse">
<stop stop-color="#13AA57"/>
<stop offset="1" stop-color="#094B27"/>
</linearGradient>
<radialGradient id="paint8_radial" cx="0" cy="0" r="1" gradientUnits="userSpaceOnUse" gradientTransform="translate(263.894 365.37) rotate(58.3942) scale(29.4826 29.7522)">
<stop stop-color="#7CB342"/>
<stop offset="0.318667" stop-color="#6EB715"/>
<stop offset="0.773043" stop-color="#3F8519"/>
<stop offset="1" stop-color="#3F8519"/>
</radialGradient>
<linearGradient id="paint9_linear" x1="279.248" y1="116.601" x2="248" y2="116.601" gradientUnits="userSpaceOnUse">
<stop stop-color="#094B27"/>
<stop offset="1" stop-color="#13AA57"/>
</linearGradient>
<clipPath id="clip0">
<rect x="99.7998" y="42.3999" width="142" height="31" fill="white"/>
</clipPath>
</defs>
</svg>
