<svg width="206" height="48" viewBox="0 0 206 48" fill="none" xmlns="http://www.w3.org/2000/svg">
<path d="M25.6594 1.8419C26.1851 2.79323 26.7231 4.12794 26.7231 5.61726C26.7231 7.10658 26.1851 8.44129 25.6594 9.39261C25.3954 9.87033 25.1314 10.257 24.9328 10.525C24.8334 10.6591 24.7501 10.7639 24.691 10.8359C24.6615 10.8718 24.6379 10.8997 24.6214 10.9189L24.6021 10.9412L24.5966 10.9475L24.5949 10.9493L24.5942 10.9502L24.3402 10.7236C24.594 10.9504 24.5941 10.9503 24.5942 10.9502L24.3402 11.2345L24.0861 10.9502L24.0854 10.9493L24.0837 10.9475L24.0782 10.9412L24.0589 10.9189C24.0424 10.8997 24.0189 10.8718 23.9893 10.8359C23.9302 10.7639 23.8469 10.6591 23.7475 10.525C23.5489 10.257 23.2849 9.87033 23.021 9.39261C22.4953 8.44129 21.9572 7.10658 21.9572 5.61726C21.9572 4.12794 22.4953 2.79323 23.021 1.8419C23.2849 1.36419 23.5489 0.977546 23.7475 0.709543C23.8469 0.575415 23.9302 0.470645 23.9893 0.398668C24.0189 0.36267 24.0424 0.334845 24.0589 0.315621L24.0782 0.293281L24.0837 0.287042L24.0854 0.285173L24.0861 0.284322L24.3402 0.510949L24.5942 0.284322L24.5949 0.285173L24.5966 0.287042L24.6021 0.293281L24.6214 0.315621C24.6379 0.334845 24.6615 0.36267 24.691 0.398668C24.7501 0.470645 24.8334 0.575415 24.9328 0.709543C25.1314 0.977546 25.3954 1.36419 25.6594 1.8419Z" fill="#13AA57"/>
<path d="M24.5942 0.284322C24.5941 0.284228 24.594 0.284144 24.3402 0.510949C24.0863 0.284144 24.0862 0.284228 24.0861 0.284322L24.3402 0L24.5942 0.284322Z" fill="#13AA57"/>
<path d="M21.6381 20.9574L21.63 21.3147L21.6286 21.3147L21.6253 21.3146L21.614 21.3142L21.5727 21.3127C21.5371 21.3112 21.4855 21.3087 21.4195 21.3044C21.2875 21.296 21.0976 21.2808 20.8616 21.2537C20.39 21.1996 19.7326 21.0976 18.9856 20.9062C17.4971 20.5248 15.6229 19.7805 14.164 18.3215C12.705 16.8626 11.9606 14.9884 11.5792 13.4999C11.3878 12.7528 11.2859 12.0954 11.2318 11.6239C11.2047 11.3879 11.1895 11.198 11.181 11.066C11.1768 11 11.1743 10.9484 11.1728 10.9128L11.1712 10.8715L11.1709 10.8601L11.1708 10.8568L11.1708 10.8558L11.5281 10.8474L11.5362 10.49L11.5376 10.49L11.5409 10.4901L11.5523 10.4905L11.5936 10.492C11.6292 10.4935 11.6807 10.496 11.7467 10.5003C11.8787 10.5087 12.0687 10.5239 12.3047 10.551C12.7762 10.6051 13.4336 10.707 14.1806 10.8985C15.6691 11.2799 17.5433 12.0242 19.0023 13.4832C20.4613 14.9421 21.2056 16.8163 21.587 18.3048C21.7784 19.0519 21.8803 19.7092 21.9345 20.1808C21.9616 20.4168 21.9768 20.6067 21.9852 20.7387C21.9894 20.8047 21.992 20.8563 21.9935 20.8919L21.995 20.9332L21.9953 20.9446L21.9954 20.9479L21.9955 20.9489L21.6381 20.9574C21.9954 20.9496 21.9955 20.949 21.9955 20.9489L22.0036 21.3228L21.63 21.3147C21.6302 21.3147 21.6303 21.3147 21.6381 20.9574Z" fill="#13AA57"/>
<path d="M11.5362 10.49C11.5361 10.49 11.5359 10.49 11.5281 10.8474C11.1708 10.8552 11.1708 10.8557 11.1708 10.8558L11.1626 10.4818L11.5362 10.49Z" fill="#13AA57"/>
<path fill-rule="evenodd" clip-rule="evenodd" d="M26.5146 25.4687L26.516 25.4687L26.5193 25.4688L26.5307 25.4691L26.572 25.4706C26.6076 25.4721 26.6592 25.4747 26.7252 25.4789C26.8572 25.4874 27.0471 25.5025 27.2831 25.5296C27.7546 25.5838 28.412 25.6857 29.1591 25.8771C30.6476 26.2585 32.5218 27.0029 33.9807 28.4618C35.4397 29.9208 36.184 31.795 36.5654 33.2835C36.7568 34.0305 36.8587 34.6879 36.9129 35.1595C36.94 35.3954 36.9552 35.5854 36.9636 35.7174C36.9679 35.7834 36.9704 35.8349 36.9719 35.8706L36.9734 35.9119L36.9738 35.9232L36.9739 35.9275L36.982 36.3015L36.6085 36.2933L36.6071 36.2933L36.6038 36.2932L36.5924 36.2929L36.5511 36.2913C36.5155 36.2899 36.4639 36.2873 36.3979 36.2831C36.2659 36.2746 36.076 36.2594 35.84 36.2324C35.3684 36.1782 34.7111 36.0763 33.964 35.8849C32.4755 35.5035 30.6013 34.7591 29.1424 33.3002C27.6834 31.8412 26.9391 29.967 26.5577 28.4785C26.3662 27.7315 26.2643 27.0741 26.2102 26.6025C26.1831 26.3666 26.1679 26.1766 26.1595 26.0446C26.1552 25.9786 26.1527 25.927 26.1512 25.8914L26.1497 25.8501L26.1493 25.8388L26.1492 25.8355L26.1492 25.8344L26.5066 25.826L26.5146 25.4687ZM36.6165 35.9361L36.6085 36.2933C36.6086 36.2933 36.6087 36.2933 36.6165 35.9361Z" fill="#13AA57"/>
<path d="M26.5146 25.4687C26.5145 25.4687 26.5144 25.4687 26.5066 25.826C26.1492 25.8338 26.1492 25.8343 26.1492 25.8344L26.141 25.4605L26.5146 25.4687Z" fill="#13AA57"/>
<path fill-rule="evenodd" clip-rule="evenodd" d="M19.0022 33.3003C20.4612 31.8413 21.2055 29.9671 21.5869 28.4786C21.7784 27.7316 21.8803 27.0742 21.9344 26.6026C21.9615 26.3667 21.9767 26.1767 21.9851 26.0447C21.9894 25.9787 21.9919 25.9272 21.9934 25.8915L21.9949 25.8502L21.9953 25.8389L21.9954 25.8356L21.9954 25.8342L22.0036 25.4606L21.6296 25.4688L21.6286 25.4688L21.6253 25.4689L21.6139 25.4692L21.5726 25.4708C21.537 25.4723 21.4854 25.4748 21.4194 25.479C21.2874 25.4875 21.0975 25.5027 20.8615 25.5298C20.39 25.5839 19.7326 25.6858 18.9855 25.8772C17.497 26.2586 15.6228 27.003 14.1639 28.4619C12.7049 29.9209 11.9606 31.7951 11.5792 33.2836C11.3878 34.0306 11.2859 34.688 11.2317 35.1596C11.2046 35.3955 11.1894 35.5855 11.181 35.7175C11.1767 35.7835 11.1742 35.8351 11.1727 35.8707L11.1712 35.912L11.1708 35.9233L11.1708 35.9266L11.1707 35.928L11.1626 36.3016L11.5365 36.2934L11.5408 36.2933L11.5522 36.293L11.5935 36.2915C11.6291 36.29 11.6807 36.2874 11.7467 36.2832C11.8787 36.2747 12.0686 36.2596 12.3046 36.2325C12.7762 36.1783 13.4335 36.0764 14.1806 35.885C15.6691 35.5036 17.5433 34.7592 19.0022 33.3003ZM11.5365 36.2934L11.5281 35.9361C11.5359 36.2935 11.5364 36.2934 11.5365 36.2934ZM11.5281 35.9361L11.1707 35.928C11.1707 35.9282 11.1708 35.9283 11.5281 35.9361ZM21.6296 25.4688L21.638 25.8261C21.6302 25.4688 21.6297 25.4688 21.6296 25.4688ZM21.638 25.8261L21.9954 25.8342C21.9954 25.834 21.9954 25.8339 21.638 25.8261Z" fill="#13AA57"/>
<path d="M36.6166 10.8475L36.9739 10.8555L36.9739 10.8569L36.9738 10.8602L36.9735 10.8716L36.9719 10.9129C36.9704 10.9485 36.9679 11.0001 36.9637 11.0661C36.9552 11.1981 36.94 11.388 36.9129 11.624C36.8588 12.0956 36.7569 12.7529 36.5655 13.5C36.1841 14.9885 35.4397 16.8627 33.9808 18.3216C32.5218 19.7806 30.6476 20.5249 29.1591 20.9063C28.4121 21.0978 27.7547 21.1997 27.2831 21.2538C27.0472 21.2809 26.8572 21.2961 26.7252 21.3045C26.6592 21.3088 26.6076 21.3113 26.572 21.3128L26.5307 21.3143L26.5194 21.3147L26.5161 21.3148L26.515 21.3148L26.5066 20.9574L26.1493 20.9494L26.1493 20.948L26.1494 20.9447L26.1497 20.9333L26.1512 20.892C26.1527 20.8564 26.1553 20.8048 26.1595 20.7388C26.1679 20.6068 26.1831 20.4169 26.2102 20.1809C26.2644 19.7094 26.3663 19.052 26.5577 18.3049C26.9391 16.8164 27.6835 14.9422 29.1424 13.4833C30.6014 12.0243 32.4756 11.28 33.9641 10.8986C34.7111 10.7072 35.3685 10.6052 35.8401 10.5511C36.076 10.524 36.266 10.5088 36.398 10.5004C36.464 10.4961 36.5155 10.4936 36.5512 10.4921L36.5925 10.4906L36.6038 10.4902L36.6071 10.4901L36.6081 10.4901L36.6166 10.8475Z" fill="#13AA57"/>
<path d="M36.6166 10.8475C36.6088 10.4901 36.6083 10.4901 36.6081 10.4901L36.9821 10.482L36.9739 10.8555C36.9739 10.8554 36.974 10.8553 36.6166 10.8475Z" fill="#13AA57"/>
<path d="M26.1493 20.9494C26.1493 20.9495 26.1492 20.9496 26.5066 20.9574C26.5144 21.3148 26.5149 21.3148 26.515 21.3148L26.1411 21.323L26.1493 20.9494Z" fill="#13AA57"/>
<path fill-rule="evenodd" clip-rule="evenodd" d="M10.8579 18.1211C13.3385 20.6016 16.5027 21.8975 19.0191 22.5753C20.281 22.9152 21.3901 23.1023 22.185 23.2046C22.5828 23.2558 22.9026 23.2859 23.1245 23.3032C23.2354 23.3118 23.322 23.3173 23.3815 23.3206C23.4113 23.3223 23.4344 23.3234 23.4504 23.3242L23.4691 23.325L23.4745 23.3252L23.4761 23.3253C23.4763 23.3253 23.4771 23.3253 23.4954 22.815L23.4761 23.3253L23.9031 23.3406L23.4771 23.3559L23.4954 23.8662C23.4771 23.3559 23.4773 23.3559 23.4771 23.3559L23.4745 23.356L23.4692 23.3562L23.4505 23.357C23.4344 23.3578 23.4114 23.3589 23.3816 23.3606C23.322 23.3639 23.2355 23.3694 23.1245 23.378C22.9026 23.3953 22.5828 23.4254 22.1851 23.4766C21.3901 23.5789 20.2811 23.766 19.0191 24.1059C16.5028 24.7837 13.3385 26.0796 10.858 28.5601C8.37741 31.0407 7.08151 34.2049 6.40374 36.7213C6.06386 37.9832 5.87671 39.0923 5.7744 39.8872C5.72321 40.285 5.69316 40.6048 5.67586 40.8267C5.6672 40.9376 5.66173 41.0242 5.65839 41.0837C5.65672 41.1135 5.65559 41.1366 5.65485 41.1526L5.65404 41.1713L5.65383 41.1767L5.65376 41.1783C5.65376 41.1785 5.65373 41.1793 6.16403 41.1976L5.65376 41.1783L5.63403 41.7276L6.18236 41.7079L6.16403 41.1976C6.18236 41.7079 6.18215 41.7079 6.18236 41.7079L6.18496 41.7078L6.19029 41.7076L6.209 41.7068L6.24706 41.7049L6.27788 41.7032C6.33747 41.6999 6.42399 41.6944 6.53494 41.6858C6.75682 41.6685 7.07664 41.6384 7.47438 41.5872C8.26935 41.4849 9.3784 41.2978 10.6403 40.9579C13.1567 40.2801 16.321 38.9842 18.8015 36.5037C21.282 34.0231 22.5779 30.8589 23.2557 28.3425C23.5956 27.0806 23.7827 25.9715 23.8851 25.1765C23.9362 24.7788 23.9663 24.459 23.9836 24.2371C23.9923 24.1262 23.9977 24.0396 24.0011 23.9801C24.0027 23.9503 24.0039 23.9272 24.0046 23.9112L24.0054 23.8925L24.0056 23.8871L24.0057 23.8855C24.0057 23.8853 24.0057 23.8845 23.4954 23.8662L24.0057 23.8855L24.0211 23.457L24.0364 23.8845L24.5467 23.8662C24.0364 23.8845 24.0364 23.8843 24.0364 23.8845L24.0365 23.8871L24.0367 23.8925L24.0376 23.9112C24.0383 23.9272 24.0394 23.9503 24.0411 23.9801C24.0444 24.0397 24.0499 24.1262 24.0586 24.2371C24.0759 24.459 24.1059 24.7788 24.1571 25.1766C24.2594 25.9715 24.4466 27.0806 24.7865 28.3425C25.4642 30.8589 26.7601 34.0232 29.2407 36.5037C31.7212 38.9842 34.8855 40.2801 37.4019 40.9579C38.6638 41.2978 39.7728 41.4849 40.5678 41.5872C40.9655 41.6384 41.2854 41.6685 41.5072 41.6858C41.6182 41.6944 41.7047 41.6999 41.7643 41.7033C41.7941 41.7049 41.8171 41.7061 41.8332 41.7068L41.8519 41.7076L41.8572 41.7078L41.8588 41.7079C41.8591 41.7079 41.8598 41.7079 41.8781 41.1976L41.8588 41.7079L42.4081 41.7276L42.3884 41.1793L41.8781 41.1976C42.3884 41.1793 42.3884 41.1795 42.3884 41.1793L42.3883 41.1767L42.3881 41.1714L42.3873 41.1526L42.3854 41.1146L42.3838 41.0838C42.3804 41.0242 42.375 40.9377 42.3663 40.8267C42.349 40.6048 42.319 40.285 42.2678 39.8873C42.1655 39.0923 41.9783 37.9832 41.6384 36.7213C40.9607 34.2049 39.6648 31.0407 37.1842 28.5601C34.7037 26.0796 31.5394 24.7837 29.023 24.1059C27.7611 23.766 26.6521 23.5789 25.8571 23.4766C25.4594 23.4254 25.1395 23.3953 24.9177 23.378C24.8067 23.3694 24.7202 23.3639 24.6606 23.3606C24.6308 23.3589 24.6077 23.3578 24.5917 23.357L24.573 23.3562L24.5677 23.356L24.566 23.356C24.5658 23.3559 24.5651 23.3559 24.5467 23.8662L24.566 23.356L24.1385 23.3406L24.5651 23.3253L24.5468 22.815C24.5651 23.3253 24.5649 23.3253 24.5651 23.3253L24.5677 23.3252L24.573 23.325L24.5917 23.3241C24.6078 23.3234 24.6308 23.3223 24.6606 23.3206C24.7202 23.3173 24.8067 23.3118 24.9177 23.3031C25.1396 23.2858 25.4594 23.2558 25.8571 23.2046C26.6521 23.1023 27.7611 22.9151 29.0231 22.5753C31.5394 21.8975 34.7037 20.6016 37.1842 18.121C39.6648 15.6405 40.9607 12.4762 41.6385 9.95986C41.9783 8.69794 42.1655 7.5889 42.2678 6.79393C42.319 6.39619 42.349 6.07636 42.3663 5.85449C42.375 5.74353 42.3805 5.65701 42.3838 5.59743C42.3855 5.56764 42.3866 5.54457 42.3873 5.52855L42.3882 5.50983L42.3884 5.50451L42.3884 5.50287C42.3884 5.50265 42.3885 5.50191 41.8782 5.48358L42.3884 5.50287L42.4082 4.95358L41.8598 4.97328L41.8782 5.48358C41.8598 4.97328 41.86 4.97327 41.8598 4.97328L41.8572 4.97337L41.8519 4.97358L41.8332 4.9744C41.8172 4.97513 41.7941 4.97627 41.7643 4.97794C41.7047 4.98127 41.6182 4.98675 41.5073 4.9954C41.2854 5.01271 40.9656 5.04275 40.5678 5.09394C39.7728 5.19626 38.6638 5.3834 37.4019 5.72329C34.8855 6.40106 31.7212 7.69695 29.2407 10.1775C26.7602 12.658 25.4643 15.8223 24.7865 18.3387C24.4466 19.6006 24.2595 20.7097 24.1571 21.5046C24.1059 21.9024 24.0759 22.2222 24.0586 22.4441C24.0499 22.555 24.0445 22.6415 24.0411 22.7011L24.0391 22.7395L24.0376 22.77L24.0368 22.7887L24.0366 22.794L24.0365 22.7957C24.0365 22.7959 24.0365 22.7966 24.5468 22.815L24.0365 22.7957L24.0211 23.225L24.0057 22.7967L23.4954 22.815C24.0057 22.7967 24.0057 22.7969 24.0057 22.7967L24.0056 22.7941L24.0054 22.7887L24.0046 22.77C24.0038 22.754 24.0027 22.7309 24.001 22.7011C23.9977 22.6416 23.9922 22.555 23.9836 22.4441C23.9663 22.2222 23.9362 21.9024 23.885 21.5046C23.7827 20.7097 23.5956 19.6006 23.2557 18.3387C22.5779 15.8223 21.282 12.6581 18.8015 10.1775C16.3209 7.69698 13.1567 6.40108 10.6403 5.72331C9.37836 5.38342 8.26932 5.19628 7.47435 5.09396C7.07661 5.04277 6.75679 5.01273 6.53491 4.99542C6.42396 4.98677 6.33744 4.98129 6.27785 4.97796C6.24806 4.97629 6.225 4.97515 6.20897 4.97442L6.19026 4.9736L6.18493 4.97339L6.18329 4.97333C6.18308 4.97332 6.18233 4.9733 6.164 5.4836L6.18329 4.97333L5.634 4.9536L5.6537 5.50193L6.164 5.4836C5.6537 5.50193 5.65369 5.50172 5.6537 5.50193L5.6538 5.50453L5.65401 5.50985L5.65482 5.52857C5.65556 5.54459 5.65669 5.56766 5.65836 5.59745C5.6617 5.65703 5.66717 5.74355 5.67582 5.85451C5.69313 6.07638 5.72318 6.39621 5.77437 6.79395C5.87668 7.58892 6.06383 8.69796 6.40371 9.95988C7.08148 12.4763 8.37738 15.6405 10.8579 18.1211ZM22.8721 21.635C22.9033 21.877 22.9261 22.0878 22.9427 22.2623C22.7682 22.2457 22.5574 22.2229 22.3154 22.1917C21.5564 22.094 20.4937 21.9148 19.2847 21.5892C16.8594 20.9359 13.8855 19.7043 11.5801 17.3989C9.27467 15.0935 8.04307 12.1196 7.38983 9.69427C7.06421 8.48533 6.88497 7.42263 6.78728 6.66358C6.75614 6.42164 6.73332 6.21083 6.7167 6.0363C6.89123 6.05292 7.10204 6.07573 7.34399 6.10687C8.10304 6.20456 9.16573 6.38381 10.3747 6.70943C12.8 7.36267 15.7739 8.59427 18.0793 10.8997C20.3847 13.205 21.6163 16.179 22.2696 18.6043C22.5952 19.8133 22.7744 20.876 22.8721 21.635ZM41.2549 40.0176C41.286 40.2596 41.3088 40.4704 41.3254 40.6449C41.1509 40.6283 40.9401 40.6055 40.6982 40.5743C39.9391 40.4766 38.8764 40.2974 37.6675 39.9718C35.2421 39.3185 32.2682 38.0869 29.9628 35.7816C27.6574 33.4762 26.4258 30.5022 25.7726 28.0769C25.447 26.868 25.2677 25.8053 25.17 25.0462C25.1389 24.8043 25.1161 24.5935 25.0994 24.4189C25.274 24.4355 25.4848 24.4584 25.7267 24.4895C26.4858 24.5872 27.5485 24.7664 28.7574 25.092C31.1827 25.7453 34.1567 26.9769 36.4621 29.2823C38.7675 31.5877 39.9991 34.5616 40.6523 36.9869C40.9779 38.1959 41.1572 39.2586 41.2549 40.0176ZM22.9427 24.4189C22.7682 24.4355 22.5574 24.4583 22.3154 24.4895C21.5564 24.5872 20.4937 24.7664 19.2847 25.092C16.8594 25.7453 13.8855 26.9769 11.5801 29.2823C9.2747 31.5876 8.0431 34.5616 7.38986 36.9869C7.06424 38.1959 6.885 39.2586 6.78731 40.0176C6.75617 40.2596 6.73335 40.4704 6.71673 40.6449C6.89126 40.6283 7.10207 40.6055 7.34402 40.5743C8.10307 40.4766 9.16576 40.2974 10.3747 39.9718C12.8 39.3185 15.774 38.0869 18.0794 35.7815C20.3848 33.4761 21.6164 30.5022 22.2696 28.0769C22.5952 26.8679 22.7745 25.8052 22.8722 25.0462C22.9033 24.8042 22.9261 24.5934 22.9427 24.4189ZM40.6982 6.10685C40.9401 6.07571 41.1509 6.0529 41.3255 6.03627C41.3088 6.21081 41.286 6.42162 41.2549 6.66356C41.1572 7.42261 40.978 8.48531 40.6523 9.69425C39.9991 12.1196 38.7675 15.0935 36.4621 17.3989C34.1567 19.7043 31.1828 20.9359 28.7574 21.5891C27.5485 21.9148 26.4858 22.094 25.7268 22.1917C25.4848 22.2228 25.274 22.2457 25.0995 22.2623C25.1161 22.0877 25.1389 21.8769 25.17 21.635C25.2677 20.8759 25.447 19.8132 25.7726 18.6043C26.4258 16.179 27.6574 13.205 29.9628 10.8996C32.2682 8.59425 35.2422 7.36265 37.6675 6.70941C38.8764 6.38379 39.9391 6.20454 40.6982 6.10685Z" fill="#13AA57"/>
<path d="M24.9786 38.6074C25.5043 39.5587 26.0423 40.8934 26.0423 42.3827C26.0423 43.8721 25.5043 45.2068 24.9786 46.1581C24.7146 46.6358 24.4506 47.0225 24.252 47.2905C24.1526 47.4246 24.0693 47.5294 24.0102 47.6013L23.9879 47.6284L23.9587 47.6632L23.9407 47.6844L23.9213 47.7067L23.9158 47.713L23.9142 47.7148L23.9134 47.7157L23.6594 47.4891L23.9012 47.7049L23.9134 47.7157L23.6594 48L23.4054 47.7157L23.4046 47.7148L23.4029 47.713L23.3975 47.7067L23.3781 47.6844C23.3616 47.6652 23.3381 47.6373 23.3085 47.6013C23.2494 47.5294 23.1661 47.4246 23.0667 47.2905C22.8681 47.0225 22.6041 46.6358 22.3402 46.1581C21.8145 45.2068 21.2764 43.8721 21.2764 42.3827C21.2764 40.8934 21.8145 39.5587 22.3402 38.6074C22.6041 38.1297 22.8681 37.743 23.0667 37.475C23.1661 37.3409 23.2494 37.2361 23.3085 37.1641C23.3381 37.1282 23.3616 37.1003 23.3781 37.0811L23.3975 37.0588L23.4029 37.0525L23.4046 37.0507L23.4054 37.0498L23.6594 37.2764L23.9134 37.0498L23.9142 37.0507L23.9158 37.0525L23.9213 37.0588L23.9407 37.0811C23.9571 37.1003 23.9807 37.1282 24.0102 37.1641C24.0693 37.2361 24.1526 37.3409 24.252 37.475C24.4506 37.743 24.7146 38.1297 24.9786 38.6074Z" fill="#13AA57"/>
<path d="M23.9134 37.0498C23.9133 37.0497 23.9132 37.0496 23.6594 37.2764C23.4055 37.0496 23.4054 37.0497 23.4054 37.0498L23.6594 36.7655L23.9134 37.0498Z" fill="#13AA57"/>
<path fill-rule="evenodd" clip-rule="evenodd" d="M47.7156 23.4055L47.7147 23.4047L47.7128 23.403L47.7066 23.3975L47.6843 23.3782C47.665 23.3617 47.6372 23.3382 47.6012 23.3086C47.5292 23.2495 47.4245 23.1662 47.2903 23.0668C47.0223 22.8682 46.6357 22.6042 46.158 22.3403C45.2066 21.8146 43.8719 21.2765 42.3826 21.2765C40.8933 21.2765 39.5586 21.8146 38.6073 22.3403C38.1295 22.6042 37.7429 22.8682 37.4749 23.0668C37.3408 23.1662 37.236 23.2495 37.164 23.3086C37.128 23.3382 37.1002 23.3617 37.081 23.3782L37.0586 23.3975L37.0524 23.403L37.0505 23.4047L37.0497 23.4055L36.7654 23.6595L37.0497 23.9135L37.0505 23.9143L37.0524 23.9159L37.0586 23.9214L37.081 23.9408C37.1002 23.9572 37.128 23.9808 37.164 24.0103C37.236 24.0694 37.3408 24.1527 37.4749 24.2521C37.7429 24.4507 38.1295 24.7147 38.6073 24.9787C39.5586 25.5044 40.8933 26.0424 42.3826 26.0424C43.8719 26.0424 45.2066 25.5044 46.158 24.9787C46.6357 24.7147 47.0223 24.4507 47.2903 24.2521C47.4245 24.1527 47.5292 24.0694 47.6012 24.0103C47.6182 23.9964 47.6333 23.9839 47.6466 23.9727L47.6599 23.9615L47.6843 23.9408L47.7066 23.9214L47.7128 23.9159L47.7147 23.9143L47.7156 23.9135L47.9999 23.6595L47.7156 23.4055ZM37.2763 23.6595L37.0497 23.4055C37.0496 23.4055 37.0495 23.4056 37.2763 23.6595ZM47.7156 23.4055L47.4889 23.6595C47.7157 23.4056 47.7156 23.4055 47.7156 23.4055ZM47.4889 23.6595L47.693 23.888L47.7082 23.9051L47.7156 23.9135L47.4889 23.6595ZM37.2763 23.6595C37.0495 23.9133 37.0496 23.9134 37.0497 23.9135L37.2763 23.6595Z" fill="#13AA57"/>
<path fill-rule="evenodd" clip-rule="evenodd" d="M0.2842 24.0862L-0.00012207 24.3403L0.2842 24.5943L0.285051 24.595L0.28692 24.5967L0.293159 24.6022L0.315499 24.6215C0.334723 24.638 0.362548 24.6616 0.398546 24.6911C0.470523 24.7502 0.575292 24.8335 0.709421 24.9329C0.977424 25.1315 1.36406 25.3955 1.84178 25.6595C2.79311 26.1852 4.12782 26.7232 5.61714 26.7232C7.10645 26.7232 8.44117 26.1852 9.39249 25.6595C9.87021 25.3955 10.2569 25.1315 10.5249 24.9329C10.659 24.8335 10.7638 24.7502 10.8357 24.6911C10.8717 24.6616 10.8996 24.638 10.9188 24.6215L10.9411 24.6022L10.9474 24.5967L10.9492 24.595L10.9501 24.5943L11.2344 24.3403L10.9501 24.0862L10.9492 24.0855L10.9474 24.0838L10.9411 24.0783L10.9188 24.059C10.8996 24.0425 10.8717 24.019 10.8357 23.9894C10.7638 23.9303 10.659 23.847 10.5249 23.7476C10.2569 23.549 9.87021 23.285 9.39249 23.0211C8.44117 22.4954 7.10645 21.9573 5.61714 21.9573C4.12782 21.9573 2.79311 22.4954 1.84178 23.0211C1.36406 23.285 0.977424 23.549 0.709421 23.7476C0.575292 23.847 0.470523 23.9303 0.398546 23.9894C0.362548 24.019 0.334723 24.0425 0.315499 24.059L0.293159 24.0783L0.28692 24.0838L0.285051 24.0855L0.2842 24.0862ZM0.2842 24.5943L0.51077 24.3404C0.283964 24.5942 0.284106 24.5942 0.2842 24.5943ZM10.9501 24.0862L10.7234 24.3403C10.9503 24.0864 10.9502 24.0863 10.9501 24.0862ZM10.7234 24.3403L10.9501 24.5943C10.9502 24.5942 10.9503 24.5941 10.7234 24.3403ZM0.2842 24.0862C0.284106 24.0863 0.283964 24.0865 0.51077 24.3404L0.2842 24.0862Z" fill="#13AA57"/>
<path d="M55.9999 24C55.9999 22.1913 56.4104 20.6087 57.2314 19.2522C58.0524 17.8783 59.1582 16.8261 60.5488 16.0957C61.9563 15.3652 63.5145 15 65.2235 15C67.033 15 68.5493 15.4 69.7724 16.2C70.9955 17 71.9338 18.0261 72.5873 19.2783L68.3148 21.5478C68.0299 20.9913 67.611 20.5391 67.0581 20.1913C66.522 19.8261 65.9104 19.6435 65.2235 19.6435C64.436 19.6435 63.7323 19.8348 63.1123 20.2174C62.4924 20.6 62.0065 21.1304 61.6547 21.8087C61.3196 22.4696 61.152 23.2 61.152 24C61.152 24.8 61.3196 25.5391 61.6547 26.2174C62.0065 26.8783 62.4924 27.4 63.1123 27.7826C63.7323 28.1652 64.436 28.3565 65.2235 28.3565C65.7596 28.3565 66.2707 28.287 66.7565 28.1478C67.2424 28.0087 67.6446 27.8174 67.9629 27.5739V26.8174H64.7208V22.487H72.8888V29.4783C70.8447 31.8261 68.2896 33 65.2235 33C63.5312 33 61.9814 32.6348 60.574 31.9043C59.1666 31.1565 58.0524 30.1043 57.2314 28.7478C56.4104 27.3913 55.9999 25.8087 55.9999 24Z" fill="#13AA57"/>
<path d="M82.0518 27.1043H80.2171V32.687H75.1404V15.287H84.0875C85.3441 15.287 86.4248 15.5565 87.3296 16.0957C88.2511 16.6174 88.9464 17.3304 89.4156 18.2348C89.8847 19.1391 90.1193 20.1478 90.1193 21.2609C90.1193 22.6174 89.8177 23.7304 89.2145 24.6C88.6281 25.4696 87.9244 26.113 87.1034 26.5304L90.1444 32.687H84.3639L82.0518 27.1043ZM84.9671 21.1826C84.9671 20.7304 84.7996 20.3652 84.4645 20.087C84.1461 19.8087 83.7608 19.6696 83.3084 19.6696H80.2171V22.7217H83.3084C83.7608 22.7217 84.1461 22.5826 84.4645 22.3043C84.7996 22.0261 84.9671 21.6522 84.9671 21.1826Z" fill="#13AA57"/>
<path d="M92.1734 15.287H104.89V19.6696H97.2502V21.7043H104.715V26.087H97.2502V28.3043H104.89V32.687H92.1734V15.287Z" fill="#13AA57"/>
<path d="M107.145 15.287H119.862V19.6696H112.222V21.7043H119.686V26.087H112.222V28.3043H119.862V32.687H107.145V15.287Z" fill="#13AA57"/>
<path d="M127.193 23.3478V32.687H122.116V15.287H127.344L133.175 24.0522V15.287H138.251V32.687H133.376L127.193 23.3478Z" fill="#13AA57"/>
<path d="M149.159 33C147.467 33 145.925 32.6261 144.534 31.8783C143.144 31.113 142.046 30.0435 141.242 28.6696C140.455 27.2957 140.061 25.7391 140.061 24C140.061 22.2435 140.455 20.687 141.242 19.3304C142.046 17.9565 143.135 16.8957 144.509 16.1478C145.9 15.3826 147.45 15 149.159 15C151.22 15 152.87 15.487 154.11 16.4609C155.366 17.4348 156.296 18.6348 156.9 20.0609L152.527 22.1739C152.309 21.4609 151.89 20.8609 151.27 20.3739C150.65 19.887 149.946 19.6435 149.159 19.6435C148.405 19.6435 147.726 19.8348 147.123 20.2174C146.52 20.6 146.051 21.1304 145.716 21.8087C145.381 22.4696 145.213 23.2 145.213 24C145.213 24.8 145.381 25.5391 145.716 26.2174C146.051 26.8783 146.52 27.4 147.123 27.7826C147.726 28.1652 148.405 28.3565 149.159 28.3565C149.946 28.3565 150.65 28.113 151.27 27.6261C151.89 27.1391 152.309 26.5391 152.527 25.8261L156.9 27.913C156.296 29.3217 155.366 30.5217 154.11 31.513C152.853 32.5043 151.203 33 149.159 33Z" fill="#13AA57"/>
<path d="M158.49 15.287H163.566V32.687H158.49V15.287Z" fill="#13AA57"/>
<path d="M169.864 19.8783H165.365V15.287H179.414V19.8783H174.941V32.687H169.864V19.8783Z" fill="#13AA57"/>
<path d="M185.69 25.7739L179.407 15.287H185.112L188.229 21.1565L191.295 15.287H197L190.767 25.7739V32.687H185.69V25.7739Z" fill="#13AA57"/>
</svg>
