<svg width="409" height="400" viewBox="0 0 409 400" fill="none" xmlns="http://www.w3.org/2000/svg">
<path fill-rule="evenodd" clip-rule="evenodd" d="M251.579 85.4772C295.662 104.114 337.316 130.356 354.635 174.543C372.676 220.573 369.146 273.65 341.19 314.108C314.235 353.118 265.627 365.898 218.108 372.128C168.123 378.681 113.834 382.139 75.8688 348.891C35.4358 313.482 22.1602 257.669 27.0125 204.776C32.0189 150.204 52.9984 93.4574 101.674 67.5988C148.088 42.942 202.781 64.8467 251.579 85.4772Z" fill="#DCEFFF" fill-opacity="0.6"/>
<path opacity="0.15" fill-rule="evenodd" clip-rule="evenodd" d="M371.295 235.922C346.869 271.791 308.953 292.546 266.577 301.809C219.411 312.12 166.591 319.716 129.561 288.763C90.924 256.467 83.4699 201.88 86.8805 151.604C90.3296 100.76 105.446 47.9747 147.817 19.6606C189.811 -8.40195 243.642 -0.725482 291.688 14.7422C338.803 29.9103 386.043 55.1648 402.811 101.752C419.173 147.21 398.502 195.969 371.295 235.922Z" fill="#13AA57"/>
<mask id="mask0" mask-type="alpha" maskUnits="userSpaceOnUse" x="73" y="88" width="280" height="216">
<rect x="73.4141" y="88.9807" width="278.767" height="214.259" fill="#C4C4C4"/>
</mask>
<g mask="url(#mask0)">
<path d="M291.103 233.04L268.64 230.098L268.816 232.295L249.61 234.81C249.61 234.81 237.229 265.38 248.141 332.614H263.764L269.385 264.443H271.382L276.827 332.614H292.451C303.362 265.38 291.103 233.04 291.103 233.04Z" fill="#63BB94"/>
<path d="M304.221 200.793C302.3 197.775 291.506 197.88 290.937 197.813C288.019 197.478 292.807 220.334 298.88 240.315C300.044 244.145 304.326 246.141 308.067 244.58C308.109 244.563 308.147 244.547 308.189 244.53C311.148 243.295 312.83 240.206 312.236 237.097C309.34 222.021 306.443 204.284 304.221 200.793Z" fill="#FFB1A5"/>
<path d="M306.79 209.06L293.007 214.325L291.718 207.888L305.986 204.38L306.79 209.06Z" fill="#FFB1A5"/>
<path d="M309.394 221.931C309.394 221.931 302.865 230.561 303.175 230.164C303.484 229.766 308.293 216.214 308.293 216.214L309.394 221.931Z" fill="#FFB1A5"/>
<path d="M318.734 210.338L300.021 234.207C297.564 237.342 298.347 241.871 301.72 244.026C305.089 246.177 309.605 245.047 311.518 241.573L327.096 213.285L318.734 210.338Z" fill="#FFC8C2"/>
<path d="M323.574 216.465C319.519 215.176 317.292 210.89 318.602 206.897C319.912 202.904 324.265 200.711 328.321 202C332.376 203.289 334.603 207.575 333.293 211.568C331.983 215.565 327.63 217.754 323.574 216.465Z" fill="#FFC8C2"/>
<path d="M331.576 204.666C331.576 204.666 333.69 202.507 329.94 200.996C326.194 199.481 321.556 199.828 318.602 206.901L331.576 204.666Z" fill="#FFC8C2"/>
<path d="M335.462 189.581L343.297 192.926C343.732 193.11 343.891 193.62 343.653 194.06L333.344 213.011C333.105 213.455 332.557 213.66 332.122 213.476L324.287 210.131C323.852 209.947 323.693 209.437 323.931 208.997L334.24 190.046C334.478 189.602 335.027 189.397 335.462 189.581Z" fill="#372F5F"/>
<path d="M334.716 189.247L342.551 192.592C342.986 192.776 343.145 193.286 342.906 193.726L332.598 212.677C332.359 213.121 331.811 213.326 331.376 213.142L323.541 209.798C323.106 209.613 322.947 209.103 323.185 208.663L333.494 189.712C333.732 189.268 334.276 189.063 334.716 189.247Z" fill="#261B43"/>
<path d="M333.826 191.176L340.711 194.114L332.311 209.562L325.426 206.62L333.826 191.176Z" fill="#E6E6E6"/>
<path d="M340.711 194.114L325.426 206.62L333.826 191.176L340.711 194.114Z" fill="white"/>
<path d="M327.692 200.364C327.692 200.364 329.437 200.699 331.011 201.578C331.706 201.963 332.062 202.754 331.869 203.516C331.693 204.21 331.103 204.725 330.383 204.817L326.311 205.324C326.311 205.324 324.185 208.932 321.41 209.333L323.959 203.001L327.692 200.364Z" fill="#FFC8C2"/>
<path d="M275.666 170.737C275.218 170.732 304.553 174.734 309.396 207.656L294.174 209.953L291.106 234.81H248.633L240.199 188.884C240.199 188.884 249.608 175.613 267.078 170.737H275.666Z" fill="url(#paint0_linear)"/>
<path d="M278.457 171.205V159.77H264.843V171.343C264.148 171.548 262.984 171.962 261.185 172.804L271.803 179.031L282.66 172.804C282.66 172.799 280.939 171.816 278.457 171.205Z" fill="#FFC8C2"/>
<path d="M264.72 161.17C264.72 161.17 267.164 167.561 273.693 167.008C279.691 166.502 278.737 157.646 278.737 157.646L264.72 161.17Z" fill="#FFB1A5"/>
<path d="M258.779 152.671C256.645 154.575 251.873 147.347 253.937 145.321C256 143.291 257.574 146.476 257.574 146.476L258.495 148.632L259.189 151.553L259.353 152.319L258.779 152.671Z" fill="#FFB1A5"/>
<path d="M254.93 147.877C254.93 147.877 256.546 147.161 257.981 149.467" stroke="#282828" stroke-width="0.9928" stroke-miterlimit="10" stroke-linecap="round" stroke-linejoin="round"/>
<path d="M284.013 152.454C285.976 154.529 291.35 147.724 289.47 145.531C287.591 143.338 285.75 146.381 285.75 146.381L284.649 148.452L283.707 151.307L283.477 152.056L284.013 152.454Z" fill="#FFB1A5"/>
<path d="M288.258 147.998C288.258 147.998 286.71 147.153 285.082 149.329" stroke="#282828" stroke-width="0.9928" stroke-miterlimit="10" stroke-linecap="round" stroke-linejoin="round"/>
<path d="M255.035 138.423C255.035 147.991 262.447 152.528 271.588 152.528C280.729 152.528 288.141 147.991 288.141 138.423C288.141 128.856 280.729 122.348 271.588 122.348C262.447 122.348 255.035 128.86 255.035 138.423Z" fill="#282828"/>
<path d="M257.285 139.087C257.285 144.959 258.126 150.027 258.967 153.627C259.792 157.147 262.11 159.608 265.387 161.592L265.986 161.951C269.451 164.048 273.93 164.094 277.45 162.077C280.999 160.039 283.485 157.356 284.251 153.577C285.64 146.704 285.795 139.091 285.795 139.091C285.795 139.091 287.118 124.267 271.745 124.551C256.368 124.84 257.285 139.087 257.285 139.087Z" fill="#FFC8C2"/>
<path d="M270.61 147.549V149.6C270.61 149.721 270.635 149.838 270.677 149.943C270.849 150.362 271.338 150.563 271.782 150.445L272.736 150.194" stroke="#282828" stroke-width="1.2316" stroke-miterlimit="10" stroke-linecap="round" stroke-linejoin="round"/>
<path d="M268.167 139.594L260.524 141.356C260.524 141.356 260.872 139.444 263.998 138.745C267.124 138.054 268.167 139.594 268.167 139.594Z" fill="#282828"/>
<path d="M274.947 139.594L282.325 141.356C282.325 141.356 281.99 139.444 278.973 138.745C275.955 138.054 274.947 139.594 274.947 139.594Z" fill="#282828"/>
<path d="M265.262 146.382C265.974 146.382 266.551 145.817 266.551 145.118C266.551 144.42 265.974 143.854 265.262 143.854C264.55 143.854 263.973 144.42 263.973 145.118C263.973 145.817 264.55 146.382 265.262 146.382Z" fill="#282828"/>
<path d="M278.765 145.118C278.765 145.817 278.188 146.382 277.476 146.382C276.765 146.382 276.187 145.817 276.187 145.118C276.187 144.42 276.765 143.854 277.476 143.854C278.188 143.854 278.765 144.42 278.765 145.118Z" fill="#282828"/>
<path d="M266.548 152.838H276.484C276.488 152.838 272.081 158.116 266.548 152.838Z" fill="white"/>
<path d="M264.721 151.008C267.747 151.008 270.2 148.593 270.2 145.613C270.2 142.634 267.747 140.219 264.721 140.219C261.696 140.219 259.243 142.634 259.243 145.613C259.243 148.593 261.696 151.008 264.721 151.008Z" stroke="#C98BD2" stroke-width="1.3423" stroke-miterlimit="10"/>
<path d="M278.179 151.008C281.204 151.008 283.657 148.593 283.657 145.613C283.657 142.634 281.204 140.219 278.179 140.219C275.153 140.219 272.7 142.634 272.7 145.613C272.7 148.593 275.153 151.008 278.179 151.008Z" stroke="#C98BD2" stroke-width="1.3423" stroke-miterlimit="10"/>
<path d="M270.196 145.613C270.196 145.613 271.493 144.421 272.699 145.613" stroke="#C98BD2" stroke-width="1.3423" stroke-miterlimit="10"/>
<path d="M259.241 145.614L257.512 145.568" stroke="#C98BD2" stroke-width="1.3423" stroke-miterlimit="10"/>
<path d="M283.664 145.614L285.397 145.568" stroke="#C98BD2" stroke-width="1.3423" stroke-miterlimit="10"/>
<path d="M285.602 144.005C285.602 144.005 279.454 135.827 280.872 127.54C280.872 127.54 285.434 129.8 286.623 135.635C287.812 141.465 285.602 144.005 285.602 144.005Z" fill="#282828"/>
<path d="M257.278 144.558C257.278 144.558 264.419 135.266 263 126.979C263 126.979 258.049 129.796 256.86 135.63C255.671 141.465 257.278 144.558 257.278 144.558Z" fill="#282828"/>
<path d="M285.08 130.801C285.08 130.801 277.187 139.305 255.591 137.849C255.591 137.849 258.897 125.368 269.365 124.037C269.365 124.041 281.452 122.623 285.08 130.801Z" fill="#282828"/>
<path d="M284.532 131.01C290.228 131.01 294.845 126.466 294.845 120.861C294.845 115.255 290.228 110.711 284.532 110.711C278.837 110.711 274.219 115.255 274.219 120.861C274.219 126.466 278.837 131.01 284.532 131.01Z" fill="#282828"/>
<path d="M158.657 233.018L139.454 230.498L139.63 228.301L117.167 231.243C117.167 231.243 104.909 263.584 115.82 330.813H131.444L136.889 262.642H138.885L144.506 330.813H160.13C171.037 263.588 158.657 233.018 158.657 233.018Z" fill="#216B43"/>
<path d="M157.128 141.041C154.529 138.031 152.449 134.52 150.678 129.594C148.778 124.304 142.563 126.455 142.563 126.455C142.563 126.455 137.381 119.896 129.584 122.177C121.787 124.463 119.079 129.924 118.92 136.416C118.761 142.907 113.575 143.924 109.578 151.433C102.526 164.692 114.4 175.859 136.013 172.762L136.042 172.556C138.168 173.193 140.78 173.469 143.965 173.285C169.935 171.77 167.428 152.969 157.128 141.041Z" fill="#282828"/>
<path d="M148.628 150.878C150.763 152.782 155.534 145.554 153.471 143.529C151.407 141.499 149.833 144.684 149.833 144.684L148.913 146.839L148.218 149.761L148.055 150.526L148.628 150.878Z" fill="#FFB1A5"/>
<path d="M152.468 146.082C152.468 146.082 150.853 145.367 149.417 147.673" stroke="#282828" stroke-width="0.9928" stroke-miterlimit="10" stroke-linecap="round" stroke-linejoin="round"/>
<path d="M123.393 150.654C121.43 152.73 116.056 145.925 117.935 143.731C119.814 141.538 121.656 144.577 121.656 144.577L122.757 146.649L123.698 149.503L123.929 150.252L123.393 150.654Z" fill="#FFB1A5"/>
<path d="M119.144 146.199C119.144 146.199 120.693 145.354 122.321 147.53" stroke="#282828" stroke-width="0.9928" stroke-miterlimit="10" stroke-linecap="round" stroke-linejoin="round"/>
<path d="M152.376 136.63C152.376 146.198 144.964 150.735 135.823 150.735C126.682 150.735 119.27 146.198 119.27 136.63C119.27 127.063 126.682 120.555 135.823 120.555C144.964 120.555 152.376 127.063 152.376 136.63Z" fill="#282828"/>
<path d="M142.561 157.978H128.946V175.33H142.561V157.978Z" fill="#FFC8C2"/>
<path d="M126.958 156.895C126.958 156.895 130.75 164.341 135.412 165.504C136.659 165.814 137.986 165.71 139.187 165.291C140.941 164.68 143.168 162.102 143.544 159.252L143.72 157.623C143.724 157.623 135.425 162.068 126.958 156.895Z" fill="#FFB1A5"/>
<path d="M150.122 137.296C150.122 143.168 149.281 148.236 148.44 151.836C147.615 155.356 145.297 157.817 142.02 159.801L141.421 160.161C137.956 162.257 133.477 162.303 129.957 160.286C126.408 158.248 123.922 155.565 123.156 151.786C121.767 144.913 121.612 137.3 121.612 137.3C121.612 137.3 120.289 122.476 135.662 122.76C151.035 123.045 150.122 137.296 150.122 137.296Z" fill="#FFC8C2"/>
<path d="M134.79 146.563V147.78C134.79 147.902 134.815 148.019 134.857 148.124C135.028 148.542 135.518 148.743 135.966 148.626L136.92 148.379" stroke="#282828" stroke-width="1.2298" stroke-miterlimit="10" stroke-linecap="round" stroke-linejoin="round"/>
<path d="M137.996 138.522L146.175 140.426C146.175 140.426 145.802 138.358 142.458 137.605C139.11 136.856 137.996 138.522 137.996 138.522Z" fill="#282828"/>
<path d="M133.701 138.522L125.414 140.426C125.414 140.426 125.791 138.359 129.181 137.606C132.571 136.856 133.701 138.522 133.701 138.522Z" fill="#282828"/>
<path d="M130.731 143.519C130.731 144.213 130.153 144.778 129.442 144.778C128.73 144.778 128.153 144.213 128.153 143.519C128.153 142.824 128.73 142.259 129.442 142.259C130.153 142.259 130.731 142.824 130.731 143.519Z" fill="#282828"/>
<path d="M142.946 143.519C142.946 144.213 142.369 144.778 141.657 144.778C140.946 144.778 140.368 144.213 140.368 143.519C140.368 142.824 140.946 142.259 141.657 142.259C142.369 142.259 142.946 142.824 142.946 143.519Z" fill="#282828"/>
<path d="M129.879 150.735H141.188C141.188 150.735 140.389 153.795 135.262 153.795C131.357 153.795 129.879 150.735 129.879 150.735Z" fill="white"/>
<path d="M121.81 142.213C121.81 142.213 127.958 134.035 126.539 125.748C126.539 125.748 121.977 128.008 120.789 133.842C119.6 139.672 121.81 142.213 121.81 142.213Z" fill="#282828"/>
<path d="M150.128 141.942C150.128 141.942 142.988 133.479 144.407 125.192C144.407 125.192 149.358 128.009 150.547 133.843C151.735 139.677 150.128 141.942 150.128 141.942Z" fill="#282828"/>
<path d="M122.328 129.009C122.328 129.009 129.38 138.342 150.976 136.885C150.976 136.885 148.511 123.576 138.044 122.249C138.044 122.249 125.956 120.826 122.328 129.009Z" fill="#282828"/>
<path d="M102.645 274.064C102.331 274.55 120.616 195.744 115.188 196.932C114.694 197.041 105.185 197.912 103.77 200.737C99.673 208.936 96.7349 273.461 96.7349 273.461L102.645 274.064Z" fill="#FFC8C2"/>
<path d="M96.7359 273.466C96.7359 273.466 93.7894 286.926 104.931 288.399C105.663 288.495 106.375 288.068 106.618 287.382L106.651 287.29C106.919 286.528 106.53 285.712 105.785 285.386C103.968 284.586 101.151 282.565 102.549 277.978C102.549 277.978 104.161 277.785 105.048 280.74C105.278 281.502 106.145 281.882 106.864 281.527C107.354 281.284 107.635 280.765 107.563 280.225C107.296 278.153 106.237 273.169 102.177 271.829L96.7359 273.466Z" fill="#FFC8C2"/>
<path d="M100.476 219.675C100.476 219.675 111.015 234.281 111.069 233.997C111.124 233.716 114.753 213.489 114.753 213.489L101.966 208.035L100.476 219.675Z" fill="#FFB1A5"/>
<path d="M129.76 172.476C130.208 172.472 103.719 172.941 98.8762 205.867L114.098 208.165L117.166 233.022H159.635L168.068 187.096C168.068 187.096 162.075 177.147 144.601 172.271L129.76 172.476Z" fill="#92BEFF"/>
<path d="M116.81 176.457C116.81 176.457 120.556 181.35 135.891 181.35C151.088 181.35 154.972 176.202 154.972 176.202C154.972 176.202 146.015 171.276 135.619 169.681C135.623 169.677 126.34 171.305 116.81 176.457Z" fill="#FFC8C2"/>
<path d="M168.933 280.759L168.971 346.423H201.972L204.508 280.759H168.933Z" fill="#586368"/>
<path d="M240.586 280.76L240.553 346.424H207.551L205.015 280.76H240.586Z" fill="#586368"/>
<path d="M222.564 280.759H188.441V303.57H222.564V280.759Z" fill="#586368"/>
<path d="M193.21 303.576H216.744" stroke="#282828" stroke-width="1.3968" stroke-miterlimit="10" stroke-linecap="round" stroke-linejoin="round"/>
<path d="M261.442 223.459C263.489 245.708 261.329 261.922 261.928 302.863L242.232 303.675L239.298 227.037L261.442 223.459Z" fill="#FFC8C2"/>
<path d="M241.72 240.818C241.72 240.818 253.916 239.718 262.257 234.306L262.035 229.539L241.711 232.263L241.72 240.818Z" fill="#FFB1A5"/>
<path d="M222.152 172.229C222.152 172.229 260.896 181.818 267.915 230.226C267.915 230.226 248.951 238.316 229.95 234.838L234.223 218.649L222.152 172.229Z" fill="url(#paint1_linear)"/>
<path d="M106.433 192.358L135.278 225.891L126.451 250.362C126.451 250.362 104.524 220.358 94.6721 197.166L106.433 192.358Z" fill="#FFC8C2"/>
<path d="M107.396 193.572C107.396 193.572 97.2672 199.206 94.6891 197.167C90.1856 193.606 86.4648 180.572 86.4648 180.572C86.4648 180.572 105.408 173.545 105.228 173.817C105.052 174.094 107.396 193.572 107.396 193.572Z" fill="#FFC8C2"/>
<path d="M107.393 193.573C107.213 192.568 111.147 181.741 112.499 177.681C112.825 176.702 112.139 175.626 111.059 175.425C110.356 175.291 109.243 175.379 108.715 176.371L103.965 184.361L107.393 193.573Z" fill="#FFC8C2"/>
<path d="M107.043 181.865L103.783 165.89C103.59 164.827 102.502 164.094 101.422 164.295C100.484 164.471 99.8692 165.291 99.978 166.216L101.401 178.111L107.043 181.865Z" fill="#FFC8C2"/>
<path d="M100.559 175.972L96.1313 164.563C95.763 163.563 94.6246 163.01 93.616 163.345C92.7412 163.634 92.2515 164.5 92.4566 165.392L95.7421 178.571L100.559 175.972Z" fill="#FFC8C2"/>
<path d="M95.796 179.336L90.1918 168.128C89.677 167.085 88.3962 166.604 87.3457 167.056C86.358 167.479 85.9227 168.58 86.3454 169.58L90.8154 180.16L95.796 179.336Z" fill="#FFC8C2"/>
<path d="M86.4635 180.572L82.0647 173.704C81.7006 172.896 82.0354 171.992 82.8348 171.632C83.5965 171.289 84.5382 171.561 85.0321 172.26L90.8162 180.158L86.4635 180.572Z" fill="#FFC8C2"/>
<path d="M106.146 180.664C106.146 180.664 99.5413 179.982 98.8633 188.646L106.146 180.664Z" fill="#FFC8C2"/>
<path d="M120.602 238.917C120.602 238.917 126.026 257.399 136.841 254.942C147.652 252.486 164.502 229.755 164.502 229.755L160.731 190.944L130.383 227.708L120.602 238.917Z" fill="#FFC8C2"/>
<path d="M139.798 216.285C139.798 216.285 150.044 231.494 158.783 236.86L164.504 229.753L142.435 212.949L139.798 216.285Z" fill="#FFB1A5"/>
<path d="M184.622 171.389C184.622 171.389 154.542 178.065 138.512 212.472C138.512 212.472 148.197 226.836 163.725 233.219L174.121 220.684L184.622 171.389Z" fill="url(#paint2_linear)"/>
<path d="M184.607 171.283C171.632 175.511 162.914 182.195 162.914 182.195L167.79 285.665H241.837L242.197 182.914C242.197 182.914 232.989 175.511 222.149 172.229C213.184 169.517 193.505 168.383 184.607 171.283Z" fill="url(#paint3_linear)"/>
<path d="M222.941 220.294H216.353C212.486 220.294 209.347 217.16 209.347 213.288V200.016H229.943V213.288C229.943 217.16 226.808 220.294 222.941 220.294Z" fill="#429321"/>
<path d="M185.478 134.543L182.394 119.513C182.222 118.287 181.737 116.399 182.327 114.625C183.306 111.687 186.897 106.049 193.037 108.631L194.364 114.583C194.364 114.583 187.985 115.851 185.428 124.063L185.478 134.543Z" fill="#282828"/>
<path d="M192.588 111.733C192.475 113.708 190.705 122.347 184.481 125.498C184.477 125.494 179.024 113.984 192.588 111.733Z" fill="#282828"/>
<path d="M214.432 168.517V142.994H190.529V168.517L183.414 171.71C183.414 171.71 185.084 182.286 202.734 182.521C220.383 182.755 222.158 172.229 222.158 172.229L214.432 168.517Z" fill="#FFC8C2"/>
<path d="M193.04 108.632C193.04 108.632 197.426 97.2396 210.953 103.296C219.14 106.962 221.433 111.876 222.408 115.358C222.731 116.513 222.86 118.338 222.773 119.418L219.5 134.544L206.726 113.617L194.362 114.584L193.04 108.632Z" fill="#282828"/>
<path d="M219.505 134.543C219.505 134.543 221.116 132.019 224.439 133.262C227.762 134.501 226.26 142.449 221.275 143.462C221.275 143.462 219.488 143.847 218.086 142.642C218.086 142.642 219.312 136.77 219.505 134.543Z" fill="#FFB1A5"/>
<path d="M223.774 136.069C223.774 136.069 220.991 135.152 219.015 139.191" stroke="#282828" stroke-width="1.3968" stroke-miterlimit="10" stroke-linecap="round" stroke-linejoin="round"/>
<path d="M185.476 134.546C185.476 134.546 183.864 132.022 180.541 133.265C177.218 134.504 178.721 142.452 183.705 143.465C183.705 143.465 185.492 143.85 186.895 142.644C186.895 142.644 185.672 136.772 185.476 134.546Z" fill="#FFB1A5"/>
<path d="M181.199 136.069C181.199 136.069 183.982 135.153 185.958 139.192" stroke="#282828" stroke-width="1.3968" stroke-miterlimit="10" stroke-linecap="round" stroke-linejoin="round"/>
<path d="M219.834 127.004C219.834 131.793 219.356 141.816 216.364 147.764C213.555 153.347 208.91 156.352 202.82 156.532C196.73 156.712 192.193 154.402 188.556 147.153C184.919 139.904 185.095 127.092 185.095 127.092C185.095 127.092 185.095 109.983 202.276 109.983C220.373 109.983 219.834 127.004 219.834 127.004Z" fill="#FFC8C2"/>
<path d="M190.708 150.724C190.708 150.724 192.709 160.722 201.548 161.869C211.723 163.192 214.431 150.979 214.431 150.979C214.431 150.979 209.936 156.525 202.825 156.533C194.898 156.541 190.708 150.724 190.708 150.724Z" fill="#FFB1A5"/>
<path d="M201.241 134.107V138.066C201.241 138.238 201.275 138.401 201.334 138.548C201.572 139.133 202.258 139.414 202.878 139.251L204.213 138.903" stroke="#282828" stroke-width="1.3968" stroke-miterlimit="10" stroke-linecap="round" stroke-linejoin="round"/>
<path d="M196.169 132.215C196.169 133.065 195.47 133.756 194.604 133.756C193.737 133.756 193.038 133.065 193.038 132.215C193.038 131.366 193.737 130.675 194.604 130.675C195.47 130.675 196.169 131.366 196.169 132.215Z" fill="#282828"/>
<path d="M210.833 132.215C210.833 133.065 210.134 133.756 209.268 133.756C208.401 133.756 207.702 133.065 207.702 132.215C207.702 131.366 208.401 130.675 209.268 130.675C210.134 130.675 210.833 131.366 210.833 132.215Z" fill="#282828"/>
<path d="M205.265 124.556L215.783 127.23C215.783 127.23 215.306 124.325 211.003 123.271C206.696 122.216 205.265 124.556 205.265 124.556Z" fill="#282828"/>
<path d="M198.731 124.556L188.213 127.23C188.213 127.23 188.691 124.325 192.993 123.271C197.3 122.216 198.731 124.556 198.731 124.556Z" fill="#282828"/>
<path d="M196.641 142.06C196.641 142.06 198.193 143.232 202.27 143.232C205.978 143.232 208.297 142.06 208.297 142.06" stroke="#282828" stroke-width="1.3968" stroke-miterlimit="10" stroke-linecap="round" stroke-linejoin="round"/>
<path d="M194.184 139.211C197.855 139.211 200.83 136.282 200.83 132.669C200.83 129.056 197.855 126.128 194.184 126.128C190.513 126.128 187.538 129.056 187.538 132.669C187.538 136.282 190.513 139.211 194.184 139.211Z" stroke="#242424" stroke-miterlimit="10"/>
<path d="M210.517 139.211C214.187 139.211 217.163 136.282 217.163 132.669C217.163 129.056 214.187 126.128 210.517 126.128C206.846 126.128 203.87 129.056 203.87 132.669C203.87 136.282 206.846 139.211 210.517 139.211Z" stroke="#242424" stroke-miterlimit="10"/>
<path d="M200.831 132.672C200.831 132.672 202.405 131.223 203.866 132.672" stroke="#242424" stroke-miterlimit="10"/>
<path d="M187.539 132.669L185.308 132.61" stroke="#242424" stroke-miterlimit="10"/>
<path d="M217.156 132.671L219.642 132.63" stroke="#242424" stroke-miterlimit="10"/>
<path d="M190.708 112.121C190.708 112.121 193.901 121.048 208.303 120.772C218.089 120.588 220.428 127.557 220.428 127.557C220.428 127.557 218.725 111.975 218.277 112.121C217.829 112.268 203.385 108.329 203.385 108.329L190.708 112.121Z" fill="#282828"/>
</g>
<path d="M323 303H80V313H323V303Z" fill="#134742"/>
<defs>
<linearGradient id="paint0_linear" x1="240.201" y1="202.773" x2="309.397" y2="202.773" gradientUnits="userSpaceOnUse">
<stop stop-color="#FAD961"/>
<stop offset="0.0418" stop-color="#FBD449"/>
<stop offset="0.0988" stop-color="#FCCE2E"/>
<stop offset="0.1572" stop-color="#FCCA1B"/>
<stop offset="0.2171" stop-color="#FDC810"/>
<stop offset="0.2809" stop-color="#FDC70C"/>
<stop offset="0.6685" stop-color="#F3903F"/>
<stop offset="0.8876" stop-color="#ED683C"/>
<stop offset="1" stop-color="#F76B1C"/>
</linearGradient>
<linearGradient id="paint1_linear" x1="222.152" y1="203.968" x2="267.916" y2="203.968" gradientUnits="userSpaceOnUse">
<stop stop-color="#B4EC51"/>
<stop offset="1" stop-color="#429321"/>
</linearGradient>
<linearGradient id="paint2_linear" x1="138.514" y1="202.306" x2="184.623" y2="202.306" gradientUnits="userSpaceOnUse">
<stop stop-color="#B4EC51"/>
<stop offset="1" stop-color="#429321"/>
</linearGradient>
<linearGradient id="paint3_linear" x1="162.914" y1="227.625" x2="242.194" y2="227.625" gradientUnits="userSpaceOnUse">
<stop stop-color="#B4EC51"/>
<stop offset="1" stop-color="#429321"/>
</linearGradient>
</defs>
</svg>
