<svg width="6" height="6" viewBox="0 0 6 6" fill="none" xmlns="http://www.w3.org/2000/svg">
<path fill-rule="evenodd" clip-rule="evenodd" d="M5.14645 5.85355C5.34171 6.04882 5.65829 6.04882 5.85355 5.85355C6.04882 5.65829 6.04882 5.34171 5.85355 5.14645L3.70711 3L5.85355 0.853554C6.04882 0.658291 6.04882 0.341709 5.85355 0.146447C5.65829 -0.0488153 5.34171 -0.0488153 5.14645 0.146447L3 2.29289L0.853553 0.146447C0.658291 -0.0488155 0.341709 -0.0488155 0.146447 0.146447C-0.0488156 0.341709 -0.0488156 0.658291 0.146447 0.853553L2.29289 3L0.146447 5.14645C-0.0488153 5.34171 -0.0488153 5.65829 0.146447 5.85355C0.341709 6.04882 0.658291 6.04882 0.853554 5.85355L3 3.70711L5.14645 5.85355Z" fill="#64727D"/>
</svg>
