<svg width="16" height="16" viewBox="0 0 16 16" fill="none" xmlns="http://www.w3.org/2000/svg">
<path d="M9.25 10.75L2.5 10.75" stroke="#1D2830" stroke-linecap="round" stroke-linejoin="round"/>
<path d="M13.5 10.75L11.75 10.75" stroke="#1D2830" stroke-linecap="round" stroke-linejoin="round"/>
<path d="M10.5 12C11.1904 12 11.75 11.4404 11.75 10.75C11.75 10.0596 11.1904 9.5 10.5 9.5C9.80964 9.5 9.25 10.0596 9.25 10.75C9.25 11.4404 9.80964 12 10.5 12Z" stroke="#1D2830" stroke-linecap="round" stroke-linejoin="round"/>
<path d="M5.25 5.25007L2.5 5.25" stroke="#1D2830" stroke-linecap="round" stroke-linejoin="round"/>
<path d="M13.5 5.25L7.75 5.25007" stroke="#1D2830" stroke-linecap="round" stroke-linejoin="round"/>
<path d="M6.5 6.5C7.19036 6.5 7.75 5.94036 7.75 5.25C7.75 4.55964 7.19036 4 6.5 4C5.80964 4 5.25 4.55964 5.25 5.25C5.25 5.94036 5.80964 6.5 6.5 6.5Z" stroke="#1D2830" stroke-linecap="round" stroke-linejoin="round"/>
</svg>
