<svg width="12" height="12" viewBox="0 0 12 12" fill="none" xmlns="http://www.w3.org/2000/svg">
<path fill-rule="evenodd" clip-rule="evenodd" d="M10.5435 4.59742L11.3858 4.74031C11.7442 4.80047 12.0049 5.10881 11.9999 5.47229V6.52764C11.9999 6.89112 11.7392 7.19946 11.3808 7.25962L10.5385 7.4C10.4532 7.68076 10.3379 7.954 10.2001 8.21721L10.6964 8.91409C10.907 9.20989 10.8719 9.61348 10.6162 9.86917L9.86917 10.6162C9.72879 10.7566 9.54329 10.8343 9.34526 10.8343C9.18984 10.8343 9.03943 10.7866 8.91409 10.6964L8.21971 10.2001C7.95901 10.3379 7.68577 10.4507 7.40251 10.5385L7.25962 11.3808C7.19946 11.7392 6.89112 11.9999 6.52764 11.9999H5.46978C5.1063 11.9999 4.79797 11.7392 4.7378 11.3808L4.59742 10.5385C4.32419 10.4532 4.05847 10.3455 3.80528 10.2126L3.10088 10.714C2.97554 10.8042 2.82764 10.8518 2.67222 10.8518C2.47419 10.8518 2.28869 10.7741 2.14831 10.6337L1.40129 9.88672C1.14309 9.63103 1.1105 9.22744 1.32107 8.93164L1.8149 8.24478C1.67453 7.98408 1.55921 7.71084 1.47148 7.43008L0.619173 7.28469C0.260705 7.22452 0 6.91619 0 6.55271V5.49736C0 5.13387 0.260705 4.82554 0.619173 4.76538L1.45142 4.625C1.53665 4.34173 1.64695 4.06849 1.78482 3.80528L1.28347 3.10088C1.0729 2.80508 1.10799 2.40149 1.36369 2.1458L2.11321 1.39878C2.25108 1.2584 2.43909 1.18069 2.63713 1.18069C2.79255 1.18069 2.94295 1.22832 3.06829 1.31856L3.75765 1.8149C4.01836 1.67453 4.2916 1.55921 4.57236 1.47148L4.71775 0.619173C4.77791 0.260705 5.08625 0 5.44973 0H6.50508C6.86856 0 7.1769 0.260705 7.23706 0.619173L7.37744 1.45142C7.67073 1.53916 7.954 1.65698 8.22473 1.79986L8.92161 1.30352C9.04695 1.21328 9.19485 1.16565 9.35027 1.16565C9.5483 1.16565 9.73381 1.24336 9.87418 1.38374L10.6212 2.13076C10.8794 2.38645 10.912 2.79004 10.7014 3.08584L10.2051 3.78022C10.343 4.04092 10.4558 4.31416 10.5435 4.59742ZM10.748 6.53308C10.7774 6.52856 10.7977 6.50372 10.7977 6.47435H10.8V5.52339C10.8 5.49402 10.7797 5.46918 10.7503 5.46466L9.8016 5.30428C9.68414 5.28621 9.58701 5.19812 9.55765 5.08066C9.47181 4.74861 9.3408 4.43012 9.16461 4.13421C9.10362 4.03031 9.10814 3.89929 9.17816 3.80216L9.73609 3.01835C9.75191 2.99351 9.74965 2.96188 9.72932 2.94155L9.05619 2.26842C9.04038 2.25261 9.02231 2.25035 9.01327 2.25035C9.00198 2.25035 8.99068 2.25487 8.97939 2.26165L8.20009 2.82184C8.10071 2.89186 7.97195 2.89638 7.86805 2.83539C7.56536 2.65694 7.24009 2.52367 6.89901 2.43784C6.78155 2.40847 6.69346 2.31134 6.67313 2.19162L6.51501 1.24969C6.51049 1.22033 6.48565 1.2 6.45628 1.2H5.50532C5.47595 1.2 5.45111 1.22033 5.44659 1.24969L5.28395 2.20518C5.26362 2.32264 5.17553 2.41751 5.06033 2.44913C4.72828 2.53496 4.40979 2.67049 4.11614 2.84668C4.01224 2.90767 3.88122 2.90315 3.78184 2.83313L3.00254 2.27746C2.99351 2.27068 2.98221 2.26616 2.96866 2.26616C2.95736 2.26616 2.94155 2.26842 2.92574 2.28424L2.25261 2.95736C2.23228 2.97769 2.23002 3.01158 2.24584 3.03416L2.80828 3.82475C2.87831 3.92188 2.88508 4.05064 2.82409 4.15454C2.65016 4.45045 2.52141 4.7712 2.43784 5.10325C2.40847 5.22071 2.31134 5.3088 2.19162 5.32913L1.24969 5.48725C1.22033 5.49176 1.2 5.51661 1.2 5.54598V6.49694C1.2 6.52631 1.22033 6.55115 1.24969 6.55567L2.20518 6.71831C2.32264 6.73864 2.41751 6.82673 2.44913 6.94193C2.53496 7.27398 2.67049 7.59247 2.84668 7.88612C2.90767 7.99002 2.90315 8.12104 2.83313 8.22042L2.27746 8.99972C2.26165 9.02456 2.26391 9.05619 2.28424 9.07652L2.95736 9.74965C2.97318 9.76546 2.99125 9.76772 3.00028 9.76772C3.01158 9.76772 3.02287 9.7632 3.03416 9.75642L3.82475 9.19398C3.87671 9.15558 3.93995 9.13751 4.00094 9.13751C4.05289 9.13751 4.10711 9.15106 4.15454 9.17816C4.44593 9.34532 4.75765 9.47407 5.08066 9.55765C5.19586 9.58701 5.28395 9.68188 5.30428 9.8016L5.4624 10.7503C5.46692 10.7797 5.49176 10.8 5.52113 10.8H6.47209C6.50146 10.8 6.52631 10.7797 6.53082 10.7503L6.6912 9.8016C6.70927 9.68414 6.79737 9.58701 6.91482 9.55765C7.24687 9.47181 7.56536 9.3408 7.86127 9.16461C7.96518 9.10362 8.09619 9.10814 8.19332 9.17816L8.97713 9.73609C8.98616 9.74287 8.99746 9.74739 9.01101 9.74739C9.02231 9.74739 9.03812 9.74513 9.05393 9.72932L9.72706 9.05619C9.74739 9.03586 9.74965 9.00198 9.73384 8.97939L9.17591 8.19332C9.10588 8.09393 9.10137 7.96518 9.16235 7.86127C9.33854 7.56536 9.46955 7.24687 9.55539 6.91482C9.58475 6.79962 9.67962 6.71153 9.79934 6.6912L10.748 6.53308ZM5.4 6C5.4 5.66925 5.66925 5.4 6 5.4C6.33075 5.4 6.6 5.66925 6.6 6C6.6 6.33075 6.33075 6.6 6 6.6C5.66925 6.6 5.4 6.33075 5.4 6ZM6 4.2C5.00651 4.2 4.2 5.00651 4.2 6C4.2 6.99349 5.00651 7.8 6 7.8C6.99349 7.8 7.8 6.99349 7.8 6C7.8 5.00651 6.99349 4.2 6 4.2Z" fill="#444E55"/>
</svg>
