<svg width="16" height="16" viewBox="0 0 16 16" fill="none" xmlns="http://www.w3.org/2000/svg">
<path d="M8 15C6.61553 15 5.26215 14.5895 4.11101 13.8203C2.95987 13.0511 2.06266 11.9579 1.53285 10.6788C1.00303 9.3997 0.86441 7.99224 1.13451 6.63437C1.4046 5.2765 2.07129 4.02922 3.05026 3.05026C4.02922 2.07129 5.2765 1.4046 6.63437 1.13451C7.99224 0.86441 9.3997 1.00303 10.6788 1.53285C11.9579 2.06266 13.0511 2.95987 13.8203 4.11101C14.5895 5.26215 15 6.61553 15 8C14.998 9.8559 14.2599 11.6352 12.9475 12.9475C11.6352 14.2599 9.8559 14.998 8 15V15ZM8 2.16667C6.84628 2.16667 5.71846 2.50879 4.75918 3.14976C3.79989 3.79074 3.05222 4.70178 2.61071 5.76768C2.16919 6.83358 2.05368 8.00647 2.27876 9.13803C2.50384 10.2696 3.05941 11.309 3.87521 12.1248C4.69102 12.9406 5.73042 13.4962 6.86198 13.7212C7.99353 13.9463 9.16642 13.8308 10.2323 13.3893C11.2982 12.9478 12.2093 12.2001 12.8502 11.2408C13.4912 10.2815 13.8333 9.15373 13.8333 8C13.8316 6.45343 13.2165 4.97068 12.1229 3.87709C11.0293 2.78349 9.54658 2.16837 8 2.16667V2.16667Z" fill="#64727D"/>
<path d="M9.16634 12.082H7.99967V7.9987H6.83301V6.83203H7.99967C8.30909 6.83203 8.60584 6.95495 8.82463 7.17374C9.04342 7.39253 9.16634 7.68928 9.16634 7.9987V12.082Z" fill="#64727D"/>
<path d="M8 5.66797C8.48325 5.66797 8.875 5.27622 8.875 4.79297C8.875 4.30972 8.48325 3.91797 8 3.91797C7.51675 3.91797 7.125 4.30972 7.125 4.79297C7.125 5.27622 7.51675 5.66797 8 5.66797Z" fill="#64727D"/>
</svg>
