<svg width="16" height="16" viewBox="0 0 16 16" fill="none" xmlns="http://www.w3.org/2000/svg">
<path d="M11.5 3H4.5C3.8372 3.00072 3.20178 3.2404 2.73311 3.66646C2.26444 4.09253 2.00079 4.67018 2 5.27273L2 10.7273C2.00079 11.3298 2.26444 11.9075 2.73311 12.3335C3.20178 12.7596 3.8372 12.9993 4.5 13H11.5C12.1628 12.9993 12.7982 12.7596 13.2669 12.3335C13.7356 11.9075 13.9992 11.3298 14 10.7273V5.27273C13.9992 4.67018 13.7356 4.09253 13.2669 3.66646C12.7982 3.2404 12.1628 3.00072 11.5 3ZM4.5 3.90909H11.5C11.7994 3.90963 12.0918 3.9916 12.3395 4.14446C12.5872 4.29732 12.7789 4.51407 12.89 4.76682L9.061 8.24818C8.77921 8.50332 8.39771 8.64658 8 8.64658C7.60229 8.64658 7.22079 8.50332 6.939 8.24818L3.11 4.76682C3.22107 4.51407 3.41281 4.29732 3.66052 4.14446C3.90824 3.9916 4.20061 3.90963 4.5 3.90909ZM11.5 12.0909H4.5C4.10218 12.0909 3.72064 11.9472 3.43934 11.6915C3.15804 11.4358 3 11.0889 3 10.7273V5.95455L6.232 8.89091C6.70131 9.31648 7.33713 9.55547 8 9.55547C8.66287 9.55547 9.29869 9.31648 9.768 8.89091L13 5.95455V10.7273C13 11.0889 12.842 11.4358 12.5607 11.6915C12.2794 11.9472 11.8978 12.0909 11.5 12.0909Z" fill="#64727D"/>
</svg>
