<svg width="16" height="16" viewBox="0 0 16 16" fill="none" xmlns="http://www.w3.org/2000/svg">
<path d="M8.49103 2.50162C8.49103 2.36879 8.5438 2.24141 8.63772 2.14749C8.73164 2.05356 8.85902 2.0008 8.99185 2.0008C10.3196 2.00226 11.5926 2.53037 12.5315 3.46927C13.4704 4.40816 13.9985 5.68116 14 7.00896C14 7.14179 13.9472 7.26917 13.8533 7.36309C13.7594 7.45701 13.632 7.50978 13.4992 7.50978C13.3664 7.50978 13.239 7.45701 13.1451 7.36309C13.0511 7.26917 12.9984 7.14179 12.9984 7.00896C12.9972 5.94673 12.5747 4.92835 11.8236 4.17723C11.0725 3.42612 10.0541 3.00363 8.99185 3.00243C8.85902 3.00243 8.73164 2.94967 8.63772 2.85575C8.5438 2.76183 8.49103 2.63444 8.49103 2.50162ZM8.99185 5.0057C9.52314 5.0057 10.0327 5.21675 10.4084 5.59244C10.784 5.96812 10.9951 6.47766 10.9951 7.00896C10.9951 7.14179 11.0479 7.26917 11.1418 7.36309C11.2357 7.45701 11.3631 7.50978 11.4959 7.50978C11.6287 7.50978 11.7561 7.45701 11.8501 7.36309C11.944 7.26917 11.9967 7.14179 11.9967 7.00896C11.9959 6.21226 11.6791 5.44841 11.1157 4.88506C10.5524 4.3217 9.78855 4.00486 8.99185 4.00406C8.85902 4.00406 8.73164 4.05683 8.63772 4.15075C8.5438 4.24467 8.49103 4.37206 8.49103 4.50488C8.49103 4.63771 8.5438 4.76509 8.63772 4.85901C8.73164 4.95293 8.85902 5.0057 8.99185 5.0057ZM13.5458 10.384C13.836 10.675 13.999 11.0692 13.999 11.4802C13.999 11.8913 13.836 12.2855 13.5458 12.5765L13.09 13.1019C8.98834 17.0288 -0.992912 7.05003 2.87338 2.93532L3.44932 2.43451C3.74068 2.15239 4.1314 1.99632 4.53694 2.00007C4.94249 2.00382 5.33026 2.16708 5.61635 2.45454C5.63188 2.47006 6.55989 3.67553 6.55989 3.67553C6.83525 3.96481 6.98854 4.34909 6.98788 4.74848C6.98723 5.14787 6.83269 5.53164 6.55638 5.82002L5.97644 6.54921C6.29738 7.32904 6.76926 8.03776 7.36495 8.63466C7.96064 9.23155 8.66841 9.70486 9.44759 10.0274L10.1813 9.44393C10.4697 9.16784 10.8534 9.01347 11.2527 9.01292C11.6519 9.01236 12.0361 9.16564 12.3253 9.44092C12.3253 9.44092 13.5302 10.3684 13.5458 10.384ZM12.8566 11.1121C12.8566 11.1121 11.6582 10.1901 11.6427 10.1746C11.5395 10.0723 11.4001 10.0149 11.2548 10.0149C11.1095 10.0149 10.9701 10.0723 10.8669 10.1746C10.8534 10.1886 9.84323 10.9935 9.84323 10.9935C9.77516 11.0476 9.69415 11.0832 9.60817 11.0965C9.5222 11.1098 9.43423 11.1006 9.35293 11.0696C8.34352 10.6938 7.42667 10.1054 6.66447 9.34431C5.90228 8.58324 5.31256 7.66725 4.93524 6.65839C4.90179 6.57598 4.89088 6.48615 4.90364 6.39813C4.9164 6.31012 4.95238 6.22708 5.00786 6.15757C5.00786 6.15757 5.81267 5.14693 5.82619 5.13391C5.92849 5.03073 5.98589 4.89132 5.98589 4.74602C5.98589 4.60073 5.92849 4.46132 5.82619 4.35814C5.81067 4.34312 4.88867 3.14366 4.88867 3.14366C4.78394 3.04976 4.64727 2.99947 4.50667 3.00311C4.36606 3.00674 4.23217 3.06401 4.13243 3.16319L3.5565 3.66401C0.730895 7.06155 9.38048 15.2314 12.3578 12.4178L12.8141 11.8919C12.921 11.7929 12.9852 11.6562 12.9931 11.5106C13.0011 11.3651 12.9521 11.2222 12.8566 11.1121Z" fill="#64727D"/>
</svg>
