<svg width="323" height="279" viewBox="0 0 323 279" fill="none" xmlns="http://www.w3.org/2000/svg">
<path fill-rule="evenodd" clip-rule="evenodd" d="M155.139 41.0827C185.911 35.7023 216.212 -2.57828 242.527 14.24C268.236 30.6704 239.469 75.1568 251.974 102.97C267.307 137.074 325.539 151.074 320.717 188.149C316.201 222.871 267.012 231.355 233.814 242.584C208.346 251.199 182.023 244.639 155.139 244.157C128.909 243.688 101.251 252.826 78.4866 239.801C54.7412 226.215 37.4316 201.064 32.7462 174.131C28.3193 148.684 44.6231 125.607 54.4658 101.724C63.4229 79.9895 67.3186 53.4883 87.467 41.3518C107.269 29.4237 132.362 45.0652 155.139 41.0827Z" fill="url(#paint0_linear_648_854)"/>
<path d="M66.9625 136.965L68.2001 127.635L77.4818 118.927L76.2442 110.842L86.7635 95.9136L113.99 75.3877L159.78 50.5079L188.862 43.0439L193.812 49.2639L203.094 69.1678H211.138L215.47 72.8998V79.1197L208.044 90.9376L209.282 95.9136L216.707 93.4256L227.845 82.8517L232.177 70.4118V59.8378L229.083 54.8619L225.37 51.1299L217.945 50.5079L209.282 52.3739L199.381 59.8378L196.906 52.3739L212.995 43.0439H230.32L239.602 50.5079L242.696 62.3258L239.602 75.3877L229.083 93.4256L209.282 106.488L196.906 138.209L247.028 157.491L260.022 168.687L270.541 156.247L282.917 136.965H286.629L279.204 162.467L272.398 168.687L274.254 173.041L266.21 186.103L256.309 181.749V179.261L247.646 175.529L193.812 164.955L192.575 143.807L188.862 138.209L177.724 133.233L161.017 134.477L130.078 164.955L117.702 158.735L149.879 143.807L155.448 136.965L154.211 134.477L149.879 125.147L143.691 127.635L118.94 138.209L96.664 143.807L89.2386 136.965L86.7635 143.807L75.0067 150.649L68.2001 147.539L66.3438 143.807L66.9625 136.965Z" fill="#F8F9FA"/>
<path fill-rule="evenodd" clip-rule="evenodd" d="M73.9197 152.707C75.3765 151.778 78.3554 148.451 79.9161 147.683C83.3866 145.973 98.8477 142.613 99.3504 142.414C100.116 142.112 105.09 141.055 107.988 140.388C114.793 138.82 139.179 128.695 145.606 126.099C146.427 128.12 153.201 137.042 152.039 137.956C148.213 140.966 141.355 144.715 136.923 146.872C133.339 148.617 129.542 150.061 125.709 151.239C121.358 152.578 118.371 154.013 114.034 155.383C109.767 156.73 114.866 160.943 117.058 161.814C119.515 162.791 123.322 163.286 125.834 164.133C121.412 170.565 117.699 178.373 116.956 186.078C116.777 187.932 115.267 189.632 112.81 189.077C111.543 188.791 99.8474 187.333 97.9403 186.926C85.2091 184.208 62.3542 169.976 68.2398 155.383C69.588 155.966 72.6664 153.507 73.9197 152.707Z" fill="url(#paint1_linear_648_854)"/>
<path d="M154.97 212.689V204.46L172.061 206.359L173.327 212.689L202.445 229.78L199.28 235.477H182.822L168.263 227.248H161.933L152.438 224.716L154.97 212.689Z" fill="#F8F9FA"/>
<path fill-rule="evenodd" clip-rule="evenodd" d="M81.0374 75.2817C81.9884 75.2067 84.4477 73.4283 83.1572 72.5288C81.8555 71.6213 80.92 74.6626 81.0374 75.2817ZM31.4935 82.1023C31.7421 82.0611 31.6336 80.7877 31.2423 80.625C30.0067 80.1116 29.9025 82.0412 29.8722 82.5576C29.8348 83.2092 29.7474 85.0448 31.2498 84.5416C32.1025 84.2559 31.5733 82.5906 31.4935 82.1023ZM104.429 88.0516C104.396 89.1883 106.849 91.3741 107.763 90.063C108.533 88.9613 104.492 85.7887 104.429 88.0516ZM17.6883 62.4146C18.399 64.1121 21.9145 61.799 22.0453 60.5539C22.3133 58.0042 17.6515 60.7183 17.6883 62.4146ZM47.0175 69.7326C48.6547 69.6067 50.8089 67.6583 52.3877 66.9305C53.456 66.4381 56.3631 65.851 56.6791 64.7327C56.9543 63.761 52.022 65.8408 51.6008 66.0257C49.6659 66.8741 47.9215 67.8414 47.0175 69.7326ZM169.92 56.2977C171.225 55.3532 172.811 54.7439 174.484 54.7839C175.319 54.8038 177.062 55.293 177.128 53.9407C177.234 51.7421 169.857 54.4235 168.704 54.8549C169.11 55.3362 169.515 55.817 169.92 56.2977ZM88.5158 141.985C87.5585 140.497 85.8368 139.636 84.5419 138.367C85.0165 140.452 83.9466 142.306 83.2115 144.208C84.98 143.467 86.7476 142.726 88.5158 141.985ZM254.76 173.707C255.288 172.054 255.816 170.411 256.433 168.783C257.123 166.961 257.466 166.803 255.814 165.529C254.443 167.955 253.072 170.38 251.701 172.807C252.677 173.195 253.696 173.573 254.76 173.707ZM112.853 54.0678C111.038 52.1524 102.53 52.0321 103.582 56.2594C103.95 57.7355 106.042 56.1674 107.352 55.8234C108.652 55.4817 112.335 55.4364 112.853 54.0678ZM112.541 81.1858C112.321 80.6969 111.882 78.9325 111.23 78.7935C110.594 78.658 108.088 80.5085 107.617 80.7909C105.266 82.2007 102.975 83.7174 100.684 85.2119C101.562 85.2119 102.358 84.9195 103.23 84.9134C104.265 84.9049 105.008 85.3033 106.018 85.076C108.188 84.5883 110.707 82.3374 112.541 81.1858ZM114.893 37.4802C115.096 36.6041 125.734 39.234 127.012 39.7156C127.709 39.9775 131.302 41.7261 130.53 39.0908C130.09 37.5898 125.938 36.4456 124.607 36.0342C121.224 34.989 117.657 34.2455 114.055 34.4179C113.355 34.4511 108.057 34.7373 110.27 36.7305C111.032 37.4169 113.764 37.2006 114.893 37.4802ZM117.221 157.852C119.203 158.764 121.227 159.462 123.298 160.176C124.218 160.493 125.652 161.323 126.667 161.115C127.499 160.944 127.765 159.758 128.202 158.965C129.799 156.063 131.706 153.721 134.07 151.328C132.972 150.579 127.399 153.885 126.02 154.373C124.639 154.861 123.337 155.354 121.986 155.937C120.713 156.487 118.203 156.979 117.221 157.852ZM152.312 133.11C155.2 131.887 157.938 129.717 160.307 127.775C163.027 125.544 165.465 123.207 167.456 120.321C166.258 120.378 163.613 123.986 163.583 120.058C163.568 118.055 166.501 116.081 167.411 114.223C165.147 113.026 163.071 120.177 160.472 118.444C157.969 116.774 161.919 111.031 162.68 109.219C161.212 108.304 152.846 118.54 151.635 119.85C150.878 120.669 149.087 121.761 148.659 122.717C148.405 123.287 148.368 125.093 148.491 125.617C148.748 126.712 150.045 128.023 150.623 129.043C151.354 130.333 151.991 131.675 152.312 133.11ZM271.718 170.013C269.221 166.713 271.801 165.273 273.832 162.534C275.456 160.343 276.95 157.928 277.98 155.481C280.555 149.362 282.879 143.673 284.15 137.199C282.4 137.947 281.306 140.793 280.43 142.293C279.253 144.309 278.217 146.425 276.909 148.379C274.46 152.035 272.056 155.934 268.941 159.103C267.53 160.539 266.335 162.154 264.707 163.448C263.963 164.039 262.54 164.524 261.992 165.264C261.474 165.961 262.053 166.407 261.856 167.241C261.655 168.096 260.731 169.008 260.334 169.831C259.813 170.913 259.328 171.997 258.747 173.054C258.113 174.208 257.94 174.811 257.769 175.938C257.582 177.17 258.155 177.298 257.005 178.434C259.089 179.294 261.172 180.154 263.255 181.014C263.958 181.304 264.662 181.594 265.365 181.884C265.513 181.624 265.661 181.364 265.81 181.104C266.382 180.584 266.909 179.3 267.236 178.612C268.605 175.743 270.151 172.862 271.718 170.013ZM70.519 156.159C64.6028 170.739 85.3922 183.015 98.1895 185.73C99.9621 186.106 101.692 186.598 103.456 187.002C105.38 187.442 107.089 187.354 109.009 187.539C110.537 187.685 111.265 188.79 112.705 189.094C115.11 189.603 114.963 187.911 115.135 186.097C115.866 178.409 120.058 170.991 124.494 164.575C122.468 163.897 120.46 163.156 118.459 162.413C116.747 161.777 114.126 159.989 112.285 159.894C110.924 159.825 108.85 160.913 107.528 161.39C105.326 162.185 103.118 162.863 100.824 163.405C96.8111 164.353 92.3461 165.646 88.1941 165.744C86.9969 165.772 83.7132 166.294 82.852 165.602C81.2096 164.281 83.4892 163.181 84.8642 162.709C93.0594 159.9 101.761 158.706 109.979 155.826C114.208 154.344 118.393 152.689 122.649 151.228C126.317 149.97 130.159 148.856 133.705 147.308C138.386 145.264 143.088 142.717 147.142 139.718C147.954 139.118 149.654 138.226 150.21 137.356C150.7 136.59 150.639 137.354 150.537 136.426C150.464 135.759 149.592 134.855 149.234 134.225C147.898 131.876 146.69 129.463 145.675 126.977C139.208 129.573 133.056 133.107 126.684 135.882C120.271 138.675 113.037 140.645 106.176 142.216C103.256 142.885 99.8988 143.097 97.2207 144.418C96.0828 144.979 94.958 145.629 93.7393 145.954C93.3792 146.6 93.025 146.727 92.6759 146.334C92.4572 146.104 92.1745 146.007 91.8275 146.043C91.0821 146.161 90.3217 146.49 89.6247 146.744C86.0961 148.024 82.7173 149.627 79.3674 151.263C77.7796 152.038 76.1509 152.802 74.6313 153.687C73.817 154.162 73.0872 154.64 72.4207 155.292C71.6216 156.073 71.812 156.715 70.519 156.159ZM203.644 69.5953C205.139 69.6181 206.502 68.8599 208.061 68.9022C210.512 68.9685 212.453 70.7478 213.876 72.4636C216.691 75.8586 215.973 79.9542 214.559 83.7536C213.882 85.5693 212.953 87.3124 211.792 88.9018C210.765 90.3089 208.927 91.6399 208.21 93.2065C207.027 95.7904 209.414 94.6916 210.875 94.1399C212.712 93.4454 214.435 92.5823 215.994 91.4196C222.945 86.2379 228.233 79.0353 230.004 70.7635C230.868 66.7278 230.801 62.0098 227.798 58.716C225.052 55.7039 220.312 54.72 216.26 55.2784C211.881 55.8824 207.911 57.619 204.345 59.8541C203.309 60.5037 202.36 61.2128 201.388 61.9392C200.112 62.8922 199.347 62.917 199.666 64.4106C199.904 65.521 200.549 66.6717 200.966 67.7372C201.745 69.7328 201.461 70.2492 203.644 69.5953ZM208.41 104.001L208.108 104.484C210.193 104.577 212.136 102.855 213.913 102.015C216.221 100.922 218.27 99.4318 220.293 97.9268C223.86 95.2722 227.474 92.2806 230.129 88.7957C236.081 80.984 241.488 71.0798 239.864 61.1754C238.113 50.5008 228.139 46.3918 217.51 47.8049C212.721 48.4416 208.444 50.4433 204.158 52.4755C201.997 53.4997 200.174 54.8289 198.194 56.1151C197.167 56.7831 196.23 56.8698 196.163 58.0375C196.112 58.9175 197.738 60.9076 198.177 61.7049C203.559 56.5658 209.359 52.3143 217.487 52.0514C227.156 51.7389 232.874 60.3208 232.831 68.5389C232.79 76.5984 229.076 84.3509 223.156 90.143C220.466 92.7754 217.901 94.8876 214.597 96.8088C212.951 97.7664 211.736 98.6263 209.895 99.2621C208.592 99.7122 208.728 99.475 208.396 100.604C208.113 101.561 208.402 103.006 208.41 104.001ZM155.87 213.498C155.744 214.95 155.428 216.38 155.077 217.796C154.951 218.305 154.242 219.911 154.366 220.483C154.572 221.429 154.298 220.821 155.183 221.314C156.106 221.829 157.18 221.798 158.191 221.954C158.815 222.051 161.1 223.057 161.485 222.898C162.157 222.62 162.136 221.64 162.873 221.252C163.878 220.722 165.358 221.176 166.306 221.59C168.84 222.696 170.58 224.986 173.032 226.24C177.386 228.466 182.552 229.698 187.409 230.206C190.041 230.482 192.733 230.965 195.332 230.388C197.38 229.933 200.041 229.975 201.154 227.919C191.263 225.373 176.165 222.257 172.255 211.631C170.128 213.436 166.576 212.464 164.006 212.215C161.18 211.941 158.654 212.005 156.069 210.799C155.88 211.747 155.822 212.533 155.87 213.498ZM68.2924 147.691C72.9486 147.954 77.363 145.891 80.2283 142.411C80.9338 141.554 81.657 140.679 82.0804 139.664C82.1725 139.407 82.2639 139.149 82.3556 138.892C82.8003 138.181 82.6056 137.846 81.7722 137.886C81.3026 137.283 80.1119 137.08 80.4508 135.988C80.7057 135.164 81.647 135.15 82.4651 134.891C82.0577 134.25 81.814 133.928 81.2308 133.359C79.7153 134.635 76.9649 137.139 75.9 134.208C75.3883 132.8 76.2888 131.455 76.0657 130.097C75.9739 129.536 75.2136 128.101 74.7727 127.766C72.4254 125.977 69.0447 126.717 66.5542 127.77C64.8378 128.496 64.4683 128.837 64.1885 130.5C63.9042 132.192 63.6402 133.883 63.3248 135.57C64.3548 135.067 64.5423 133.982 65.2141 133.2C65.4655 133.629 65.7173 134.058 65.9698 134.487C66.3242 134.301 66.6553 134.311 66.9623 134.517C67.4593 135.232 67.1467 136.293 66.9938 137.043C68.6512 136.898 69.3517 138.629 67.6809 139.33C65.9501 140.056 65.1694 138.076 65.1108 136.794C64.4649 137.516 63.8016 137.13 63.3513 137.501C62.9017 137.872 62.7245 138.645 62.5644 139.491C62.3014 140.882 61.6284 142.889 62.2511 144.285C63.1756 146.358 66.1233 147.436 68.2924 147.691ZM203.217 81.1157C201.676 83.1213 199.049 85.7466 198.5 88.1696C200.197 87.2376 203.785 82.7524 204.709 86.3252C205.24 88.3761 202.518 90.8197 201.85 92.8055C204.526 91.9813 206.432 89.4 208.102 87.4079C210.231 84.8678 212.405 81.5196 212.948 78.2897C213.388 75.676 211.451 73.2399 208.573 72.9838C207.103 72.8529 205.568 73.0714 204.147 73.3906C203.5 73.5358 202.534 73.7163 201.955 74.0411C201.23 74.4491 201.13 75.4041 200.447 74.6097C199.538 76.2122 198.63 77.8148 197.722 79.4168C198.626 79.1098 200.47 77.8066 201.458 77.9413C202.901 78.1384 203.197 80.0999 203.217 81.1157ZM58.9619 41.8828C54.9228 41.9942 50.7009 42.7993 46.8771 43.9961C45.9277 44.2936 41.9217 45.3515 42.7654 46.8851C43.323 47.8988 46.3292 46.4664 47.2381 46.2275C51.1334 45.2036 55.144 44.5284 59.1338 43.9121C60.0998 43.763 63.3769 43.7777 63.546 42.5924C63.7532 41.1461 60.1026 41.8811 58.9619 41.8828ZM168.889 206.846C166.7 207.096 164.598 207.003 162.407 206.752C160.562 206.54 158.684 205.834 156.849 205.834C156.849 207.672 156.716 207.684 158.789 208.077C160.235 208.352 161.702 208.506 163.164 208.698C165.738 209.035 168.595 209.98 171.2 209.494C171.137 209.175 170.938 207.021 170.668 206.807C170.516 206.688 169.11 206.848 168.889 206.846ZM133.506 70.8065C134.118 71.1715 135.525 72.6275 136.254 72.6532C135.994 70.9677 133.985 68.033 131.678 69.0745C131.113 69.3301 129.925 70.6017 130.462 71.1628C130.749 71.4627 132.756 70.8085 133.506 70.8065ZM112.161 85.8009C112.183 85.5071 112.206 85.2133 112.229 84.9198C111.383 85.3856 110.334 85.6061 109.733 86.3567C110.455 86.6564 111.177 86.9563 111.9 87.2563C111.987 86.7712 112.074 86.2861 112.161 85.8009ZM178.832 130.55C182.831 131.861 186.498 133.612 189.442 136.585C191.987 139.155 193.183 143.684 193.804 147.053C195.341 155.39 192.375 163.118 190.42 171.094C189.427 175.14 187.946 179.033 186.559 182.974C185.348 186.416 184.31 190.02 182.638 193.293C181.221 196.068 179.411 198.804 178.164 201.682C177.493 203.231 176.406 208.547 173.859 206.878C173.164 208.579 172.995 208.434 173.738 209.615C174.276 210.47 176.1 211.658 176.96 212.354C179.254 214.211 182.159 215.74 184.849 217.04C189.777 219.421 195.06 221.202 200.134 223.372C202.378 224.333 204.811 225.467 204.308 228.214C203.886 230.517 202.462 232.264 200.242 233.288C198.157 234.251 195.175 234.994 192.881 235.295C191.521 235.475 191.209 234.945 190.099 234.761C188.864 234.558 187.424 234.952 186.15 234.941C180.432 234.895 175.425 233.548 170.804 230.444C169.153 229.335 166.722 226.326 164.561 226.326C163.457 226.326 163.69 226.955 162.718 227.323C161.519 227.778 159.453 226.92 158.274 226.718C155.763 226.289 153.209 225.853 151.537 223.828C149.729 221.64 150.371 218.93 151.148 216.5C152.024 213.76 153.498 210.981 154.124 208.201C154.276 207.524 154.417 206.264 154.262 205.575C154.021 204.508 152.87 203.871 152.835 202.714C152.824 202.363 153.362 201.899 153.456 201.536C153.664 200.739 153.632 199.911 153.717 199.1C153.87 197.653 154.222 196.266 154.466 194.835C155.018 191.58 156.109 188.677 157.164 185.541C158.189 182.497 159.163 180.231 161.143 177.596C162.168 176.231 165.597 171.368 163.923 169.968C161.631 174.182 158.951 177.469 155.443 180.823C152.761 183.389 150.138 186.838 146.781 188.666C143.089 190.675 138.578 191.857 134.501 192.92C132.563 193.425 130.954 194.545 128.864 194.752C126.598 194.976 124.293 194.712 122.074 194.239C121.45 194.106 119.649 193.208 119.083 193.265C118.251 193.35 117.053 194.739 116.14 194.994C113.916 195.615 112.398 194.429 110.711 193.333C108.88 192.143 108.326 191.847 106.214 191.704C103.627 191.529 101.111 190.675 98.5658 190.152C94.0915 189.234 90.2883 187.371 86.2215 185.422C81.5597 183.188 77.5721 180.107 74.0582 176.467C68.8927 171.116 61.6989 156.289 70.1371 151.098C65.1694 150.466 60.6199 148.436 60.0143 143.173C59.6979 140.419 60.2935 137.369 61.0333 134.714C61.3709 133.502 61.7734 132.298 62.1591 131.098C62.4496 130.693 62.6034 130.25 62.6193 129.768C62.7975 129.144 62.5407 128.833 61.8483 128.836C60.54 127.404 59.5563 126.14 59.292 124.106C59.2087 123.462 59.1341 122.474 59.624 121.926C59.8505 121.706 60.1241 121.559 60.4433 121.485C61.2103 121.526 61.4268 121.173 61.0936 120.425C61.4658 119.365 60.9135 118.539 62.3167 118.097C62.7663 118.187 63.214 118.285 63.6599 118.391C64.229 118.634 64.5991 118.458 64.7713 117.864C66.093 117.38 65.4833 116.664 67.2793 117.287C68.3661 117.664 69.4001 118.314 70.1917 119.105C71.1845 118.508 68.9264 114.821 68.8512 113.644C68.6724 110.871 69.8974 108.578 71.4909 106.301C74.5883 101.874 78.9116 98.0678 83.175 94.6431C91.3411 88.0846 99.92 81.8409 109.141 76.6156C105.337 74.1427 100.893 73.4724 96.3668 74.6217C92.1942 75.6813 88.8119 77.6057 84.971 79.2888C81.4127 80.8476 77.6358 81.4881 76.5013 77.2342C75.2301 72.4692 79.2857 70.7002 82.9235 68.5634C82.0152 67.9294 79.0248 68.3826 77.8938 68.4577C75.3746 68.6245 72.9652 69.1569 70.5171 69.6277C69.343 69.8532 68.2643 69.8024 67.1011 70.0234C65.3719 70.352 63.5663 70.72 61.8168 71.1882C57.6545 72.3024 53.5231 73.9935 49.9265 76.2721C46.8179 78.2406 44.6612 81.0202 42.1566 83.5801C39.3004 86.499 36.5634 89.3711 32.329 90.4395C30.3462 90.9401 28.0201 91.3942 26.6145 89.7365C25.3065 88.195 25.2335 86.3372 25.2765 84.4525C25.3711 80.2891 27.5196 75.7905 30.0189 72.3886C32.7319 68.6957 36.3656 66.5809 39.7987 63.6086C34.8364 63.9407 30.0407 66.389 25.4772 68.0815C24.5168 68.4378 23.5473 68.8383 22.5816 69.1677C21.552 69.5193 20.8699 69.3041 19.8833 69.465C17.6321 69.8327 15.6982 70.7209 13.5083 69.305C9.36517 66.6265 13.5161 61.1775 16.3688 59.5054C20.342 57.1768 24.3842 55.2162 28.7614 53.5552C26.3917 51.1492 28.4154 47.7156 30.5998 46.0088C33.3634 43.8489 36.8826 42.6113 40.2128 41.4551C42.8462 40.5407 45.4328 39.6627 48.1686 39.1124C51.0447 38.5341 54.4077 37.6505 57.326 37.7353C60.063 37.8148 62.4898 37.3634 65.2618 37.2912C67.5682 37.2312 69.88 37.2831 72.1861 37.2272C78.3908 37.0771 84.6184 37.4688 90.6824 37.8865C85.878 24.7354 117.525 28.7967 124.277 30.5145C130.412 32.0758 137.443 33.8868 142.597 37.5913C144.78 39.1603 146.854 40.9442 148.791 42.7747C151.649 45.4755 153.232 49.0125 154.743 52.5035C158.578 50.7453 162.244 48.8292 166.44 47.9573C170.432 47.128 174.522 46.0039 178.537 45.3774C181.59 44.9009 186.022 44.5777 188.591 46.5956C191.382 48.7874 192.836 52.1983 194.502 55.1192C202.502 48.0137 211.425 42.8299 222.832 43.1746C233.993 43.512 241.333 52.5342 242.686 62.3107C244.177 73.0837 239.05 84.3403 232.101 92.6828C228.984 96.4241 225.76 100.038 221.566 102.829C219.486 104.212 217.292 105.728 215.011 106.808C213.874 107.347 212.631 107.834 211.437 108.248C210.898 108.435 210.343 108.623 209.783 108.75C208.183 109.113 208.494 108.628 207.899 109.939C207.416 111.004 207.475 112.835 207.268 114.003C207.032 115.339 206.892 116.692 206.547 118.01C205.949 120.293 205.327 122.52 204.579 124.749C203.161 128.969 201.254 133.221 198.919 137.07C200.9 137.876 203.674 137.957 205.791 138.201C208.082 138.465 210.376 139.02 212.757 139.643C217.525 140.891 221.787 141.944 226.322 143.813C231.03 145.753 235.226 148.65 239.759 150.955C243.928 153.075 248.141 155.731 252.013 158.276C252.934 158.881 253.504 159.407 254.238 160.174C254.988 160.958 255.226 161.111 256.123 161.79C256.527 162.096 257.703 163.639 258.164 163.696C258.991 163.798 258.864 163.221 259.512 162.415C260.867 160.732 262.757 159.428 264.102 157.703C265.224 156.264 266.394 154.807 267.593 153.569C270.496 150.575 272.9 147.256 274.964 143.667C276.038 141.798 277.168 140.019 278.335 138.256C279.496 136.5 281.56 134.182 283.872 134.286C283.686 133.392 283.095 133.243 284.115 132.696C284.771 132.344 286.049 132.912 286.555 133.269C287.896 134.217 287.954 136.054 287.87 137.435C287.652 140.993 286.857 144.504 285.748 147.868C284.416 151.912 282.746 155.48 280.923 159.339C279.473 162.414 277.671 166.48 274.061 167.883C276.485 171.123 275.321 173.764 273.7 177.204C272.516 179.72 270.951 182.318 268.569 183.983C265.883 185.859 262.969 184.267 260.16 183.027C258.464 182.278 253.275 180.51 254.33 178.205C253.034 178.043 252.219 177.162 251.039 176.891C249.79 176.604 250.005 177.078 248.683 177.256C247.67 177.393 246.154 176.544 245.201 176.239C243.607 175.732 242.018 175.212 240.427 174.699C235.948 173.255 231.544 171.833 227.021 170.676C218.605 168.523 210.085 167.302 201.699 165.38C200.017 164.995 198.346 164.623 196.596 164.315C196.234 164.251 194.359 164.153 194.131 163.791C193.732 163.156 194.959 159.605 195.064 158.881C195.755 154.13 195.529 148.928 194.556 144.232C194.151 142.279 192.345 139.75 192.361 137.844C192.372 136.566 193.582 135.17 194.293 134.011C196.05 131.148 197.892 128.054 199.195 125.073C201.188 120.514 202.409 115.368 203.29 110.485C203.749 107.94 204.282 105.18 204.407 102.605C204.503 100.642 204.33 98.5836 204.635 96.5734C203.474 96.6765 201.832 97.2393 200.787 96.6367C199.467 95.8765 199.112 93.7056 199.281 92.4091C194.761 93.1475 194.911 89.1354 195.191 85.9978C187.022 85.9978 197.484 74.6354 198.791 72.1955C199.391 71.0737 199.373 72.3337 199.108 70.5988C198.992 69.8362 198.435 68.991 198.12 68.2898C197.433 66.7591 196.691 65.2517 195.898 63.7666C194.223 60.6298 192.326 57.5991 190.255 54.6767C188.391 55.8926 186.711 57.3319 185.154 58.876C186.153 56.4315 189.204 53.4031 187.899 50.6273C186.689 48.0542 182.65 48.2327 180.264 48.703C173.781 49.9824 167.564 51.8458 161.388 54.0032C163.301 55.0301 166.23 54.2369 168.131 53.4518C170.484 52.4793 173.016 51.4591 175.552 50.9439C177.764 50.4947 180.67 50.648 180.031 53.4372C179.512 55.6972 177.151 57.8737 175.593 59.5635C172.16 63.2864 167.855 66.1685 163.626 69.0483C159.081 72.1438 154.701 75.5072 150.098 78.5131C141.778 83.9472 132.831 88.6699 124.235 93.7421C119.767 96.3777 114.706 98.4986 109.861 100.452C104.532 102.601 99.422 104.901 93.8931 106.598C90.8225 107.541 87.7791 108.317 84.7619 109.39C82.8708 110.062 79.5774 111.408 78.3278 109.413C75.7902 105.359 84.9738 100.029 87.4905 97.5509C89.2266 99.1292 80.6651 105.01 81.3353 107.308C81.8617 109.114 83.8982 106.782 84.8817 106.29C86.4708 105.495 88.3529 105.095 89.9501 104.187C93.226 102.326 97.11 100.179 97.8579 96.3301C97.3374 95.816 97.344 95.3414 97.8775 94.9063C98.115 94.642 98.3034 94.3517 98.4423 94.0351C98.6754 93.4302 98.769 92.6729 98.8938 92.0315C99.2626 90.1363 98.3368 88.3617 99.202 86.5069C94.1533 90.0875 89.3005 94.1323 84.5079 98.0086C80.2093 101.486 75.7237 106.039 74.144 111.227C73.9418 111.891 73.6054 112.646 73.6422 113.347C73.714 114.724 73.861 114.427 75.0463 114.87C76.232 115.313 77.9584 115.275 79.2333 115.322C79.96 115.348 83.2056 114.628 82.5603 116.121C82.1884 116.982 79.9384 116.949 79.1328 117.029C77.1109 117.228 76.0145 117.023 76.9724 119.075C77.4017 119.994 78.2716 120.617 78.954 121.329C80.8533 123.308 81.8848 126.345 83.3787 128.671C85.0808 131.321 86.952 133.841 88.9398 136.309C89.7601 137.327 90.8565 139.241 91.9938 139.967C93.0556 140.646 91.8063 140.59 93.5701 140.314C94.339 140.194 95.0357 139.726 95.7711 139.559C100.168 138.556 104.688 137.426 109.236 136.188C115.052 134.605 121.156 133.255 126.706 130.975C131.677 128.932 136.612 126.5 141.635 124.431C143.102 123.827 144.567 123.427 145.708 122.315C147.084 120.974 148.223 119.218 149.493 117.777C151.651 115.324 153.641 112.83 155.965 110.506C157.695 108.777 160.76 105.562 163.2 104.872C167.837 103.561 165.355 110.172 164.756 111.843C165.846 112.074 166.419 110.766 167.698 111.142C169.23 111.593 169.388 113.5 169.58 114.694C169.63 115.013 169.17 115.608 169.31 115.892C169.358 115.988 170.357 116.541 170.55 116.798C171.25 117.729 171.112 118.862 170.847 119.866C169.475 125.069 164.597 128.868 161.01 132.706C162.615 132.422 163.805 131.566 165.32 131.142C166.742 130.744 168.171 130.765 169.604 130.65C171.104 130.531 172.546 130.005 174.081 129.979C175.692 129.951 177.234 130.38 178.832 130.55Z" fill="#494A49"/>
<path fill-rule="evenodd" clip-rule="evenodd" d="M9.18811 83.7504C8.30354 84.2916 8.05421 84.8225 8.02366 86.0711C8.01143 86.5831 8.04915 88.4935 8.81372 88.4213C9.5312 88.3539 9.18811 84.4072 9.18811 83.7504ZM4.61868 86.8617C5.03086 82.8602 6.59487 78.7914 10.2741 76.2981C11.1841 75.6816 12.2134 75.7035 13.2106 75.3144C13.8099 75.0808 14.7568 73.9943 15.4372 74.1228C17.9419 74.5971 15.0482 77.7123 14.6245 78.5318C13.3113 81.0707 13.4 83.3015 13.4392 86.0404C13.469 88.122 13.9311 91.6311 12.81 93.5152C11.6149 95.5214 9.02293 94.2185 7.57607 93.0312C5.75006 91.5321 4.37094 89.1451 4.61868 86.8617Z" fill="#494A49"/>
<path fill-rule="evenodd" clip-rule="evenodd" d="M48.5908 98.6882C48.5908 100.921 50.5268 99.4093 50.4579 97.8211C50.3565 95.4828 48.5003 96.9227 48.5908 98.6882ZM58.8839 86.3439C56.765 88.1278 55.1303 89.1287 54.7219 91.8718C54.4127 93.9495 54.72 96.0074 54.7331 98.1003C54.7553 101.609 51.7287 105.297 48.4719 101.275C46.0962 98.3421 46.9483 93.7299 48.8856 90.7818C49.9022 89.2353 51.3534 87.7052 53.0298 86.7414C54.2907 86.0159 57.8377 84.5886 58.8839 86.3439Z" fill="#494A49"/>
<path fill-rule="evenodd" clip-rule="evenodd" d="M29.2895 140.412C29.044 140.956 28.467 143.178 29.644 142.675C30.6827 142.231 30.0097 140.759 29.2895 140.412ZM23.072 133.554C22.8904 132.718 22.9643 127.482 24.5054 127.875C25.7157 128.182 25.9157 130.863 26.4087 131.796C28.2449 135.27 32.4593 137.433 33.9127 141.019C35.5348 145.023 30.6303 145.147 28.0277 143.526C24.9462 141.606 23.1634 136.905 23.072 133.554Z" fill="#494A49"/>
<path fill-rule="evenodd" clip-rule="evenodd" d="M19.2883 112.082C19.9569 111.237 20.0246 110.785 19.6433 110.037C19.156 110.534 19.2424 111.243 19.2883 112.082ZM19.7722 115.863C16.2857 116.228 16.1112 110.214 16.7082 108.149C17.1837 106.505 18.2059 104.738 19.2583 103.398C19.4708 103.127 21.4864 100.697 21.8814 100.692C23.3978 100.669 22.9813 102.273 22.8175 102.87C22.3023 104.751 22.0983 106.323 22.2368 108.408C22.3856 110.639 23.5145 115.937 19.7722 115.863Z" fill="#494A49"/>
<path fill-rule="evenodd" clip-rule="evenodd" d="M178.072 63.7791C173.087 67.6925 168.354 71.9291 162.934 75.3521C160.281 77.0274 157.508 78.5093 154.862 80.2117C153.514 81.0789 152.138 81.8552 150.643 82.4924C149.322 83.0555 148.458 83.1289 149.554 81.7924C150.287 80.8995 151.929 80.2774 152.927 79.6428C154.463 78.6653 155.913 77.5811 157.529 76.714C160.377 75.1845 163.208 73.9496 165.833 72.074C168.164 70.4095 170.568 68.7845 172.792 67.0155C173.746 66.257 176.908 62.7744 178.072 63.7791Z" fill="#494A49"/>
<path fill-rule="evenodd" clip-rule="evenodd" d="M178.174 77.9111C180.416 79.7061 174.806 84.6239 173.527 85.7384C172.178 86.914 170.693 87.9625 169.226 89.0037C168.709 89.3705 165.892 91.8247 165.177 91.6267C163.766 91.2356 165.618 89.6433 166.1 89.2283C167.658 87.8836 169.249 86.5787 170.772 85.1978C172.146 83.9536 173.634 82.8014 174.962 81.5169C176.039 80.4763 176.943 78.7131 178.174 77.9111Z" fill="#494A49"/>
<path fill-rule="evenodd" clip-rule="evenodd" d="M12.0748 150.271C11.4894 149.001 10.4411 150.411 10.9726 151.045C11.4752 151.645 11.9999 150.514 12.0748 150.271ZM8.64258 147.764C8.95637 145.897 9.68156 144.859 11.5526 146.453C12.8382 147.548 15.424 150.661 15.1786 152.359C14.8565 154.585 12.2368 153.954 10.8788 152.789C9.48677 151.596 8.87225 149.419 8.64258 147.764Z" fill="#494A49"/>
<path fill-rule="evenodd" clip-rule="evenodd" d="M12.7434 184.506C10.4514 184.343 8.49603 182.696 7.52269 180.765C6.70374 179.142 5.9286 176.526 8.80573 177.379C10.6809 177.935 17.9095 184.768 12.7434 184.506Z" fill="#494A49"/>
<path fill-rule="evenodd" clip-rule="evenodd" d="M40.5238 173.923C38.7525 174.301 37.0005 173.209 35.9113 171.977C35.2336 171.21 33.6563 168.522 34.451 167.415C35.5587 165.872 37.2311 168.974 37.808 169.588C38.7128 170.55 41.672 172.39 40.5238 173.923Z" fill="#494A49"/>
<path fill-rule="evenodd" clip-rule="evenodd" d="M42.1183 131.942C40.7298 131.339 39.4409 130.613 38.8824 129.172C38.5273 128.255 38.229 125.504 39.806 125.517C41.63 125.532 45.8067 131.667 42.1183 131.942Z" fill="#494A49"/>
<path fill-rule="evenodd" clip-rule="evenodd" d="M32.384 103.32C34.243 103.289 34.6833 104.248 34.9416 105.627C35.1173 106.563 35.9688 109.74 35.0845 110.39C33.8209 111.32 31.8105 109.19 31.4043 108.353C30.5668 106.631 31.7247 104.938 32.384 103.32Z" fill="#494A49"/>
<path fill-rule="evenodd" clip-rule="evenodd" d="M64.3274 198.574C65.2326 198.959 67.2919 199.814 66.505 201.141C65.6822 202.528 63.3199 201.18 62.4375 200.574C62.0681 200.32 59.7211 198.658 59.8194 198.101C60.0263 196.917 63.2616 198.462 64.3274 198.574Z" fill="#494A49"/>
<path fill-rule="evenodd" clip-rule="evenodd" d="M4.69126 111.938C5.3098 113.388 6.00607 118.369 2.74885 115.679C1.75485 114.858 1.60483 113.833 1.94731 112.706C2.44251 111.073 3.16318 111.397 4.69126 111.938Z" fill="#494A49"/>
<path fill-rule="evenodd" clip-rule="evenodd" d="M177.303 93.3893C176.581 92.0098 178.362 91.1202 179.313 90.2312C179.935 89.6506 182.547 86.5013 183.404 86.6791C185.166 87.0451 178.169 92.7742 177.303 93.3893Z" fill="#494A49"/>
<path fill-rule="evenodd" clip-rule="evenodd" d="M32.3606 193.3C34.0602 193.045 34.4567 194.812 35.5516 195.582C36.0212 195.913 37.6331 196.203 37.3089 196.905C36.4571 198.746 32.2773 194.539 32.3606 193.3Z" fill="#494A49"/>
<path fill-rule="evenodd" clip-rule="evenodd" d="M46.709 151.565C47.8772 151.107 51.2488 153.566 50.2807 154.628C48.8335 156.217 46.7914 152.434 46.709 151.565Z" fill="#494A49"/>
<path fill-rule="evenodd" clip-rule="evenodd" d="M71.3321 187.136C70.4806 187.215 66.8871 186.158 68.2185 184.742C69.1533 183.748 71.6376 186.236 71.3321 187.136Z" fill="#494A49"/>
<path fill-rule="evenodd" clip-rule="evenodd" d="M28.2959 180.345C27.4507 180.661 24.4017 180.01 25.3602 178.771C26.2735 177.591 28.2972 179.365 28.2959 180.345Z" fill="#494A49"/>
<path fill-rule="evenodd" clip-rule="evenodd" d="M53.2676 185.691C54.256 185.595 54.9699 186.153 55.1397 187.098C53.9035 187.263 53.5222 186.988 53.2676 185.691Z" fill="#494A49"/>
<path fill-rule="evenodd" clip-rule="evenodd" d="M181.811 48.5557C182.228 48.5575 182.645 48.5597 183.059 48.5616C182.641 48.5594 182.226 48.5575 181.811 48.5557Z" fill="#494A49"/>
<path fill-rule="evenodd" clip-rule="evenodd" d="M175.261 129.896C174.636 129.897 174.012 129.898 173.389 129.899C174.013 129.898 174.637 129.897 175.261 129.896Z" fill="#494A49"/>
<path fill-rule="evenodd" clip-rule="evenodd" d="M90.1238 34.6836C90.0951 35.2684 90.0664 35.8532 90.0371 36.436C90.0652 35.8507 90.0945 35.2669 90.1238 34.6836Z" fill="#494A49"/>
<path fill-rule="evenodd" clip-rule="evenodd" d="M283.471 133.985C283.67 134.635 283.379 134.743 282.596 134.308C282.887 134.201 283.179 134.093 283.471 133.985Z" fill="#494A49"/>
<path fill-rule="evenodd" clip-rule="evenodd" d="M265.744 184.947C266.057 184.949 266.37 184.951 266.68 184.953C266.366 184.951 266.055 184.949 265.744 184.947Z" fill="#494A49"/>
<path fill-rule="evenodd" clip-rule="evenodd" d="M206.468 137.936C205.945 138.309 205.425 138.362 204.908 137.916C205.428 137.923 205.948 137.929 206.468 137.936Z" fill="#494A49"/>
<path fill-rule="evenodd" clip-rule="evenodd" d="M194.784 88.1318C194.771 88.6193 194.758 89.1064 194.744 89.5921C194.757 89.1041 194.771 88.6178 194.784 88.1318Z" fill="#494A49"/>
<path fill-rule="evenodd" clip-rule="evenodd" d="M221.752 43.0673C221.231 43.067 220.711 43.0664 220.191 43.0658C220.712 42.8813 221.232 42.9419 221.752 43.0673Z" fill="#494A49"/>
<path fill-rule="evenodd" clip-rule="evenodd" d="M69.1812 37.126C68.6614 37.155 68.1409 37.1839 67.6211 37.2129C68.1409 37.1839 68.6614 37.155 69.1812 37.126Z" fill="#494A49"/>
<path fill-rule="evenodd" clip-rule="evenodd" d="M81.9649 37.2187C81.549 37.1853 81.1324 37.1516 80.7168 37.1182C81.1324 37.1516 81.5483 37.1853 81.9649 37.2187Z" fill="#494A49"/>
<path fill-rule="evenodd" clip-rule="evenodd" d="M88.836 37.6797C88.42 37.8266 88.0041 37.9136 87.5879 37.6818C88.0041 37.6812 88.42 37.6803 88.836 37.6797Z" fill="#494A49"/>
<path fill-rule="evenodd" clip-rule="evenodd" d="M51.7065 38.4795C51.1861 38.5785 50.6663 38.6775 50.1465 38.7756C50.6669 38.6775 51.1867 38.5785 51.7065 38.4795Z" fill="#494A49"/>
<path fill-rule="evenodd" clip-rule="evenodd" d="M195.091 157.351C195.077 157.643 195.063 157.936 195.049 158.227C195.063 157.934 195.077 157.642 195.091 157.351Z" fill="#494A49"/>
<path fill-rule="evenodd" clip-rule="evenodd" d="M23.1426 133.695C23.1488 133.89 23.1548 134.086 23.1604 134.279C23.1535 134.084 23.1485 133.89 23.1426 133.695Z" fill="#494A49"/>
<path fill-rule="evenodd" clip-rule="evenodd" d="M285.402 132.646L283.842 132.653C284.361 132.291 284.881 132.337 285.402 132.646Z" fill="#494A49"/>
<path fill-rule="evenodd" clip-rule="evenodd" d="M178.691 130.581C178.275 130.516 177.859 130.451 177.443 130.386C177.859 130.451 178.276 130.516 178.691 130.581Z" fill="#494A49"/>
<path fill-rule="evenodd" clip-rule="evenodd" d="M64.4937 198.53C63.9735 198.435 63.4537 198.34 62.9336 198.245L64.4937 198.53Z" fill="#494A49"/>
<path fill-rule="evenodd" clip-rule="evenodd" d="M169.509 114.709C169.5 114.417 169.49 114.124 169.48 113.833C169.49 114.125 169.5 114.417 169.509 114.709Z" fill="#494A49"/>
<path fill-rule="evenodd" clip-rule="evenodd" d="M70.7407 37.2243C70.4287 37.188 70.1164 37.1516 69.8047 37.1152C70.1164 37.1516 70.4287 37.188 70.7407 37.2243Z" fill="#494A49"/>
<path fill-rule="evenodd" clip-rule="evenodd" d="M121.909 29.9979C121.597 29.9094 121.284 29.8209 120.973 29.7324C121.285 29.8209 121.597 29.9094 121.909 29.9979Z" fill="#494A49"/>
<path fill-rule="evenodd" clip-rule="evenodd" d="M159.039 226.991C159.248 227.004 159.457 227.016 159.663 227.028C159.453 227.016 159.246 227.003 159.039 226.991Z" fill="#494A49"/>
<path fill-rule="evenodd" clip-rule="evenodd" d="M15.8262 70.1582C16.1394 70.1659 16.4527 70.1739 16.7622 70.1819C16.4474 70.1739 16.1368 70.1659 15.8262 70.1582Z" fill="#494A49"/>
<path fill-rule="evenodd" clip-rule="evenodd" d="M225.183 43.3541C224.663 43.3195 224.143 43.2849 223.623 43.25C224.143 43.2849 224.663 43.3195 225.183 43.3541Z" fill="#494A49"/>
<path fill-rule="evenodd" clip-rule="evenodd" d="M60.7486 41.9863C60.0188 41.9876 59.2899 41.9888 58.5645 41.9901C59.2958 41.9888 60.0222 41.9876 60.7486 41.9863Z" fill="#494A49"/>
<path fill-rule="evenodd" clip-rule="evenodd" d="M208.168 102.151C208.177 102.639 208.188 103.126 208.198 103.612C208.189 103.124 208.179 102.637 208.168 102.151Z" fill="#494A49"/>
<path fill-rule="evenodd" clip-rule="evenodd" d="M169.957 206.719C169.54 206.713 169.123 206.706 168.709 206.699C169.127 206.705 169.542 206.712 169.957 206.719Z" fill="#494A49"/>
<path fill-rule="evenodd" clip-rule="evenodd" d="M214.262 51.9719C214.886 51.907 215.509 51.8422 216.134 51.7773C215.535 52.2733 214.888 51.9432 214.262 51.9719Z" fill="#494A49"/>
<path fill-rule="evenodd" clip-rule="evenodd" d="M166.528 206.873C166.215 206.861 165.902 206.85 165.592 206.84C165.906 206.851 166.217 206.862 166.528 206.873Z" fill="#494A49"/>
<path fill-rule="evenodd" clip-rule="evenodd" d="M155.734 211.967C155.75 212.455 155.766 212.942 155.782 213.427C155.766 212.938 155.75 212.453 155.734 211.967Z" fill="#494A49"/>
<path fill-rule="evenodd" clip-rule="evenodd" d="M203.34 69.9076C203.756 69.8709 204.172 69.8342 204.588 69.7979C204.208 70.0752 203.762 69.9129 203.34 69.9076Z" fill="#494A49"/>
<path fill-rule="evenodd" clip-rule="evenodd" d="M66.9883 147.606C67.4042 147.678 67.8207 147.75 68.2363 147.821C67.8204 147.75 67.4042 147.678 66.9883 147.606Z" fill="#494A49"/>
<path fill-rule="evenodd" clip-rule="evenodd" d="M131.893 70.7555C132.412 70.3413 132.932 70.3863 133.453 70.7508C132.933 70.752 132.413 70.7537 131.893 70.7555Z" fill="#494A49"/>
<path fill-rule="evenodd" clip-rule="evenodd" d="M112.371 85.505C112.386 85.3102 112.401 85.1154 112.417 84.9209C112.402 85.116 112.387 85.3105 112.371 85.505Z" fill="#494A49"/>
<path fill-rule="evenodd" clip-rule="evenodd" d="M203.18 79.9541C203.184 80.3443 203.188 80.7342 203.193 81.1223C203.189 80.7313 203.184 80.3428 203.18 79.9541Z" fill="#494A49"/>
<path fill-rule="evenodd" clip-rule="evenodd" d="M65.5159 141.007C66.2005 141.224 67.5774 141.881 68.3753 141.794C69.014 141.724 69.5403 140.997 70.1563 140.998C71.8146 141 71.507 142.795 70.7057 143.758C68.5388 146.364 63.6966 143.538 65.5159 141.007Z" fill="#494A49"/>
<path fill-rule="evenodd" clip-rule="evenodd" d="M72.2907 131.649C74.5522 132.196 73.4258 136.852 71.5247 137.172C69.2863 137.55 68.8963 133.763 69.3384 132.395C70.4904 133.036 69.7771 135.321 71.2289 134.689C72.1522 134.287 72.0118 132.428 72.2907 131.649Z" fill="#494A49"/>
<defs>
<linearGradient id="paint0_linear_648_854" x1="176.5" y1="10" x2="176.5" y2="247" gradientUnits="userSpaceOnUse">
<stop stop-color="#8FE02E"/>
<stop offset="1" stop-color="#26B351"/>
</linearGradient>
<linearGradient id="paint1_linear_648_854" x1="67.2863" y1="157.641" x2="150.117" y2="161.575" gradientUnits="userSpaceOnUse">
<stop stop-color="#FAD961"/>
<stop offset="0.0418" stop-color="#FBD449"/>
<stop offset="0.0988" stop-color="#FCCE2E"/>
<stop offset="0.1572" stop-color="#FCCA1B"/>
<stop offset="0.2171" stop-color="#FDC810"/>
<stop offset="0.2809" stop-color="#FDC70C"/>
<stop offset="0.6685" stop-color="#F3903F"/>
<stop offset="0.8876" stop-color="#ED683C"/>
<stop offset="1" stop-color="#F76B1C"/>
</linearGradient>
</defs>
</svg>
