<svg width="323" height="279" viewBox="0 0 323 279" fill="none" xmlns="http://www.w3.org/2000/svg">
<g clip-path="url(#clip0_649_1053)">
<path fill-rule="evenodd" clip-rule="evenodd" d="M202.97 41.1853C233.396 52.3346 276.518 39.1131 294.467 66.0622C311.834 92.1368 285.073 125.502 279.612 156.253C273.894 188.455 289.955 233.685 261.753 250.283C231.717 267.962 197.455 223.315 162.578 225.136C130.901 226.789 106.366 271.202 76.6686 259.947C48.1481 249.137 51.6102 206.855 40.0318 178.69C28.9402 151.708 0.513264 126.026 10.3621 98.6496C20.3761 70.8136 60.4581 71.1284 84.7919 54.2709C104.681 40.4926 115.319 11.9134 139.418 9.24499C163.536 6.57443 180.153 32.8239 202.97 41.1853Z" fill="url(#paint0_linear_649_1053)"/>
<path d="M39.5122 162.761L36.166 152.683L51.7814 159.401H66.2814L78.5506 151.563L77.4352 148.203L109.781 122.449L122.05 117.97H142.127L183.397 125.808L184.512 123.568L186.743 114.61L175.589 112.371L167.781 110.131L149.935 112.371V104.532L134.32 109.011H132.089L133.204 105.652L123.166 106.772L122.05 105.652L126.512 103.413L119.82 102.293L125.397 98.9335L148.82 97.8137L157.743 96.6939L164.435 94.4544V88.8555H148.82L144.358 85.4962L145.474 83.2567L144.358 81.0171L142.127 74.2985L205.704 60.8612L235.82 54.1426H252.55L288.243 61.981L302.743 73.1787L308.319 81.0171L298.281 78.7776L294.935 91.0951L290.473 98.9335L286.599 100.053L288.243 86.616L286.599 82.1369L280.435 100.053L277.089 102.293L274.858 98.9335L275.973 86.616L272.627 77.6578L264.82 84.3764L261.473 83.2567L264.82 75.4183L252.55 68.6996L241.396 86.616L239.166 82.1369L230.243 81.0171L209.05 84.3764L223.55 100.053L231.358 117.97L232.473 128.048L229.127 126.928L228.012 137.006L226.896 147.084L223.55 160.521L213.512 173.958L181.166 191.875L153.281 199.713L117.589 217.629L100.858 228.827L91.9352 217.629L70.7429 225.468L56.2429 210.911L76.3198 207.551L83.0121 204.192V201.953V199.713L163.32 153.802L137.666 148.203L127.627 142.605L122.05 148.203L104.204 163.88L91.9352 172.838L85.2429 162.761L76.3198 170.599L68.5121 180.677L64.0506 182.916L55.1275 176.198L39.5122 162.761Z" fill="#F8F9FA"/>
<path fill-rule="evenodd" clip-rule="evenodd" d="M173.727 106.84C173.49 106.521 173.07 106.9 173.246 107.13C173.406 107.033 173.566 106.937 173.727 106.84ZM180.228 108.608C179.964 108.485 179.874 108.679 179.77 108.903C179.739 108.968 179.707 109.036 179.67 109.1C179.907 109.222 180.016 109.007 180.127 108.79C180.16 108.727 180.192 108.664 180.228 108.608ZM175.65 100.971C175.119 100.337 175.08 100.55 175.036 101.272C175.138 101.222 175.241 101.171 175.343 101.121C175.445 101.071 175.548 101.021 175.65 100.971ZM248.189 66.7026C247.521 66.9954 247.449 67.2081 247.99 67.5664C248.054 67.2877 248.102 67.0833 248.189 66.7026ZM173.491 96.2462C173.649 96.7303 174.296 96.8346 174.296 96.2462H173.491ZM223.577 71.2973C223.963 71.4121 224.159 71.4709 224.333 71.4337C224.513 71.3952 224.669 71.2527 224.987 70.9615C224.83 70.999 224.69 71.0325 224.556 71.0644C224.447 71.0902 224.343 71.1149 224.238 71.1401C224.035 71.1883 223.827 71.2377 223.577 71.2973ZM205.698 120.923C205.47 120.622 205.243 120.321 205.015 120.02C204.938 120.241 204.861 120.463 204.784 120.684L204.783 120.685L204.726 120.849C205.05 120.873 205.374 120.898 205.698 120.923ZM251.895 59.3015C251.805 59.7036 251.76 59.9024 251.845 60.0161C251.928 60.1272 252.135 60.1569 252.544 60.216L252.237 59.7831L252.199 59.7288C252.105 59.5968 252.007 59.4587 251.895 59.3015ZM248.278 60.5593C248.25 60.4284 248.222 60.2972 248.193 60.1663L248.189 60.1464C248.162 60.0222 248.135 59.8979 248.108 59.7734C248.059 59.9734 247.874 59.9625 247.694 59.9517C247.54 59.9426 247.388 59.9337 247.331 60.0593C247.046 60.681 247.952 60.5967 248.278 60.5593ZM179.398 106.947C179.2 106.579 179.156 106.551 178.723 106.473C178.834 106.841 178.834 107.127 178.833 107.495V107.571C179.541 107.477 179.763 107.429 179.776 106.724L179.398 106.947ZM177.334 108.247C177.24 108.573 176.975 108.494 176.75 108.426C176.546 108.365 176.373 108.314 176.389 108.582C176.38 108.427 177.201 109.444 177.154 109.411C177.567 109.702 177.808 109.675 178.277 109.34C177.609 109.317 177.532 109.005 177.428 108.585C177.402 108.479 177.374 108.365 177.334 108.247ZM253.433 60.2548C253.288 60.5681 253.142 60.8818 252.996 61.1951L252.964 61.2644C252.829 61.5547 252.694 61.8451 252.559 62.1351C252.498 62.2668 252.451 62.383 252.41 62.4834C252.216 62.9587 252.163 63.0876 251.456 62.8794C251.48 62.8405 251.538 62.7637 251.61 62.6675V62.6672C251.829 62.3775 252.181 61.9113 252.142 61.7702C252.105 61.6374 251.756 61.4732 251.44 61.3246C251.245 61.2325 251.062 61.1466 250.973 61.0775C250.717 60.8779 250.624 60.696 250.525 60.5035C250.467 60.3904 250.407 60.2731 250.31 60.1467C250.414 59.8294 250.333 59.6811 250.069 59.7024C249.993 59.894 249.917 60.0854 249.841 60.2767L249.836 60.2889L249.777 60.4375C249.791 60.7323 249.947 60.8449 250.13 60.9771C250.271 61.0789 250.429 61.192 250.549 61.4086L250.572 61.4499C250.747 61.7635 250.798 61.8539 250.77 61.9111C250.759 61.9341 250.734 61.9515 250.7 61.9762C250.63 62.0275 250.517 62.1093 250.389 62.3348C250.271 62.5424 250.19 62.7701 250.111 62.9914C249.959 63.4126 249.816 63.8116 249.448 64.0101C249.75 64.1341 250.051 64.258 250.353 64.3817C249.649 65.1049 251.113 64.7527 251.355 64.6826L251.354 64.684L251.354 64.6853C251.106 65.1767 250.859 65.6678 250.612 66.1591C250.063 65.8716 249.72 65.3933 249.379 64.9174C249.259 64.7502 249.139 64.583 249.01 64.4247C248.634 65.0791 248.258 65.7338 247.881 66.3885C248.053 66.3738 248.224 66.3588 248.395 66.3441C248.599 66.3266 248.802 66.3092 249.004 66.2914C248.992 66.3125 248.959 66.361 248.914 66.4251L248.914 66.4253C248.762 66.6452 248.482 67.049 248.514 67.1579C248.589 67.4172 248.89 67.4935 249.184 67.568C249.542 67.659 249.891 67.7475 249.814 68.1595C249.796 68.2557 248.654 69.3336 248.458 69.4375C248.579 69.4883 248.685 69.5238 248.777 69.5546C249.121 69.6691 249.248 69.7118 249.086 70.2123C248.819 70.0617 248.553 69.9109 248.287 69.76C248.237 69.844 248.185 69.9275 248.133 70.0112L248.133 70.0115C247.95 70.3077 247.765 70.6058 247.652 70.9313C247.68 71.2044 247.628 71.4631 247.496 71.7077C247.339 71.9265 247.162 72.1306 246.965 72.3197C246.81 72.7037 246.76 74.8 246.947 75.1419C247.366 74.6353 248.303 75.5296 246.722 75.5296C246.59 75.5296 246.485 75.5249 246.4 75.5207C246.037 75.5038 246.026 75.5033 245.812 75.9638C245.604 76.4117 245.492 76.8024 246.081 76.8453C245.725 77.5025 245.717 78.0385 245.706 78.6757C245.703 78.8316 245.701 78.9935 245.693 79.1646C245.668 79.7111 245.535 80.2549 245.404 80.7939C245.366 80.9514 245.328 81.1084 245.292 81.2651C245.362 81.1708 245.432 81.0765 245.503 80.9819C245.573 80.8877 245.643 80.7934 245.713 80.6988C246.024 81.3186 245.885 81.8582 245.726 82.4782C245.692 82.6138 245.656 82.7536 245.623 82.8986C245.398 82.6199 245.286 82.7866 245.168 82.9624C245.081 83.0927 244.99 83.228 244.847 83.1897C244.442 83.0816 244.455 82.9904 244.477 82.847C244.492 82.7477 244.51 82.6235 244.396 82.4513C244.343 82.372 244.303 82.3049 244.269 82.2461C244.144 82.0359 244.083 81.9339 243.734 81.7597C243.31 81.5482 242.657 81.4825 242.075 81.4239C241.844 81.4007 241.625 81.3787 241.435 81.3491C240.324 81.1758 239.212 81.1306 238.088 81.0848L238.043 81.0829C233.781 80.9099 229.533 80.8655 225.27 81.0848C221.349 81.2867 217.333 81.8013 213.488 82.4984C213.214 82.5481 212.94 82.5977 212.667 82.6471C208.858 83.3348 205.125 84.0088 201.425 85.1801C201.084 85.2883 200.743 85.4485 200.402 85.6085V85.6088C199.977 85.8085 199.551 86.0081 199.126 86.1065C198.827 86.1761 198.527 86.2166 198.226 86.2577C197.795 86.3159 197.36 86.3747 196.914 86.5194C195.911 86.8455 194.888 87.1281 193.865 87.4106C193.039 87.6388 192.213 87.8673 191.396 88.1186C190.873 88.2797 190.339 88.4336 189.801 88.5886C188.313 89.0173 186.797 89.4537 185.42 90.0701C185.007 90.2551 184.614 90.4733 184.22 90.6915C183.837 90.9039 183.454 91.1166 183.053 91.2985C182.884 91.3751 182.691 91.4499 182.488 91.5287C181.763 91.8093 180.908 92.1404 180.592 92.7676C180.434 93.0809 180.461 93.308 180.559 93.6327C180.741 94.2339 180.887 94.2206 181.328 94.1804C181.365 94.1768 181.404 94.1735 181.445 94.1699C181.913 94.1313 182.468 93.9023 182.995 93.6849C183.305 93.5568 183.606 93.4328 183.873 93.3538C185.849 92.7709 187.85 92.3042 189.86 91.8373C191.377 91.4849 192.897 91.0179 194.414 90.5521C196.505 89.9099 198.591 89.2693 200.655 88.9324C201.716 88.7594 202.749 88.4369 203.784 88.1141C204.809 87.7941 205.836 87.4736 206.893 87.2975C207.045 87.2723 207.29 87.1894 207.565 87.0965C208.135 86.9038 208.832 86.6678 209.09 86.8128C209.158 86.8511 209.292 87.1697 209.399 87.4253C209.452 87.5515 209.499 87.6624 209.527 87.7162C209.841 88.303 210.201 88.8695 210.622 89.3949C211.554 90.5582 212.72 91.5553 213.875 92.5435L213.875 92.5438C214.294 92.9015 214.71 93.2581 215.115 93.6208C216.389 94.7658 217.541 95.9975 218.697 97.2336V97.2339C219.116 97.6817 219.536 98.1304 219.962 98.5754C220.037 98.4936 220.113 98.4116 220.188 98.3298L220.379 98.1223C220.244 99.0956 220.95 99.8191 221.602 100.488C221.63 100.516 221.657 100.544 221.685 100.572C221.713 100.602 221.742 100.631 221.77 100.66C222.591 101.513 223.251 102.315 223.899 103.287C224.267 103.84 224.706 104.345 225.141 104.845C225.333 105.066 225.525 105.286 225.709 105.509C226.053 105.925 226.329 106.391 226.607 106.859C226.807 107.197 227.008 107.535 227.235 107.857C227.71 108.531 228.182 109.21 228.654 109.889C229.421 110.992 230.188 112.095 230.966 113.176C231.558 113.997 232.025 114.922 232.493 115.857C232.606 116.081 232.786 116.376 232.983 116.697V116.697C233.438 117.443 233.984 118.335 233.984 118.837C233.957 118.955 234.031 119.272 234.108 119.603C234.261 120.261 234.428 120.977 233.847 120.312C233.808 120.369 233.768 120.426 233.729 120.483L233.671 120.567C233.633 120.623 233.594 120.678 233.556 120.734C233.513 120.795 233.471 120.857 233.429 120.918C233.668 120.824 233.906 120.73 234.145 120.636C233.688 121.024 234.057 121.199 234.4 121.361C234.601 121.456 234.793 121.547 234.804 121.674C234.749 121.724 234.694 121.773 234.639 121.823L234.442 122.001C234.236 122.398 233.968 122.45 233.638 122.155C233.487 122.164 233.386 122.136 233.291 122.11C233.157 122.073 233.034 122.039 232.797 122.113C232.965 122.359 233.155 122.43 233.331 122.496C233.56 122.583 233.768 122.661 233.878 123.102C234.017 123.656 233.691 123.86 233.257 124.13C233.14 124.203 233.016 124.28 232.891 124.371V124.37L232.876 124.368C232.908 123.934 232.682 123.614 232.274 123.412V124.265C232.386 124.284 232.498 124.303 232.61 124.322L232.613 124.323L232.876 124.368C232.875 124.373 232.875 124.378 232.874 124.383L232.891 124.371C232.795 124.714 232.514 124.651 232.179 124.576C232.12 124.562 232.059 124.549 231.998 124.537C231.274 124.398 230.492 124.16 229.751 123.936C229.519 123.866 229.291 123.797 229.07 123.732C227.069 123.148 225.051 122.655 222.982 122.256C219.468 121.577 215.976 121.427 212.455 121.276H212.455C211.244 121.224 210.03 121.172 208.811 121.098C208.817 121.074 208.823 121.051 208.829 121.029C208.889 120.796 208.913 120.701 208.898 120.612C208.888 120.551 208.859 120.493 208.811 120.395C208.804 120.381 208.796 120.366 208.788 120.35C208.864 120.504 208.729 120.517 208.592 120.53C208.384 120.551 208.172 120.571 208.696 121.089C207.328 121.298 205.892 121.281 204.465 121.264C203.582 121.253 202.703 121.243 201.845 121.286C201.868 121.238 201.898 121.188 201.927 121.138C202.033 120.962 202.14 120.782 201.965 120.659C201.203 121.69 199.163 121.666 197.422 121.645C196.733 121.637 196.091 121.629 195.593 121.687C194.992 121.758 194.396 121.866 193.799 121.975C193.371 122.052 192.945 122.13 192.516 122.193C192.444 122.204 192.372 122.215 192.3 122.225C191.868 122.288 191.433 122.352 191.009 122.459C190.855 122.498 190.665 122.578 190.465 122.663C190.078 122.826 189.652 123.007 189.368 122.935C189.804 122.113 189.591 122.351 189.386 122.58C189.294 122.683 189.203 122.784 189.173 122.788C189.113 122.797 189.045 122.807 188.971 122.818C188.672 122.864 188.273 122.924 187.928 122.924C188.13 122.165 188.392 121.43 188.654 120.696C189.026 119.649 189.398 118.604 189.597 117.489C189.623 117.345 189.654 117.191 189.687 117.03V117.029C189.923 115.86 190.237 114.301 189.14 113.564C188.596 113.199 187.776 113.062 187.065 112.942H187.064C186.881 112.911 186.704 112.882 186.541 112.849C186.271 112.796 185.938 112.76 185.584 112.722C184.802 112.638 183.92 112.542 183.4 112.226C183.178 112.091 183.022 111.96 182.872 111.835C182.624 111.626 182.394 111.434 181.912 111.262C181.736 111.2 181.578 111.137 181.432 111.079C180.839 110.844 180.431 110.682 179.708 110.887C179.767 110.819 179.829 110.753 179.89 110.689C180.207 110.354 180.473 110.074 179.869 109.705C179.751 109.634 179.589 109.629 179.43 109.625C179.189 109.618 178.955 109.611 178.893 109.375C178.502 109.633 178.465 109.856 178.418 110.146C178.4 110.252 178.381 110.367 178.343 110.497C178.356 110.701 178.413 110.897 178.516 111.082L178.154 111.218L177.668 111.401C177.776 111.132 177.631 111.119 177.475 111.105C177.369 111.096 177.258 111.086 177.216 110.997C177.1 110.751 177.121 110.41 177.139 110.103C177.146 109.995 177.152 109.892 177.152 109.798C176.57 109.97 175.961 110.183 175.706 110.75C175.141 110.435 175.201 110.353 175.432 110.036C175.493 109.952 175.565 109.853 175.642 109.728C175.043 109.596 174.916 109.884 174.825 110.348C174.598 110.283 174.371 110.217 174.144 110.152L174.138 110.15L173.877 110.074C174.589 110.07 174.76 109.549 174.777 108.983C174.658 109.02 174.539 109.056 174.42 109.092L174.416 109.093C174.259 109.141 174.103 109.189 173.946 109.236L173.775 110.057C173.379 110.372 172.404 109.884 171.954 109.658L171.953 109.658C171.908 109.636 171.869 109.616 171.835 109.6L171.721 109.544C170.524 108.965 170.087 108.753 170.263 107.38C170.325 106.892 170.419 106.402 170.512 105.912C170.646 105.212 170.78 104.51 170.824 103.808C170.896 102.639 170.776 101.398 170.662 100.215C170.647 100.057 170.631 99.9003 170.617 99.7448C170.528 98.7992 170.419 97.8584 170.31 96.9186V96.9184C170.124 95.3178 169.939 93.7195 169.853 92.1024C169.834 91.7303 169.814 91.3581 169.794 90.9857L169.793 90.9855C169.738 89.9678 169.683 88.9501 169.64 87.9319C169.632 87.7495 169.615 87.5643 169.598 87.3812C169.511 86.4557 169.429 85.5944 170.659 85.5123C170.479 84.9771 171.019 84.3582 171.575 84.0651C171.77 83.65 171.983 83.6129 172.214 83.9542C172.415 84.0133 172.602 83.9856 172.774 83.8705C173.27 83.7654 173.826 83.322 174.35 82.9044C174.683 82.6388 175.003 82.3836 175.286 82.2325C175.48 82.1294 175.736 82.0132 176.016 81.8862H176.016C176.768 81.5451 177.695 81.1245 178.067 80.6572C178.343 80.3104 178.231 80.1795 178.105 80.032C178.006 79.9155 177.899 79.789 177.965 79.5384C178.157 78.8108 178.827 79.7436 179.006 79.9923C179.017 80.0089 179.027 80.0228 179.035 80.0325C179.115 79.9574 179.267 79.8611 179.436 79.7538C179.797 79.5253 180.238 79.2464 180.23 79.0135L179.527 78.8962C179.602 78.8557 179.704 78.7914 179.818 78.7195C180.093 78.5462 180.438 78.3286 180.649 78.29C180.757 78.2703 180.833 78.2493 180.891 78.2334C180.961 78.214 181.002 78.2024 181.038 78.2113C181.089 78.2235 181.128 78.277 181.225 78.4065C181.263 78.4581 181.31 78.5216 181.37 78.5992C181.41 78.5418 181.466 78.4472 181.53 78.3383V78.338C181.694 78.059 181.915 77.6839 182.069 77.586C182.13 77.5477 182.365 77.5169 182.574 77.4898C182.722 77.4703 182.856 77.4529 182.908 77.4354C183.277 77.3137 183.42 77.1104 183.558 76.9147C183.668 76.758 183.775 76.6058 183.992 76.5037C184.118 76.4444 184.26 76.4654 184.396 76.4857C184.513 76.5034 184.625 76.5201 184.718 76.4824C184.884 76.4144 184.963 76.26 185.043 76.1055C185.115 75.9655 185.187 75.8255 185.323 75.7492C185.458 75.6741 185.703 75.6732 185.948 75.6724C186.156 75.6718 186.363 75.671 186.5 75.6244C186.829 75.5119 186.929 75.4045 187.068 75.254C187.137 75.1794 187.216 75.0943 187.338 74.9922C187.633 74.7457 187.915 74.6608 188.209 74.5718C188.429 74.5056 188.656 74.4371 188.901 74.2976C189.193 74.1321 189.32 73.8645 189.437 73.6177C189.558 73.3609 189.669 73.1266 189.945 73.0523C190.255 72.9688 190.466 73.0398 190.637 73.0972C190.863 73.1732 191.019 73.2256 191.242 72.8662C191.277 72.8094 191.234 72.7412 191.186 72.6652C191.114 72.5518 191.031 72.4215 191.181 72.2853C191.45 72.0424 191.581 72.2617 191.704 72.4664C191.723 72.4974 191.742 72.5282 191.76 72.557L191.761 72.5554L191.762 72.5537C191.925 72.2667 192.087 71.9797 192.25 71.6927C192.729 71.9387 192.793 71.8403 192.906 71.6636C192.978 71.5513 193.071 71.4074 193.303 71.3001C193.431 71.2413 193.548 71.2665 193.667 71.2923C193.796 71.3201 193.928 71.3486 194.079 71.2715C194.207 71.2066 194.272 71.0957 194.336 70.9859C194.38 70.9119 194.423 70.8384 194.484 70.7793C194.574 70.6939 194.651 70.5988 194.729 70.504C194.906 70.286 195.082 70.0698 195.401 69.976C195.236 70.0243 196.592 69.9877 196.471 69.9333C196.339 69.752 196.207 69.5706 196.075 69.3893C196.219 69.3893 196.359 69.3921 196.496 69.3948H196.497C197.039 69.4051 197.544 69.4151 198.092 69.2556L198.104 69.2526C198.347 69.1819 198.719 69.0743 198.918 68.9318L198.934 68.9201C199.18 68.744 199.288 68.6672 199.332 68.566C199.367 68.4873 199.363 68.3938 199.356 68.228C199.353 68.1412 199.349 68.0347 199.349 67.9C200.116 68.3569 201.092 68.1972 201.849 67.6673C202.018 67.5489 202.161 67.4205 202.304 67.2927C202.494 67.1219 202.683 66.9525 202.931 66.8094C203.117 66.7193 203.306 66.635 203.498 66.5568C203.739 66.3238 203.979 66.3216 204.221 66.5504C204.461 66.4899 204.531 66.4428 204.643 66.366C204.69 66.3338 204.745 66.2964 204.823 66.2506C204.899 66.1103 204.979 65.9725 205.066 65.8375C205.349 65.8098 205.629 65.7618 205.905 65.6936C206.215 65.6156 206.49 65.5039 206.748 65.3991C207.38 65.142 207.912 64.9263 208.618 65.3475L208.696 65.1992L208.699 65.1939C208.799 65.0023 208.9 64.8107 208.999 64.6191C209.299 65.0575 209.532 64.8889 209.842 64.664C209.97 64.5714 210.11 64.4693 210.274 64.3961C210.394 64.3426 210.532 64.3096 210.667 64.2774C210.797 64.2464 210.923 64.2162 211.028 64.169C211.147 64.1954 211.268 64.222 211.387 64.2486C211.489 63.9547 211.59 63.6608 211.692 63.3668C211.745 63.3865 211.841 63.4292 211.958 63.4811C212.284 63.6264 212.772 63.8438 212.951 63.8277C213.143 63.8108 213.356 63.6366 213.564 63.4655C213.736 63.3247 213.904 63.1858 214.057 63.1386C214.352 63.0479 214.418 63.0771 214.515 63.1198C214.588 63.1522 214.678 63.1919 214.896 63.1932C214.947 63.1935 214.995 63.1949 215.039 63.196C215.337 63.2032 215.514 63.2077 215.807 62.9409C214.862 62.711 215.691 62.5821 216.275 62.4911C216.395 62.4726 216.504 62.4557 216.586 62.4396C216.793 62.3994 216.972 62.3819 217.135 62.3664C217.558 62.3256 217.863 62.2962 218.239 61.8964H217.699C218.093 61.5606 218.097 61.5614 218.301 61.6024C218.372 61.6166 218.468 61.636 218.613 61.6474C218.652 61.6504 218.72 61.672 218.802 61.6984C219.092 61.7907 219.557 61.9391 219.559 61.5292C220.283 61.9288 220.291 61.9296 221.038 61.7494C221.173 61.7167 221.301 61.6537 221.428 61.5905C221.613 61.4993 221.799 61.4072 222.013 61.4036C222.182 61.4008 222.328 61.4336 222.469 61.4649C222.624 61.4996 222.773 61.5326 222.938 61.5156C223.108 61.4987 223.66 61.3096 223.933 61.2159C223.964 61.2051 223.992 61.1956 224.014 61.1879C224.187 61.1288 224.332 61.0373 224.473 60.9472C224.623 60.8524 224.769 60.7592 224.943 60.7079C225.142 60.6491 225.37 60.6588 225.599 60.6685C225.801 60.6771 226.002 60.6857 226.186 60.648C226.567 60.5695 226.897 60.447 227.212 60.3297C227.863 60.0876 228.452 59.8685 229.304 60.1073C229.435 59.0774 230.772 59.2713 231.544 59.3833L231.609 59.3927C231.75 59.4132 231.873 59.4423 231.987 59.4698C232.301 59.5444 232.553 59.6046 232.954 59.4268C233.148 59.3411 233.305 59.2335 233.462 59.1265C233.666 58.987 233.869 58.8484 234.149 58.7594C234.469 58.6579 234.882 58.5797 235.241 58.5115C235.309 58.4984 235.376 58.486 235.439 58.4735C235.685 58.4008 235.936 58.3776 236.192 58.4039C236.466 58.4399 236.692 58.5561 236.872 58.7522C236.867 58.763 236.871 58.7688 236.886 58.7677C236.881 58.7624 236.877 58.7574 236.872 58.7522C236.911 58.6657 237.509 58.2503 237.441 58.3016C237.581 58.1965 237.698 58.1371 237.801 58.0847C238.025 57.9705 238.183 57.8901 238.371 57.4431C238.212 57.4117 238.052 57.3801 237.893 57.3485C237.733 57.3172 237.574 57.2856 237.414 57.254C237.471 57.2504 237.526 57.2468 237.579 57.2429C237.993 57.2138 238.328 57.1905 238.716 57.3491C238.844 57.4018 239.01 57.5504 239.182 57.704C239.414 57.9125 239.657 58.1302 239.832 58.1305C240.38 58.131 240.572 57.407 240.518 57.0302C240.979 58.0343 241.372 58.2015 242.406 57.6882C242.467 57.658 242.528 57.628 242.589 57.5978L242.596 57.5939C242.654 57.5651 242.713 57.5363 242.771 57.5071C243.017 57.2656 243.262 57.2701 243.505 57.5207C243.65 57.5945 243.794 57.668 243.939 57.7417L244.048 57.5709C244.186 57.3571 244.323 57.1433 244.46 56.9293C244.83 57.4051 245.18 57.4284 245.782 57.3172C245.987 57.2795 246.298 57.0893 246.597 56.906C246.905 56.7174 247.2 56.5366 247.355 56.5366C247.44 56.5366 247.536 56.6287 247.645 56.7335C247.765 56.8486 247.9 56.9792 248.055 57.0205C248.545 57.1519 249.306 56.8214 249.48 56.3827C249.573 56.5657 249.666 56.749 249.758 56.9323C249.816 56.8821 249.874 56.8317 249.931 56.7815C250.105 56.6295 250.279 56.4773 250.452 56.3242C250.514 56.8236 250.921 56.8159 251.276 56.8092C251.538 56.8042 251.771 56.7998 251.817 56.9991C251.87 57.2326 251.142 57.7392 250.709 58.0409C250.593 58.1211 250.499 58.1871 250.445 58.2292C251.131 58.6163 251.974 57.9403 252.595 57.4431C252.72 57.3424 252.837 57.249 252.941 57.1733C253.26 57.4969 253.367 57.6669 253.075 58.037C252.806 58.377 252.684 58.306 252.542 58.2234C252.411 58.1471 252.263 58.0612 251.968 58.2794C252.172 58.5994 252.355 58.519 252.585 58.4183C252.645 58.3922 252.707 58.3651 252.773 58.3429C252.691 58.794 252.764 58.8157 252.889 58.8523C252.978 58.8786 253.093 58.9127 253.196 59.1168C253.348 59.4177 253.372 59.6592 253.4 59.9509C253.409 60.0457 253.419 60.1458 253.433 60.2548ZM158.921 99.2653C159.197 99.2431 159.275 99.3627 159.345 99.4703C159.405 99.5612 159.459 99.6433 159.621 99.6233C159.76 99.6064 159.871 99.4694 159.985 99.3288C160.084 99.2068 160.186 99.0821 160.309 99.0319C160.867 98.8031 161.679 98.7679 162.423 98.7357C162.773 98.7207 163.107 98.706 163.394 98.6725C163.867 98.6173 164.313 98.4875 164.753 98.3591V98.3589C165.167 98.2385 165.577 98.119 166.002 98.0633C166.364 98.0161 166.627 98.0774 166.97 98.1712C166.995 98.1781 167.019 98.1845 167.042 98.1908C167.362 98.2782 167.52 98.3212 167.616 98.4179C167.708 98.5119 167.742 98.657 167.808 98.9428L167.811 98.9545C168.161 100.466 167.891 102.073 167.62 103.68C167.266 105.784 166.912 107.886 167.955 109.768C162.582 109.727 157.199 109.828 151.857 110.417C151.857 109.975 151.861 109.533 151.865 109.092C151.876 107.634 151.888 106.178 151.771 104.721C151.717 104.055 151.642 103.39 151.568 102.726V102.725C151.546 102.531 151.524 102.336 151.503 102.142C151.391 101.117 151.418 101.112 152.214 100.958C152.264 100.949 152.318 100.939 152.376 100.927C152.659 100.871 152.84 100.752 153.03 100.625C153.176 100.529 153.327 100.429 153.534 100.35C153.775 100.259 153.927 100.304 154.108 100.358C154.196 100.384 154.292 100.413 154.409 100.428C154.866 100.488 154.997 100.454 155.253 100.386C155.352 100.36 155.469 100.329 155.631 100.296C155.934 100.236 156.226 100.195 156.508 100.156C157.388 100.034 158.175 99.9247 158.921 99.2653ZM253.357 68.2055C253.28 68.1631 253.202 68.121 253.125 68.0785C252.207 69.8989 251.605 71.7962 250.995 73.7183C250.907 73.9984 250.818 74.279 250.728 74.5602C250.36 75.7068 249.995 76.8537 249.63 78.0011C249.563 78.2121 249.481 78.4309 249.398 78.6544C249.121 79.3967 248.826 80.1906 248.976 80.9168C250.136 79.2436 251.24 77.5363 252.288 75.8002C252.799 74.9537 253.297 74.1004 253.785 73.2417C253.848 73.1305 253.926 73.0121 254.007 72.8901C254.183 72.625 254.371 72.3421 254.439 72.0726C254.526 71.7268 254.615 71.6245 254.59 71.5621C254.567 71.5042 254.445 71.4809 254.133 71.3295C254.382 71.0655 254.544 71.1384 254.679 71.1992C254.756 71.2335 254.824 71.2643 254.894 71.2261C255.067 71.1321 255.303 70.8403 255.49 70.6094C255.566 70.5143 255.635 70.4291 255.687 70.3728C255.543 70.3343 255.304 70.2924 255.026 70.2436C254.312 70.118 253.343 69.948 253.077 69.6749C252.651 69.2382 253.106 68.8574 253.552 68.4839C253.594 68.449 253.635 68.4143 253.676 68.3794C253.57 68.3214 253.464 68.2635 253.357 68.2055Z" fill="url(#paint1_linear_649_1053)"/>
<path fill-rule="evenodd" clip-rule="evenodd" d="M132.135 142.024C132.01 142.63 131.696 142.915 132.025 143.471C132.304 143.943 133.105 144.252 133.643 144.132L132.135 142.024ZM117.568 120.494L114.916 121.345C115.641 122.011 116.332 122.71 117.131 123.302L117.568 120.494ZM161.316 122.673C160.051 122.077 158.634 122.009 157.247 121.933C157.458 122.998 157.669 124.064 157.88 125.13C159.025 124.311 160.171 123.492 161.316 122.673ZM130.942 205.166C130.69 204.747 128.968 201.514 128.61 201.68C128.42 201.768 128.405 203.568 128.378 203.824C128.279 204.735 128.18 205.645 128.081 206.556C129.1 206.219 130.188 205.94 130.942 205.166ZM118.912 179.03C119.173 179.744 119.434 180.459 119.694 181.173C119.818 181.513 119.89 182.014 120.11 182.314C120.394 182.703 120.179 182.931 120.56 182.506C120.968 182.049 121.09 180.829 121.267 180.269C121.536 179.418 121.805 178.567 122.074 177.717C120.806 177.707 120.037 178.684 118.912 179.03ZM92.2626 136.954C90.7032 137.952 89.1246 138.941 87.7678 140.181C88.9613 140.112 90.6232 140.88 91.7474 140.519C92.2664 140.623 92.438 140.439 92.2626 139.966V138.983V136.954ZM115.384 144.012V149.837C116.84 148.675 118.373 147.597 119.774 146.375C118.311 145.587 116.848 144.8 115.384 144.012ZM167.433 159.105C166.974 161.698 166.948 164.367 166.822 166.991C166.8 167.457 166.608 168.158 166.94 168.566C167.273 168.975 168.22 169.201 168.702 169.42C170.057 170.035 171.403 170.667 172.755 171.29C170.981 167.228 169.207 163.166 167.433 159.105ZM201.841 143.157C205.184 141.619 208.528 140.08 211.872 138.541C208.594 137.242 205.315 135.944 202.037 134.644C201.972 137.482 201.906 140.32 201.841 143.157ZM167.426 150.4C168.037 150.441 168.134 148.262 168.235 147.686C168.427 146.593 168.625 145.5 168.827 144.408C169.232 142.224 169.657 140.044 170.105 137.868C171.001 133.517 171.989 129.182 173.084 124.871C171.907 124.673 170.826 124.53 169.677 124.209C168.749 123.95 167.644 124.091 166.815 123.553C166.708 125.573 167.247 127.72 167.446 129.74C167.677 132.078 167.801 134.403 167.781 136.75C167.74 141.301 167.556 145.852 167.426 150.4ZM90.4695 212.047C91.0489 211.902 90.26 204.467 90.2248 203.395C90.1241 200.291 90.1045 197.184 90.1638 194.079C87.042 195.912 83.8477 197.599 80.55 199.121C81.3976 200.15 82.1918 201.26 83.1296 202.218C84.096 203.204 85.2045 204.012 86.1 205.075C87.9029 207.214 89.1379 209.642 90.4695 212.047ZM165.591 168.064C165.736 165.827 165.871 163.596 166.112 161.366C166.214 160.417 167.194 155.375 165.626 155.494C164.733 155.561 163.168 156.783 162.35 157.212C161.269 157.777 160.187 158.341 159.101 158.898C156.958 159.998 154.801 161.072 152.65 162.159C156.964 164.127 161.277 166.095 165.591 168.064ZM156.278 121.562C154.491 121.438 152.764 121.313 151.002 121.002C150.052 120.834 149.101 120.857 148.146 120.744C147.462 120.663 146.124 120.137 145.487 120.309C144.686 120.525 144.395 124.283 144.284 125.226C144.107 126.745 143.987 128.588 144.712 130.015C146.109 132.765 149.874 130.618 151.705 129.464C153.275 128.475 155.053 127.473 156.445 126.272C157.678 125.208 156.571 122.937 156.278 121.562ZM165.543 151.475C166.889 150.965 166.868 150.325 166.927 149.007C166.998 147.406 167.039 145.802 167.088 144.2C167.175 141.344 167.257 138.487 167.23 135.63C167.204 132.839 167.058 130.053 166.717 127.279C166.596 126.298 166.716 124.623 166.164 123.786C165.66 123.023 164.096 123.015 163.242 123.062C162.28 123.115 161.501 123.971 160.791 124.511C160.004 125.111 158.388 125.954 158.259 126.848C158.115 127.845 158.7 129.269 158.927 130.237C159.757 133.768 160.767 137.266 161.83 140.741C162.933 144.347 164.051 147.989 165.543 151.475ZM131.343 143.021C131.43 142.227 131.746 141.565 131.319 140.809C130.953 140.159 130.356 139.506 129.908 138.891C128.625 137.128 127.187 135.44 125.789 133.756C124.51 132.214 123.198 130.689 121.857 129.193C121.11 128.36 120.34 127.546 119.574 126.728C119.014 126.129 118.482 125.288 117.689 124.975C117.105 128.412 116.622 131.865 116.245 135.328C116.063 137.002 115.906 138.678 115.774 140.356C115.737 140.83 115.344 142.43 115.595 142.871C115.859 143.334 117.472 143.954 117.966 144.238C119.346 145.032 120.419 146.229 121.732 144.923C122.636 144.024 123.364 142.757 124.374 141.973C124.9 141.564 125.396 141.583 125.986 141.34C126.673 141.059 126.694 140.787 127.515 141.171C128.897 141.817 129.736 142.771 131.343 143.021ZM62.158 160.708C62.158 163.088 61.9841 165.045 63.7076 166.971C65.2136 168.655 66.7786 169.044 68.897 169.709C70.1445 170.1 70.2316 169.739 71.2423 169.079C72.203 168.452 73.249 167.948 74.1964 167.301C76.2383 165.906 78.2788 164.468 80.2633 163.001C80.9304 162.507 80.832 162.676 80.7307 162.084C80.638 161.544 80.2245 160.858 79.9984 160.345C79.5896 159.417 79.108 158.519 78.626 157.622C78.0788 156.605 77.6022 155.5 76.9226 154.552C76.6406 154.158 76.3059 153.802 75.9768 153.444C75.2839 152.688 75.3084 152.716 74.4799 153.333C72.7306 154.638 71.1031 156.049 69.1343 157.069C66.805 158.276 64.4813 159.49 62.158 160.708ZM114.902 142.272C115.155 138.856 115.44 135.458 115.878 132.056C116.102 130.31 116.364 128.568 116.618 126.826C116.722 126.116 117.122 124.925 116.899 124.236C116.68 123.557 115.714 122.911 115.184 122.421C115.041 122.289 114.603 121.735 114.415 121.71C114.213 121.684 113.454 122.204 113.235 122.321C112.46 122.737 111.7 123.174 110.951 123.629C109.54 124.486 108.172 125.406 106.834 126.36C104.028 128.36 101.353 130.513 98.6062 132.584C101.122 134.648 104.22 136.251 107.033 137.923C108.696 138.912 110.368 139.889 112.062 140.832C112.921 141.309 113.916 142.039 114.902 142.272ZM80.5053 203.371C78.4734 204.629 76.5331 205.956 74.2352 206.763C71.9477 207.566 69.6868 207.876 67.3225 208.353C66.1302 208.594 65.0095 208.857 63.7926 209.026C63.1107 209.12 62.0552 209.084 61.4334 209.354C60.8797 209.243 60.6824 209.42 60.8421 209.884C60.848 210.028 60.8539 210.172 60.8599 210.316C61.0166 212.322 62.3938 214.735 63.595 216.366C64.2962 217.318 65.1896 218.204 66.0775 219.004C67.0799 219.908 67.6579 220.545 69.0552 220.167C71.4106 219.528 73.4893 218.244 75.8766 217.677C77.7651 217.229 79.3337 216.29 81.1754 215.804C83.4466 215.204 85.6942 214.521 87.9968 214.02C86.9683 212.162 86.0485 210.227 84.7317 208.525C83.3811 206.778 81.892 205.099 80.5053 203.371ZM92.967 140.837C97.2162 141.629 101.822 142.362 105.625 144.415C107.109 145.216 108.99 146.455 109.425 148.112C109.945 150.093 107.902 151.32 106.195 151.939C104.147 152.681 101.917 152.966 99.7458 153.2C98.5967 153.324 97.4423 153.391 96.2878 153.452C95.3535 153.502 93.7689 153.31 92.9149 153.657C92.3799 153.557 92.1945 153.76 92.3586 154.266C92.3485 154.448 92.3387 154.63 92.3289 154.811L92.2404 156.444C92.1814 157.532 92.1225 158.62 92.0632 159.707C91.9349 162.076 91.8064 164.446 91.6781 166.815C93.9037 165.524 95.6974 163.676 97.8727 162.299C98.9068 161.644 99.9336 160.988 100.964 160.336C101.396 160.062 101.659 159.679 102.085 159.424C102.648 159.086 103.148 158.883 103.677 158.44C105.836 156.632 108.238 155.069 110.528 153.41C111.569 152.656 112.708 151.962 113.698 151.153C114.735 150.306 114.591 149.608 114.566 148.39C114.539 147.101 115.045 145.499 114.81 144.256C115.007 143.834 114.856 143.571 114.357 143.468C114.023 143.268 113.69 143.068 113.356 142.869C112.691 142.471 112.026 142.072 111.361 141.675C108.715 140.091 106.07 138.507 103.424 136.923C102.103 136.132 100.781 135.341 99.4596 134.55C99.0905 134.329 97.8866 133.331 97.4725 133.361C97.05 133.391 96.3172 134.162 96.0005 134.408C95.5147 134.785 95.043 135.181 94.5181 135.511C94.2565 135.68 93.9834 135.832 93.699 135.965C93.2443 136.006 93.0864 136.24 93.2248 136.666C92.8254 137.865 93.0449 139.578 92.967 140.837ZM151.892 197.362C150.93 193.151 149.689 188.165 145.936 185.301C142.129 182.396 136.565 183.518 133.587 186.93C132.096 188.638 131.171 190.658 130.485 192.752C129.78 194.9 128.741 197.699 128.931 199.971C129.014 200.967 129.926 202.038 130.447 202.907C130.985 203.805 131.342 205.092 132.609 204.781C134.574 204.299 136.572 203.192 138.411 202.399C140.271 201.598 142.229 200.938 144.157 200.164C145.438 199.65 146.767 199.259 148.044 198.738C149.255 198.244 150.853 198.125 151.892 197.362ZM208.748 172.283C211.432 173.182 212.827 171.742 214.716 170.122C216.505 168.587 218.443 167.111 220.09 165.442C221.79 163.722 223.133 161.689 224.439 159.702C225.76 157.694 227.545 155.525 228.358 153.288C228.772 152.15 228.948 150.89 229.209 149.714C229.272 149.431 229.693 148.377 229.559 148.139C229.375 147.812 228.203 147.777 227.881 147.729C225.32 147.35 222.606 147.331 220.038 147.67C215.068 148.326 210.911 150.935 209.34 155.497C207.499 160.844 208.384 166.788 208.748 172.283ZM191.347 125.897C191.305 126.823 193.676 127.08 194.291 127.296C195.711 127.795 197.123 128.321 198.502 128.911C201.342 130.127 204.371 130.918 207.09 132.387C212.952 135.554 219.316 137.787 225.239 140.816C226.161 141.288 227.965 142.425 229.019 142.329C229.579 142.278 229.161 142.7 229.525 141.866C229.656 141.566 229.699 141.176 229.772 140.855C229.992 139.892 230.162 138.92 230.408 137.962C230.814 136.386 231.228 134.923 231.399 133.303C231.471 132.617 231.551 131.931 231.559 131.24C231.568 130.541 231.74 128.787 231.403 128.181C231.179 127.779 231.134 127.917 230.575 127.804C230.254 127.739 229.918 127.604 229.609 127.514C228.884 127.302 228.158 127.099 227.397 127.037C226.645 126.976 226.166 126.762 225.461 126.637C224.721 126.507 223.962 126.665 223.209 126.483C222.395 126.287 222.007 126.107 221.158 126.182C220.334 126.255 220.097 126.084 219.29 125.874C218.617 125.699 217.815 125.821 217.113 125.768C216.264 125.703 215.417 125.604 214.567 125.541C210.746 125.258 206.879 125.678 203.049 125.644C200.966 125.626 198.928 125.914 196.848 125.825C195.03 125.748 193.151 125.766 191.347 125.897ZM201.288 144.75C199.429 145.412 197.705 146.489 195.982 147.416C193.994 148.485 192.092 149.621 190.253 150.902C187.161 153.058 183.552 155.643 182.738 159.404C181.903 163.265 185.484 166.428 188.842 168.007C192.671 169.808 197.127 170.74 201.321 171.427C200.873 162.541 200.978 153.639 201.288 144.75ZM145.675 165.672C144.548 165.963 143.593 166.588 142.546 167.05C141.609 167.464 140.703 167.777 139.827 168.31C138.401 169.178 136.747 169.922 135.256 170.594C131.566 172.256 127.984 174.32 124.331 176.161C123.363 176.65 123.045 176.958 122.717 177.963C122.361 179.054 122.026 180.153 121.683 181.249C121.363 182.27 120.852 183.362 120.986 184.441C121.104 185.379 121.622 186.264 122.013 187.119C122.997 189.273 124.064 191.392 125.166 193.494C126.155 195.381 127.058 197.383 128.327 199.118C129.314 194.301 130.2 188.903 134.025 185.232C137.847 181.563 143.945 181.511 147.629 185.298C149.379 187.097 150.443 189.362 151.281 191.639C151.72 192.835 152.016 194.053 152.298 195.288C152.601 196.608 152.526 197.308 154.082 196.908C155.317 196.59 156.626 196.337 157.837 195.975C158.465 195.787 159.077 195.576 159.106 195.112C159.142 194.525 158.298 193.324 158.049 192.772C156.762 189.924 155.476 187.076 154.189 184.228C152.791 181.135 151.394 178.043 149.996 174.95C149.299 173.407 148.601 171.865 147.903 170.322C147.267 168.915 146.737 166.827 145.675 165.672ZM201.393 141.622C201.413 140.215 201.438 138.809 201.458 137.403C201.47 136.565 201.869 134.944 201.089 134.346C200.606 133.975 199.171 133.69 198.56 133.436C197.353 132.935 196.047 132.712 194.833 132.215C190.08 130.265 185.133 128.642 180.239 127.071C179.184 126.733 178.105 126.455 177.043 126.122C176.47 125.942 174.345 124.884 173.815 125.161C173.35 125.403 172.999 128.287 172.851 128.885C172.498 130.303 172.162 131.724 171.838 133.148C170.582 138.675 169.528 144.24 168.548 149.816C171.151 148.89 173.647 147.287 176.106 146.047C178.661 144.76 181.208 143.476 183.78 142.218C184.506 141.863 187.061 140.23 187.658 140.871C188.617 141.899 186.332 143.105 185.732 143.545C183.412 145.248 180.961 146.733 178.48 148.219C175.909 149.759 173.233 151.119 170.649 152.631C169.716 153.177 168.227 153.841 167.86 154.763C167.389 155.949 167.729 157.39 168.159 158.522C169.213 161.306 170.368 164.055 171.59 166.778C172.145 168.017 172.715 169.249 173.295 170.477C173.986 171.939 174.893 172.249 176.399 172.922C182.813 175.789 189.476 178.51 195.638 181.828C194.607 182.94 192.093 181.113 191.076 180.651C189.191 179.794 187.305 178.94 185.421 178.081C181.913 176.48 178.423 174.847 174.894 173.285C177.156 178.099 179.824 182.737 182.783 187.206C182.036 187.442 182.218 187.455 181.749 187.034C181.354 186.68 181.089 185.986 180.822 185.542C180.268 184.623 179.723 183.701 179.166 182.784C178.01 180.882 176.812 179.009 175.756 177.055C174.962 175.586 174.347 173.018 172.716 172.277C170.683 171.354 168.623 170.455 166.589 169.519C166.589 176.838 167.151 183.995 167.976 191.268C168.018 191.635 168.394 192.718 167.636 192.612C167.295 192.564 167.179 190.557 167.119 190.138C166.844 188.217 166.61 186.29 166.419 184.361C166.038 180.509 165.831 176.642 165.805 172.775C165.317 176.535 164.829 180.295 164.341 184.056L163.648 189.401C163.526 190.337 163.405 191.273 163.283 192.209C163.227 192.639 163.263 193.201 163.101 193.611C162.847 194.256 162.933 194.207 162.137 194.501C162.898 189.604 163.601 184.699 164.223 179.786C164.526 177.388 164.811 174.988 165.073 172.586C165.143 171.94 165.212 171.294 165.28 170.648C165.314 170.319 165.618 169.259 165.449 168.986C165.282 168.714 164.176 168.432 163.858 168.293C163.161 167.99 162.464 167.688 161.767 167.383C159.507 166.394 157.247 165.397 155.011 164.36C154.033 163.906 153.007 163.205 151.944 162.963C150.885 162.722 150.114 163.412 149.209 163.85C148.504 164.192 146.844 164.646 146.373 165.226C145.935 165.766 147.295 167.925 147.653 168.721C148.661 170.967 149.669 173.214 150.678 175.46C152.722 180.014 154.767 184.568 156.811 189.122C157.311 190.236 157.811 191.349 158.311 192.462C158.631 193.176 159.166 195.209 159.943 195.288C160.286 195.323 160.851 194.973 161.183 194.873C161.679 194.723 162.137 194.725 162.635 194.646C163.547 194.501 164.494 194.061 165.389 193.752C167.691 192.958 170.076 192.445 172.397 191.703C174.727 190.958 177.02 190.121 179.342 189.376C181.45 188.699 183.578 187.928 185.604 187.047C187.743 186.116 189.937 185.295 192.021 184.263C195.818 182.383 199.573 180.628 202.927 178.322C203.716 177.78 204.556 177.236 205.336 176.656C206.02 176.146 207.326 175.517 207.791 174.848C207.969 174.592 208.121 174.091 207.914 173.788C207.692 173.463 206.706 173.492 206.246 173.435C204.794 173.252 203.342 173.069 201.891 172.887C202.002 173.781 202.115 174.673 202.196 175.57C202.252 176.204 202.652 177.877 202.113 178.373C201.372 177.713 201.61 175.742 201.544 174.863C201.508 174.394 201.636 173.475 201.411 173.058C201.165 172.602 200.485 172.608 199.869 172.483C197.255 171.954 194.664 171.51 192.135 170.671C187.862 169.254 182.754 166.862 181.799 162.248C180.804 157.438 185.176 153.27 188.858 150.587C191.062 148.981 193.407 147.591 195.832 146.299C196.966 145.696 198.099 145.093 199.24 144.503C199.655 144.288 201.017 143.846 201.236 143.47C201.46 143.086 201.345 142.059 201.393 141.622ZM109.969 215.493C109.761 215.588 109.554 215.683 109.347 215.777C111.653 209.626 113.938 203.502 115.866 197.235C116.797 194.21 117.74 191.188 118.702 188.171C119.118 186.87 120.138 185.078 119.855 183.731C119.548 182.272 118.812 180.72 118.243 179.333C114.598 181.477 110.877 183.512 107.172 185.559C103.85 187.395 100.472 189.028 97.1271 190.844C95.413 191.775 93.6448 192.403 91.8559 193.164C90.4022 193.782 90.9666 195.671 90.9876 196.933C91.0611 201.388 91.0575 205.86 91.3463 210.309C91.4515 211.93 91.3158 213.79 92.4181 215.139C93.8279 216.864 95.1355 218.623 96.4211 220.438C96.9028 221.118 98.9264 224.801 99.6809 224.72C100.174 224.668 100.627 223.177 100.874 222.823C101.405 222.061 102.181 221.405 102.888 220.791C105.94 218.141 109.328 216.273 112.848 214.336C116.424 212.368 120.084 210.536 123.728 208.669C124.551 208.247 125.438 207.943 126.256 207.512C126.579 207.342 127.22 207.072 127.423 206.768C127.728 206.312 127.624 205.051 127.688 204.507C127.818 203.395 128.051 202.239 128.063 201.119C128.075 200.013 127.365 199.062 126.85 198.097C124.588 193.861 122.391 189.614 120.423 185.249C118.872 190.318 117.243 195.362 115.721 200.438C114.927 203.088 113.969 205.695 113.037 208.305C112.561 209.638 112.082 210.97 111.606 212.303C111.236 213.341 111.044 214.861 109.969 215.493ZM142.448 119.976C141.25 119.988 140.163 119.823 138.99 119.589C138.56 119.503 138.182 119.467 137.746 119.431C137.252 119.39 136.803 119.139 136.369 119.09C136.042 119.054 135.47 119.182 135.157 119.28C134.432 119.508 134.455 119.393 134.425 120.181C134.377 121.399 134.342 122.616 134.27 123.833C133.989 128.621 133.446 133.363 132.701 138.106C132.551 139.064 132.129 140.321 132.361 141.273C132.57 142.132 133.362 143.048 133.885 143.768C134.961 145.249 137.496 145.98 139.279 146.4C141.159 146.843 143.111 147.006 144.898 147.401C145.393 147.51 145.961 147.317 146.488 147.427C146.976 147.528 147.355 147.779 147.806 147.96C148.911 148.404 150.145 148.486 151.286 148.829C153.548 149.509 155.97 149.468 158.234 150.121C158.813 150.287 159.313 150.708 159.87 150.851C160.379 150.983 160.903 150.828 161.436 150.902C162.565 151.057 163.618 151.419 163.879 152.553C164.569 152.042 164.665 152.176 164.546 151.385C164.469 150.877 164.167 150.259 164.002 149.77C163.581 148.523 163.157 147.277 162.736 146.029C161.904 143.561 161.076 141.091 160.308 138.605C159.621 136.381 158.997 134.139 158.451 131.881C158.174 130.733 157.942 129.58 157.704 128.425C157.635 128.09 157.703 127.558 157.344 127.335C157.018 127.133 156.256 127.858 155.912 128.092C153.505 129.724 147.986 134.549 144.978 131.703C143.358 130.17 143.452 127.475 143.628 125.494C143.736 124.277 143.965 123.076 144.22 121.879C144.284 121.58 144.674 120.621 144.531 120.408C144.377 120.179 142.77 120.043 142.448 119.976ZM227 146.611C227.64 146.678 228.28 146.745 228.921 146.813C228.862 146.328 228.915 145.6 228.719 145.149C228.448 144.525 227.785 144.456 227.055 144.197C225.901 143.789 224.724 143.433 223.583 142.994C221.106 142.039 218.64 141.072 216.161 140.118C215.075 139.699 213.799 139.015 212.619 139.356C211.347 139.725 210.092 140.476 208.903 141.026C207.556 141.648 206.21 142.273 204.865 142.897C204.234 143.19 203.603 143.482 202.972 143.775C201.98 144.235 201.848 144.281 201.77 145.331C201.372 150.703 201.401 156.283 201.575 161.662C201.664 164.407 201.564 167.167 201.775 169.907C201.791 170.118 201.774 171.307 201.915 171.469C202.113 171.698 203.511 171.775 203.845 171.832C205.146 172.055 206.457 172.129 207.772 172.239C207.463 165.991 206.324 158.605 209.752 152.89C213.195 147.149 220.555 145.905 227 146.611ZM167.143 85.144C167.529 84.321 168.194 83.6261 168.762 82.9041C169.07 82.5137 169.601 82.047 169.798 81.5903C170.078 80.9403 170.076 81.0795 169.658 80.5102C169.262 79.9723 169.27 79.9318 168.659 79.8356C168.144 79.7546 167.596 79.8922 167.07 79.804C166.538 79.7147 165.077 79.2954 165.412 78.5035C165.397 78.5382 166.243 78.148 166.309 78.0803C166.521 77.8638 166.588 77.4021 166.693 77.1403C167.031 76.3013 167.149 75.758 166.773 74.8646C166.211 73.5306 163.989 73.1357 162.605 73.5846C161.913 73.8087 161.519 74.284 161.208 74.8812C161.011 75.2606 160.965 75.8088 160.71 76.139C160.324 76.6362 160.301 76.581 159.502 76.4931C158.486 76.3814 157.652 76.0159 156.689 75.7611C155.64 75.4832 154.958 76.0484 154.042 76.504C152.387 77.3269 150.789 77.6126 148.935 77.7432C146.871 77.8887 144.958 77.4229 142.914 77.3028C143.444 79.5891 144.816 81.4453 145.912 83.5155C146.104 83.8796 146.416 84.2517 146.423 84.6729C146.431 85.0697 145.817 85.6096 145.886 85.9379C146.034 86.6383 147.68 87.199 148.304 87.3962C150.069 87.9532 152.078 89.0438 154.021 88.6057C155.085 88.3656 155.658 86.7917 156.661 86.6761C158.005 86.5202 156.999 88.1407 156.749 88.6981C158.657 88.9695 161.076 88.7394 162.902 88.1338C163.818 87.8304 164.593 87.3776 165.429 86.9287C166.469 86.3696 166.685 86.216 167.143 85.144ZM133.753 119.17C130.352 119.223 126.9 118.765 123.491 119.186C122.701 119.283 121.922 119.44 121.146 119.607C120.588 119.727 118.816 119.829 118.444 120.217C118.105 120.571 118.103 122.201 118.033 122.661C117.877 123.684 117.919 124.037 118.616 124.828C120.909 127.432 123.298 129.957 125.558 132.589C127.728 135.117 129.51 137.943 131.705 140.435C132.876 137.242 132.947 133.41 133.268 130.062C133.44 128.277 133.596 126.49 133.743 124.704C133.882 123.002 134.357 120.793 133.753 119.17ZM89.7241 152.821C90.1175 152.821 90.745 152.937 91.1274 152.821C91.6532 152.978 91.8289 152.793 91.655 152.268C91.6633 152.084 91.6716 151.9 91.6802 151.716C91.735 150.53 91.7954 149.344 91.8541 148.158C91.908 147.074 91.9604 145.989 92.006 144.905C92.0374 144.164 92.4371 142.329 92.1174 141.66C91.9027 141.211 91.394 141.313 90.7752 141.247C90.1866 141.185 89.5962 141.127 89.0108 141.042C88.2678 140.933 87.4443 140.684 86.6883 140.84C85.9288 140.997 85.3766 141.653 84.7806 142.071C83.8374 142.731 82.8737 143.367 81.9225 144.017C80.1937 145.199 78.4823 146.402 76.768 147.602C76.06 148.097 75.924 147.925 76.2691 148.637C76.4827 149.077 76.9683 149.575 77.2639 149.972C77.8525 150.764 78.4388 151.963 79.1939 152.605C80.2926 153.54 83.3412 152.946 84.8007 152.94C86.465 152.932 88.0694 152.956 89.7241 152.821ZM94.032 152.744C95.4753 152.612 96.9333 152.669 98.3677 152.487C99.9271 152.289 101.475 151.997 103.032 151.778C104.583 151.559 109.304 150.676 108.838 148.508C108.345 146.217 104.732 144.844 102.732 144.074C99.6092 142.871 96.3489 142.227 93.0639 141.546C92.6518 143.601 92.7111 145.806 92.6358 147.888C92.595 149.018 92.5591 150.15 92.5597 151.282C92.5597 151.554 92.4599 152.119 92.5787 152.372C92.8577 152.968 93.1824 152.744 94.032 152.744ZM89.2857 153.728H80.074C81.4373 156.37 82.7259 159.061 84.1955 161.652C85.6592 164.234 87.5438 166.666 89.2045 169.144C89.6252 168.716 90.2962 168.251 90.582 167.741C90.8987 167.177 90.8898 166.347 90.9417 165.694C91.0762 163.999 91.1375 162.289 91.1831 160.591C91.2231 159.103 91.293 157.625 91.4151 156.141C91.4417 155.816 91.8253 154.125 91.6058 153.847C91.41 153.6 89.6886 153.731 89.2857 153.728ZM127.223 101.865C128.777 101.864 130.333 101.846 131.887 101.87C133.297 101.893 135.134 101.663 136.426 102.343C139.057 103.727 133.797 107.282 132.73 108.177C134.455 108.762 137.147 107.601 138.835 107.069C140.923 106.411 143.052 105.969 145.182 105.454C145.714 105.325 147.998 105.073 148.286 104.692C148.572 104.313 147.931 102.03 147.867 101.548C147.807 101.095 147.858 100.389 147.656 99.9632C147.78 99.4516 147.588 99.2722 147.08 99.4258C146.905 99.4253 146.73 99.4245 146.555 99.4239C145.259 99.4336 143.962 99.4899 142.667 99.5301C138.217 99.6688 133.874 99.8537 129.461 100.504C127.41 100.806 125.34 101.178 123.3 101.549C121.582 101.861 121.871 102.123 123.475 102.127C124.73 102.13 125.974 101.956 127.223 101.865ZM254.894 71.2296C255.158 70.9454 255.423 70.6609 255.688 70.3764C255.043 70.2042 254.399 70.0317 253.755 69.8595C253.069 69.6765 252.701 69.7184 253.005 69.0019C253.387 68.1043 255.13 68.0014 255.968 67.9676C258.852 67.8508 261.882 68.7099 264.622 69.4666C265.959 69.836 267.007 70.4075 268.139 71.1675C268.632 71.4994 269.203 71.8111 269.635 72.2098C270.084 72.6241 270.271 73.1548 270.71 73.5702C271.43 74.2512 272.352 74.5904 272.705 75.5734C273.11 76.7017 272.626 77.9933 272.026 78.9771C271.418 79.9756 270.514 80.7307 269.78 81.638C269.197 82.3578 267.981 84.3246 269.882 84.0967C270.887 83.9761 272.191 82.3711 272.915 81.7317C273.952 80.8147 274.972 79.8766 276.071 79.0226C277.045 78.2653 278.167 77.4889 279.47 77.3558C280.842 77.2155 281.528 78.0379 282.197 79.0381C282.828 79.9814 282.93 80.9023 283.373 81.8678C283.588 82.3334 283.86 82.593 283.986 83.1004C284.179 83.881 284.2 84.7325 284.298 85.5284C284.453 86.7781 284.599 87.7608 284.341 88.9853C284.099 90.1314 284.033 91.3487 283.828 92.5147C283.597 93.8351 283.405 95.1617 283.177 96.4827C282.984 97.6018 282.251 99.1957 282.971 100.236C284.7 102.737 286.775 99.0557 287.321 97.6803C288.281 95.2634 288.77 92.6214 289.618 90.1549C290.072 88.8359 290.468 87.5043 290.728 86.1387C290.943 85.0093 290.837 83.6334 291.498 82.6273C292.012 81.8459 292.926 81.2525 293.93 81.491C295.185 81.7896 295.667 83.4883 296.037 84.521C297.012 87.2445 296.653 89.6974 296.256 92.475C296.072 93.7611 295.897 95.0491 295.582 96.3138C295.369 97.167 294.487 98.894 295.798 99.3579C297.657 100.016 299.627 95.0244 300.157 93.8972C301.544 90.9449 302.075 88.017 302.646 84.8537C302.778 84.1264 302.878 83.3835 303.075 82.6687C303.245 82.0464 303.756 81.4175 303.802 80.7953C303.848 80.1725 303.407 79.738 303.859 79.1266C304.235 78.6177 304.913 78.587 305.526 78.5825C306.967 78.572 308.345 79.164 309.684 79.5935C310.93 79.9931 312.776 80.8699 314.121 80.5876C309.902 76.5788 305.695 72.6155 300.664 69.4935C298.328 68.0436 295.99 66.6502 293.465 65.4678C290.907 64.2702 287.976 63.4613 285.237 62.7368C283.747 62.3425 282.265 61.8958 280.794 61.4435C279.485 61.0409 278.166 60.9646 276.884 60.5079C274.098 59.5161 270.985 59.1317 268.1 58.4285C266.826 58.1182 265.539 57.852 264.262 57.5645C262.92 57.2623 261.035 56.7373 259.667 56.7884C258.5 56.8319 258.106 58.0844 257.544 58.9557C256.729 60.2204 256.033 61.5345 255.392 62.8835C254.078 65.6475 252.692 68.503 251.752 71.3907C251.236 72.9763 250.727 74.5635 250.22 76.1515C249.781 77.5263 248.685 79.5095 248.976 80.9203C251.136 77.8039 253.148 74.5674 254.894 71.2296ZM154.313 99.3701C153.166 99.4189 152.02 99.4674 150.874 99.5162C152.017 103.032 151.857 106.776 151.857 110.421C157.198 109.831 162.582 109.731 167.955 109.772C166.967 107.989 167.35 105.677 167.631 103.768C167.796 102.651 167.888 101.575 167.864 100.448C167.841 99.3906 168.167 98.5016 166.97 98.1747C166.021 97.9154 165.421 98.3475 164.516 98.5446C163.433 98.7806 162.253 98.8091 161.15 98.9375C158.854 99.2046 156.641 99.3612 154.313 99.3701ZM123.537 106.218C126.979 105.324 130.637 105.653 134.096 104.974C133.309 104.302 131.827 104.7 130.782 104.756C129.594 104.819 128.407 104.865 127.219 104.92C126.06 104.972 122.847 104.89 122.429 106.27C122.798 106.253 123.168 106.235 123.537 106.218ZM249.478 56.3941C244.974 56.764 240.258 56.7066 235.786 57.4422C230.665 58.2846 225.327 58.8131 220.362 60.2977C215.491 61.7543 210.524 62.7739 205.723 64.4843C201.055 66.1469 196.56 67.9157 192.164 70.1396C190.013 71.228 187.919 72.3818 185.868 73.6318C183.866 74.8521 181.672 75.8526 179.732 77.1462C178.005 78.2977 176.515 79.3539 175.009 80.7648C173.4 82.2732 171.833 83.8225 170.222 85.3284C168.877 86.5848 169.729 89.6566 169.814 91.3287C169.932 93.6468 170.136 95.9323 170.44 98.2352C170.729 100.43 171.026 102.788 170.644 104.978C170.484 105.899 169.931 107.489 170.195 108.408C170.406 109.144 171.809 109.683 172.524 109.923C173.399 110.217 174.293 110.093 175.191 110.466C176.193 110.883 177.039 111.404 178.104 111.623C179.416 111.893 180.892 112.121 182.241 112.129C183.489 112.137 184.74 112.515 185.984 112.748C188.008 113.127 189.983 113.245 189.857 115.529C189.711 118.165 188.594 120.426 187.929 122.928C188.828 122.928 189.456 122.981 190.279 122.683C191.241 122.334 192.267 122.242 193.277 122.092C195.509 121.759 197.686 121.653 199.933 121.44C204.05 121.052 208.237 121.098 212.357 121.139C214.443 121.16 216.706 121.311 218.763 121.615C220.873 121.927 223.059 122.121 225.104 122.72C226.829 123.224 228.611 123.568 230.371 124.014C231.164 124.215 232.114 124.378 232.864 124.602C233.95 124.928 234.53 125.623 235.784 125.607C235.431 123.433 234.602 121.416 234.102 119.26C233.58 117.009 232.539 115.017 231.389 112.893C230.876 111.945 230.497 110.94 230.002 109.984C229.453 108.921 228.68 108.041 228.016 107.047C226.658 105.014 225.208 103.059 223.874 101.012C222.709 99.2243 221.378 97.5109 220.103 95.7856C218.701 93.8886 216.753 92.457 215.162 90.7167C214.49 89.9816 213.851 89.2987 213.099 88.624C212.406 88.0029 211.423 86.6281 210.362 86.5637C209.752 86.5266 208.696 86.8477 208.114 87.0199C207.038 87.3391 205.896 87.547 204.784 87.8279C203.567 88.1354 202.372 88.5356 201.153 88.8278C200.665 88.9446 200.086 88.8891 199.624 89.0214C199.14 89.16 198.754 89.4653 198.226 89.6053C195.617 90.298 193.024 91.0844 190.396 91.715C187.691 92.3644 184.944 92.9173 182.322 93.8371C181.822 94.0126 181.265 94.4274 180.881 94.1548C180.595 93.9513 180.41 93.3765 180.485 93.041C180.737 91.924 182.645 91.5206 183.564 91.0722C186.027 89.8704 188.474 89.023 191.12 88.207C192.424 87.8055 193.723 87.3768 195.045 87.0299C196.15 86.7401 197.3 86.2499 198.429 86.1015C199.434 85.9695 200.148 85.5991 201.145 85.271C202.615 84.7877 204.126 84.3909 205.619 83.978C208.171 83.272 210.876 82.9753 213.488 82.502C219.537 81.4053 225.818 80.8563 231.992 80.9242C235.104 80.9586 238.36 80.8735 241.435 81.3526C242.177 81.468 243.736 81.4458 244.248 82.0689C244.522 82.4033 244.373 82.901 244.444 83.2634C244.563 83.8751 244.919 84.1602 245.228 84.7176C245.885 81.7018 246.64 78.75 247.487 75.7783C248.254 73.0888 248.964 70.3506 249.988 67.6989C251.072 64.8933 252.386 61.9185 254.006 59.3508C254.34 58.8223 255.171 57.9826 255.243 57.3915C255.317 56.7814 254.403 56.3089 253.776 56.241C252.368 56.0888 250.861 56.3494 249.478 56.3941ZM279.735 99.4863C280.193 95.3028 281.533 90.9269 280.785 86.7268C280.468 84.9488 280.221 83.2515 279.271 81.6466C278.79 80.8349 278.598 80.2388 277.68 80.7174C276.752 81.2018 275.897 82.3983 275.128 83.0918C273.713 84.3665 272.232 85.6792 270.538 86.6259C269.204 87.3712 266.553 88.0778 265.55 86.4653C264.595 84.9286 265.869 82.784 266.785 81.5162C267.832 80.0657 269.815 78.7223 268.702 76.9326C268.223 76.1623 267.534 75.9605 266.809 75.455C266.182 75.0174 265.656 74.4506 265.029 74.0053C263.211 72.7145 261.218 72.1616 259.119 71.424C258.15 71.0832 258.022 70.7627 257.463 71.5416C256.855 72.3876 256.522 73.5733 256.082 74.5089C255.202 76.383 254.263 78.1588 253.127 79.9063C251.982 81.6699 250.967 83.5122 249.884 85.3107C249.475 85.9892 249.091 86.6788 248.608 87.3158C248.345 87.6624 248.02 87.9713 247.806 88.3506C247.49 88.9116 247.631 89.4229 247.434 89.9813C246.585 92.391 245.347 89.0272 245.11 88.2408C244.841 87.3463 244.192 86.6489 243.771 85.8145C243.424 85.1254 243.187 84.1014 242.348 83.777C241.661 83.5113 240.775 83.876 240.074 83.9115C238.785 83.9769 237.487 83.8793 236.193 83.9547C234.983 84.0252 233.775 84.1339 232.566 84.2032C231.354 84.2728 230.145 84.0812 228.95 84.2004C226.805 84.4145 224.613 84.3801 222.473 84.6768C219.962 85.0245 217.477 85.3955 214.959 85.685C215.544 86.7207 216.757 87.1699 217.716 87.9089C218.573 88.5694 219.252 89.3317 220.115 89.96C220.991 90.5978 221.511 91.5411 222.236 92.3075C222.947 93.0582 223.604 93.6876 224.227 94.5275C227.23 98.5832 230.328 102.489 232.806 106.872C234.06 109.091 235.257 111.465 236.114 113.845C237.033 116.398 237.484 119.136 238.03 121.776C238.301 123.091 238.444 124.202 238.146 125.525C238.068 125.84 237.986 126.155 237.902 126.468C237.641 126.844 237.737 127.087 238.192 127.199C238.458 127.562 238.821 127.698 238.844 128.194C238.862 128.572 238.638 129.009 238.291 129.221C237.621 129.632 237.621 129.077 236.931 129.2C236.672 129.331 236.413 129.462 236.154 129.593C236.018 129.398 235.877 129.206 235.733 129.016C235.293 128.624 234.942 128.66 234.367 128.565C234.66 131.717 234.193 134.531 233.452 137.606C233.095 139.084 232.484 140.531 232.176 142.012C231.832 143.667 232.584 144.421 233.747 145.524C233.452 145.668 232.935 145.825 232.691 146.04C232.304 146.384 232.403 146.426 232.403 146.964C232.404 147.948 232.202 148.918 232.037 149.887C231.731 151.679 231.452 153.534 230.792 155.251C229.595 158.368 227.659 161.606 225.686 164.352C224.583 165.889 223.476 167.634 222.093 168.96C220.704 170.291 219.328 171.634 217.943 172.968C215.216 175.595 212.237 177.41 208.971 179.377C207.678 180.156 206.316 181.01 205.203 181.979C204.073 182.965 202.569 183.655 201.218 184.371C200.615 184.69 200.186 185.149 199.536 185.411C198.924 185.657 198.497 185.738 197.984 186.06C196.712 186.861 195.338 187.546 193.937 188.15C192.228 188.886 190.547 189.743 188.792 190.372C187.992 190.658 187.24 190.97 186.466 191.305C185.628 191.668 184.724 191.906 183.864 192.292C183.137 192.618 182.402 192.808 181.663 193.075C181.059 193.293 180.585 193.645 179.969 193.873C178.69 194.346 177.526 194.601 176.284 195.158C174.633 195.899 172.677 196.244 170.938 196.777C168.996 197.372 166.982 197.965 164.99 198.387C164.142 198.566 163.419 198.801 162.601 199.073C162.067 199.25 161.455 199.348 160.864 199.516C159.231 199.982 157.599 200.431 155.957 200.827C152.75 201.602 149.473 202.532 146.362 203.583C144.731 204.134 143.076 204.797 141.512 205.499C139.743 206.292 137.837 206.75 136.062 207.535C132.632 209.052 129.214 210.613 125.824 212.205C124.044 213.041 122.289 213.903 120.551 214.813C119.92 215.143 119.231 215.279 118.604 215.602C117.785 216.026 117.112 216.647 116.273 217.067C113.038 218.684 109.737 220.207 106.765 222.253C105.21 223.324 103.54 224.421 102.196 225.725C101.752 226.155 100.984 226.821 100.904 227.445C100.786 228.368 100.896 227.519 101.238 228.088C101.711 228.142 101.818 228.312 101.56 228.599C101.441 228.733 101.288 228.801 101.103 228.804C100.505 228.917 99.3873 228.325 98.9071 228.077C98.075 227.647 97.6333 227.105 97.0989 226.384C95.9383 224.821 94.8058 223.243 93.6104 221.702C92.5354 220.316 91.4832 218.789 90.26 217.516C89.4306 216.653 89.3684 217.03 88.4459 217.517C87.7595 217.879 86.9623 218.033 86.2511 218.374C83.5408 219.674 80.5616 220.633 77.7817 221.539C77.1487 221.745 76.8112 222.073 76.2549 222.357C75.5463 222.72 74.6487 222.898 73.891 223.156C71.8034 223.866 69.7262 224.604 67.6534 225.351C66.0532 225.929 64.5154 226.384 63.2626 227.449C62.7641 227.874 62.1606 228.178 61.6458 228.607C61.0462 229.105 60.2354 229.917 59.4806 230.2L59.0208 230.536C58.7098 230.333 58.3985 230.131 58.0865 229.93C57.7772 229.729 57.4677 229.529 57.159 229.328C56.3838 228.824 55.6141 228.312 54.8436 227.802C53.0961 226.642 51.3374 225.494 49.7119 224.185C46.8245 221.862 43.8283 219.662 40.8091 217.485C37.6403 215.201 34.5508 212.81 31.2733 210.663C28.3026 208.716 25.0615 207.073 22.1812 205.018C20.7315 203.984 19.2852 202.944 17.805 201.942C17.7244 201.888 16.5199 201.196 16.5086 201.119C16.4873 200.978 16.8837 200.609 17.0007 200.49C17.5546 199.926 18.1684 199.424 18.7203 198.855C21.2925 196.199 24.651 196.292 28.2007 196.167C29.8105 196.11 31.5562 196.805 33.0851 197.278C34.9546 197.856 36.7581 198.705 38.5639 199.438C42.2855 200.949 46.1266 202.24 49.8858 203.64C51.3641 204.19 52.8366 204.459 54.3394 204.837C55.8642 205.221 57.4348 204.855 59.0656 204.882C59.9119 204.896 60.7121 204.943 61.5643 204.898C62.0703 204.871 62.6533 204.781 63.153 204.789C63.558 204.796 63.9783 204.952 64.351 204.913C65.9824 204.74 67.7056 204.497 69.3882 204.299C71.0587 204.101 72.7824 204.003 74.431 203.695C75.261 203.54 76.0801 203.32 76.8788 203.057C77.572 202.828 78.8322 202.568 79.4009 202.105C79.9099 201.69 79.6874 201.685 79.4036 201.008C79.2913 200.741 79.1752 200.336 79.0087 200.078C78.5587 199.382 78.1239 199.163 78.3857 198.292C78.847 196.757 80.4191 195.777 81.7649 195.021C84.7966 193.318 87.5693 191.134 90.7616 189.69C97.3392 186.714 103.334 182.849 109.748 179.58C116.799 175.988 123.469 171.773 130.619 168.332C137.273 165.13 143.897 161.908 150.607 158.807C153.883 157.293 157.589 155.907 160.562 153.922C158.915 153.731 157.263 153.484 155.61 153.347C154.843 153.283 154.068 153.342 153.305 153.228C152.453 153.1 151.647 152.778 150.796 152.643C149.333 152.412 148.017 151.943 146.553 151.77C144.983 151.584 143.445 151.152 141.868 151.031C138.568 150.778 135.59 149.639 132.697 148.203C131.981 147.848 131.393 148.051 130.707 147.809C130.329 147.676 129.927 147.145 129.503 146.86C128.334 146.074 127.33 145.146 126.219 144.287C123.883 149.195 119.296 152.533 114.918 155.825C112.701 157.492 110.294 158.905 108.054 160.541C106.317 161.809 104.74 162.944 102.886 163.953C101.106 164.921 99.4341 166.228 97.737 167.39C96.5867 168.178 95.2386 168.773 94.0154 169.458C93.0159 170.017 91.0646 170.85 90.7921 171.865C90.569 172.693 91.0042 173.679 89.6533 173.298C88.4438 172.957 87.567 171.7 86.8625 170.815C85.0407 168.524 83.3412 166.155 81.6497 163.78C80.7411 165.44 79.174 166.635 77.7254 167.866C76.8453 168.614 75.9317 169.308 74.9811 169.975C74.5202 170.299 74.0539 170.616 73.5921 170.939C73.4102 171.067 72.9978 171.263 72.8799 171.443C72.6044 171.863 72.7718 171.673 72.8147 172.181C72.8817 172.977 73.1655 173.603 72.6841 174.366C72.232 175.082 71.2465 175.388 70.5556 175.877C68.9121 177.042 67.1839 178.279 65.3606 179.189C64.9467 179.395 64.5554 179.574 64.17 179.826C63.5266 180.248 63.6442 180.4 62.9957 179.997C61.9817 179.365 61.1057 178.316 60.1907 177.554C58.2734 175.957 56.3349 174.381 54.3714 172.834C50.6297 169.887 46.7774 167.086 43.0821 164.085C39.5705 161.234 35.806 158.78 32.1807 156.07C31.1862 155.326 30.2039 154.567 29.2225 153.809C28.3486 153.134 26.9305 152.389 26.2841 151.525C25.3453 150.27 29.0175 148.555 30.1254 148.3C32.0358 147.86 34.5061 148.112 36.4195 148.472C38.428 148.851 40.4732 150.117 42.3486 150.906C44.4627 151.794 46.6157 152.563 48.7453 153.402C49.6951 153.776 50.702 154.074 51.5836 154.579C52.5191 155.113 53.3542 155.723 54.3489 156.172C55.4953 156.688 56.6865 157.17 57.8922 157.552C58.4384 157.725 59.0265 157.899 59.6006 157.969C60.4134 158.068 60.3032 157.717 60.9784 157.522C61.5522 157.355 61.6884 157.795 62.2045 157.917C62.6903 158.032 63.0535 157.916 63.4741 157.671C64.412 157.126 65.2468 156.375 66.185 155.807C67.0553 155.281 68.0148 154.789 68.8307 154.193C69.1945 153.927 69.4634 153.563 69.8219 153.293C70.3963 152.861 70.6241 153.032 71.2948 152.735C71.8431 152.491 72.3405 152.037 72.8621 151.737C73.1859 151.55 73.9712 151.314 74.1801 151.012C74.7287 150.22 73.7923 149.669 72.9537 149.903C72.8281 149.218 72.1832 147.592 72.4616 146.951C72.7081 146.383 73.3551 146.489 73.8993 146.188C75.9445 145.058 77.4538 143.004 79.3672 141.677C81.1709 140.425 82.7623 138.93 84.5492 137.655C86.0799 136.563 87.7527 135.496 89.1465 134.318C90.7944 132.926 92.9042 131.842 94.6959 130.599C96.5467 129.315 98.2667 127.887 100.098 126.588C101.859 125.339 103.59 124.034 105.4 122.845C107.027 121.776 108.732 120.8 110.326 119.716C111.198 119.123 112.152 118.602 113.149 118.212C114.139 117.824 115.006 117.37 115.973 116.953C117.895 116.123 120.398 115.55 122.489 115.312C124.787 115.051 127.095 114.817 129.415 114.815C130.651 114.814 131.851 115.034 133.079 115.104C134.208 115.168 135.428 115.435 136.549 115.4C137.057 115.384 137.498 115.183 137.989 115.248C138.399 115.302 138.756 115.534 139.197 115.574C140.177 115.665 141.162 115.575 142.154 115.693C144.431 115.966 146.711 116.354 148.993 116.57C151.424 116.801 153.834 116.844 156.253 117.232C158.616 117.611 160.994 118.004 163.344 118.443C168.338 119.374 173.383 120.284 178.298 121.668C179.447 121.991 180.602 122.298 181.707 122.742C182.243 122.957 182.757 123.217 183.316 123.378C184.117 123.608 184.274 123.696 184.687 123.067C185.397 121.985 185.788 120.554 186.303 119.377C186.812 118.212 187.43 117.038 187.726 115.821C186.867 115.694 185.784 115.942 184.898 115.97C183.814 116.005 182.743 115.983 181.661 115.977C179.48 115.965 177.774 115.361 175.71 114.728C173.971 114.195 171.655 113.888 170.328 112.666C169.616 112.011 169.38 111.896 168.31 112.013C167.231 112.132 166.166 112.336 165.077 112.369C160.971 112.497 156.885 113.168 152.761 113.3C151.645 113.336 148.855 113.831 149.038 112.06C149.076 111.692 149.377 111.373 149.435 110.995C149.498 110.589 149.39 110.177 149.322 109.781C149.16 108.843 148.992 107.905 148.831 106.967C145.071 108.096 141.263 109.012 137.431 109.907C135.842 110.278 133.289 111.131 131.647 110.663C130.059 110.211 130.979 108.117 131.473 107.115C128.319 107.789 124.955 108.891 121.739 109.144C120.76 109.221 119.808 109.424 119.58 108.316C119.399 107.434 120.08 106.355 120.427 105.58C117.959 105.374 115.403 105.393 115.867 102.432C116.293 99.7148 118.704 99.1738 121.272 98.6774C124.441 98.0644 127.677 97.86 130.866 97.3639C133.642 96.9322 136.669 96.4508 139.504 96.6688C141.004 96.7838 142.513 96.8102 144.013 96.9402C144.721 97.0015 145.401 97.1041 146.086 97.2849C146.718 97.4513 147.602 97.9673 148.249 97.9765C149.227 97.9909 150.405 96.7536 151.457 96.4677C152.759 96.1133 154.162 96.049 155.508 95.9622C157.033 95.8643 158.56 95.8097 160.084 95.6941C160.431 95.6677 161.745 95.7481 162.019 95.5577C162.418 95.2801 162.152 93.8565 162.125 93.2717C162.099 92.7307 162.21 91.7175 161.809 91.5053C161.433 91.3062 160.337 91.5794 159.966 91.6348C158.431 91.865 156.973 91.8386 155.444 91.7801C154.738 91.7532 154.059 91.9293 153.36 91.8425C152.61 91.7496 151.854 91.5134 151.107 91.3819C149.488 91.0972 148.013 90.7428 146.618 89.8937C145.393 89.1486 143.944 88.6443 143.26 87.3393C142.759 86.3838 142.555 84.5398 144.028 84.2681C143.025 82.913 142.332 81.3906 141.8 79.8248C141.704 79.5408 141.64 79.1132 141.495 78.8656C140.986 77.9899 141.459 78.7666 140.732 78.4164C140.013 78.0706 139.496 77.797 138.934 77.1955C138.039 76.2364 137.662 75.0559 137.549 73.8062C137.396 72.1089 137.109 70.1951 137.374 68.5064C137.832 65.5812 140.116 63.3834 142.437 61.6143C143.697 60.6538 145.355 60.2961 146.833 59.7132C148.259 59.1503 149.853 58.5602 151.356 58.4283C152.712 58.309 154.034 57.8945 155.392 57.7273C157.259 57.4971 159.127 57.5831 161.002 57.5132C161.866 57.481 162.727 57.3671 163.586 57.2803C164.071 57.2312 164.892 57.2836 165.336 57.1036C166.064 56.8086 165.671 57.4281 165.931 56.5258C166.425 54.8093 166.828 53.1997 167.577 51.5318C168.274 49.9779 169.121 48.4922 170.241 47.1637C171.29 45.9175 172.652 45.0061 173.889 43.9415C174.805 43.1529 175.845 42.4406 176.89 41.8028C177.488 41.4382 178.154 41.241 178.738 40.9191C179.463 40.5198 180.103 40.217 180.919 39.9724C182.669 39.4478 184.407 38.8907 186.266 38.9182C188.271 38.9476 190.281 38.5108 192.232 39.0646C195.856 40.093 197.632 43.7694 197.571 47.1454C198.81 46.8559 199.894 46.2985 201.207 46.2508C202.416 46.207 203.853 46.3052 205.041 46.5154C207.346 46.9232 209.717 48.1228 211.091 49.9407C212.403 51.6746 212.599 53.9766 211.793 55.9437C211.407 56.8854 210.795 57.7231 210.144 58.5187C209.666 59.1021 208.6 59.7479 208.55 60.5296C217.473 58.0048 226.432 56.2252 235.663 55.0733C240.342 54.4896 245.028 54.7819 249.712 54.4483C251.713 54.3058 253.887 54.5052 255.956 54.5126C256.829 54.516 257.508 54.4023 258.142 53.8732C258.783 53.338 259.295 52.6826 260.042 53.4551C260.233 53.6522 260.273 54.1292 260.529 54.2775C260.84 54.4572 261.745 54.3338 262.117 54.3551C263.418 54.4295 264.687 54.636 265.964 54.874C268.307 55.3107 270.635 55.7521 272.951 56.3064C277.359 57.3621 281.709 58.3831 286.054 59.6361C290.488 60.9147 294.968 62.4922 299.056 64.5619C301.036 65.5643 303.013 66.8157 304.834 68.0558C305.68 68.6325 306.439 69.2564 307.175 69.9519C307.962 70.6953 308.924 71.1969 309.704 71.9459C311.398 73.5749 313.087 75.303 314.624 77.068C315.427 77.9894 316.165 78.9613 316.879 79.9435C317.382 80.6325 318.704 81.8942 318.398 82.7843C318.238 83.2596 317.67 83.592 317.151 83.4756C316.977 83.4368 316.834 83.226 316.686 83.206C316.183 83.1395 316.639 82.9742 316.055 83.1963C314.891 83.6381 314.521 84.524 313.043 84.3224C310.531 83.9794 308.169 82.8691 305.885 81.9011C305.232 84.2359 305.14 86.6564 304.569 89.0192C304.012 91.3243 303.083 93.5226 301.962 95.637C300.978 97.492 299.715 99.4691 297.975 100.795C296.646 101.806 293.368 103.063 292.392 100.909C291.978 99.9946 292.594 98.5732 292.768 97.6318C293.003 96.3684 293.261 95.1015 293.402 93.8254C293.516 92.7886 293.574 91.7457 293.681 90.7078C293.773 89.815 294.028 87.8981 293.491 87.1095C293.168 86.6342 293.14 87.1006 292.952 87.575C292.724 88.1504 292.534 88.7211 292.367 89.3136C292.013 90.5728 291.693 91.8406 291.357 93.1042C290.757 95.3619 290.097 97.5702 288.848 99.6003C287.738 101.403 286.176 103.381 283.803 103.676C282.691 103.814 281.243 103.338 280.395 102.638C279.443 101.852 279.727 100.555 279.735 99.4863Z" fill="#494A49"/>
<path fill-rule="evenodd" clip-rule="evenodd" d="M225.533 191.674C226.837 191.433 227.935 190.459 229 189.727C230.358 188.793 231.647 187.776 232.967 186.795C235.452 184.947 237.708 182.92 239.852 180.716C244.084 176.367 247.27 170.768 248.718 165.049C249.451 162.155 250.357 158.764 249.941 155.773C249.796 154.734 249.576 154.543 248.488 154.425C247.996 154.372 246.749 154.24 246.306 154.42C245.159 154.89 244.54 156.886 244.2 157.889C243.195 160.851 242.604 163.919 241.696 166.905C240.806 169.832 239.372 172.802 237.953 175.539C234.797 181.63 230.411 186.725 225.533 191.674ZM251.407 158.049C250.627 166.343 248.167 174.244 242.651 180.923C240.029 184.098 236.946 186.86 233.604 189.369C230.154 191.96 226.63 194.4 222.714 196.332C221.673 196.846 220.629 197.358 219.574 197.849C218.99 198.121 217.513 199.123 216.839 198.964C216.299 198.837 216.158 198.446 216.073 197.937C215.884 196.794 216.677 196.224 217.479 195.49C220.701 192.542 223.932 189.583 226.944 186.447C232.893 180.253 237.362 172.837 239.846 164.834C240.611 162.37 241.294 159.879 242.12 157.432C242.623 155.942 243.336 153.289 245.008 152.545C245.904 152.147 246.949 152.535 247.892 152.296C248.776 152.072 249.362 151.615 250.116 152.381C251.438 153.726 251.497 156.364 251.407 158.049Z" fill="#494A49"/>
<path fill-rule="evenodd" clip-rule="evenodd" d="M15.7436 205.909C15.0833 206.128 15.0557 206.345 14.7533 205.709C14.601 205.388 14.6422 204.949 14.678 204.616C14.764 203.819 15.2125 203.082 15.581 202.375C19.0493 205.053 22.6506 207.467 26.3696 209.833C30.3468 212.363 34.1442 215.176 37.9058 217.979C41.2743 220.49 44.6834 222.925 48.0166 225.467C49.6243 226.693 51.4571 227.643 52.9854 228.906C54.2204 229.927 56.2685 230.385 57.3214 231.586C55.653 232.519 53.4256 233.271 51.5768 232.463C49.5372 231.572 47.9728 230.411 46.1577 229.204C45.2225 228.582 44.25 228.018 43.3 227.416C42.4649 226.887 41.8751 226.114 41.0296 225.618C39.2528 224.575 37.4301 223.425 35.7442 222.233C34.0124 221.01 32.0981 220.036 30.4274 218.736C28.7145 217.402 26.7973 216.519 25.0089 215.305C21.2189 212.732 17.8815 209.839 15.7436 205.909Z" fill="#494A49"/>
<path fill-rule="evenodd" clip-rule="evenodd" d="M117.999 69.3044C117.952 69.5412 117.904 69.778 117.857 70.0151C117.886 70.0212 120.154 65.9201 120.53 65.4248C121.804 63.7458 123.462 62.3489 125.061 60.9466C128.448 57.9763 132.411 55.5788 135.73 52.5555C136.822 51.5609 138.778 50.0538 138.346 48.3721C137.917 46.7006 134.294 47.0402 133.053 47.5238C131.107 48.2822 129.527 49.8683 128.077 51.2503C126.496 52.7579 124.902 54.2487 123.562 55.9548C122.117 57.7946 120.745 59.7872 119.86 61.9224C118.867 64.3143 118.48 66.7897 117.999 69.3044ZM118.743 76.6426C117.204 77.0868 119.134 77.3868 118.531 78.1566C117.87 79.0007 116.758 76.4 116.592 75.9089C115.612 73.0076 116.051 69.483 116.586 66.5373C116.856 65.0513 117.03 63.5409 117.395 62.071C117.75 60.6377 118.524 59.2756 119.239 57.9718C120.671 55.3631 122.567 52.9326 124.718 50.8056C126.877 48.6715 129.282 46.5364 132.13 45.2226C134.483 44.1376 138.212 44.8904 139.314 47.2604C140.439 49.6822 138.917 52.3204 137.117 54.0232C134.769 56.244 132.211 58.4499 129.573 60.3648C128.218 61.3492 127.082 62.5396 125.765 63.5667C124.364 64.6601 123.151 65.7598 122.115 67.1737C121.111 68.5438 120.079 69.9128 119.426 71.4681C118.712 73.1712 118.743 74.8408 118.743 76.6426Z" fill="#494A49"/>
<path fill-rule="evenodd" clip-rule="evenodd" d="M57.1854 181.084C53.6489 178.952 50.1006 177.081 47.021 174.362C43.9803 171.679 41.3237 168.652 37.9395 166.323C36.2509 165.161 34.5082 164.071 32.8496 162.871C31.2754 161.732 29.466 160.757 28.0431 159.458C26.1466 157.726 22.596 154.508 25.0189 151.926C28.0263 155.274 32.1525 157.913 35.9144 160.454C39.881 163.134 43.5217 166.261 47.2843 169.181C50.9088 171.993 54.5211 174.832 58.0578 177.719C58.9865 178.477 59.8823 179.274 60.822 180.02C60.9369 180.111 61.9109 180.689 61.9109 180.843C61.9112 181.211 61.1561 181.442 60.8872 181.544C60.4627 181.706 59.3144 182.109 58.8331 181.973C58.5807 181.901 58.5762 181.709 58.3943 181.594C58.2898 181.41 58.1677 181.236 58.0291 181.072C57.7477 181.076 57.4665 181.08 57.1854 181.084Z" fill="#494A49"/>
<path fill-rule="evenodd" clip-rule="evenodd" d="M265.379 143.918C262.858 143.857 259.021 143.85 259.162 147.073C259.232 148.668 260.156 149.84 260.915 151.205C261.713 152.639 262.304 154.121 262.538 155.728C263.484 162.236 260.945 168.593 258.648 174.608C263.581 170.882 267.143 165.696 269.013 160.013C269.92 157.257 270.273 153.714 269.98 150.844C269.833 149.408 269.268 148.12 268.586 146.841C268.244 146.198 267.902 145.464 267.356 144.944C266.81 144.423 266.052 144.249 265.379 143.918ZM256.585 178.335C254.956 175.828 257.521 172.137 258.359 169.692C259.361 166.77 260.286 163.727 260.715 160.679C261.163 157.486 260.584 155.003 259.003 152.183C257.589 149.661 256.75 146.303 258.322 143.635C258.955 142.562 259.889 142.43 261.001 142.001C262.364 141.476 262.74 140.587 264.414 140.728C267.4 140.979 268.782 143.63 269.893 145.889C272.483 151.154 271.779 157.95 269.57 163.238C268.298 166.28 266.848 169.439 264.69 172.03C263.631 173.3 262.387 174.401 261.096 175.461C259.699 176.607 258.448 177.989 256.585 178.335Z" fill="#494A49"/>
<path fill-rule="evenodd" clip-rule="evenodd" d="M86.0461 86.9139C82.1091 87.6546 78.5164 89.3155 77.8857 93.4571C77.3125 97.2211 80.0515 100.703 83.4149 102.465C87.0527 104.371 91.6109 104.688 95.2356 102.576C99.0514 100.352 99.917 95.8951 97.5945 92.3987C95.003 88.497 90.6617 87.3454 86.0461 86.9139ZM88.5762 85.1082C93.2644 85.7512 97.6164 88.8744 99.1957 93.0806C100.824 97.4166 99.3278 102.184 95.0176 104.56C86.3068 109.361 74.6644 101.359 76.7668 92.1614C77.3006 89.826 78.8164 88.0175 80.8759 86.6502C83.1495 85.1404 85.8988 85.0993 88.5762 85.1082Z" fill="#494A49"/>
<path fill-rule="evenodd" clip-rule="evenodd" d="M255.265 41.074C249.616 38.6832 243.967 36.2924 238.318 33.9016C238.087 36.2985 237.855 38.6951 237.623 41.092C237.56 41.7406 237.304 42.623 237.413 43.2629C237.53 43.9459 237.28 43.873 238.231 43.7759C239.448 43.6514 240.668 43.3702 241.872 43.1692C244.036 42.8076 246.338 42.7045 248.457 42.1726C249.537 41.9012 250.573 41.8671 251.67 41.7029C252.875 41.5227 254.048 41.1888 255.265 41.074ZM236.156 45.7075C236.156 43.0076 236.477 40.3439 236.741 37.6564C236.978 35.2384 237.07 32.9336 237.913 30.6299C238.701 31.9689 240.882 32.5041 242.231 33.1932C244.091 34.1426 246.072 34.8416 247.975 35.7065C249.845 36.5558 251.646 37.5311 253.518 38.3785C254.467 38.8083 255.431 39.2092 256.378 39.6424C256.971 39.9136 258.378 40.35 258.747 40.8536C259.867 42.382 256.033 42.5298 255.293 42.6645C253.074 43.0697 250.829 43.2979 248.614 43.7144C246.549 44.1031 244.48 44.4639 242.408 44.8163C240.357 45.1651 238.244 45.7075 236.156 45.7075Z" fill="#494A49"/>
<path fill-rule="evenodd" clip-rule="evenodd" d="M61.9719 112.55C64.196 112.333 66.411 112.021 68.6327 111.816C70.7366 111.621 72.5975 111.413 74.5195 110.511C71.8946 109.77 69.2637 109.069 66.6165 108.399C65.3036 108.067 63.9934 107.716 62.6745 107.406C61.6543 107.166 60.765 107.028 60.3728 105.985C59.9163 104.772 61.1857 104.956 61.9769 105.264C63.0682 105.689 64.257 105.954 65.388 106.307C67.9126 107.096 70.4525 107.822 73.0007 108.539C73.7928 108.762 78.3827 109.587 76.7288 111.02C76.0211 111.634 74.4419 111.97 73.5766 112.411C72.4666 112.976 71.2583 113.201 70.0235 113.426C67.4501 113.895 64.7796 114.075 62.1745 114.481C60.8441 114.689 59.514 114.897 58.1839 115.104C57.4045 115.226 57.1044 115.214 56.9009 114.4C56.7528 113.809 56.9459 113.218 57.0881 112.645C57.4489 111.19 57.8503 109.743 58.2476 108.296C58.3987 107.745 58.6662 105.319 59.192 105.053C60.3849 104.451 59.4645 107.81 59.3759 108.221C59.0412 109.772 58.6437 111.312 58.4647 112.887C59.6363 112.787 60.8047 112.684 61.9719 112.55Z" fill="#494A49"/>
<path fill-rule="evenodd" clip-rule="evenodd" d="M93.5125 124.899C93.9539 125.937 93.221 126.169 92.3317 126.528C91.1782 126.994 90.0436 127.486 88.869 127.906C86.3981 128.789 83.9094 129.608 81.4975 130.63C76.8973 132.577 72.2348 134.447 67.706 136.532C66.5806 137.051 65.4543 137.567 64.3188 138.066C63.1445 138.582 61.7979 139.451 60.5415 139.746C59.4457 140.003 59.3314 139.273 59.9808 138.6C60.8179 137.733 62.1122 137.085 63.1635 136.482C67.4903 133.999 72.2126 131.978 76.9384 130.271C82.4007 128.296 87.8778 126.402 93.5125 124.899Z" fill="#494A49"/>
<path fill-rule="evenodd" clip-rule="evenodd" d="M105.52 66.0475C105.362 62.8936 105.813 59.7311 105.544 56.5855C100.924 60.4193 103.2 66.3442 105.858 70.5041L105.52 66.0475ZM107.52 65.8672C107.55 67.4079 107.643 68.9477 107.483 70.4805C107.315 72.0896 108.121 72.9184 109.172 74.1036C108.28 74.9515 106.232 72.9745 105.666 72.3916C104.502 71.1915 103.635 69.5971 102.864 68.156C101.222 65.0861 100.091 61.7994 101.405 58.4289C101.892 57.1797 102.489 55.4813 103.779 54.754C105.195 53.9554 106.279 55.0818 106.867 56.2403C108.302 59.067 107.208 62.8331 107.52 65.8672Z" fill="#494A49"/>
<path fill-rule="evenodd" clip-rule="evenodd" d="M156.465 222.641C158.595 222.799 160.694 222.954 162.824 223.081C162.457 220.347 162.089 217.613 161.721 214.879C160.488 215.147 159.256 215.414 158.023 215.681C157.44 215.807 156.547 215.84 156.031 216.112C155.838 216.154 155.645 216.196 155.452 216.238C155.447 216.592 155.443 216.947 155.439 217.302C155.425 218.352 155.393 219.401 155.346 220.45C155.326 220.889 155.163 221.533 155.275 221.968C155.076 222.408 155.202 222.596 155.656 222.53C155.926 222.567 156.195 222.604 156.465 222.641ZM154.998 224.617C153.328 223.838 153.785 221.46 153.788 219.947C153.79 218.984 153.862 218.027 153.889 217.065C153.908 216.404 153.746 215.586 153.989 214.948C154.421 213.812 156.536 213.842 157.624 213.922C158.43 213.981 159.105 213.943 159.931 213.893C160.339 213.869 160.793 213.941 161.193 213.829C161.28 213.804 162.094 213.273 162.058 213.271C163.519 213.324 163.538 216.602 163.633 217.434C163.867 219.485 164.08 221.539 164.27 223.594C164.321 224.137 164.537 224.752 163.985 225.062C163.487 225.342 162.168 225.066 161.618 225.05C159.399 224.987 157.193 224.663 154.998 224.617Z" fill="#494A49"/>
<path fill-rule="evenodd" clip-rule="evenodd" d="M259.234 102.802C260.2 103.615 259.736 104.454 259.42 105.47C259.23 106.08 258.185 108.082 258.473 108.652C258.807 109.312 260.371 109.474 261.041 109.682C262.206 110.045 263.377 110.409 264.48 110.921C264.969 111.148 266.734 111.67 267.065 112.093C267.255 112.336 267.324 112.526 267.181 112.839C266.931 113.389 266.574 113.098 265.964 112.98C263.177 112.441 260.413 111.752 257.828 110.615C257.107 112.181 256.497 113.78 255.888 115.387C255.709 115.857 255.538 116.927 254.86 117.003C254.032 117.096 254.021 116.058 254.076 115.499C254.156 114.681 254.608 113.81 254.882 113.036C255.107 112.397 255.898 111.067 255.8 110.408C255.734 109.955 255.438 109.987 254.913 109.809C254.416 109.641 253.919 109.474 253.422 109.304C252.626 109.031 251.834 108.758 251.059 108.434C250.634 108.257 249.744 108.049 249.436 107.681C249.258 107.468 249.059 106.698 249.284 106.485C249.811 105.986 253.316 107.329 254.037 107.512C254.515 107.634 254.996 107.727 255.46 107.886C255.635 107.947 255.843 108.193 256.033 108.203C256.839 108.241 256.903 107.66 257.153 107.038C257.734 105.591 258.365 104.116 259.234 102.802Z" fill="#494A49"/>
<path fill-rule="evenodd" clip-rule="evenodd" d="M58.2824 131.586C57.8526 130.599 62.4149 129.408 63.2618 129.076C65.3289 128.266 67.5436 127.776 69.6839 127.157C71.7886 126.549 73.8842 125.894 75.9543 125.19C76.5945 124.972 81.2045 122.871 81.4456 123.178C82.2445 124.195 72.5707 127.388 71.6281 127.706C67.2509 129.181 62.7313 130.314 58.2824 131.586Z" fill="#494A49"/>
<path fill-rule="evenodd" clip-rule="evenodd" d="M254.509 54.4475C253.326 54.4586 251.62 54.7724 250.535 54.3232C251.86 54.3646 253.184 54.4062 254.509 54.4475Z" fill="#494A49"/>
<path fill-rule="evenodd" clip-rule="evenodd" d="M88.577 85.1084L85.9473 85.0994C86.8247 84.9066 87.7016 84.7901 88.577 85.1084Z" fill="#494A49"/>
<path fill-rule="evenodd" clip-rule="evenodd" d="M225.523 84.4515C226.143 84.4482 226.764 84.445 227.38 84.4414C226.758 84.445 226.141 84.4482 225.523 84.4515Z" fill="#494A49"/>
<path fill-rule="evenodd" clip-rule="evenodd" d="M279.733 99.4834C279.729 100.104 279.724 100.725 279.719 101.343C279.723 100.722 279.728 100.103 279.733 99.4834Z" fill="#494A49"/>
<path fill-rule="evenodd" clip-rule="evenodd" d="M157.618 213.926C156.959 213.971 156.301 214.016 155.643 214.061C156.301 214.016 156.959 213.971 157.618 213.926Z" fill="#494A49"/>
<path fill-rule="evenodd" clip-rule="evenodd" d="M161.332 95.5957C160.663 95.6471 159.994 95.6987 159.326 95.7501C159.995 95.6984 160.663 95.6471 161.332 95.5957Z" fill="#494A49"/>
<path fill-rule="evenodd" clip-rule="evenodd" d="M230.541 84.2468C231.014 84.2459 231.487 84.245 231.957 84.2441C231.482 84.2453 231.012 84.2462 230.541 84.2468Z" fill="#494A49"/>
<path fill-rule="evenodd" clip-rule="evenodd" d="M135.317 96.8066C134.729 96.8569 134.14 96.9071 133.553 96.9574C134.141 96.9071 134.729 96.8569 135.317 96.8066Z" fill="#494A49"/>
<path fill-rule="evenodd" clip-rule="evenodd" d="M161.298 57.5136C160.71 57.517 160.121 57.5203 159.533 57.5237C160.12 57.229 160.708 57.305 161.298 57.5136Z" fill="#494A49"/>
<path fill-rule="evenodd" clip-rule="evenodd" d="M53.922 152.747C53.4326 152.722 53.0339 152.945 52.7578 152.508C53.2096 152.178 53.4703 152.558 53.922 152.747Z" fill="#494A49"/>
<path fill-rule="evenodd" clip-rule="evenodd" d="M144.682 115.969L143.154 115.807L144.682 115.969Z" fill="#494A49"/>
<path fill-rule="evenodd" clip-rule="evenodd" d="M155.004 224.62C155.341 224.628 155.678 224.635 156.012 224.643C155.673 224.635 155.339 224.628 155.004 224.62Z" fill="#494A49"/>
<path fill-rule="evenodd" clip-rule="evenodd" d="M233.37 55.3457C232.845 55.3903 232.319 55.435 231.793 55.4796C232.319 55.4347 232.845 55.3903 233.37 55.3457Z" fill="#494A49"/>
<path fill-rule="evenodd" clip-rule="evenodd" d="M66.7432 204.651C66.2381 204.653 65.7333 204.656 65.2285 204.658C65.7336 204.656 66.2384 204.653 66.7432 204.651Z" fill="#494A49"/>
<path fill-rule="evenodd" clip-rule="evenodd" d="M26.1422 196.273C25.6323 196.274 25.1228 196.275 24.6133 196.276C25.1231 196.275 25.6323 196.274 26.1422 196.273Z" fill="#494A49"/>
<path fill-rule="evenodd" clip-rule="evenodd" d="M154.959 95.9912C154.441 96.0395 153.924 96.0875 153.406 96.1358C153.924 96.0875 154.441 96.0395 154.959 95.9912Z" fill="#494A49"/>
<path fill-rule="evenodd" clip-rule="evenodd" d="M140.519 96.7768C140.01 96.7219 139.501 96.667 138.992 96.6121C139.497 96.7045 140.057 96.3398 140.519 96.7768Z" fill="#494A49"/>
<path fill-rule="evenodd" clip-rule="evenodd" d="M186.633 115.908C186.95 115.874 187.395 115.768 187.721 115.818C187.679 115.994 186.755 115.907 186.633 115.908Z" fill="#494A49"/>
<path fill-rule="evenodd" clip-rule="evenodd" d="M154.336 153.297C154.677 153.303 155.019 153.31 155.357 153.316C155.015 153.309 154.675 153.303 154.336 153.297Z" fill="#494A49"/>
<path fill-rule="evenodd" clip-rule="evenodd" d="M123.481 115.217C122.982 115.263 122.483 115.308 121.984 115.354C122.484 115.308 122.982 115.263 123.481 115.217Z" fill="#494A49"/>
<path fill-rule="evenodd" clip-rule="evenodd" d="M67.6367 113.625C67.9087 113.632 68.1806 113.64 68.449 113.647C68.1759 113.64 67.9063 113.632 67.6367 113.625Z" fill="#494A49"/>
<path fill-rule="evenodd" clip-rule="evenodd" d="M141.147 115.571C140.72 115.563 140.293 115.554 139.867 115.546C140.294 115.554 140.72 115.563 141.147 115.571Z" fill="#494A49"/>
<path fill-rule="evenodd" clip-rule="evenodd" d="M61.9711 112.548C61.5398 112.598 61.1085 112.649 60.6777 112.699C61.1094 112.648 61.5401 112.598 61.9711 112.548Z" fill="#494A49"/>
<path fill-rule="evenodd" clip-rule="evenodd" d="M121.135 109.117C121.401 109.127 121.667 109.137 121.93 109.148C121.663 109.139 121.399 109.128 121.135 109.117Z" fill="#494A49"/>
<path fill-rule="evenodd" clip-rule="evenodd" d="M141.455 151.058C141.726 151.041 141.996 151.024 142.263 151.007C141.991 151.024 141.723 151.041 141.455 151.058Z" fill="#494A49"/>
<path fill-rule="evenodd" clip-rule="evenodd" d="M162.152 118.217C161.717 118.165 161.282 118.114 160.848 118.062C161.282 118.114 161.717 118.165 162.152 118.217Z" fill="#494A49"/>
<path fill-rule="evenodd" clip-rule="evenodd" d="M57.1836 181.081C57.4659 181.077 57.7482 181.073 58.0273 181.068C57.7441 181.072 57.4635 181.076 57.1836 181.081Z" fill="#494A49"/>
<path fill-rule="evenodd" clip-rule="evenodd" d="M34.0154 148.248C33.5657 148.205 33.116 148.162 32.666 148.119C33.1157 148.162 33.5654 148.205 34.0154 148.248Z" fill="#494A49"/>
<path fill-rule="evenodd" clip-rule="evenodd" d="M24.4024 196.329C23.9604 196.377 23.5185 196.426 23.0762 196.474C23.5187 196.426 23.9604 196.377 24.4024 196.329Z" fill="#494A49"/>
<path fill-rule="evenodd" clip-rule="evenodd" d="M265.351 84.3799C265.316 84.7376 265.282 85.0953 265.246 85.4516C265.281 85.0933 265.316 84.7368 265.351 84.3799Z" fill="#494A49"/>
<path fill-rule="evenodd" clip-rule="evenodd" d="M69.3785 204.296C68.9339 204.344 68.4893 204.393 68.0449 204.441C68.4896 204.392 68.9342 204.344 69.3785 204.296Z" fill="#494A49"/>
<path fill-rule="evenodd" clip-rule="evenodd" d="M65.0218 204.709C64.5719 205.003 64.1222 205.02 63.6719 204.71C64.1219 204.71 64.5719 204.709 65.0218 204.709Z" fill="#494A49"/>
<path fill-rule="evenodd" clip-rule="evenodd" d="M56.4901 205.062C56.0538 205.062 55.6177 205.062 55.1816 205.062C55.618 205.062 56.0541 205.062 56.4901 205.062Z" fill="#494A49"/>
<path fill-rule="evenodd" clip-rule="evenodd" d="M107.516 65.8678C107.479 65.5054 107.442 65.1433 107.404 64.7822C107.442 65.1452 107.479 65.5065 107.516 65.8678Z" fill="#494A49"/>
<path fill-rule="evenodd" clip-rule="evenodd" d="M155.167 57.7754C154.728 57.8268 154.29 57.8779 153.852 57.9289C154.29 57.8779 154.728 57.8268 155.167 57.7754Z" fill="#494A49"/>
<path fill-rule="evenodd" clip-rule="evenodd" d="M156.719 57.585C156.274 57.6321 155.828 57.6796 155.383 57.727C155.828 57.6796 156.274 57.6321 156.719 57.585Z" fill="#494A49"/>
<path fill-rule="evenodd" clip-rule="evenodd" d="M87.5293 105.879C87.8036 105.875 88.0779 105.87 88.3484 105.866C88.0729 105.87 87.8012 105.875 87.5293 105.879Z" fill="#494A49"/>
<path fill-rule="evenodd" clip-rule="evenodd" d="M127.217 101.866C128.672 101.639 130.127 101.563 131.581 101.865L127.217 101.866Z" fill="#494A49"/>
<path fill-rule="evenodd" clip-rule="evenodd" d="M166.025 86.542C166.328 85.8017 166.403 85.5238 167.143 85.1406C166.835 85.8602 166.787 86.2451 166.025 86.542Z" fill="#494A49"/>
<path fill-rule="evenodd" clip-rule="evenodd" d="M201.504 159.812C201.533 160.582 201.562 161.352 201.591 162.121C201.562 161.351 201.533 160.582 201.504 159.812Z" fill="#494A49"/>
<path fill-rule="evenodd" clip-rule="evenodd" d="M254.27 56.2295C253.612 56.2438 252.954 56.2584 252.299 56.2727C252.958 56.2584 253.614 56.2438 254.27 56.2295Z" fill="#494A49"/>
<path fill-rule="evenodd" clip-rule="evenodd" d="M166.59 173.496C166.613 174.138 166.636 174.78 166.659 175.421C166.635 174.779 166.613 174.137 166.59 173.496Z" fill="#494A49"/>
<path fill-rule="evenodd" clip-rule="evenodd" d="M85.9238 152.934C86.5886 152.938 87.2536 152.943 87.9184 152.948C87.2533 152.943 86.5886 152.938 85.9238 152.934Z" fill="#494A49"/>
<path fill-rule="evenodd" clip-rule="evenodd" d="M142.446 119.973C142.045 119.977 141.645 119.98 141.248 119.985C141.65 119.982 142.048 119.977 142.446 119.973Z" fill="#494A49"/>
<path fill-rule="evenodd" clip-rule="evenodd" d="M141.151 99.5787C140.822 99.5681 140.492 99.5574 140.166 99.5479C140.497 99.5588 140.824 99.5686 141.151 99.5787Z" fill="#494A49"/>
<path fill-rule="evenodd" clip-rule="evenodd" d="M94.0371 152.746C94.557 152.698 95.0766 152.65 95.5965 152.602C95.0766 152.65 94.557 152.698 94.0371 152.746Z" fill="#494A49"/>
<path fill-rule="evenodd" clip-rule="evenodd" d="M82.6992 152.962C83.2084 152.954 83.7177 152.946 84.2266 152.938C83.7177 152.946 83.2084 152.954 82.6992 152.962Z" fill="#494A49"/>
<path fill-rule="evenodd" clip-rule="evenodd" d="M88.1367 152.949C88.664 152.905 89.1913 152.862 89.7189 152.818C89.1916 152.862 88.664 152.905 88.1367 152.949Z" fill="#494A49"/>
<path fill-rule="evenodd" clip-rule="evenodd" d="M90.0583 153.734C89.7962 153.733 89.534 153.731 89.2754 153.729C89.5387 153.731 89.7985 153.733 90.0583 153.734Z" fill="#494A49"/>
<path fill-rule="evenodd" clip-rule="evenodd" d="M201.27 142.7C201.309 142.338 201.348 141.977 201.387 141.616C201.348 141.978 201.309 142.339 201.27 142.7Z" fill="#494A49"/>
<path fill-rule="evenodd" clip-rule="evenodd" d="M122.545 106.134C122.876 106.16 123.207 106.187 123.538 106.214C123.169 106.232 122.799 106.25 122.43 106.268C122.432 106.196 122.47 106.151 122.545 106.134Z" fill="#494A49"/>
<path fill-rule="evenodd" clip-rule="evenodd" d="M207.514 166.977C207.493 166.647 207.472 166.318 207.451 165.99C207.472 166.32 207.493 166.649 207.514 166.977Z" fill="#494A49"/>
<path fill-rule="evenodd" clip-rule="evenodd" d="M128.477 104.878C128.211 104.883 127.946 104.888 127.684 104.893C127.951 104.888 128.214 104.883 128.477 104.878Z" fill="#494A49"/>
<path fill-rule="evenodd" clip-rule="evenodd" d="M225.672 146.466C226.114 146.515 226.557 146.564 226.999 146.613C226.557 146.564 226.114 146.515 225.672 146.466Z" fill="#494A49"/>
<path fill-rule="evenodd" clip-rule="evenodd" d="M133.753 119.166C133.481 119.17 133.208 119.174 132.939 119.179C133.213 119.175 133.483 119.17 133.753 119.166Z" fill="#494A49"/>
<path fill-rule="evenodd" clip-rule="evenodd" d="M117.995 69.3076C118.281 69.4504 118.132 70.0782 117.854 70.0183C117.901 69.7812 117.948 69.5444 117.995 69.3076Z" fill="#494A49"/>
<path fill-rule="evenodd" clip-rule="evenodd" d="M265.384 143.92C265.121 143.913 264.859 143.906 264.6 143.899C264.863 143.907 265.123 143.913 265.384 143.92Z" fill="#494A49"/>
<path fill-rule="evenodd" clip-rule="evenodd" d="M105.522 66.0522C105.495 65.499 105.467 64.9461 105.439 64.3945C105.467 64.9483 105.495 65.5001 105.522 66.0522Z" fill="#494A49"/>
<path fill-rule="evenodd" clip-rule="evenodd" d="M155.25 222.475C155.655 222.531 156.059 222.587 156.463 222.643C156.058 222.587 155.654 222.531 155.25 222.475Z" fill="#494A49"/>
<path fill-rule="evenodd" clip-rule="evenodd" d="M152.579 80.0639C151.153 80.3387 149.688 80.4824 148.295 80.8869C147.948 80.9879 146.807 81.6079 146.391 81.4446C145.759 81.1958 146.078 80.5578 146.345 80.2173C147.058 79.3066 148.333 78.7964 149.502 78.8078C150.669 78.8194 152.271 78.7795 152.579 80.0639Z" fill="#494A49"/>
<path fill-rule="evenodd" clip-rule="evenodd" d="M148.607 82.5074C150.178 83.5365 151.378 84.0433 151.511 81.7305C153.213 81.9476 152.45 84.5136 151.162 84.7072C149.76 84.9176 148.825 83.6069 148.607 82.5074Z" fill="#494A49"/>
</g>
<defs>
<linearGradient id="paint0_linear_649_1053" x1="225.916" y1="22.3394" x2="85.5034" y2="265.542" gradientUnits="userSpaceOnUse">
<stop stop-color="#8FE02E"/>
<stop offset="1" stop-color="#26B351"/>
</linearGradient>
<linearGradient id="paint1_linear_649_1053" x1="151.452" y1="90.4791" x2="253.098" y2="95.9545" gradientUnits="userSpaceOnUse">
<stop stop-color="#FAD961"/>
<stop offset="0.0418" stop-color="#FBD449"/>
<stop offset="0.0988" stop-color="#FCCE2E"/>
<stop offset="0.1572" stop-color="#FCCA1B"/>
<stop offset="0.2171" stop-color="#FDC810"/>
<stop offset="0.2809" stop-color="#FDC70C"/>
<stop offset="0.6685" stop-color="#F3903F"/>
<stop offset="0.8876" stop-color="#ED683C"/>
<stop offset="1" stop-color="#F76B1C"/>
</linearGradient>
<clipPath id="clip0_649_1053">
<rect width="323" height="279" fill="white"/>
</clipPath>
</defs>
</svg>
