<svg width="15" height="12" viewBox="0 0 15 12" fill="none" xmlns="http://www.w3.org/2000/svg">
  <path d="M8.66797 0C7.07667 0 5.55055 0.632141 4.42533 1.75736C3.30011 2.88258 2.66797 4.4087 2.66797 6H0.667969L3.2613 8.59333L3.30797 8.68667L6.0013 6H4.0013C4.0013 4.76232 4.49297 3.57534 5.36814 2.70017C6.24331 1.825 7.43029 1.33333 8.66797 1.33333C9.90565 1.33333 11.0926 1.825 11.9678 2.70017C12.843 3.57534 13.3346 4.76232 13.3346 6C13.3346 7.23768 12.843 8.42466 11.9678 9.29983C11.0926 10.175 9.90565 10.6667 8.66797 10.6667C7.3813 10.6667 6.21464 10.14 5.37464 9.29333L4.42797 10.24C4.98228 10.8004 5.64275 11.2447 6.37077 11.5469C7.09878 11.8491 7.87973 12.0031 8.66797 12C10.2593 12 11.7854 11.3679 12.9106 10.2426C14.0358 9.11742 14.668 7.5913 14.668 6C14.668 4.4087 14.0358 2.88258 12.9106 1.75736C11.7854 0.632141 10.2593 0 8.66797 0Z" fill="#64727D" />
</svg>
