<svg width="20" height="20" viewBox="0 0 24 24" fill="none" xmlns="http://www.w3.org/2000/svg">
  <path
    fill-rule="evenodd"
    clip-rule="evenodd"
    d="M19.5725 9.66237L20.9763 9.90052C21.5737 10.0008 22.0082 10.5147 21.9999 11.1205V12.8794C21.9999 13.4852 21.5654 13.9991 20.9679 14.0994L19.5641 14.3333C19.4221 14.8013 19.2299 15.2567 19.0001 15.6953L19.8273 16.8568C20.1783 17.3498 20.1198 18.0225 19.6936 18.4486L18.4486 19.6936C18.2147 19.9276 17.9055 20.0571 17.5754 20.0571C17.3164 20.0571 17.0657 19.9777 16.8568 19.8273L15.6995 19.0001C15.265 19.2299 14.8096 19.4179 14.3375 19.5641L14.0994 20.9679C13.9991 21.5654 13.4852 21.9999 12.8794 21.9999H11.1163C10.5105 21.9999 9.99661 21.5654 9.89634 20.9679L9.66237 19.5641C9.20698 19.4221 8.76411 19.2424 8.34214 19.021L7.16813 19.8566C6.95924 20.007 6.71274 20.0864 6.4537 20.0864C6.12364 20.0864 5.81448 19.9569 5.58051 19.7229L4.33548 18.4779C3.90515 18.0517 3.85083 17.3791 4.20178 16.8861L5.02484 15.7413C4.79088 15.3068 4.59869 14.8514 4.45246 14.3835L3.03196 14.1411C2.43451 14.0409 2 13.527 2 12.9212V11.1623C2 10.5565 2.43451 10.0426 3.03196 9.9423L4.41904 9.70833C4.56109 9.23622 4.74492 8.78082 4.97471 8.34214L4.13911 7.16813C3.78817 6.67513 3.84666 6.00248 4.27281 5.57633L5.52202 4.3313C5.75181 4.09733 6.06515 3.96782 6.39521 3.96782C6.65424 3.96782 6.90492 4.0472 7.11382 4.19761L8.26276 5.02484C8.69727 4.79088 9.15266 4.59869 9.62059 4.45246L9.86292 3.03196C9.96319 2.43451 10.4771 2 11.0829 2H12.8418C13.4476 2 13.9615 2.43451 14.0618 3.03196L14.2957 4.41904C14.7845 4.56527 15.2567 4.76163 15.7079 4.99977L16.8694 4.17254C17.0782 4.02213 17.3247 3.94275 17.5838 3.94275C17.9138 3.94275 18.223 4.07227 18.457 4.30623L19.702 5.55126C20.1323 5.97742 20.1866 6.65007 19.8357 7.14307L19.0085 8.30036C19.2383 8.73487 19.4263 9.19026 19.5725 9.66237ZM19.9134 12.8885C19.9624 12.8809 19.9962 12.8395 19.9962 12.7906H20V11.2056C20 11.1567 19.9661 11.1153 19.9172 11.1078L18.336 10.8405C18.1402 10.8104 17.9784 10.6635 17.9294 10.4678C17.7864 9.91435 17.568 9.38353 17.2744 8.89035C17.1727 8.71718 17.1802 8.49882 17.2969 8.33694L18.2268 7.03059C18.2532 6.98918 18.2494 6.93647 18.2155 6.90259L17.0936 5.78071C17.0673 5.75435 17.0372 5.75059 17.0221 5.75059C17.0033 5.75059 16.9845 5.75812 16.9656 5.76941L15.6668 6.70306C15.5012 6.81976 15.2866 6.82729 15.1134 6.72565C14.6089 6.42824 14.0668 6.20612 13.4984 6.06306C13.3026 6.01412 13.1558 5.85224 13.1219 5.65271L12.8584 4.08282C12.8508 4.03388 12.8094 4 12.7605 4H11.1755C11.1266 4 11.0852 4.03388 11.0776 4.08282L10.8066 5.67529C10.7727 5.87106 10.6259 6.02918 10.4339 6.08188C9.88047 6.22494 9.34965 6.45082 8.86024 6.74447C8.68706 6.84612 8.46871 6.83859 8.30306 6.72188L7.00424 5.79576C6.98918 5.78447 6.97035 5.77694 6.94776 5.77694C6.92894 5.77694 6.90259 5.78071 6.87624 5.80706L5.75435 6.92894C5.72047 6.96282 5.71671 7.01929 5.74306 7.05694L6.68047 8.37459C6.79718 8.53647 6.80847 8.75106 6.70682 8.92423C6.41694 9.41741 6.20235 9.952 6.06306 10.5054C6.01412 10.7012 5.85224 10.848 5.65271 10.8819L4.08282 11.1454C4.03388 11.1529 4 11.1944 4 11.2433V12.8282C4 12.8772 4.03388 12.9186 4.08282 12.9261L5.67529 13.1972C5.87106 13.2311 6.02918 13.3779 6.08188 13.5699C6.22494 14.1233 6.45082 14.6541 6.74447 15.1435C6.84612 15.3167 6.83859 15.5351 6.72188 15.7007L5.79576 16.9995C5.76941 17.0409 5.77318 17.0936 5.80706 17.1275L6.92894 18.2494C6.95529 18.2758 6.98541 18.2795 7.00047 18.2795C7.01929 18.2795 7.03812 18.272 7.05694 18.2607L8.37459 17.3233C8.46118 17.2593 8.56659 17.2292 8.66823 17.2292C8.75482 17.2292 8.84518 17.2518 8.92423 17.2969C9.40988 17.5755 9.92941 17.7901 10.4678 17.9294C10.6598 17.9784 10.8066 18.1365 10.8405 18.336L11.104 19.9172C11.1115 19.9661 11.1529 20 11.2019 20H12.7868C12.8358 20 12.8772 19.9661 12.8847 19.9172L13.152 18.336C13.1821 18.1402 13.3289 17.9784 13.5247 17.9294C14.0781 17.7864 14.6089 17.568 15.1021 17.2744C15.2753 17.1727 15.4936 17.1802 15.6555 17.2969L16.9619 18.2268C16.9769 18.2381 16.9958 18.2456 17.0184 18.2456C17.0372 18.2456 17.0635 18.2419 17.0899 18.2155L18.2118 17.0936C18.2456 17.0598 18.2494 17.0033 18.2231 16.9656L17.2932 15.6555C17.1765 15.4899 17.1689 15.2753 17.2706 15.1021C17.5642 14.6089 17.7826 14.0781 17.9256 13.5247C17.9746 13.3327 18.1327 13.1859 18.3322 13.152L19.9134 12.8885ZM11 12C11 11.4487 11.4487 11 12 11C12.5513 11 13 11.4487 13 12C13 12.5513 12.5513 13 12 13C11.4487 13 11 12.5513 11 12ZM12 9C10.3442 9 9 10.3442 9 12C9 13.6558 10.3442 15 12 15C13.6558 15 15 13.6558 15 12C15 10.3442 13.6558 9 12 9Z"
    fill="#64727D"
  />
</svg>
