<svg width="12" height="12" viewBox="0 0 12 12" fill="none" xmlns="http://www.w3.org/2000/svg">
  <path
    fill-rule="evenodd"
    clip-rule="evenodd"
    d="M10.4128 2.11216L9.92976 1.62913C9.53924 1.23861 8.90607 1.23861 8.51555 1.62913L8.29644 1.84824L10.1937 3.74549L10.4128 3.52638C10.8033 3.13585 10.8033 2.50269 10.4128 2.11216ZM2.66696 7.47772L7.58933 2.55535L9.48658 4.45259L4.56421 9.37496L2.66696 7.47772ZM2.10061 8.32558L1.61589 10.426L3.71635 9.94132L2.10061 8.32558ZM1.36573 11.5101L4.02771 10.8957C4.39295 10.8115 4.72715 10.6262 4.99221 10.3612L11.1199 4.23348C11.9009 3.45244 11.9009 2.1861 11.1199 1.40506L10.6369 0.922026C9.85582 0.140977 8.58949 0.140976 7.80844 0.922025L1.68075 7.04972C1.4157 7.31477 1.23046 7.64898 1.14618 8.01422L0.531875 10.6762L0.53071 10.6812L0.486976 10.8708L0.371663 11.3705C0.33012 11.5505 0.491458 11.7118 0.671476 11.6703L1.17116 11.555L1.36068 11.5112L1.36573 11.5101Z"
    fill="#444E55"
  />
</svg>