<svg width="13" height="13" viewBox="0 0 13 13" fill="none" xmlns="http://www.w3.org/2000/svg">
    <path
        fill-rule="evenodd"
        clip-rule="evenodd"
        d="M6.27734 11.8492C6.27734 12.1254 6.5012 12.3492 6.77734 12.3492C7.05349 12.3492 7.27734 12.1254 7.27734 11.8492L7.27734 7.27818L11.8484 7.27818C12.1246 7.27818 12.3484 7.05432 12.3484 6.77818C12.3484 6.50203 12.1246 6.27818 11.8484 6.27818L7.27734 6.27818L7.27734 1.70711C7.27734 1.43096 7.05349 1.20711 6.77734 1.20711C6.5012 1.20711 6.27734 1.43096 6.27734 1.70711L6.27734 6.27818L1.70628 6.27817C1.43013 6.27818 1.20628 6.50203 1.20628 6.77818C1.20628 7.05432 1.43013 7.27818 1.70628 7.27818L6.27734 7.27818L6.27734 11.8492Z"
        fill="#64727D"
        stroke="#64727D"
        stroke-linecap="round"
    />
</svg>