<svg width="10" height="12" viewBox="0 0 10 12" fill="none" xmlns="http://www.w3.org/2000/svg">
  <path
    fill-rule="evenodd"
    clip-rule="evenodd"
    d="M4 0C3.44772 0 3 0.447715 3 1V1.5H2.02855H0.5C0.223858 1.5 0 1.72386 0 2C0 2.27614 0.223858 2.5 0.5 2.5H1.02852C1.02854 2.51839 1.02906 2.53688 1.03009 2.55547L1.47453 10.5555C1.50397 11.0854 1.94226 11.5 2.47299 11.5H7.52701C8.05774 11.5 8.49603 11.0854 8.52547 10.5555L8.96991 2.55547C8.97094 2.53688 8.97146 2.51839 8.97148 2.5H9.5C9.77614 2.5 10 2.27614 10 2C10 1.72386 9.77614 1.5 9.5 1.5H7.97145H7V1C7 0.447715 6.55228 0 6 0H4ZM6 1.5V1H4V1.5H6ZM2.02855 2.5L7.97145 2.5L7.52701 10.5L2.47299 10.5L2.02855 2.5ZM6 4C6.27614 4 6.5 4.22386 6.5 4.5V8.5C6.5 8.77614 6.27614 9 6 9C5.72386 9 5.5 8.77614 5.5 8.5V4.5C5.5 4.22386 5.72386 4 6 4ZM4.5 4.5C4.5 4.22386 4.27614 4 4 4C3.72386 4 3.5 4.22386 3.5 4.5V8.5C3.5 8.77614 3.72386 9 4 9C4.27614 9 4.5 8.77614 4.5 8.5V4.5Z"
    fill="#444E55"
  />
</svg>
