<svg width="12" height="12" viewBox="0 0 12 12" fill="none" xmlns="http://www.w3.org/2000/svg">
<path fill-rule="evenodd" clip-rule="evenodd" d="M10.9753 0.175721C11.2096 -0.0585731 11.5895 -0.0585737 11.8237 0.175719C12.058 0.410013 12.058 0.789877 11.8238 1.02417L6.84841 5.99973L11.8243 10.9758C12.0586 11.2101 12.0586 11.59 11.8243 11.8243C11.59 12.0586 11.2102 12.0586 10.9759 11.8243L6 6.84818L1.02413 11.8243C0.789845 12.0586 0.409998 12.0586 0.175713 11.8243C-0.0585703 11.59 -0.0585714 11.2101 0.175712 10.9758L5.15159 5.99973L0.176248 1.02417C-0.058035 0.789877 -0.0580345 0.410013 0.176249 0.175719C0.410533 -0.0585737 0.790382 -0.0585731 1.02467 0.175721L6 5.15128L10.9753 0.175721Z" fill="#878787"/>
</svg>
