<svg width="12" height="14" viewBox="0 0 12 14" fill="none" xmlns="http://www.w3.org/2000/svg">
<path fill-rule="evenodd" clip-rule="evenodd" d="M11.375 2.20267L11.6841 3.12926C11.7545 3.34021 11.7188 3.57391 11.5888 3.75432C11.4588 3.93462 11.2485 4.04239 11.0261 4.04239H10.8472L10.1361 12.8362C10.0833 13.4888 9.5295 14 8.87538 14H3.27365C2.61943 14 2.06572 13.4888 2.01285 12.8363L1.3017 4.04239H0.978592C0.75621 4.04239 0.545898 3.93462 0.415909 3.75421C0.285919 3.57381 0.250244 3.34021 0.320633 3.12926L0.629745 2.20267C0.747452 1.84976 1.07654 1.61264 1.44856 1.61264H4.04643V0.7668C4.04643 0.34404 4.39026 0 4.81281 0H7.19193C7.61458 0 7.9583 0.34404 7.9583 0.7668V1.61264H10.5563C10.9282 1.61264 11.2573 1.84976 11.375 2.20267ZM7.13799 0.820312H4.86674V1.61264H7.13799V0.820312ZM8.87538 13.1797C9.10524 13.1797 9.29985 12.9998 9.31844 12.7701L10.0242 4.04239H2.12468L2.8306 12.7701C2.84918 12.9998 3.04379 13.1797 3.27365 13.1797H8.87538ZM1.40797 2.46222L1.15451 3.22208H10.8503L10.5969 2.46222C10.591 2.4447 10.5748 2.43295 10.5563 2.43295H1.44856C1.43008 2.43295 1.41374 2.4447 1.40797 2.46222ZM8.03191 12.7414C8.02464 12.7414 8.01749 12.7413 8.01022 12.7409C7.784 12.7291 7.61021 12.5361 7.62196 12.3099L8.00702 4.91619C8.01888 4.68997 8.21125 4.51587 8.43801 4.52794C8.66413 4.53968 8.83802 4.73269 8.82627 4.95892L8.44111 12.3526C8.42978 12.5716 8.24863 12.7414 8.03191 12.7414ZM3.58191 12.3535C3.59387 12.5722 3.77481 12.7413 3.9911 12.7413C3.99858 12.7413 4.00627 12.7411 4.01385 12.7407C4.23997 12.7284 4.41333 12.5351 4.40104 12.3089L3.99762 4.91516C3.98534 4.68893 3.79201 4.51558 3.56578 4.52797C3.33966 4.54025 3.16631 4.73358 3.17859 4.95981L3.58191 12.3535ZM6.41705 12.3312C6.41705 12.5578 6.23344 12.7414 6.0069 12.7414C5.78035 12.7414 5.59674 12.5578 5.59674 12.3312V4.9375C5.59674 4.71095 5.78035 4.52734 6.0069 4.52734C6.23344 4.52734 6.41705 4.71095 6.41705 4.9375V12.3312Z" fill="#878787"/>
</svg>

