<svg width="18" height="22" viewBox="0 0 18 22" fill="none" xmlns="http://www.w3.org/2000/svg">
<path fill-rule="evenodd" clip-rule="evenodd" d="M17.063 3.804L17.5267 5.19389C17.6323 5.51031 17.5788 5.86087 17.3838 6.13148C17.1888 6.40192 16.8733 6.56358 16.5398 6.56358H16.2714L15.2047 19.7543C15.1255 20.7332 14.2948 21.5 13.3136 21.5H4.91103C3.92969 21.5 3.09913 20.7332 3.01982 19.7544L1.95309 6.56358H1.46844C1.13486 6.56358 0.819397 6.40192 0.624412 6.13132C0.429428 5.86071 0.375915 5.51031 0.481498 5.19389L0.945167 3.804C1.12173 3.27464 1.61536 2.91896 2.17339 2.91896H6.0702V1.6502C6.0702 1.01606 6.58594 0.5 7.21976 0.5H10.7884C11.4224 0.5 11.938 1.01606 11.938 1.6502V2.91896H15.835C16.3928 2.91896 16.8865 3.27464 17.063 3.804ZM10.7075 1.73047H7.30067V2.91896H10.7075V1.73047ZM13.3136 20.2695C13.6584 20.2695 13.9503 19.9997 13.9782 19.6551L15.0369 6.56358H3.18757L4.24644 19.6551C4.27432 19.9997 4.56624 20.2695 4.91103 20.2695H13.3136ZM2.11251 4.19333L1.73231 5.33311H16.276L15.8958 4.19333C15.887 4.16705 15.8627 4.14943 15.835 4.14943H2.17339C2.14568 4.14943 2.12116 4.16705 2.11251 4.19333ZM12.0311 19.6119L12.0159 19.6113C11.6765 19.5937 11.4159 19.3042 11.4335 18.9649L12.0111 7.87429C12.0289 7.53495 12.3174 7.2738 12.6576 7.2919C12.9967 7.30953 13.2576 7.59904 13.24 7.93838L12.6622 19.0289C12.6452 19.3574 12.3735 19.6121 12.0484 19.6121L12.0311 19.6119ZM5.37342 19.0303C5.39136 19.3582 5.66277 19.612 5.9872 19.612C5.99842 19.612 6.00995 19.6117 6.02133 19.6111C6.36051 19.5926 6.62054 19.3026 6.60211 18.9633L5.99698 7.87274C5.97855 7.5334 5.68856 7.27337 5.34922 7.29195C5.01005 7.31038 4.75001 7.60037 4.76844 7.93971L5.37342 19.0303ZM9.62613 18.9968C9.62613 19.3366 9.35072 19.612 9.01089 19.612C8.67107 19.612 8.39566 19.3366 8.39566 18.9968V7.90625C8.39566 7.56643 8.67107 7.29102 9.01089 7.29102C9.35072 7.29102 9.62613 7.56643 9.62613 7.90625V18.9968Z" fill="#878787"/>
</svg>
