<svg width="24" height="24" viewBox="0 0 24 24" fill="none" xmlns="http://www.w3.org/2000/svg">
<path d="M20.6601 1.64782C19.4505 0.440309 17.4916 0.440309 16.282 1.64782L15.186 2.74977L3.51975 14.4098L3.49495 14.4348C3.48895 14.4408 3.48895 14.4472 3.48256 14.4472C3.47016 14.4658 3.45157 14.4842 3.43936 14.5028C3.43936 14.509 3.43297 14.509 3.43297 14.5152C3.42057 14.5338 3.41457 14.5462 3.40198 14.5648C3.39597 14.571 3.39597 14.577 3.38978 14.5834C3.38358 14.602 3.37738 14.6144 3.37099 14.633C3.37099 14.639 3.36498 14.639 3.36498 14.6454L0.776592 22.4289C0.700662 22.6505 0.758385 22.896 0.925159 23.0604C1.04235 23.176 1.2004 23.2407 1.36485 23.2402C1.43207 23.239 1.4987 23.2285 1.56301 23.2092L9.34058 20.6146C9.34658 20.6146 9.34658 20.6146 9.35297 20.6086C9.37254 20.6028 9.39133 20.5944 9.40857 20.5836C9.41341 20.583 9.41767 20.5809 9.42116 20.5776C9.43956 20.5652 9.46435 20.5526 9.48295 20.5402C9.50135 20.528 9.52014 20.5094 9.53873 20.497C9.54493 20.4906 9.55093 20.4906 9.55093 20.4846C9.55733 20.4784 9.56972 20.4724 9.57592 20.4598L22.3381 7.69761C23.5456 6.48796 23.5456 4.52909 22.3381 3.31963L20.6601 1.64782ZM9.14242 19.1593L4.83264 14.8497L15.6195 4.06286L19.9293 8.37245L9.14242 19.1593ZM4.22558 15.9953L7.99069 19.7602L2.33703 21.6425L4.22558 15.9953ZM21.4651 6.83061L20.8087 7.49325L16.4987 3.18327L17.1615 2.52082C17.8865 1.79639 19.0617 1.79639 19.7869 2.52082L21.4711 4.20503C22.1907 4.93334 22.188 6.10579 21.4651 6.83061Z" fill="#878787"/>
</svg>
