<svg width="16" height="16" viewBox="0 0 16 16" fill="none" xmlns="http://www.w3.org/2000/svg">
<path d="M13.7734 1.09887C12.967 0.293865 11.6611 0.293865 10.8546 1.09887L10.124 1.83351L2.34649 9.60688L2.32996 9.62354C2.32596 9.62754 2.32596 9.6318 2.3217 9.6318C2.31343 9.6442 2.30103 9.65647 2.2929 9.66887C2.2929 9.673 2.28864 9.673 2.28864 9.67713C2.28037 9.68953 2.27637 9.69779 2.26798 9.71019C2.26397 9.71432 2.26397 9.71832 2.25984 9.72258C2.25571 9.73498 2.25158 9.74325 2.24732 9.75564C2.24732 9.75965 2.24331 9.75965 2.24331 9.76391L0.517718 14.953C0.467098 15.1007 0.50558 15.2643 0.616762 15.3739C0.694887 15.451 0.800259 15.4942 0.909893 15.4938C0.954701 15.493 0.999123 15.486 1.04199 15.4731L6.22704 13.7434C6.23104 13.7434 6.23104 13.7434 6.23531 13.7394C6.24835 13.7355 6.26087 13.7299 6.27237 13.7227C6.27559 13.7223 6.27844 13.7209 6.28076 13.7187C6.29303 13.7104 6.30956 13.7021 6.32195 13.6938C6.33422 13.6857 6.34675 13.6733 6.35914 13.665C6.36328 13.6607 6.36728 13.6607 6.36728 13.6567C6.37154 13.6526 6.3798 13.6486 6.38394 13.6402L14.8921 5.13206C15.6971 4.32563 15.6971 3.01972 14.8921 2.21342L13.7734 1.09887ZM6.09494 12.7732L3.22175 9.90014L10.413 2.7089L13.2862 5.58196L6.09494 12.7732ZM2.81705 10.6638L5.32712 13.1738L1.55801 14.4287L2.81705 10.6638ZM14.3101 4.55407L13.8724 4.99583L10.9991 2.12251L11.441 1.68087C11.9244 1.19792 12.7078 1.19792 13.1913 1.68087L14.3141 2.80368C14.7938 3.28922 14.792 4.07085 14.3101 4.55407Z" fill="#878787"/>
</svg>
