<svg width="16" height="16" viewBox="0 0 16 16" fill="none" xmlns="http://www.w3.org/2000/svg">
<path d="M13.7737 1.09887C12.9673 0.293865 11.6614 0.293865 10.855 1.09887L10.1243 1.83351L2.34682 9.60688L2.3303 9.62354C2.32629 9.62754 2.32629 9.6318 2.32203 9.6318C2.31377 9.6442 2.30137 9.65647 2.29323 9.66887C2.29323 9.673 2.28897 9.673 2.28897 9.67713C2.28071 9.68953 2.27671 9.69779 2.26831 9.71019C2.26431 9.71432 2.26431 9.71832 2.26018 9.72258C2.25604 9.73498 2.25191 9.74325 2.24765 9.75564C2.24765 9.75965 2.24365 9.75965 2.24365 9.76391L0.518054 14.953C0.467434 15.1007 0.505915 15.2643 0.617098 15.3739C0.695223 15.451 0.800595 15.4942 0.910228 15.4938C0.955037 15.493 0.999459 15.486 1.04233 15.4731L6.22738 13.7434C6.23138 13.7434 6.23138 13.7434 6.23564 13.7394C6.24868 13.7355 6.26121 13.7299 6.2727 13.7227C6.27593 13.7223 6.27877 13.7209 6.2811 13.7187C6.29336 13.7104 6.30989 13.7021 6.32229 13.6938C6.33456 13.6857 6.34708 13.6733 6.35948 13.665C6.36361 13.6607 6.36761 13.6607 6.36761 13.6567C6.37188 13.6526 6.38014 13.6486 6.38427 13.6402L14.8924 5.13206C15.6974 4.32563 15.6974 3.01972 14.8924 2.21342L13.7737 1.09887ZM6.09527 12.7732L3.22208 9.90014L10.4133 2.7089L13.2865 5.58196L6.09527 12.7732ZM2.81738 10.6638L5.32745 13.1738L1.55834 14.4287L2.81738 10.6638ZM14.3104 4.55407L13.8728 4.99583L10.9995 2.12251L11.4413 1.68087C11.9247 1.19792 12.7081 1.19792 13.1916 1.68087L14.3144 2.80368C14.7941 3.28922 14.7923 4.07085 14.3104 4.55407Z" fill="#878787"/>
</svg>
