<svg width="48" height="48" viewBox="0 0 48 48" fill="none" xmlns="http://www.w3.org/2000/svg">
<circle cx="24" cy="24" r="23.5" fill="#F5F6F6" stroke="#F0F1F1"/>
<path d="M32.6606 13.6488C31.451 12.4413 29.4921 12.4413 28.2824 13.6488L27.1865 14.7508L15.5202 26.4108L15.4954 26.4358C15.4894 26.4418 15.4894 26.4482 15.483 26.4482C15.4706 26.4668 15.4521 26.4852 15.4399 26.5038C15.4399 26.51 15.4335 26.51 15.4335 26.5162C15.4211 26.5348 15.4151 26.5472 15.4025 26.5658C15.3965 26.572 15.3965 26.578 15.3903 26.5844C15.3841 26.603 15.3779 26.6154 15.3715 26.634C15.3715 26.64 15.3655 26.64 15.3655 26.6463L12.7771 34.4299C12.7012 34.6515 12.7589 34.8969 12.9256 35.0614C13.0428 35.177 13.2009 35.2417 13.3653 35.2411C13.4326 35.24 13.4992 35.2295 13.5635 35.2101L21.3411 32.6156C21.3471 32.6156 21.3471 32.6156 21.3535 32.6095C21.373 32.6037 21.3918 32.5954 21.4091 32.5846C21.4139 32.584 21.4182 32.5818 21.4216 32.5786C21.44 32.5662 21.4648 32.5536 21.4834 32.5412C21.5018 32.529 21.5206 32.5104 21.5392 32.498C21.5454 32.4916 21.5514 32.4916 21.5514 32.4856C21.5578 32.4794 21.5702 32.4734 21.5764 32.4608L34.3386 19.6986C35.5461 18.4889 35.5461 16.5301 34.3386 15.3206L32.6606 13.6488ZM21.1429 31.1603L16.8331 26.8507L27.62 16.0638L31.9298 20.3734L21.1429 31.1603ZM16.2261 27.9962L19.9912 31.7611L14.3375 33.6435L16.2261 27.9962ZM33.4656 18.8316L32.8092 19.4942L28.4992 15.1842L29.162 14.5218C29.887 13.7974 31.0622 13.7974 31.7874 14.5218L33.4716 16.206C34.1912 16.9343 34.1885 18.1068 33.4656 18.8316Z" fill="#878787"/>
</svg>
