<svg width="12" height="11" viewBox="0 0 12 11" fill="none" xmlns="http://www.w3.org/2000/svg">
<path fill-rule="evenodd" clip-rule="evenodd" d="M8.00008 3C8.00008 4.10457 7.10465 5 6.00008 5C4.89551 5 4.00008 4.10457 4.00008 3C4.00008 1.89543 4.89551 1 6.00008 1C7.10465 1 8.00008 1.89543 8.00008 3ZM7.38038 5.6643C8.34268 5.16475 9.00008 4.15915 9.00008 3C9.00008 1.34315 7.65694 0 6.00008 0C4.34323 0 3.00008 1.34315 3.00008 3C3.00008 4.15915 3.65749 5.16475 4.61979 5.6643C2.51613 6.17513 0.877351 7.8271 0.507755 9.91276C0.459571 10.1847 0.640933 10.4441 0.912839 10.4923C1.18475 10.5405 1.44423 10.3592 1.49241 10.0872C1.84974 8.07084 3.71478 6.5 6.00008 6.5C8.28539 6.5 10.1504 8.07084 10.5078 10.0872C10.5559 10.3592 10.8154 10.5405 11.0873 10.4923C11.3592 10.4441 11.5406 10.1847 11.4924 9.91276C11.1228 7.8271 9.48403 6.17513 7.38038 5.6643Z" fill="#64727D"/>
</svg>
