<svg width="18" height="17" viewBox="0 0 18 17" fill="none" xmlns="http://www.w3.org/2000/svg">
<path d="M9.7751 14.1538C9.29842 13.8661 8.70158 13.8661 8.2249 14.1538L4.59063 16.3473C4.21197 16.5758 3.74486 16.2364 3.84534 15.8056L4.8098 11.6714C4.9363 11.1292 4.75203 10.5615 4.33118 10.1969L1.11878 7.41397C0.78448 7.12437 0.963186 6.57524 1.4039 6.53785L5.6314 6.17919C6.18577 6.13215 6.66857 5.78215 6.88568 5.2699L8.53964 1.36748C8.71193 0.960971 9.28807 0.96097 9.46036 1.36749L11.1143 5.2699C11.3314 5.78215 11.8142 6.13215 12.3686 6.17919L16.5961 6.53785C17.0368 6.57524 17.2155 7.12437 16.8812 7.41397L13.6688 10.1969C13.248 10.5615 13.0637 11.1291 13.1902 11.6714L14.1547 15.8056C14.2551 16.2364 13.788 16.5758 13.4094 16.3473L9.7751 14.1538Z" stroke="#13AA57"/>
</svg>
