<svg width="24" height="24" viewBox="0 0 8 8" fill="none" xmlns="http://www.w3.org/2000/svg">
<mask id="path-1-inside-1_22851_77937" fill="white">
<path fill-rule="evenodd" clip-rule="evenodd" d="M5.39247 1.71819H4.49784V3.49824H6.28182V2.60361C6.28182 2.3787 6.52776 2.26874 6.66895 2.42868L7.93511 3.81811C8.02164 3.91807 8.02164 4.07301 7.93511 4.17297L6.66895 5.5674C6.52776 5.72733 6.28182 5.61738 6.28182 5.39247V4.49784H4.49784V6.28182H5.39747C5.61738 6.28182 5.73233 6.52776 5.5724 6.66895L4.17797 7.93511C4.07801 8.02164 3.92307 8.02164 3.82311 7.93511L2.42868 6.66895C2.26874 6.52776 2.3787 6.28182 2.60361 6.28182H3.49824V4.49784H1.71819V5.39747C1.71819 5.61738 1.47225 5.73233 1.33106 5.5724L0.064902 4.17797C-0.0216338 4.07801 -0.0216338 3.92307 0.064902 3.82311L1.33106 2.42868C1.47225 2.26874 1.71819 2.3787 1.71819 2.60361V3.49824H3.49824V1.71819H2.60361C2.3787 1.71819 2.26874 1.47225 2.42868 1.33106L3.81811 0.0649019C3.91807 -0.021634 4.07301 -0.021634 4.17297 0.0649019L5.5674 1.33106C5.72733 1.47225 5.61738 1.71819 5.39247 1.71819Z"/>
</mask>
<path d="M4.49784 1.71819V0.718191H3.49784V1.71819H4.49784ZM4.49784 3.49824H3.49784V4.49824H4.49784V3.49824ZM6.28182 3.49824V4.49824H7.28182V3.49824H6.28182ZM6.66895 2.42868L5.91928 3.09049L5.9245 3.0964L5.92981 3.10224L6.66895 2.42868ZM7.93511 3.81811L8.69115 3.16359L8.68282 3.15397L8.67424 3.14456L7.93511 3.81811ZM7.93511 4.17297L8.67544 4.8452L8.6834 4.83644L8.69115 4.82749L7.93511 4.17297ZM6.66895 5.5674L5.92854 4.8951L5.91928 4.90559L6.66895 5.5674ZM6.28182 4.49784H7.28182V3.49784H6.28182V4.49784ZM4.49784 4.49784V3.49784H3.49784V4.49784H4.49784ZM4.49784 6.28182H3.49784V7.28182H4.49784V6.28182ZM5.5724 6.66895L4.91052 5.91921L4.90016 5.92861L5.5724 6.66895ZM4.17797 7.93511L4.83249 8.69115L4.84144 8.6834L4.8502 8.67544L4.17797 7.93511ZM3.82311 7.93511L3.15088 8.67544L3.15964 8.6834L3.16859 8.69115L3.82311 7.93511ZM2.42868 6.66895L3.10098 5.92854L3.09049 5.91928L2.42868 6.66895ZM3.49824 6.28182V7.28182H4.49824V6.28182H3.49824ZM3.49824 4.49784H4.49824V3.49784H3.49824V4.49784ZM1.71819 4.49784V3.49784H0.718191V4.49784H1.71819ZM1.33106 5.5724L2.0808 4.91052L2.0714 4.90016L1.33106 5.5724ZM0.064902 4.17797L-0.691145 4.83248L-0.683396 4.84143L-0.675437 4.8502L0.064902 4.17797ZM0.064902 3.82311L-0.675437 3.15088L-0.683396 3.15964L-0.691144 3.16859L0.064902 3.82311ZM1.33106 2.42868L2.07147 3.10098L2.08073 3.09049L1.33106 2.42868ZM1.71819 3.49824H0.718191V4.49824H1.71819V3.49824ZM3.49824 3.49824V4.49824H4.49824V3.49824H3.49824ZM3.49824 1.71819H4.49824V0.718191H3.49824V1.71819ZM2.42868 1.33106L3.09049 2.08073L3.0964 2.07551L3.10224 2.07019L2.42868 1.33106ZM3.81811 0.0649019L3.1636 -0.691145L3.15397 -0.682811L3.14456 -0.674234L3.81811 0.0649019ZM4.17297 0.0649019L4.8452 -0.675437L4.83644 -0.683396L4.82749 -0.691145L4.17297 0.0649019ZM5.5674 1.33106L4.8951 2.07147L4.90559 2.08073L5.5674 1.33106ZM4.49784 2.71819H5.39247V0.718191H4.49784V2.71819ZM5.49784 3.49824V1.71819H3.49784V3.49824H5.49784ZM6.28182 2.49824H4.49784V4.49824H6.28182V2.49824ZM5.28182 2.60361V3.49824H7.28182V2.60361H5.28182ZM7.41862 1.76687C7.04378 1.34227 6.47105 1.25337 6.01207 1.45991C5.56798 1.65975 5.28182 2.10439 5.28182 2.60361H7.28182C7.28182 2.87792 7.11863 3.15513 6.8328 3.28375C6.5321 3.41907 6.15293 3.35516 5.91928 3.09049L7.41862 1.76687ZM8.67424 3.14456L7.40809 1.75512L5.92981 3.10224L7.19597 4.49167L8.67424 3.14456ZM8.69115 4.82749C9.10296 4.3518 9.10296 3.63928 8.69115 3.16359L7.17906 4.47263C6.94032 4.19686 6.94032 3.79422 7.17906 3.51845L8.69115 4.82749ZM7.40929 6.23963L8.67544 4.8452L7.19477 3.50073L5.92861 4.89517L7.40929 6.23963ZM5.28182 5.39247C5.28182 5.89169 5.56798 6.33633 6.01207 6.53617C6.47105 6.74271 7.04378 6.65381 7.41862 6.22921L5.91928 4.90559C6.15293 4.64092 6.5321 4.57701 6.8328 4.71233C7.11863 4.84095 7.28182 5.11816 7.28182 5.39247H5.28182ZM5.28182 4.49784V5.39247H7.28182V4.49784H5.28182ZM4.49784 5.49784H6.28182V3.49784H4.49784V5.49784ZM5.49784 6.28182V4.49784H3.49784V6.28182H5.49784ZM5.39747 5.28182H4.49784V7.28182H5.39747V5.28182ZM6.23421 7.41862C6.66734 7.03625 6.74335 6.45766 6.53659 6.00612C6.33867 5.57387 5.90133 5.28182 5.39747 5.28182V7.28182C5.11352 7.28182 4.84361 7.11273 4.71816 6.83876C4.58387 6.54549 4.63738 6.16046 4.91059 5.91928L6.23421 7.41862ZM4.8502 8.67544L6.24463 7.40929L4.90016 5.92861L3.50573 7.19477L4.8502 8.67544ZM3.16859 8.69115C3.64428 9.10296 4.3568 9.10296 4.83249 8.69115L3.52345 7.17906C3.79922 6.94032 4.20186 6.94032 4.47763 7.17906L3.16859 8.69115ZM1.75645 7.40929L3.15088 8.67544L4.49534 7.19477L3.10091 5.92861L1.75645 7.40929ZM2.60361 5.28182C2.10439 5.28182 1.65975 5.56798 1.45991 6.01207C1.25337 6.47105 1.34227 7.04378 1.76687 7.41862L3.09049 5.91928C3.35516 6.15293 3.41907 6.5321 3.28375 6.8328C3.15513 7.11863 2.87792 7.28182 2.60361 7.28182V5.28182ZM3.49824 5.28182H2.60361V7.28182H3.49824V5.28182ZM2.49824 4.49784V6.28182H4.49824V4.49784H2.49824ZM1.71819 5.49784H3.49824V3.49784H1.71819V5.49784ZM2.71819 5.39747V4.49784H0.718191V5.39747H2.71819ZM0.581384 6.23421C0.963756 6.66734 1.54235 6.74335 1.99389 6.53659C2.42614 6.33867 2.71819 5.90133 2.71819 5.39747H0.718191C0.718191 5.11352 0.887273 4.84361 1.16125 4.71816C1.45452 4.58387 1.83955 4.63739 2.08073 4.91059L0.581384 6.23421ZM-0.675437 4.8502L0.590717 6.24463L2.0714 4.90016L0.805241 3.50573L-0.675437 4.8502ZM-0.691144 3.16859C-1.10295 3.64428 -1.10295 4.3568 -0.691145 4.83248L0.820949 3.52345C1.05968 3.79922 1.05968 4.20186 0.820948 4.47763L-0.691144 3.16859ZM0.590718 1.75645L-0.675437 3.15088L0.805241 4.49534L2.0714 3.10091L0.590718 1.75645ZM2.71819 2.60361C2.71819 2.10439 2.43203 1.65975 1.98793 1.45991C1.52896 1.25337 0.956223 1.34227 0.581384 1.76687L2.08073 3.09049C1.84708 3.35516 1.46791 3.41907 1.16721 3.28375C0.88138 3.15513 0.718191 2.87792 0.718191 2.60361H2.71819ZM2.71819 3.49824V2.60361H0.718191V3.49824H2.71819ZM3.49824 2.49824H1.71819V4.49824H3.49824V2.49824ZM2.49824 1.71819V3.49824H4.49824V1.71819H2.49824ZM2.60361 2.71819H3.49824V0.718191H2.60361V2.71819ZM1.76687 0.581385C1.34227 0.956224 1.25337 1.52896 1.45991 1.98793C1.65975 2.43203 2.10439 2.71819 2.60361 2.71819V0.718191C2.87792 0.718191 3.15513 0.88138 3.28375 1.16721C3.41907 1.46791 3.35516 1.84708 3.09049 2.08073L1.76687 0.581385ZM3.14456 -0.674234L1.75512 0.591921L3.10224 2.07019L4.49167 0.804038L3.14456 -0.674234ZM4.82749 -0.691145C4.3518 -1.10295 3.63928 -1.10295 3.1636 -0.691145L4.47263 0.820949C4.19686 1.05968 3.79422 1.05968 3.51845 0.820949L4.82749 -0.691145ZM6.23963 0.590719L4.8452 -0.675437L3.50073 0.805241L4.89516 2.0714L6.23963 0.590719ZM5.39247 2.71819C5.89169 2.71819 6.33633 2.43203 6.53617 1.98793C6.74271 1.52896 6.65381 0.956223 6.22921 0.581384L4.90559 2.08073C4.64092 1.84708 4.57701 1.46791 4.71233 1.16721C4.84095 0.88138 5.11816 0.718191 5.39247 0.718191V2.71819Z" fill="#1D2830" mask="url(#path-1-inside-1_22851_77937)"/>
</svg>
