<svg width="12" height="14" viewBox="0 0 12 14" fill="none" xmlns="http://www.w3.org/2000/svg">
<path fill-rule="evenodd" clip-rule="evenodd" d="M3.5 0C3.22386 0 3 0.223858 3 0.5V1H1C0.447715 1 0 1.44772 0 2V4V5V13C0 13.5523 0.447715 14 1 14H11C11.5523 14 12 13.5523 12 13V5V4V2C12 1.44772 11.5523 1 11 1H9V0.5C9 0.223858 8.77614 0 8.5 0C8.22386 0 8 0.223858 8 0.5V1H4V0.5C4 0.223858 3.77614 0 3.5 0ZM11 4V2H9V2.5C9 2.77614 8.77614 3 8.5 3C8.22386 3 8 2.77614 8 2.5V2H4V2.5C4 2.77614 3.77614 3 3.5 3C3.22386 3 3 2.77614 3 2.5V2H1L1 4H11ZM1 5L1 13H11V5H1Z" fill="#878787"/>
</svg>
