<svg width="14" height="13" viewBox="0 0 14 13" fill="none" xmlns="http://www.w3.org/2000/svg">
<path d="M14 6.49653L7.61753 0V3.89151H6.87611C5.0395 3.89151 3.31272 4.55544 2.01398 5.76099C0.715242 6.96655 0 8.56944 0 10.2744V13L1.22491 11.7542C2.86343 10.0878 5.1893 9.12386 7.61753 9.10194V12.9932L14 6.49653ZM0.820701 11.0415V10.2744C0.820701 8.77296 1.45057 7.3613 2.59427 6.29965C3.73798 5.23801 5.25864 4.65333 6.87611 4.65333H8.43812V1.96589L12.8894 6.49653L8.43812 11.0273V8.33983H7.70183C5.1114 8.33983 2.62035 9.32124 0.820701 11.0415Z" fill="#878787"/>
</svg>
