<svg width="24" height="24" viewBox="0 0 24 24" fill="none" xmlns="http://www.w3.org/2000/svg">
<path d="M7.81877 21.0105C16.3098 21.0105 20.9531 13.976 20.9531 7.87612C20.9531 7.67633 20.949 7.47737 20.9401 7.2795C21.8413 6.62784 22.6247 5.81464 23.2428 4.88902C22.4157 5.25682 21.5254 5.50408 20.5918 5.61595C21.5448 5.04423 22.2766 4.14021 22.6217 3.06255C21.7297 3.59134 20.7419 3.97551 19.6904 4.18301C18.848 3.28573 17.6486 2.72461 16.3207 2.72461C13.7715 2.72461 11.7041 4.79188 11.7041 7.34018C11.7041 7.70261 11.7447 8.05486 11.8238 8.3928C7.98719 8.19975 4.58495 6.36296 2.3084 3.56973C1.91212 4.2518 1.68343 5.04437 1.68343 5.89004C1.68343 7.4914 2.49842 8.90549 3.73763 9.73245C2.98029 9.7092 2.26891 9.50129 1.64697 9.15523C1.64628 9.17463 1.64628 9.19348 1.64628 9.21412C1.64628 11.4498 3.23746 13.3165 5.34999 13.7394C4.96197 13.845 4.55372 13.9018 4.13267 13.9018C3.83573 13.9018 3.54623 13.8726 3.26498 13.8186C3.85266 15.6527 5.55694 16.9874 7.57742 17.0248C5.99739 18.2632 4.00704 19.0009 1.84387 19.0009C1.47181 19.0009 1.10401 18.9796 0.742676 18.9369C2.78572 20.2464 5.21171 21.0106 7.81891 21.0106" fill="#878787"/>
</svg>
