<svg width="16" height="16" viewBox="0 0 16 16" fill="none" xmlns="http://www.w3.org/2000/svg">
<path fill-rule="evenodd" clip-rule="evenodd" d="M8.20558 3.5056C8.13748 3.50188 8.06893 3.5 8 3.5C6.03856 3.5 4.38889 5.02505 4.38889 6.94737H4.88889L4.38889 6.94738V6.94742V6.94747V6.94756V6.94766V6.94779V6.94794V6.94812V6.94832V6.94854V6.94879V6.94906V6.94935V6.94966V6.95V6.95036V6.95074V6.95115V6.95158V6.95203V6.95251V6.953V6.95352V6.95407V6.95463V6.95522V6.95583V6.95646V6.95712V6.95779V6.95849V6.95922V6.95996V6.96073V6.96151V6.96232V6.96316V6.96401V6.96489V6.96579V6.96671V6.96765V6.96861V6.9696V6.9706V6.97163V6.97268V6.97375V6.97485V6.97596V6.9771V6.97825V6.97943V6.98063V6.98185V6.9831V6.98436V6.98564V6.98695V6.98828V6.98962V6.99099V6.99238V6.99379V6.99522V6.99667V6.99815V6.99964V7.00115V7.00269V7.00424V7.00582V7.00741V7.00903V7.01066V7.01232V7.014V7.01569V7.01741V7.01915V7.02091V7.02268V7.02448V7.0263V7.02814V7.02999V7.03187V7.03377V7.03568V7.03762V7.03957V7.04155V7.04354V7.04556V7.04759V7.04965V7.05172V7.05381V7.05592V7.05805V7.0602V7.06237V7.06456V7.06676V7.06899V7.07123V7.0735V7.07578V7.07808V7.0804V7.08274V7.0851V7.08748V7.08987V7.09228V7.09472V7.09717V7.09964V7.10212V7.10463V7.10715V7.10969V7.11226V7.11483V7.11743V7.12005V7.12268V7.12533V7.128V7.13068V7.13339V7.13611V7.13885V7.14161V7.14439V7.14718V7.14999V7.15282V7.15566V7.15853V7.16141V7.16431V7.16722V7.17015V7.1731V7.17607V7.17906V7.18206V7.18508V7.18811V7.19116V7.19423V7.19732V7.20042V7.20354V7.20668V7.20983V7.213V7.21619V7.21939V7.22261V7.22585V7.2291V7.23237V7.23566V7.23896V7.24228V7.24561V7.24896V7.25233V7.25571V7.25911V7.26252V7.26595V7.2694V7.27286V7.27634V7.27984V7.28335V7.28687V7.29041V7.29397V7.29754V7.30113V7.30473V7.30835V7.31199V7.31564V7.3193V7.32298V7.32668V7.33039V7.33411V7.33785V7.34161V7.34538V7.34916V7.35297V7.35678V7.36061V7.36446V7.36832V7.37219V7.37608V7.37998V7.3839V7.38783V7.39178V7.39574V7.39972V7.40371V7.40771V7.41173V7.41576V7.41981V7.42387V7.42795V7.43203V7.43614V7.44026V7.44439V7.44853V7.45269V7.45686V7.46105V7.46525V7.46946V7.47369V7.47793V7.48218V7.48645V7.49073V7.49502V7.49933V7.50365V7.50799V7.51233V7.51669V7.52107V7.52545V7.52985V7.53426V7.53869V7.54313V7.54758V7.55204V7.55652V7.56101V7.56551V7.57002V7.57455V7.57909V7.58364V7.5882V7.59278V7.59737V7.60197V7.60658V7.61121V7.61585V7.6205V7.62516V7.62983V7.63452V7.63922V7.64393V7.64865V7.65338V7.65813V7.66288V7.66765V7.67243V7.67722V7.68203V7.68684V7.69167V7.6965V7.70135V7.70621V7.71108V7.71597V7.72086V7.72577V7.73068V7.73561V7.74055V7.7455V7.75046V7.75543V7.76041V7.7654V7.77041V7.77542V7.78045V7.78548V7.79053V7.79558V7.80065V7.80573V7.81081V7.81591V7.82102V7.82614V7.83127V7.83641V7.84156V7.84671V7.85188V7.85706V7.86225V7.86745V7.87266V7.87788V7.88311V7.88834V7.89359V7.89885V7.90412V7.90939V7.91468V7.91997V7.92528V7.93059V7.93592V7.94125V7.94659V7.95194V7.9573V7.96267V7.96805V7.97344V7.97884V7.98424V7.98966V7.99508V8.00051V8.00595V8.0114V8.01686V8.02233V8.0278V8.03329V8.03878V8.04428V8.04979V8.05531V8.06083V8.06637V8.07191V8.07746V8.08302V8.08858V8.09416V8.09974V8.10533V8.11093V8.11654V8.12215V8.12777V8.1334V8.13904V8.14469V8.15034V8.156V8.16167V8.16734V8.17303V8.17872V8.18441V8.19012V8.19583V8.20155V8.20727V8.21301V8.21875V8.2245V8.23025V8.23601V8.24178V8.24756V8.25334V8.25913V8.26492V8.27072V8.27653V8.28235V8.28817V8.294V8.29983V8.30567V8.31152V8.31738V8.32324V8.3291V8.33497V8.34085V8.34674V8.35263V8.35853V8.36443V8.37034V8.37625V8.38217V8.3881V8.39403V8.39997V8.40591V8.41186V8.41781V8.42377V8.42974V8.43571V8.44169V8.44767V8.45366V8.45965V8.46564V8.47165V8.47765V8.48367V8.48969V8.49571V8.50174V8.50777V8.51381V8.51985V8.5259V8.53195V8.538V8.54406V8.55013V8.5562V8.56228V8.56835V8.57444V8.58053V8.58662V8.59271V8.59882V8.60492V8.61103V8.61714V8.62326V8.62938V8.63551V8.64164V8.64777V8.65391V8.66005V8.66619V8.67234V8.67849V8.68465V8.69081V8.69697V8.70313V8.7093V8.71548V8.72165V8.72783V8.73402V8.7402V8.74639V8.75258V8.75878V8.76498V8.77118V8.77738V8.78359V8.7898V8.79601V8.80223V8.80845V8.81467V8.82089V8.82712V8.83335V8.83958V8.84581V8.85205V8.85829V8.86453V8.87077V8.87702V8.88327V8.88952V8.89577V8.90202V8.90828V8.91454V8.9208V8.92706V8.93332V8.93959V8.94586V8.95213V8.9584V8.96467V8.97094V8.97722V8.9835V8.98978V8.99606V9.00234V9.00862V9.0149V9.02119V9.02748V9.03376V9.04005V9.04634V9.05263C4.38889 9.80867 4.18878 10.478 3.98382 10.9634C3.88188 11.2049 3.78035 11.397 3.70558 11.5268C3.66826 11.5917 3.63779 11.6406 3.61754 11.6722C3.60742 11.6879 3.59987 11.6993 3.59532 11.706L3.59093 11.7125L3.5908 11.7127L3.59062 11.7129L3.59053 11.7131L3.59037 11.7133C3.48362 11.8658 3.47043 12.0651 3.55623 12.2304C3.64222 12.396 3.81334 12.5 4 12.5H6.58592C6.79261 13.0816 7.34903 13.5 8 13.5C8.65097 13.5 9.20739 13.0816 9.41409 12.5H12C12.1867 12.5 12.3578 12.396 12.4438 12.2304C12.5297 12.0648 12.5163 11.8651 12.4091 11.7125L12.4089 11.7123L12.4047 11.706C12.4001 11.6993 12.3926 11.6879 12.3825 11.6722C12.3622 11.6406 12.3317 11.5917 12.2944 11.5268C12.2197 11.397 12.1181 11.2049 12.0162 10.9634C11.8112 10.478 11.6111 9.80867 11.6111 9.05263V9.04634V9.04005V9.03376V9.02748V9.02119V9.0149V9.00862V9.00234V8.99606V8.98978V8.9835V8.97722V8.97094V8.96467V8.9584V8.95213V8.94586V8.93959V8.93332V8.92706V8.9208V8.91454V8.90828V8.90202V8.89577V8.88952V8.88327V8.87702V8.87077V8.86453V8.85829V8.85205V8.84581V8.83958V8.83335V8.82712V8.82089V8.81467V8.80845V8.80223V8.79601V8.7898V8.78359V8.77738V8.77118V8.76498V8.75878V8.75258V8.74639V8.7402V8.73402V8.72783V8.72165V8.71548V8.7093V8.70313V8.69697V8.69081V8.68465V8.67849V8.67234V8.66619V8.66005V8.65391V8.64777V8.64164V8.63551V8.62938V8.62326V8.61714V8.61103V8.60492V8.59882V8.59271V8.58662V8.58053V8.57444V8.56835V8.56228V8.5562V8.55013V8.54406V8.538V8.53195V8.5259V8.51985V8.51381V8.50777V8.50174V8.49571V8.48969V8.48367V8.47765V8.47165V8.46564V8.45965V8.45366V8.44767V8.44169V8.43571V8.42974V8.42377V8.41781V8.41186V8.40591V8.39997V8.39403V8.3881V8.38217V8.37625V8.37034V8.36443V8.35853V8.35263V8.34674V8.34085V8.33497V8.3291V8.32324V8.31738V8.31152V8.30567V8.29983V8.294V8.28817V8.28235V8.27653V8.27072V8.26492V8.25913V8.25334V8.24756V8.24178V8.23601V8.23025V8.2245V8.21875V8.21301V8.20727V8.20155V8.19583V8.19012V8.18441V8.17872V8.17303V8.16734V8.16167V8.156V8.15034V8.14469V8.13904V8.1334V8.12777V8.12215V8.11654V8.11093V8.10533V8.09974V8.09416V8.08858V8.08302V8.07746V8.07191V8.06637V8.06083V8.05531V8.04979V8.04428V8.03878V8.03329V8.0278V8.02233V8.01686V8.0114V8.00595V8.00051V7.99508V7.98966V7.98424V7.97884V7.97344V7.96805V7.96267V7.9573V7.95194V7.94659V7.94125V7.93592V7.93059V7.92528V7.91997V7.91468V7.90939V7.90412V7.89885V7.89359V7.88834V7.88311V7.87788V7.87266V7.86745V7.86225V7.85706V7.85188V7.84671V7.84156V7.83641V7.83127V7.82614V7.82102V7.81591V7.81081V7.80573V7.80065V7.79558V7.79053V7.78548V7.78045V7.77542V7.77041V7.7654V7.76041V7.75543V7.75046V7.7455V7.74055V7.73561V7.73068V7.72577V7.72086V7.71597V7.71108V7.70621V7.70135V7.6965V7.69167V7.68684V7.68203V7.67722V7.67243V7.66765V7.66288V7.65813V7.65338V7.64865V7.64393V7.63922V7.63452V7.62983V7.62516V7.6205V7.61585V7.61121V7.60658V7.60197V7.59737V7.59278V7.5882V7.58364V7.57909V7.57455V7.57002V7.56551V7.56101V7.55652V7.55204V7.54758V7.54313V7.53869V7.53426V7.52985V7.52545V7.52107V7.51669V7.51233V7.50799V7.50365V7.49933V7.49502V7.49073V7.48645V7.48218V7.47793V7.47369V7.46946V7.46525V7.46105V7.45686V7.45269V7.44853V7.44439V7.44026V7.43614V7.43203V7.42795V7.42387V7.41981V7.41576V7.41173V7.40771V7.40371V7.39972V7.39574V7.39178V7.38783V7.3839V7.37998V7.37608V7.37219V7.36832V7.36446V7.36061V7.35678V7.35297V7.34916V7.34538V7.34161V7.33785V7.33411V7.33039V7.32668V7.32298V7.3193V7.31564V7.31199V7.30835V7.30473V7.30113V7.29754V7.29397V7.29041V7.28687V7.28335V7.27984V7.27634V7.27286V7.2694V7.26595V7.26252V7.25911V7.25571V7.25233V7.24896V7.24561V7.24228V7.23896V7.23566V7.23237V7.2291V7.22585V7.22261V7.21939V7.21619V7.213V7.20983V7.20668V7.20354V7.20042V7.19732V7.19423V7.19116V7.18811V7.18508V7.18206V7.17906V7.17607V7.1731V7.17015V7.16722V7.16431V7.16141V7.15853V7.15566V7.15282V7.14999V7.14718V7.14439V7.14161V7.13885V7.13611V7.13339V7.13068V7.128V7.12533V7.12268V7.12005V7.11743V7.11483V7.11226V7.10969V7.10715V7.10463V7.10212V7.09964V7.09717V7.09472V7.09228V7.08987V7.08748V7.0851V7.08274V7.0804V7.07808V7.07578V7.0735V7.07123V7.06899V7.06676V7.06456V7.06237V7.0602V7.05805V7.05592V7.05381V7.05172V7.04965V7.04759V7.04556V7.04354V7.04155V7.03957V7.03762V7.03568V7.03377V7.03187V7.02999V7.02814V7.0263V7.02448V7.02268V7.02091V7.01915V7.01741V7.01569V7.014V7.01232V7.01066V7.00903V7.00741V7.00582V7.00424V7.00269V7.00115V6.99964V6.99815V6.99667V6.99522V6.99379V6.99238V6.99099V6.98962V6.98828V6.98695V6.98564V6.98436V6.9831V6.98185V6.98063V6.97943V6.97825V6.9771V6.97596V6.97485V6.97375V6.97268V6.97163V6.9706V6.9696V6.96861V6.96765V6.96671V6.96579V6.96489V6.96401V6.96316V6.96232V6.96151V6.96073V6.95996V6.95922V6.95849V6.95779V6.95712V6.95646V6.95583V6.95522V6.95463V6.95407V6.95352V6.953V6.95251V6.95203V6.95158V6.95115V6.95074V6.95036V6.95V6.94966V6.94935V6.94906V6.94879V6.94854V6.94832V6.94812V6.94794V6.94779V6.94766V6.94756V6.94747V6.94742V6.94737C11.6111 6.8788 11.609 6.81073 11.6049 6.74322C11.4193 6.83479 11.2208 6.904 11.0127 6.94737H11.1111L11.0127 6.94737C10.8823 6.97456 10.7481 6.99158 10.6111 6.99758V6.99815V6.99964V7.00115V7.00269V7.00424V7.00582V7.00741V7.00903V7.01066V7.01232V7.014V7.01569V7.01741V7.01915V7.02091V7.02268V7.02448V7.0263V7.02814V7.02999V7.03187V7.03377V7.03568V7.03762V7.03957V7.04155V7.04354V7.04556V7.04759V7.04965V7.05172V7.05381V7.05592V7.05805V7.0602V7.06237V7.06456V7.06676V7.06899V7.07123V7.0735V7.07578V7.07808V7.0804V7.08274V7.0851V7.08748V7.08987V7.09228V7.09472V7.09717V7.09964V7.10212V7.10463V7.10715V7.10969V7.11226V7.11483V7.11743V7.12005V7.12268V7.12533V7.128V7.13068V7.13339V7.13611V7.13885V7.14161V7.14439V7.14718V7.14999V7.15282V7.15566V7.15853V7.16141V7.16431V7.16722V7.17015V7.1731V7.17607V7.17906V7.18206V7.18508V7.18811V7.19116V7.19423V7.19732V7.20042V7.20354V7.20668V7.20983V7.213V7.21619V7.21939V7.22261V7.22585V7.2291V7.23237V7.23566V7.23896V7.24228V7.24561V7.24896V7.25233V7.25571V7.25911V7.26252V7.26595V7.2694V7.27286V7.27634V7.27984V7.28335V7.28687V7.29041V7.29397V7.29754V7.30113V7.30473V7.30835V7.31199V7.31564V7.3193V7.32298V7.32668V7.33039V7.33411V7.33785V7.34161V7.34538V7.34916V7.35297V7.35678V7.36061V7.36446V7.36832V7.37219V7.37608V7.37998V7.3839V7.38783V7.39178V7.39574V7.39972V7.40371V7.40771V7.41173V7.41576V7.41981V7.42387V7.42795V7.43203V7.43614V7.44026V7.44439V7.44853V7.45269V7.45686V7.46105V7.46525V7.46946V7.47369V7.47793V7.48218V7.48645V7.49073V7.49502V7.49933V7.50365V7.50799V7.51233V7.51669V7.52107V7.52545V7.52985V7.53426V7.53869V7.54313V7.54758V7.55204V7.55652V7.56101V7.56551V7.57002V7.57455V7.57909V7.58364V7.5882V7.59278V7.59737V7.60197V7.60658V7.61121V7.61585V7.6205V7.62516V7.62983V7.63452V7.63922V7.64393V7.64865V7.65338V7.65813V7.66288V7.66765V7.67243V7.67722V7.68203V7.68684V7.69167V7.6965V7.70135V7.70621V7.71108V7.71597V7.72086V7.72577V7.73068V7.73561V7.74055V7.7455V7.75046V7.75543V7.76041V7.7654V7.77041V7.77542V7.78045V7.78548V7.79053V7.79558V7.80065V7.80573V7.81081V7.81591V7.82102V7.82614V7.83127V7.83641V7.84156V7.84671V7.85188V7.85706V7.86225V7.86745V7.87266V7.87788V7.88311V7.88834V7.89359V7.89885V7.90412V7.90939V7.91468V7.91997V7.92528V7.93059V7.93592V7.94125V7.94659V7.95194V7.9573V7.96267V7.96805V7.97344V7.97884V7.98424V7.98966V7.99508V8.00051V8.00595V8.0114V8.01686V8.02233V8.0278V8.03329V8.03878V8.04428V8.04979V8.05531V8.06083V8.06637V8.07191V8.07746V8.08302V8.08858V8.09416V8.09974V8.10533V8.11093V8.11654V8.12215V8.12777V8.1334V8.13904V8.14469V8.15034V8.156V8.16167V8.16734V8.17303V8.17872V8.18441V8.19012V8.19583V8.20155V8.20727V8.21301V8.21875V8.2245V8.23025V8.23601V8.24178V8.24756V8.25334V8.25913V8.26492V8.27072V8.27653V8.28235V8.28817V8.294V8.29983V8.30567V8.31152V8.31738V8.32324V8.3291V8.33497V8.34085V8.34674V8.35263V8.35853V8.36443V8.37034V8.37625V8.38217V8.3881V8.39403V8.39997V8.40591V8.41186V8.41781V8.42377V8.42974V8.43571V8.44169V8.44767V8.45366V8.45965V8.46564V8.47165V8.47765V8.48367V8.48969V8.49571V8.50174V8.50777V8.51381V8.51985V8.5259V8.53195V8.538V8.54406V8.55013V8.5562V8.56228V8.56835V8.57444V8.58053V8.58662V8.59271V8.59882V8.60492V8.61103V8.61714V8.62326V8.62938V8.63551V8.64164V8.64777V8.65391V8.66005V8.66619V8.67234V8.67849V8.68465V8.69081V8.69697V8.70313V8.7093V8.71548V8.72165V8.72783V8.73402V8.7402V8.74639V8.75258V8.75878V8.76498V8.77118V8.77738V8.78359V8.7898V8.79601V8.80223V8.80845V8.81467V8.82089V8.82712V8.83335V8.83958V8.84581V8.85205V8.85829V8.86453V8.87077V8.87702V8.88327V8.88952V8.89577V8.90202V8.90828V8.91454V8.9208V8.92706V8.93332V8.93959V8.94586V8.95213V8.9584V8.96467V8.97094V8.97722V8.9835V8.98978V8.99606V9.00234V9.00862V9.0149V9.02119V9.02748V9.03376V9.04005V9.04634V9.05263C10.6111 9.98081 10.8554 10.7852 11.0949 11.3524C11.1165 11.4034 11.138 11.4526 11.1594 11.5H9H7H4.84056C4.86197 11.4526 4.88353 11.4034 4.90507 11.3524C5.14456 10.7852 5.38889 9.98081 5.38889 9.05263V9.04634V9.04005V9.03376V9.02748V9.02119V9.0149V9.00862V9.00234V8.99606V8.98978V8.9835V8.97722V8.97094V8.96467V8.9584V8.95213V8.94586V8.93959V8.93332V8.92706V8.9208V8.91454V8.90828V8.90202V8.89577V8.88952V8.88327V8.87702V8.87077V8.86453V8.85829V8.85205V8.84581V8.83958V8.83335V8.82712V8.82089V8.81467V8.80845V8.80223V8.79601V8.7898V8.78359V8.77738V8.77118V8.76498V8.75878V8.75258V8.74639V8.7402V8.73402V8.72783V8.72165V8.71548V8.7093V8.70313V8.69697V8.69081V8.68465V8.67849V8.67234V8.66619V8.66005V8.65391V8.64777V8.64164V8.63551V8.62938V8.62326V8.61714V8.61103V8.60492V8.59882V8.59271V8.58662V8.58053V8.57444V8.56835V8.56228V8.5562V8.55013V8.54406V8.538V8.53195V8.5259V8.51985V8.51381V8.50777V8.50174V8.49571V8.48969V8.48367V8.47765V8.47165V8.46564V8.45965V8.45366V8.44767V8.44169V8.43571V8.42974V8.42377V8.41781V8.41186V8.40591V8.39997V8.39403V8.3881V8.38217V8.37625V8.37034V8.36443V8.35853V8.35263V8.34674V8.34085V8.33497V8.3291V8.32324V8.31738V8.31152V8.30567V8.29983V8.294V8.28817V8.28235V8.27653V8.27072V8.26492V8.25913V8.25334V8.24756V8.24178V8.23601V8.23025V8.2245V8.21875V8.21301V8.20727V8.20155V8.19583V8.19012V8.18441V8.17872V8.17303V8.16734V8.16167V8.156V8.15034V8.14469V8.13904V8.1334V8.12777V8.12215V8.11654V8.11093V8.10533V8.09974V8.09416V8.08858V8.08302V8.07746V8.07191V8.06637V8.06083V8.05531V8.04979V8.04428V8.03878V8.03329V8.0278V8.02233V8.01686V8.0114V8.00595V8.00051V7.99508V7.98966V7.98424V7.97884V7.97344V7.96805V7.96267V7.9573V7.95194V7.94659V7.94125V7.93592V7.93059V7.92528V7.91997V7.91468V7.90939V7.90412V7.89885V7.89359V7.88834V7.88311V7.87788V7.87266V7.86745V7.86225V7.85706V7.85188V7.84671V7.84156V7.83641V7.83127V7.82614V7.82102V7.81591V7.81081V7.80573V7.80065V7.79558V7.79053V7.78548V7.78045V7.77542V7.77041V7.7654V7.76041V7.75543V7.75046V7.7455V7.74055V7.73561V7.73068V7.72577V7.72086V7.71597V7.71108V7.70621V7.70135V7.6965V7.69167V7.68684V7.68203V7.67722V7.67243V7.66765V7.66288V7.65813V7.65338V7.64865V7.64393V7.63922V7.63452V7.62983V7.62516V7.6205V7.61585V7.61121V7.60658V7.60197V7.59737V7.59278V7.5882V7.58364V7.57909V7.57455V7.57002V7.56551V7.56101V7.55652V7.55204V7.54758V7.54313V7.53869V7.53426V7.52985V7.52545V7.52107V7.51669V7.51233V7.50799V7.50365V7.49933V7.49502V7.49073V7.48645V7.48218V7.47793V7.47369V7.46946V7.46525V7.46105V7.45686V7.45269V7.44853V7.44439V7.44026V7.43614V7.43203V7.42795V7.42387V7.41981V7.41576V7.41173V7.40771V7.40371V7.39972V7.39574V7.39178V7.38783V7.3839V7.37998V7.37608V7.37219V7.36832V7.36446V7.36061V7.35678V7.35297V7.34916V7.34538V7.34161V7.33785V7.33411V7.33039V7.32668V7.32298V7.3193V7.31564V7.31199V7.30835V7.30473V7.30113V7.29754V7.29397V7.29041V7.28687V7.28335V7.27984V7.27634V7.27286V7.2694V7.26595V7.26252V7.25911V7.25571V7.25233V7.24896V7.24561V7.24228V7.23896V7.23566V7.23237V7.2291V7.22585V7.22261V7.21939V7.21619V7.213V7.20983V7.20668V7.20354V7.20042V7.19732V7.19423V7.19116V7.18811V7.18508V7.18206V7.17906V7.17607V7.1731V7.17015V7.16722V7.16431V7.16141V7.15853V7.15566V7.15282V7.14999V7.14718V7.14439V7.14161V7.13885V7.13611V7.13339V7.13068V7.128V7.12533V7.12268V7.12005V7.11743V7.11483V7.11226V7.10969V7.10715V7.10463V7.10212V7.09964V7.09717V7.09472V7.09228V7.08987V7.08748V7.0851V7.08274V7.0804V7.07808V7.07578V7.0735V7.07123V7.06899V7.06676V7.06456V7.06237V7.0602V7.05805V7.05592V7.05381V7.05172V7.04965V7.04759V7.04556V7.04354V7.04155V7.03957V7.03762V7.03568V7.03377V7.03187V7.02999V7.02814V7.0263V7.02448V7.02268V7.02091V7.01915V7.01741V7.01569V7.014V7.01232V7.01066V7.00903V7.00741V7.00582V7.00424V7.00269V7.00115V6.99964V6.99815V6.99667V6.99522V6.99379V6.99238V6.99099V6.98962V6.98828V6.98695V6.98564V6.98436V6.9831V6.98185V6.98063V6.97943V6.97825V6.9771V6.97596V6.97485V6.97375V6.97268V6.97163V6.9706V6.9696V6.96861V6.96765V6.96671V6.96579V6.96489V6.96401V6.96316V6.96232V6.96151V6.96073V6.95996V6.95922V6.95849V6.95779V6.95712V6.95646V6.95583V6.95522V6.95463V6.95407V6.95352V6.953V6.95251V6.95203V6.95158V6.95115V6.95074V6.95036V6.95V6.94966V6.94935V6.94906V6.94879V6.94854V6.94832V6.94812V6.94794V6.94779V6.94766V6.94756V6.94747V6.94742V6.94738L4.88889 6.94737H5.38889C5.38889 5.62759 6.53922 4.5 8 4.5C8 4.14661 8.07332 3.81035 8.20558 3.5056Z" fill="#64727D"/>
<path d="M12 4.5C12 5.32843 11.3284 6 10.5 6C9.67157 6 9 5.32843 9 4.5C9 3.67157 9.67157 3 10.5 3C11.3284 3 12 3.67157 12 4.5Z" fill="#13AA57"/>
</svg>
