<svg width="16" height="16" viewBox="0 0 16 16" fill="none" xmlns="http://www.w3.org/2000/svg">
<path fill-rule="evenodd" clip-rule="evenodd" d="M8.5 3.6012C8.5 3.06667 9.14628 2.79896 9.52426 3.17694L13.7828 7.43552C14.0172 7.66983 14.0172 8.04973 13.7828 8.28405L9.52426 12.5426C9.14628 12.9206 8.5 12.6529 8.5 12.1184V9.88846C7.53616 9.99689 6.56471 10.4018 5.69101 10.9157C4.67139 11.5155 3.82936 12.2375 3.35355 12.7133L2.75607 13.3108C2.66157 13.4053 2.5 13.3384 2.5 13.2048V12.3598C2.5 9.60965 3.56967 7.94776 4.96884 6.99632C6.13328 6.2045 7.47792 5.93685 8.5 5.87503V3.6012ZM9.5 4.56689V6.85978H9C8.05031 6.85978 6.6648 7.05237 5.53116 7.82325C4.62354 8.44042 3.83182 9.45836 3.58187 11.1697C4.03704 10.801 4.58116 10.4084 5.18399 10.0538C6.28384 9.40684 7.62411 8.85978 9 8.85978H9.5V11.1527L12.7929 7.85978L9.5 4.56689Z" fill="#64727D"/>
</svg>
