<svg width="24" height="24" viewBox="0 0 24 24" fill="none" xmlns="http://www.w3.org/2000/svg">
<g clip-path="url(#clip0)">
<path fill-rule="evenodd" clip-rule="evenodd" d="M6 9.5C6 5.91015 8.91015 3 12.5 3C16.0899 3 19 5.91015 19 9.5C19 13.0899 16.0899 16 12.5 16C8.91015 16 6 13.0899 6 9.5ZM12.5 1C7.80558 1 4 4.80558 4 9.5C4 12.0972 5.16487 14.4224 7.00067 15.9815C7.00055 15.9879 7.00049 15.9942 7.00049 16.0006V23C7.00049 23.3418 7.17504 23.6599 7.46333 23.8435C7.75161 24.0271 8.11369 24.0507 8.4234 23.9062L12.4999 22.0036L16.5777 23.9062C16.8874 24.0507 17.2494 24.027 17.5377 23.8434C17.826 23.6599 18.0005 23.3418 18.0005 23V16C18.0005 15.9936 18.0004 15.9871 18.0003 15.9807C19.8355 14.4216 21 12.0968 21 9.5C21 4.80558 17.1944 1 12.5 1ZM16.0005 17.248C14.933 17.7311 13.7479 18 12.5 18C11.2525 18 10.0677 17.7312 9.00049 17.2485V21.4297L12.0769 19.994C12.3449 19.8689 12.6546 19.8689 12.9226 19.9939L16.0005 21.4299V17.248ZM12.5 6C10.567 6 9 7.567 9 9.5C9 11.433 10.567 13 12.5 13C14.433 13 16 11.433 16 9.5C16 7.567 14.433 6 12.5 6ZM7 9.5C7 6.46243 9.46243 4 12.5 4C15.5376 4 18 6.46243 18 9.5C18 12.5376 15.5376 15 12.5 15C9.46243 15 7 12.5376 7 9.5Z" fill="#CACFD3"/>
</g>
<defs>
<clipPath id="clip0">
<rect width="24" height="24" fill="white"/>
</clipPath>
</defs>
</svg>