<svg width="24" height="24" viewBox="0 0 24 24" fill="none" xmlns="http://www.w3.org/2000/svg">
<path fill-rule="evenodd" clip-rule="evenodd" d="M8.21053 2C8.21053 1.44772 7.76281 1 7.21053 1C6.65824 1 6.21053 1.44772 6.21053 2V3H3.8134C2.86084 3 2 3.74596 2 4.77273V8V20.2273C2 21.254 2.86084 22 3.8134 22H20.0813C21.0339 22 21.8947 21.254 21.8947 20.2273V4.77273C21.8947 3.74596 21.0339 3 20.0813 3H17.6842V2C17.6842 1.44772 17.2365 1 16.6842 1C16.1319 1 15.6842 1.44772 15.6842 2V3H8.21053V2ZM6.21053 5C6.21053 5.55228 6.65824 6 7.21053 6C7.76281 6 8.21053 5.55228 8.21053 5H15.6842C15.6842 5.55228 16.1319 6 16.6842 6C17.2365 6 17.6842 5.55228 17.6842 5H19.8947V7.00136C19.8773 7.00046 19.8598 7 19.8421 7H4V5H6.21053ZM4 9V20H19.8947V8.99864C19.8773 8.99954 19.8598 9 19.8421 9H4ZM16.1053 12C16.1053 11.6256 15.8962 11.2826 15.5634 11.1111C15.2306 10.9396 14.8299 10.9683 14.525 11.1856L12.946 12.3106C12.4962 12.6311 12.3914 13.2555 12.7119 13.7053C13.0321 14.1546 13.6556 14.2597 14.1053 13.9404V16.875C14.1053 17.4273 14.553 17.875 15.1053 17.875C15.6575 17.875 16.1053 17.4273 16.1053 16.875V12ZM8.26316 11C7.71087 11 7.26316 11.4477 7.26316 12C7.26316 12.5523 7.71087 13 8.26316 13H8.87687L8.68246 13.2309C8.43192 13.5284 8.37662 13.9442 8.54069 14.2968C8.70476 14.6495 9.05842 14.875 9.44737 14.875C9.55147 14.875 9.65178 14.8995 9.73888 14.9437C9.82579 14.9879 9.89435 15.0488 9.94223 15.1169C9.98987 15.1846 10.0165 15.2582 10.024 15.331C10.0316 15.4036 10.0205 15.4782 9.98953 15.5492C9.95843 15.6206 9.90684 15.6892 9.83435 15.7457C9.76162 15.8025 9.67116 15.8444 9.57 15.8635C9.46877 15.8827 9.364 15.8777 9.26625 15.8496C9.16861 15.8215 9.08464 15.7723 9.01987 15.7109C8.61924 15.3307 7.98629 15.3474 7.60615 15.748C7.226 16.1486 7.24262 16.7816 7.64326 17.1617C7.94587 17.4489 8.31409 17.6568 8.71341 17.7717C9.11261 17.8865 9.53424 17.9059 9.94222 17.8286C10.3503 17.7513 10.7361 17.5789 11.0647 17.3226C11.3934 17.066 11.6556 16.7324 11.8231 16.348C11.9907 15.9632 12.0568 15.5425 12.0133 15.1243C11.9699 14.7061 11.8188 14.3084 11.5779 13.966C11.4437 13.7752 11.284 13.6051 11.1047 13.4594L11.7912 12.6441C12.0418 12.3466 12.0971 11.9308 11.933 11.5782C11.7689 11.2255 11.4153 11 11.0263 11H8.26316Z" fill="#F7F9FA"/>
</svg>