<svg width="24" height="24" viewBox="0 0 24 24" fill="none" xmlns="http://www.w3.org/2000/svg">
<path fill-rule="evenodd" clip-rule="evenodd" d="M4.05273 4.05273V19.9475H13.633C13.632 19.93 13.6316 19.9125 13.6316 19.8948V14.6317C13.6316 14.0794 14.0793 13.6317 14.6316 13.6317H19.8947C19.9124 13.6317 19.93 13.6321 19.9475 13.633V4.05273H4.05273ZM19.1553 15.6317L15.6316 19.1554V15.6317H19.1553ZM2.58387 2.58387C2.92394 2.24379 3.38519 2.05273 3.86613 2.05273H20.1341C20.615 2.05273 21.0763 2.24379 21.4163 2.58387C21.7564 2.92395 21.9475 3.38519 21.9475 3.86613V14.9168C21.9475 15.1549 21.9006 15.3907 21.8094 15.6107C21.7183 15.8307 21.5847 16.0306 21.4163 16.199L16.199 21.4163C16.0306 21.5847 15.8307 21.7183 15.6107 21.8094C15.3907 21.9006 15.1549 21.9475 14.9168 21.9475H3.86613C3.38519 21.9475 2.92395 21.7564 2.58387 21.4163C2.24379 21.0763 2.05273 20.615 2.05273 20.1341V3.86613C2.05273 3.38519 2.24379 2.92394 2.58387 2.58387ZM8.31592 13.6317C7.76363 13.6317 7.31592 14.0794 7.31592 14.6317C7.31592 15.184 7.76363 15.6317 8.31592 15.6317H11.4738C12.0261 15.6317 12.4738 15.184 12.4738 14.6317C12.4738 14.0794 12.0261 13.6317 11.4738 13.6317H8.31592ZM7.31592 11.4738C7.31592 10.9215 7.76363 10.4738 8.31592 10.4738H14.6317C15.184 10.4738 15.6317 10.9215 15.6317 11.4738C15.6317 12.0261 15.184 12.4738 14.6317 12.4738H8.31592C7.76363 12.4738 7.31592 12.0261 7.31592 11.4738ZM8.31592 7.31589C7.76363 7.31589 7.31592 7.76361 7.31592 8.31589C7.31592 8.86818 7.76363 9.31589 8.31592 9.31589H14.6317C15.184 9.31589 15.6317 8.86818 15.6317 8.31589C15.6317 7.76361 15.184 7.31589 14.6317 7.31589H8.31592Z" fill="#CACFD3"/>
</svg>