<svg width="15" height="17" viewBox="0 0 15 17" fill="none" xmlns="http://www.w3.org/2000/svg">
<path fill-rule="evenodd" clip-rule="evenodd" d="M7.84264 0.0095229C7.72913 0.00320213 7.61489 0 7.5 0C4.23094 0 1.48148 2.59258 1.48148 5.86053H2.31482L1.48148 5.86055V5.86061V5.86071V5.86085V5.86103V5.86125V5.86151V5.8618V5.86214V5.86252V5.86294V5.86339V5.86389V5.86443V5.865V5.86561V5.86626V5.86696V5.86769V5.86845V5.86926V5.87011V5.87099V5.87191V5.87287V5.87387V5.87491V5.87599V5.8771V5.87825V5.87944V5.88067V5.88193V5.88323V5.88457V5.88595V5.88737V5.88882V5.89031V5.89184V5.8934V5.895V5.89664V5.89831V5.90002V5.90177V5.90356V5.90538V5.90724V5.90913V5.91106V5.91303V5.91504V5.91708V5.91915V5.92126V5.92341V5.92559V5.92781V5.93007V5.93236V5.93469V5.93705V5.93945V5.94188V5.94435V5.94685V5.94939V5.95196V5.95457V5.95721V5.95989V5.9626V5.96535V5.96813V5.97095V5.9738V5.97668V5.9796V5.98255V5.98554V5.98856V5.99162V5.99471V5.99783V6.00099V6.00418V6.0074V6.01066V6.01395V6.01728V6.02063V6.02403V6.02745V6.03091V6.0344V6.03792V6.04148V6.04507V6.04869V6.05234V6.05603V6.05975V6.0635V6.06728V6.0711V6.07495V6.07883V6.08274V6.08668V6.09066V6.09467V6.09871V6.10278V6.10688V6.11102V6.11518V6.11938V6.12361V6.12787V6.13216V6.13648V6.14083V6.14522V6.14963V6.15408V6.15855V6.16306V6.1676V6.17216V6.17676V6.18139V6.18605V6.19074V6.19546V6.2002V6.20498V6.20979V6.21463V6.2195V6.22439V6.22932V6.23428V6.23926V6.24428V6.24932V6.25439V6.2595V6.26463V6.26979V6.27498V6.2802V6.28544V6.29072V6.29602V6.30135V6.30672V6.3121V6.31752V6.32297V6.32844V6.33394V6.33947V6.34503V6.35062V6.35623V6.36187V6.36754V6.37323V6.37896V6.38471V6.39049V6.39629V6.40212V6.40798V6.41387V6.41978V6.42572V6.43169V6.43768V6.4437V6.44975V6.45582V6.46192V6.46805V6.4742V6.48038V6.48658V6.49281V6.49907V6.50535V6.51166V6.51799V6.52435V6.53073V6.53714V6.54358V6.55004V6.55653V6.56304V6.56957V6.57614V6.58272V6.58933V6.59597V6.60263V6.60932V6.61603V6.62276V6.62952V6.6363V6.64311V6.64994V6.6568V6.66368V6.67058V6.67751V6.68446V6.69143V6.69843V6.70546V6.7125V6.71957V6.72667V6.73378V6.74092V6.74808V6.75527V6.76248V6.76971V6.77696V6.78424V6.79154V6.79886V6.80621V6.81357V6.82096V6.82838V6.83581V6.84327V6.85075V6.85825V6.86577V6.87331V6.88088V6.88847V6.89608V6.90371V6.91136V6.91904V6.92673V6.93445V6.94219V6.94995V6.95773V6.96553V6.97335V6.98119V6.98905V6.99694V7.00484V7.01277V7.02071V7.02868V7.03667V7.04467V7.0527V7.06075V7.06881V7.0769V7.08501V7.09313V7.10128V7.10944V7.11763V7.12583V7.13406V7.1423V7.15056V7.15884V7.16715V7.17546V7.1838V7.19216V7.20054V7.20893V7.21735V7.22578V7.23423V7.2427V7.25118V7.25969V7.26821V7.27676V7.28532V7.29389V7.30249V7.3111V7.31973V7.32838V7.33705V7.34573V7.35444V7.36315V7.37189V7.38064V7.38941V7.3982V7.40701V7.41583V7.42467V7.43352V7.44239V7.45128V7.46019V7.46911V7.47804V7.487V7.49597V7.50496V7.51396V7.52298V7.53201V7.54106V7.55013V7.55921V7.56831V7.57742V7.58655V7.59569V7.60485V7.61402V7.62321V7.63242V7.64164V7.65087V7.66012V7.66938V7.67866V7.68796V7.69726V7.70659V7.71592V7.72528V7.73464V7.74402V7.75341V7.76282V7.77224V7.78168V7.79113V7.80059V7.81007V7.81956V7.82907V7.83858V7.84811V7.85766V7.86722V7.87679V7.88637V7.89597V7.90558V7.9152V7.92483V7.93448V7.94414V7.95382V7.9635V7.9732V7.98291V7.99263V8.00237V8.01211V8.02187V8.03164V8.04143V8.05122V8.06103V8.07084V8.08067V8.09052V8.10037V8.11023V8.12011V8.12999V8.13989V8.1498V8.15972V8.16965V8.17959V8.18954V8.1995V8.20947V8.21946V8.22945V8.23945V8.24947V8.25949V8.26953V8.27957V8.28963V8.29969V8.30977V8.31985V8.32995V8.34005V8.35016V8.36028V8.37042V8.38056V8.39071V8.40087V8.41104V8.42121V8.4314V8.4416V8.4518V8.46201V8.47224V8.48247V8.4927V8.50295V8.51321V8.52347V8.53374V8.54402V8.55431V8.56461V8.57491V8.58522V8.59554V8.60587V8.6162V8.62654V8.63689V8.64725V8.65762V8.66799V8.67837V8.68875V8.69914V8.70954V8.71995V8.73036V8.74078V8.75121V8.76164V8.77208V8.78253V8.79298V8.80344V8.8139V8.82437V8.83485V8.84533V8.85582V8.86631V8.87681V8.88732V8.89783V8.90834V8.91887V8.92939V8.93992V8.95046V8.961V8.97155V8.9821V8.99266V9.00322V9.01379V9.02436V9.03494V9.04552V9.0561V9.06669V9.07729V9.08788V9.09849V9.10909V9.1197V9.13032V9.14093V9.15156V9.16218V9.17281V9.18344V9.19408V9.20472V9.21536V9.226V9.23665V9.2473V9.25796V9.26862V9.27928V9.28994V9.30061V9.31128V9.32195V9.33262V9.3433V9.35397V9.36465V9.37534V9.38602V9.39671V9.4074V9.41809V9.42878V9.43947C1.48148 10.7247 1.14796 11.8626 0.806368 12.6878C0.636464 13.0982 0.467255 13.4248 0.342632 13.6456C0.280427 13.7558 0.229651 13.8391 0.195901 13.8927C0.179037 13.9194 0.166458 13.9387 0.158869 13.9502L0.151553 13.9612L0.151329 13.9615L0.151036 13.962L0.150883 13.9622L0.150613 13.9626C-0.0273071 14.2219 -0.0492916 14.5606 0.0937101 14.8416C0.237037 15.1232 0.522234 15.3 0.833336 15.3H5.14319C5.48768 16.2887 6.41505 17 7.5 17C8.58495 17 9.51232 16.2887 9.85681 15.3H14.1667C14.4778 15.3 14.763 15.1232 14.9063 14.8416C15.0495 14.5601 15.0272 14.2207 14.8484 13.9612L14.8482 13.9608L14.8411 13.9502C14.8335 13.9387 14.821 13.9194 14.8041 13.8927C14.7704 13.8391 14.7196 13.7558 14.6574 13.6456C14.5327 13.4248 14.3635 13.0982 14.1936 12.6878C13.852 11.8626 13.5185 10.7247 13.5185 9.43947V9.42878V9.41809V9.4074V9.39671V9.38602V9.37534V9.36465V9.35397V9.3433V9.33262V9.32195V9.31128V9.30061V9.28994V9.27928V9.26862V9.25796V9.2473V9.23665V9.226V9.21536V9.20472V9.19408V9.18344V9.17281V9.16218V9.15156V9.14093V9.13032V9.1197V9.10909V9.09849V9.08788V9.07729V9.06669V9.0561V9.04552V9.03494V9.02436V9.01379V9.00322V8.99266V8.9821V8.97155V8.961V8.95046V8.93992V8.92939V8.91887V8.90834V8.89783V8.88732V8.87681V8.86631V8.85582V8.84533V8.83485V8.82437V8.8139V8.80344V8.79298V8.78253V8.77208V8.76164V8.75121V8.74078V8.73036V8.71995V8.70954V8.69914V8.68875V8.67837V8.66799V8.65762V8.64725V8.63689V8.62654V8.6162V8.60587V8.59554V8.58522V8.57491V8.56461V8.55431V8.54402V8.53374V8.52347V8.51321V8.50295V8.4927V8.48247V8.47224V8.46201V8.4518V8.4416V8.4314V8.42121V8.41104V8.40087V8.39071V8.38056V8.37042V8.36028V8.35016V8.34005V8.32995V8.31985V8.30977V8.29969V8.28963V8.27957V8.26953V8.25949V8.24947V8.23945V8.22945V8.21946V8.20947V8.1995V8.18954V8.17959V8.16965V8.15972V8.1498V8.13989V8.12999V8.12011V8.11023V8.10037V8.09052V8.08067V8.07084V8.06103V8.05122V8.04143V8.03164V8.02187V8.01211V8.00237V7.99263V7.98291V7.9732V7.9635V7.95382V7.94414V7.93448V7.92483V7.9152V7.90558V7.89597V7.88637V7.87679V7.86722V7.85766V7.84811V7.83858V7.82907V7.81956V7.81007V7.80059V7.79113V7.78168V7.77224V7.76282V7.75341V7.74402V7.73464V7.72528V7.71592V7.70659V7.69726V7.68796V7.67866V7.66938V7.66012V7.65087V7.64164V7.63242V7.62321V7.61402V7.60485V7.59569V7.58655V7.57742V7.56831V7.55921V7.55013V7.54106V7.53201V7.52298V7.51396V7.50496V7.49597V7.487V7.47804V7.46911V7.46019V7.45128V7.44239V7.43352V7.42467V7.41583V7.40701V7.3982V7.38941V7.38064V7.37189V7.36315V7.35444V7.34573V7.33705V7.32838V7.31973V7.3111V7.30249V7.29389V7.28532V7.27676V7.26821V7.25969V7.25118V7.2427V7.23423V7.22578V7.21735V7.20893V7.20054V7.19216V7.1838V7.17546V7.16715V7.15884V7.15056V7.1423V7.13406V7.12583V7.11763V7.10944V7.10128V7.09313V7.08501V7.0769V7.06881V7.06075V7.0527V7.04467V7.03667V7.02868V7.02071V7.01277V7.00484V6.99694V6.98905V6.98119V6.97335V6.96553V6.95773V6.94995V6.94219V6.93445V6.92673V6.91904V6.91136V6.90371V6.89608V6.88847V6.88088V6.87331V6.86577V6.85825V6.85075V6.84327V6.83581V6.82838V6.82096V6.81357V6.80621V6.79886V6.79154V6.78424V6.77696V6.76971V6.76248V6.75527V6.74808V6.74092V6.73378V6.72667V6.71957V6.7125V6.70546V6.69843V6.69143V6.68446V6.67751V6.67058V6.66368V6.6568V6.64994V6.64311V6.6363V6.62952V6.62276V6.61603V6.60932V6.60263V6.59597V6.58933V6.58272V6.57614V6.56957V6.56304V6.55653V6.55004V6.54358V6.53714V6.53073V6.52435V6.51799V6.51166V6.50535V6.49907V6.49281V6.48658V6.48038V6.4742V6.46805V6.46192V6.45582V6.44975V6.4437V6.43768V6.43169V6.42572V6.41978V6.41387V6.40798V6.40212V6.39629V6.39049V6.38471V6.37896V6.37323V6.36754V6.36187V6.35623V6.35062V6.34503V6.33947V6.33394V6.32844V6.32297V6.31752V6.3121V6.30672V6.30135V6.29602V6.29072V6.28544V6.2802V6.27498V6.26979V6.26463V6.2595V6.25439V6.24932V6.24428V6.23926V6.23428V6.22932V6.22439V6.2195V6.21463V6.20979V6.20498V6.2002V6.19546V6.19074V6.18605V6.18139V6.17676V6.17216V6.1676V6.16306V6.15855V6.15408V6.14963V6.14522V6.14083V6.13648V6.13216V6.12787V6.12361V6.11938V6.11518V6.11102V6.10688V6.10278V6.09871V6.09467V6.09066V6.08668V6.08274V6.07883V6.07495V6.0711V6.06728V6.0635V6.05975V6.05603V6.05234V6.04869V6.04507V6.04148V6.03792V6.0344V6.03091V6.02745V6.02403V6.02063V6.01728V6.01395V6.01066V6.0074V6.00418V6.00099V5.99783V5.99471V5.99162V5.98856V5.98554V5.98255V5.9796V5.97668V5.9738V5.97095V5.96813V5.96535V5.9626V5.95989V5.95721V5.95457V5.95196V5.94939V5.94685V5.94435V5.94188V5.93945V5.93705V5.93469V5.93236V5.93007V5.92781V5.92559V5.92341V5.92126V5.91915V5.91708V5.91504V5.91303V5.91106V5.90913V5.90724V5.90538V5.90356V5.90177V5.90002V5.89831V5.89664V5.895V5.8934V5.89184V5.89031V5.88882V5.88737V5.88595V5.88457V5.88323V5.88193V5.88067V5.87944V5.87825V5.8771V5.87599V5.87491V5.87387V5.87287V5.87191V5.87099V5.87011V5.86926V5.86845V5.86769V5.86696V5.86626V5.86561V5.865V5.86443V5.86389V5.86339V5.86294V5.86252V5.86214V5.8618V5.86151V5.86125V5.86103V5.86085V5.86071V5.86061V5.86053C13.5185 5.74395 13.515 5.62825 13.5081 5.51348C13.1989 5.66914 12.868 5.78681 12.5212 5.86053H12.6852L12.5212 5.86053C12.3038 5.90675 12.0802 5.93569 11.8519 5.94588V5.94685V5.94939V5.95196V5.95457V5.95721V5.95989V5.9626V5.96535V5.96813V5.97095V5.9738V5.97668V5.9796V5.98255V5.98554V5.98856V5.99162V5.99471V5.99783V6.00099V6.00418V6.0074V6.01066V6.01395V6.01728V6.02063V6.02403V6.02745V6.03091V6.0344V6.03792V6.04148V6.04507V6.04869V6.05234V6.05603V6.05975V6.0635V6.06728V6.0711V6.07495V6.07883V6.08274V6.08668V6.09066V6.09467V6.09871V6.10278V6.10688V6.11102V6.11518V6.11938V6.12361V6.12787V6.13216V6.13648V6.14083V6.14522V6.14963V6.15408V6.15855V6.16306V6.1676V6.17216V6.17676V6.18139V6.18605V6.19074V6.19546V6.2002V6.20498V6.20979V6.21463V6.2195V6.22439V6.22932V6.23428V6.23926V6.24428V6.24932V6.25439V6.2595V6.26463V6.26979V6.27498V6.2802V6.28544V6.29072V6.29602V6.30135V6.30672V6.3121V6.31752V6.32297V6.32844V6.33394V6.33947V6.34503V6.35062V6.35623V6.36187V6.36754V6.37323V6.37896V6.38471V6.39049V6.39629V6.40212V6.40798V6.41387V6.41978V6.42572V6.43169V6.43768V6.4437V6.44975V6.45582V6.46192V6.46805V6.4742V6.48038V6.48658V6.49281V6.49907V6.50535V6.51166V6.51799V6.52435V6.53073V6.53714V6.54358V6.55004V6.55653V6.56304V6.56957V6.57614V6.58272V6.58933V6.59597V6.60263V6.60932V6.61603V6.62276V6.62952V6.6363V6.64311V6.64994V6.6568V6.66368V6.67058V6.67751V6.68446V6.69143V6.69843V6.70546V6.7125V6.71957V6.72667V6.73378V6.74092V6.74808V6.75527V6.76248V6.76971V6.77696V6.78424V6.79154V6.79886V6.80621V6.81357V6.82096V6.82838V6.83581V6.84327V6.85075V6.85825V6.86577V6.87331V6.88088V6.88847V6.89608V6.90371V6.91136V6.91904V6.92673V6.93445V6.94219V6.94995V6.95773V6.96553V6.97335V6.98119V6.98905V6.99694V7.00484V7.01277V7.02071V7.02868V7.03667V7.04467V7.0527V7.06075V7.06881V7.0769V7.08501V7.09313V7.10128V7.10944V7.11763V7.12583V7.13406V7.1423V7.15056V7.15884V7.16715V7.17546V7.1838V7.19216V7.20054V7.20893V7.21735V7.22578V7.23423V7.2427V7.25118V7.25969V7.26821V7.27676V7.28532V7.29389V7.30249V7.3111V7.31973V7.32838V7.33705V7.34573V7.35444V7.36315V7.37189V7.38064V7.38941V7.3982V7.40701V7.41583V7.42467V7.43352V7.44239V7.45128V7.46019V7.46911V7.47804V7.487V7.49597V7.50496V7.51396V7.52298V7.53201V7.54106V7.55013V7.55921V7.56831V7.57742V7.58655V7.59569V7.60485V7.61402V7.62321V7.63242V7.64164V7.65087V7.66012V7.66938V7.67866V7.68796V7.69726V7.70659V7.71592V7.72528V7.73464V7.74402V7.75341V7.76282V7.77224V7.78168V7.79113V7.80059V7.81007V7.81956V7.82907V7.83858V7.84811V7.85766V7.86722V7.87679V7.88637V7.89597V7.90558V7.9152V7.92483V7.93448V7.94414V7.95382V7.9635V7.9732V7.98291V7.99263V8.00237V8.01211V8.02187V8.03164V8.04143V8.05122V8.06103V8.07084V8.08067V8.09052V8.10037V8.11023V8.12011V8.12999V8.13989V8.1498V8.15972V8.16965V8.17959V8.18954V8.1995V8.20947V8.21946V8.22945V8.23945V8.24947V8.25949V8.26953V8.27957V8.28963V8.29969V8.30977V8.31985V8.32995V8.34005V8.35016V8.36028V8.37042V8.38056V8.39071V8.40087V8.41104V8.42121V8.4314V8.4416V8.4518V8.46201V8.47224V8.48247V8.4927V8.50295V8.51321V8.52347V8.53374V8.54402V8.55431V8.56461V8.57491V8.58522V8.59554V8.60587V8.6162V8.62654V8.63689V8.64725V8.65762V8.66799V8.67837V8.68875V8.69914V8.70954V8.71995V8.73036V8.74078V8.75121V8.76164V8.77208V8.78253V8.79298V8.80344V8.8139V8.82437V8.83485V8.84533V8.85582V8.86631V8.87681V8.88732V8.89783V8.90834V8.91887V8.92939V8.93992V8.95046V8.961V8.97155V8.9821V8.99266V9.00322V9.01379V9.02436V9.03494V9.04552V9.0561V9.06669V9.07729V9.08788V9.09849V9.10909V9.1197V9.13032V9.14093V9.15156V9.16218V9.17281V9.18344V9.19408V9.20472V9.21536V9.226V9.23665V9.2473V9.25796V9.26862V9.27928V9.28994V9.30061V9.31128V9.32195V9.33262V9.3433V9.35397V9.36465V9.37534V9.38602V9.39671V9.4074V9.41809V9.42878V9.43947C11.8519 11.0174 12.2591 12.3848 12.6582 13.349C12.6941 13.4358 12.7301 13.5195 12.7657 13.6H9.16667H5.83333H2.23427C2.26995 13.5195 2.30588 13.4358 2.34178 13.349C2.74093 12.3848 3.14815 11.0174 3.14815 9.43947V9.42878V9.41809V9.4074V9.39671V9.38602V9.37534V9.36465V9.35397V9.3433V9.33262V9.32195V9.31128V9.30061V9.28994V9.27928V9.26862V9.25796V9.2473V9.23665V9.226V9.21536V9.20472V9.19408V9.18344V9.17281V9.16218V9.15156V9.14093V9.13032V9.1197V9.10909V9.09849V9.08788V9.07729V9.06669V9.0561V9.04552V9.03494V9.02436V9.01379V9.00322V8.99266V8.9821V8.97155V8.961V8.95046V8.93992V8.92939V8.91887V8.90834V8.89783V8.88732V8.87681V8.86631V8.85582V8.84533V8.83485V8.82437V8.8139V8.80344V8.79298V8.78253V8.77208V8.76164V8.75121V8.74078V8.73036V8.71995V8.70954V8.69914V8.68875V8.67837V8.66799V8.65762V8.64725V8.63689V8.62654V8.6162V8.60587V8.59554V8.58522V8.57491V8.56461V8.55431V8.54402V8.53374V8.52347V8.51321V8.50295V8.4927V8.48247V8.47224V8.46201V8.4518V8.4416V8.4314V8.42121V8.41104V8.40087V8.39071V8.38056V8.37042V8.36028V8.35016V8.34005V8.32995V8.31985V8.30977V8.29969V8.28963V8.27957V8.26953V8.25949V8.24947V8.23945V8.22945V8.21946V8.20947V8.1995V8.18954V8.17959V8.16965V8.15972V8.1498V8.13989V8.12999V8.12011V8.11023V8.10037V8.09052V8.08067V8.07084V8.06103V8.05122V8.04143V8.03164V8.02187V8.01211V8.00237V7.99263V7.98291V7.9732V7.9635V7.95382V7.94414V7.93448V7.92483V7.9152V7.90558V7.89597V7.88637V7.87679V7.86722V7.85766V7.84811V7.83858V7.82907V7.81956V7.81007V7.80059V7.79113V7.78168V7.77224V7.76282V7.75341V7.74402V7.73464V7.72528V7.71592V7.70659V7.69726V7.68796V7.67866V7.66938V7.66012V7.65087V7.64164V7.63242V7.62321V7.61402V7.60485V7.59569V7.58655V7.57742V7.56831V7.55921V7.55013V7.54106V7.53201V7.52298V7.51396V7.50496V7.49597V7.487V7.47804V7.46911V7.46019V7.45128V7.44239V7.43352V7.42467V7.41583V7.40701V7.3982V7.38941V7.38064V7.37189V7.36315V7.35444V7.34573V7.33705V7.32838V7.31973V7.3111V7.30249V7.29389V7.28532V7.27676V7.26821V7.25969V7.25118V7.2427V7.23423V7.22578V7.21735V7.20893V7.20054V7.19216V7.1838V7.17546V7.16715V7.15884V7.15056V7.1423V7.13406V7.12583V7.11763V7.10944V7.10128V7.09313V7.08501V7.0769V7.06881V7.06075V7.0527V7.04467V7.03667V7.02868V7.02071V7.01277V7.00484V6.99694V6.98905V6.98119V6.97335V6.96553V6.95773V6.94995V6.94219V6.93445V6.92673V6.91904V6.91136V6.90371V6.89608V6.88847V6.88088V6.87331V6.86577V6.85825V6.85075V6.84327V6.83581V6.82838V6.82096V6.81357V6.80621V6.79886V6.79154V6.78424V6.77696V6.76971V6.76248V6.75527V6.74808V6.74092V6.73378V6.72667V6.71957V6.7125V6.70546V6.69843V6.69143V6.68446V6.67751V6.67058V6.66368V6.6568V6.64994V6.64311V6.6363V6.62952V6.62276V6.61603V6.60932V6.60263V6.59597V6.58933V6.58272V6.57614V6.56957V6.56304V6.55653V6.55004V6.54358V6.53714V6.53073V6.52435V6.51799V6.51166V6.50535V6.49907V6.49281V6.48658V6.48038V6.4742V6.46805V6.46192V6.45582V6.44975V6.4437V6.43768V6.43169V6.42572V6.41978V6.41387V6.40798V6.40212V6.39629V6.39049V6.38471V6.37896V6.37323V6.36754V6.36187V6.35623V6.35062V6.34503V6.33947V6.33394V6.32844V6.32297V6.31752V6.3121V6.30672V6.30135V6.29602V6.29072V6.28544V6.2802V6.27498V6.26979V6.26463V6.2595V6.25439V6.24932V6.24428V6.23926V6.23428V6.22932V6.22439V6.2195V6.21463V6.20979V6.20498V6.2002V6.19546V6.19074V6.18605V6.18139V6.17676V6.17216V6.1676V6.16306V6.15855V6.15408V6.14963V6.14522V6.14083V6.13648V6.13216V6.12787V6.12361V6.11938V6.11518V6.11102V6.10688V6.10278V6.09871V6.09467V6.09066V6.08668V6.08274V6.07883V6.07495V6.0711V6.06728V6.0635V6.05975V6.05603V6.05234V6.04869V6.04507V6.04148V6.03792V6.0344V6.03091V6.02745V6.02403V6.02063V6.01728V6.01395V6.01066V6.0074V6.00418V6.00099V5.99783V5.99471V5.99162V5.98856V5.98554V5.98255V5.9796V5.97668V5.9738V5.97095V5.96813V5.96535V5.9626V5.95989V5.95721V5.95457V5.95196V5.94939V5.94685V5.94435V5.94188V5.93945V5.93705V5.93469V5.93236V5.93007V5.92781V5.92559V5.92341V5.92126V5.91915V5.91708V5.91504V5.91303V5.91106V5.90913V5.90724V5.90538V5.90356V5.90177V5.90002V5.89831V5.89664V5.895V5.8934V5.89184V5.89031V5.88882V5.88737V5.88595V5.88457V5.88323V5.88193V5.88067V5.87944V5.87825V5.8771V5.87599V5.87491V5.87387V5.87287V5.87191V5.87099V5.87011V5.86926V5.86845V5.86769V5.86696V5.86626V5.86561V5.865V5.86443V5.86389V5.86339V5.86294V5.86252V5.86214V5.8618V5.86151V5.86125V5.86103V5.86085V5.86071V5.86061V5.86055L2.31482 5.86053H3.14815C3.14815 3.6169 5.06536 1.7 7.5 1.7C7.5 1.09924 7.6222 0.527601 7.84264 0.0095229Z" fill="white"/>
</svg>
