<svg width="24" height="24" viewBox="0 0 24 24" fill="none" xmlns="http://www.w3.org/2000/svg">
  <path fill-rule="evenodd" clip-rule="evenodd" d="M11.8426 4.00952C11.7291 4.0032 11.6149 4 11.5 4C8.23094 4 5.48148 6.59258 5.48148 9.86053H6.31482L5.48148 9.86055V9.86061V9.86071V9.86085V9.86103V9.86125V9.86151V9.8618V9.86214V9.86252V9.86294V9.86339V9.86389V9.86443V9.865V9.86561V9.86626V9.86696V9.86769V9.86845V9.86926V9.87011V9.87099V9.87191V9.87287V9.87387V9.87491V9.87599V9.8771V9.87825V9.87944V9.88067V9.88193V9.88323V9.88457V9.88595V9.88737V9.88882V9.89031V9.89184V9.8934V9.895V9.89664V9.89831V9.90002V9.90177V9.90356V9.90538V9.90724V9.90913V9.91106V9.91303V9.91504V9.91708V9.91915V9.92126V9.92341V9.92559V9.92781V9.93007V9.93236V9.93469V9.93705V9.93945V9.94188V9.94435V9.94685V9.94939V9.95196V9.95457V9.95721V9.95989V9.9626V9.96535V9.96813V9.97095V9.9738V9.97668V9.9796V9.98255V9.98554V9.98856V9.99162V9.99471V9.99783V10.001V10.0042V10.0074V10.0107V10.014V10.0173V10.0206V10.024V10.0274V10.0309V10.0344V10.0379V10.0415V10.0451V10.0487V10.0523V10.056V10.0597V10.0635V10.0673V10.0711V10.0749V10.0788V10.0827V10.0867V10.0907V10.0947V10.0987V10.1028V10.1069V10.111V10.1152V10.1194V10.1236V10.1279V10.1322V10.1365V10.1408V10.1452V10.1496V10.1541V10.1586V10.1631V10.1676V10.1722V10.1768V10.1814V10.186V10.1907V10.1955V10.2002V10.205V10.2098V10.2146V10.2195V10.2244V10.2293V10.2343V10.2393V10.2443V10.2493V10.2544V10.2595V10.2646V10.2698V10.275V10.2802V10.2854V10.2907V10.296V10.3014V10.3067V10.3121V10.3175V10.323V10.3284V10.3339V10.3395V10.345V10.3506V10.3562V10.3619V10.3675V10.3732V10.379V10.3847V10.3905V10.3963V10.4021V10.408V10.4139V10.4198V10.4257V10.4317V10.4377V10.4437V10.4497V10.4558V10.4619V10.468V10.4742V10.4804V10.4866V10.4928V10.4991V10.5053V10.5117V10.518V10.5243V10.5307V10.5371V10.5436V10.55V10.5565V10.563V10.5696V10.5761V10.5827V10.5893V10.596V10.6026V10.6093V10.616V10.6228V10.6295V10.6363V10.6431V10.6499V10.6568V10.6637V10.6706V10.6775V10.6845V10.6914V10.6984V10.7055V10.7125V10.7196V10.7267V10.7338V10.7409V10.7481V10.7553V10.7625V10.7697V10.777V10.7842V10.7915V10.7989V10.8062V10.8136V10.821V10.8284V10.8358V10.8433V10.8507V10.8582V10.8658V10.8733V10.8809V10.8885V10.8961V10.9037V10.9114V10.919V10.9267V10.9344V10.9422V10.9499V10.9577V10.9655V10.9733V10.9812V10.9891V10.9969V11.0048V11.0128V11.0207V11.0287V11.0367V11.0447V11.0527V11.0607V11.0688V11.0769V11.085V11.0931V11.1013V11.1094V11.1176V11.1258V11.1341V11.1423V11.1506V11.1588V11.1671V11.1755V11.1838V11.1922V11.2005V11.2089V11.2173V11.2258V11.2342V11.2427V11.2512V11.2597V11.2682V11.2768V11.2853V11.2939V11.3025V11.3111V11.3197V11.3284V11.3371V11.3457V11.3544V11.3632V11.3719V11.3806V11.3894V11.3982V11.407V11.4158V11.4247V11.4335V11.4424V11.4513V11.4602V11.4691V11.478V11.487V11.496V11.505V11.514V11.523V11.532V11.5411V11.5501V11.5592V11.5683V11.5774V11.5865V11.5957V11.6048V11.614V11.6232V11.6324V11.6416V11.6509V11.6601V11.6694V11.6787V11.688V11.6973V11.7066V11.7159V11.7253V11.7346V11.744V11.7534V11.7628V11.7722V11.7817V11.7911V11.8006V11.8101V11.8196V11.8291V11.8386V11.8481V11.8577V11.8672V11.8768V11.8864V11.896V11.9056V11.9152V11.9248V11.9345V11.9441V11.9538V11.9635V11.9732V11.9829V11.9926V12.0024V12.0121V12.0219V12.0316V12.0414V12.0512V12.061V12.0708V12.0807V12.0905V12.1004V12.1102V12.1201V12.13V12.1399V12.1498V12.1597V12.1696V12.1796V12.1895V12.1995V12.2095V12.2195V12.2295V12.2395V12.2495V12.2595V12.2695V12.2796V12.2896V12.2997V12.3098V12.3199V12.3299V12.34V12.3502V12.3603V12.3704V12.3806V12.3907V12.4009V12.411V12.4212V12.4314V12.4416V12.4518V12.462V12.4722V12.4825V12.4927V12.503V12.5132V12.5235V12.5337V12.544V12.5543V12.5646V12.5749V12.5852V12.5955V12.6059V12.6162V12.6265V12.6369V12.6473V12.6576V12.668V12.6784V12.6888V12.6991V12.7095V12.7199V12.7304V12.7408V12.7512V12.7616V12.7721V12.7825V12.793V12.8034V12.8139V12.8244V12.8348V12.8453V12.8558V12.8663V12.8768V12.8873V12.8978V12.9083V12.9189V12.9294V12.9399V12.9505V12.961V12.9716V12.9821V12.9927V13.0032V13.0138V13.0244V13.0349V13.0455V13.0561V13.0667V13.0773V13.0879V13.0985V13.1091V13.1197V13.1303V13.1409V13.1516V13.1622V13.1728V13.1834V13.1941V13.2047V13.2154V13.226V13.2367V13.2473V13.258V13.2686V13.2793V13.2899V13.3006V13.3113V13.3219V13.3326V13.3433V13.354V13.3647V13.3753V13.386V13.3967V13.4074V13.4181V13.4288V13.4395C5.48148 14.7247 5.14796 15.8626 4.80637 16.6878C4.63646 17.0982 4.46725 17.4248 4.34263 17.6456C4.28043 17.7558 4.22965 17.8391 4.1959 17.8927C4.17904 17.9194 4.16646 17.9387 4.15887 17.9502L4.15155 17.9612L4.15133 17.9615L4.15104 17.962L4.15088 17.9622L4.15061 17.9626C3.97269 18.2219 3.95071 18.5606 4.09371 18.8416C4.23704 19.1232 4.52223 19.3 4.83334 19.3H9.14319C9.48768 20.2887 10.415 21 11.5 21C12.585 21 13.5123 20.2887 13.8568 19.3H18.1667C18.4778 19.3 18.763 19.1232 18.9063 18.8416C19.0495 18.5601 19.0272 18.2207 18.8484 17.9612L18.8482 17.9608L18.8411 17.9502C18.8335 17.9387 18.821 17.9194 18.8041 17.8927C18.7704 17.8391 18.7196 17.7558 18.6574 17.6456C18.5327 17.4248 18.3635 17.0982 18.1936 16.6878C17.852 15.8626 17.5185 14.7247 17.5185 13.4395V13.4288V13.4181V13.4074V13.3967V13.386V13.3753V13.3647V13.354V13.3433V13.3326V13.3219V13.3113V13.3006V13.2899V13.2793V13.2686V13.258V13.2473V13.2367V13.226V13.2154V13.2047V13.1941V13.1834V13.1728V13.1622V13.1516V13.1409V13.1303V13.1197V13.1091V13.0985V13.0879V13.0773V13.0667V13.0561V13.0455V13.0349V13.0244V13.0138V13.0032V12.9927V12.9821V12.9716V12.961V12.9505V12.9399V12.9294V12.9189V12.9083V12.8978V12.8873V12.8768V12.8663V12.8558V12.8453V12.8348V12.8244V12.8139V12.8034V12.793V12.7825V12.7721V12.7616V12.7512V12.7408V12.7304V12.7199V12.7095V12.6991V12.6888V12.6784V12.668V12.6576V12.6473V12.6369V12.6265V12.6162V12.6059V12.5955V12.5852V12.5749V12.5646V12.5543V12.544V12.5337V12.5235V12.5132V12.503V12.4927V12.4825V12.4722V12.462V12.4518V12.4416V12.4314V12.4212V12.411V12.4009V12.3907V12.3806V12.3704V12.3603V12.3502V12.34V12.3299V12.3199V12.3098V12.2997V12.2896V12.2796V12.2695V12.2595V12.2495V12.2395V12.2295V12.2195V12.2095V12.1995V12.1895V12.1796V12.1696V12.1597V12.1498V12.1399V12.13V12.1201V12.1102V12.1004V12.0905V12.0807V12.0708V12.061V12.0512V12.0414V12.0316V12.0219V12.0121V12.0024V11.9926V11.9829V11.9732V11.9635V11.9538V11.9441V11.9345V11.9248V11.9152V11.9056V11.896V11.8864V11.8768V11.8672V11.8577V11.8481V11.8386V11.8291V11.8196V11.8101V11.8006V11.7911V11.7817V11.7722V11.7628V11.7534V11.744V11.7346V11.7253V11.7159V11.7066V11.6973V11.688V11.6787V11.6694V11.6601V11.6509V11.6416V11.6324V11.6232V11.614V11.6048V11.5957V11.5865V11.5774V11.5683V11.5592V11.5501V11.5411V11.532V11.523V11.514V11.505V11.496V11.487V11.478V11.4691V11.4602V11.4513V11.4424V11.4335V11.4247V11.4158V11.407V11.3982V11.3894V11.3806V11.3719V11.3632V11.3544V11.3457V11.3371V11.3284V11.3197V11.3111V11.3025V11.2939V11.2853V11.2768V11.2682V11.2597V11.2512V11.2427V11.2342V11.2258V11.2173V11.2089V11.2005V11.1922V11.1838V11.1755V11.1671V11.1588V11.1506V11.1423V11.1341V11.1258V11.1176V11.1094V11.1013V11.0931V11.085V11.0769V11.0688V11.0607V11.0527V11.0447V11.0367V11.0287V11.0207V11.0128V11.0048V10.9969V10.9891V10.9812V10.9733V10.9655V10.9577V10.9499V10.9422V10.9344V10.9267V10.919V10.9114V10.9037V10.8961V10.8885V10.8809V10.8733V10.8658V10.8582V10.8507V10.8433V10.8358V10.8284V10.821V10.8136V10.8062V10.7989V10.7915V10.7842V10.777V10.7697V10.7625V10.7553V10.7481V10.7409V10.7338V10.7267V10.7196V10.7125V10.7055V10.6984V10.6914V10.6845V10.6775V10.6706V10.6637V10.6568V10.6499V10.6431V10.6363V10.6295V10.6228V10.616V10.6093V10.6026V10.596V10.5893V10.5827V10.5761V10.5696V10.563V10.5565V10.55V10.5436V10.5371V10.5307V10.5243V10.518V10.5117V10.5053V10.4991V10.4928V10.4866V10.4804V10.4742V10.468V10.4619V10.4558V10.4497V10.4437V10.4377V10.4317V10.4257V10.4198V10.4139V10.408V10.4021V10.3963V10.3905V10.3847V10.379V10.3732V10.3675V10.3619V10.3562V10.3506V10.345V10.3395V10.3339V10.3284V10.323V10.3175V10.3121V10.3067V10.3014V10.296V10.2907V10.2854V10.2802V10.275V10.2698V10.2646V10.2595V10.2544V10.2493V10.2443V10.2393V10.2343V10.2293V10.2244V10.2195V10.2146V10.2098V10.205V10.2002V10.1955V10.1907V10.186V10.1814V10.1768V10.1722V10.1676V10.1631V10.1586V10.1541V10.1496V10.1452V10.1408V10.1365V10.1322V10.1279V10.1236V10.1194V10.1152V10.111V10.1069V10.1028V10.0987V10.0947V10.0907V10.0867V10.0827V10.0788V10.0749V10.0711V10.0673V10.0635V10.0597V10.056V10.0523V10.0487V10.0451V10.0415V10.0379V10.0344V10.0309V10.0274V10.024V10.0206V10.0173V10.014V10.0107V10.0074V10.0042V10.001V9.99783V9.99471V9.99162V9.98856V9.98554V9.98255V9.9796V9.97668V9.9738V9.97095V9.96813V9.96535V9.9626V9.95989V9.95721V9.95457V9.95196V9.94939V9.94685V9.94435V9.94188V9.93945V9.93705V9.93469V9.93236V9.93007V9.92781V9.92559V9.92341V9.92126V9.91915V9.91708V9.91504V9.91303V9.91106V9.90913V9.90724V9.90538V9.90356V9.90177V9.90002V9.89831V9.89664V9.895V9.8934V9.89184V9.89031V9.88882V9.88737V9.88595V9.88457V9.88323V9.88193V9.88067V9.87944V9.87825V9.8771V9.87599V9.87491V9.87387V9.87287V9.87191V9.87099V9.87011V9.86926V9.86845V9.86769V9.86696V9.86626V9.86561V9.865V9.86443V9.86389V9.86339V9.86294V9.86252V9.86214V9.8618V9.86151V9.86125V9.86103V9.86085V9.86071V9.86061V9.86053C17.5185 9.74395 17.515 9.62825 17.5081 9.51348C17.1989 9.66914 16.868 9.78681 16.5212 9.86053H16.6852L16.5212 9.86053C16.3038 9.90675 16.0802 9.93569 15.8519 9.94588V9.94685V9.94939V9.95196V9.95457V9.95721V9.95989V9.9626V9.96535V9.96813V9.97095V9.9738V9.97668V9.9796V9.98255V9.98554V9.98856V9.99162V9.99471V9.99783V10.001V10.0042V10.0074V10.0107V10.014V10.0173V10.0206V10.024V10.0274V10.0309V10.0344V10.0379V10.0415V10.0451V10.0487V10.0523V10.056V10.0597V10.0635V10.0673V10.0711V10.0749V10.0788V10.0827V10.0867V10.0907V10.0947V10.0987V10.1028V10.1069V10.111V10.1152V10.1194V10.1236V10.1279V10.1322V10.1365V10.1408V10.1452V10.1496V10.1541V10.1586V10.1631V10.1676V10.1722V10.1768V10.1814V10.186V10.1907V10.1955V10.2002V10.205V10.2098V10.2146V10.2195V10.2244V10.2293V10.2343V10.2393V10.2443V10.2493V10.2544V10.2595V10.2646V10.2698V10.275V10.2802V10.2854V10.2907V10.296V10.3014V10.3067V10.3121V10.3175V10.323V10.3284V10.3339V10.3395V10.345V10.3506V10.3562V10.3619V10.3675V10.3732V10.379V10.3847V10.3905V10.3963V10.4021V10.408V10.4139V10.4198V10.4257V10.4317V10.4377V10.4437V10.4497V10.4558V10.4619V10.468V10.4742V10.4804V10.4866V10.4928V10.4991V10.5053V10.5117V10.518V10.5243V10.5307V10.5371V10.5436V10.55V10.5565V10.563V10.5696V10.5761V10.5827V10.5893V10.596V10.6026V10.6093V10.616V10.6228V10.6295V10.6363V10.6431V10.6499V10.6568V10.6637V10.6706V10.6775V10.6845V10.6914V10.6984V10.7055V10.7125V10.7196V10.7267V10.7338V10.7409V10.7481V10.7553V10.7625V10.7697V10.777V10.7842V10.7915V10.7989V10.8062V10.8136V10.821V10.8284V10.8358V10.8433V10.8507V10.8582V10.8658V10.8733V10.8809V10.8885V10.8961V10.9037V10.9114V10.919V10.9267V10.9344V10.9422V10.9499V10.9577V10.9655V10.9733V10.9812V10.9891V10.9969V11.0048V11.0128V11.0207V11.0287V11.0367V11.0447V11.0527V11.0607V11.0688V11.0769V11.085V11.0931V11.1013V11.1094V11.1176V11.1258V11.1341V11.1423V11.1506V11.1588V11.1671V11.1755V11.1838V11.1922V11.2005V11.2089V11.2173V11.2258V11.2342V11.2427V11.2512V11.2597V11.2682V11.2768V11.2853V11.2939V11.3025V11.3111V11.3197V11.3284V11.3371V11.3457V11.3544V11.3632V11.3719V11.3806V11.3894V11.3982V11.407V11.4158V11.4247V11.4335V11.4424V11.4513V11.4602V11.4691V11.478V11.487V11.496V11.505V11.514V11.523V11.532V11.5411V11.5501V11.5592V11.5683V11.5774V11.5865V11.5957V11.6048V11.614V11.6232V11.6324V11.6416V11.6509V11.6601V11.6694V11.6787V11.688V11.6973V11.7066V11.7159V11.7253V11.7346V11.744V11.7534V11.7628V11.7722V11.7817V11.7911V11.8006V11.8101V11.8196V11.8291V11.8386V11.8481V11.8577V11.8672V11.8768V11.8864V11.896V11.9056V11.9152V11.9248V11.9345V11.9441V11.9538V11.9635V11.9732V11.9829V11.9926V12.0024V12.0121V12.0219V12.0316V12.0414V12.0512V12.061V12.0708V12.0807V12.0905V12.1004V12.1102V12.1201V12.13V12.1399V12.1498V12.1597V12.1696V12.1796V12.1895V12.1995V12.2095V12.2195V12.2295V12.2395V12.2495V12.2595V12.2695V12.2796V12.2896V12.2997V12.3098V12.3199V12.3299V12.34V12.3502V12.3603V12.3704V12.3806V12.3907V12.4009V12.411V12.4212V12.4314V12.4416V12.4518V12.462V12.4722V12.4825V12.4927V12.503V12.5132V12.5235V12.5337V12.544V12.5543V12.5646V12.5749V12.5852V12.5955V12.6059V12.6162V12.6265V12.6369V12.6473V12.6576V12.668V12.6784V12.6888V12.6991V12.7095V12.7199V12.7304V12.7408V12.7512V12.7616V12.7721V12.7825V12.793V12.8034V12.8139V12.8244V12.8348V12.8453V12.8558V12.8663V12.8768V12.8873V12.8978V12.9083V12.9189V12.9294V12.9399V12.9505V12.961V12.9716V12.9821V12.9927V13.0032V13.0138V13.0244V13.0349V13.0455V13.0561V13.0667V13.0773V13.0879V13.0985V13.1091V13.1197V13.1303V13.1409V13.1516V13.1622V13.1728V13.1834V13.1941V13.2047V13.2154V13.226V13.2367V13.2473V13.258V13.2686V13.2793V13.2899V13.3006V13.3113V13.3219V13.3326V13.3433V13.354V13.3647V13.3753V13.386V13.3967V13.4074V13.4181V13.4288V13.4395C15.8519 15.0174 16.2591 16.3848 16.6582 17.349C16.6941 17.4358 16.7301 17.5195 16.7657 17.6H13.1667H9.83333H6.23427C6.26995 17.5195 6.30588 17.4358 6.34178 17.349C6.74093 16.3848 7.14815 15.0174 7.14815 13.4395V13.4288V13.4181V13.4074V13.3967V13.386V13.3753V13.3647V13.354V13.3433V13.3326V13.3219V13.3113V13.3006V13.2899V13.2793V13.2686V13.258V13.2473V13.2367V13.226V13.2154V13.2047V13.1941V13.1834V13.1728V13.1622V13.1516V13.1409V13.1303V13.1197V13.1091V13.0985V13.0879V13.0773V13.0667V13.0561V13.0455V13.0349V13.0244V13.0138V13.0032V12.9927V12.9821V12.9716V12.961V12.9505V12.9399V12.9294V12.9189V12.9083V12.8978V12.8873V12.8768V12.8663V12.8558V12.8453V12.8348V12.8244V12.8139V12.8034V12.793V12.7825V12.7721V12.7616V12.7512V12.7408V12.7304V12.7199V12.7095V12.6991V12.6888V12.6784V12.668V12.6576V12.6473V12.6369V12.6265V12.6162V12.6059V12.5955V12.5852V12.5749V12.5646V12.5543V12.544V12.5337V12.5235V12.5132V12.503V12.4927V12.4825V12.4722V12.462V12.4518V12.4416V12.4314V12.4212V12.411V12.4009V12.3907V12.3806V12.3704V12.3603V12.3502V12.34V12.3299V12.3199V12.3098V12.2997V12.2896V12.2796V12.2695V12.2595V12.2495V12.2395V12.2295V12.2195V12.2095V12.1995V12.1895V12.1796V12.1696V12.1597V12.1498V12.1399V12.13V12.1201V12.1102V12.1004V12.0905V12.0807V12.0708V12.061V12.0512V12.0414V12.0316V12.0219V12.0121V12.0024V11.9926V11.9829V11.9732V11.9635V11.9538V11.9441V11.9345V11.9248V11.9152V11.9056V11.896V11.8864V11.8768V11.8672V11.8577V11.8481V11.8386V11.8291V11.8196V11.8101V11.8006V11.7911V11.7817V11.7722V11.7628V11.7534V11.744V11.7346V11.7253V11.7159V11.7066V11.6973V11.688V11.6787V11.6694V11.6601V11.6509V11.6416V11.6324V11.6232V11.614V11.6048V11.5957V11.5865V11.5774V11.5683V11.5592V11.5501V11.5411V11.532V11.523V11.514V11.505V11.496V11.487V11.478V11.4691V11.4602V11.4513V11.4424V11.4335V11.4247V11.4158V11.407V11.3982V11.3894V11.3806V11.3719V11.3632V11.3544V11.3457V11.3371V11.3284V11.3197V11.3111V11.3025V11.2939V11.2853V11.2768V11.2682V11.2597V11.2512V11.2427V11.2342V11.2258V11.2173V11.2089V11.2005V11.1922V11.1838V11.1755V11.1671V11.1588V11.1506V11.1423V11.1341V11.1258V11.1176V11.1094V11.1013V11.0931V11.085V11.0769V11.0688V11.0607V11.0527V11.0447V11.0367V11.0287V11.0207V11.0128V11.0048V10.9969V10.9891V10.9812V10.9733V10.9655V10.9577V10.9499V10.9422V10.9344V10.9267V10.919V10.9114V10.9037V10.8961V10.8885V10.8809V10.8733V10.8658V10.8582V10.8507V10.8433V10.8358V10.8284V10.821V10.8136V10.8062V10.7989V10.7915V10.7842V10.777V10.7697V10.7625V10.7553V10.7481V10.7409V10.7338V10.7267V10.7196V10.7125V10.7055V10.6984V10.6914V10.6845V10.6775V10.6706V10.6637V10.6568V10.6499V10.6431V10.6363V10.6295V10.6228V10.616V10.6093V10.6026V10.596V10.5893V10.5827V10.5761V10.5696V10.563V10.5565V10.55V10.5436V10.5371V10.5307V10.5243V10.518V10.5117V10.5053V10.4991V10.4928V10.4866V10.4804V10.4742V10.468V10.4619V10.4558V10.4497V10.4437V10.4377V10.4317V10.4257V10.4198V10.4139V10.408V10.4021V10.3963V10.3905V10.3847V10.379V10.3732V10.3675V10.3619V10.3562V10.3506V10.345V10.3395V10.3339V10.3284V10.323V10.3175V10.3121V10.3067V10.3014V10.296V10.2907V10.2854V10.2802V10.275V10.2698V10.2646V10.2595V10.2544V10.2493V10.2443V10.2393V10.2343V10.2293V10.2244V10.2195V10.2146V10.2098V10.205V10.2002V10.1955V10.1907V10.186V10.1814V10.1768V10.1722V10.1676V10.1631V10.1586V10.1541V10.1496V10.1452V10.1408V10.1365V10.1322V10.1279V10.1236V10.1194V10.1152V10.111V10.1069V10.1028V10.0987V10.0947V10.0907V10.0867V10.0827V10.0788V10.0749V10.0711V10.0673V10.0635V10.0597V10.056V10.0523V10.0487V10.0451V10.0415V10.0379V10.0344V10.0309V10.0274V10.024V10.0206V10.0173V10.014V10.0107V10.0074V10.0042V10.001V9.99783V9.99471V9.99162V9.98856V9.98554V9.98255V9.9796V9.97668V9.9738V9.97095V9.96813V9.96535V9.9626V9.95989V9.95721V9.95457V9.95196V9.94939V9.94685V9.94435V9.94188V9.93945V9.93705V9.93469V9.93236V9.93007V9.92781V9.92559V9.92341V9.92126V9.91915V9.91708V9.91504V9.91303V9.91106V9.90913V9.90724V9.90538V9.90356V9.90177V9.90002V9.89831V9.89664V9.895V9.8934V9.89184V9.89031V9.88882V9.88737V9.88595V9.88457V9.88323V9.88193V9.88067V9.87944V9.87825V9.8771V9.87599V9.87491V9.87387V9.87287V9.87191V9.87099V9.87011V9.86926V9.86845V9.86769V9.86696V9.86626V9.86561V9.865V9.86443V9.86389V9.86339V9.86294V9.86252V9.86214V9.8618V9.86151V9.86125V9.86103V9.86085V9.86071V9.86061V9.86055L6.31482 9.86053H7.14815C7.14815 7.6169 9.06536 5.7 11.5 5.7C11.5 5.09924 11.6222 4.5276 11.8426 4.00952Z" fill="white"/>
  <path d="M18 5.5C18 6.88071 16.8807 8 15.5 8C14.1193 8 13 6.88071 13 5.5C13 4.11929 14.1193 3 15.5 3C16.8807 3 18 4.11929 18 5.5Z" fill="white"/>
</svg>
