<svg width="24" height="24" viewBox="0 0 24 24" fill="none" xmlns="http://www.w3.org/2000/svg">
<path fill-rule="evenodd" clip-rule="evenodd" d="M2 1C1.44772 1 1 1.44772 1 2C1 2.55228 1.44772 3 2 3H3.44784L5.87766 16.5605C5.89324 16.6475 5.91529 16.7328 5.94346 16.8158C5.36262 17.3629 5 18.1391 5 19C5 20.6569 6.34315 22 8 22C9.65685 22 11 20.6569 11 19C11 18.6494 10.9398 18.3128 10.8293 18H16.1707C16.0602 18.3128 16 18.6494 16 19C16 20.6569 17.3431 22 19 22C20.6569 22 22 20.6569 22 19C22 17.3431 20.6569 16 19 16H8H7.80907L7.45071 14H20.0344C20.4365 14 20.8291 13.8625 21.1435 13.6066C21.4584 13.3502 21.6757 12.99 21.751 12.5861L22.971 6.0406C23.0181 5.78816 23.0077 5.52864 22.9407 5.2809C22.8738 5.03323 22.7523 4.80479 22.5867 4.61117C22.4211 4.41765 22.2156 4.26378 21.9857 4.15883C21.7558 4.05392 21.5063 4 21.2544 4H5.65888L5.37926 2.43946C5.30763 2.03974 5.09954 1.67525 4.78757 1.41106C4.47528 1.1466 4.07905 1 3.66772 1H2ZM6.01724 6L7.09234 12H19.8258L20.9442 6H6.01724ZM19 18C18.4477 18 18 18.4477 18 19C18 19.5523 18.4477 20 19 20C19.5523 20 20 19.5523 20 19C20 18.4477 19.5523 18 19 18ZM8 18C7.44772 18 7 18.4477 7 19C7 19.5523 7.44772 20 8 20C8.55228 20 9 19.5523 9 19C9 18.4477 8.55228 18 8 18Z" fill="white"/>
</svg>