<svg width="24" height="24" viewBox="0 0 24 24" fill="none" xmlns="http://www.w3.org/2000/svg">
<path fill-rule="evenodd" clip-rule="evenodd" d="M7.51245 9C6.40788 9 5.51245 9.89543 5.51245 11C5.51245 12.1046 6.40788 13 7.51245 13C8.61702 13 9.51245 12.1046 9.51245 11C9.51245 9.89543 8.61702 9 7.51245 9ZM3.51245 11C3.51245 8.79086 5.30331 7 7.51245 7C9.72159 7 11.5124 8.79086 11.5124 11C11.5124 12.1191 11.0529 13.1309 10.3121 13.8569C10.4014 13.9172 10.4889 13.9806 10.5746 14.0469C11.451 14.7255 12.0772 15.6761 12.3547 16.7493C12.4929 17.2841 12.1716 17.8296 11.6369 17.9678C11.1022 18.1061 10.5566 17.7847 10.4184 17.25C10.2519 16.606 9.87608 16.0355 9.35011 15.6282C8.82413 15.221 8.17775 15 7.51253 15C6.84731 15 6.20095 15.221 5.675 15.6284C5.14905 16.0357 4.77332 16.6061 4.60685 17.2502C4.46864 17.7849 3.92312 18.1063 3.38841 17.9681C2.8537 17.8299 2.53228 17.2844 2.67049 16.7497C2.9479 15.6765 3.57401 14.7258 4.45044 14.0471C4.53608 13.9808 4.62363 13.9174 4.71294 13.8571C3.97211 13.1311 3.51245 12.1192 3.51245 11ZM15 9C14.4477 9 14 9.44772 14 10C14 10.5523 14.4477 11 15 11H20C20.5523 11 21 10.5523 21 10C21 9.44772 20.5523 9 20 9H15ZM15 13C14.4477 13 14 13.4477 14 14C14 14.5523 14.4477 15 15 15H20C20.5523 15 21 14.5523 21 14C21 13.4477 20.5523 13 20 13H15Z" fill="#CACFD3"/>
<path d="M22.0833 2H1.91667C1.41041 2 1 2.44772 1 3V21C1 21.5523 1.41041 22 1.91667 22H22.0833C22.5896 22 23 21.5523 23 21V3C23 2.44772 22.5896 2 22.0833 2Z" stroke="#CACFD3" stroke-width="2" stroke-linecap="round" stroke-linejoin="round"/>
</svg>