<svg width="903" height="163" viewBox="0 0 903 163" fill="none" xmlns="http://www.w3.org/2000/svg">
<path d="M0 160.308V25.6923H61.4369C73.7243 25.6923 84.2838 27.6795 93.1153 31.6538C102.075 35.6282 108.987 41.3974 113.85 48.9615C118.714 56.3974 121.146 65.2436 121.146 75.5C121.146 85.6282 118.714 94.4102 113.85 101.846C108.987 109.282 102.075 115.051 93.1153 119.154C84.2838 123.128 73.7243 125.115 61.4369 125.115H21.1189L38.0141 108.577V160.308H0ZM38.0141 112.615L21.1189 95.1154H59.133C67.0687 95.1154 72.9564 93.3846 76.7962 89.9231C80.764 86.4615 82.7479 81.6538 82.7479 75.5C82.7479 69.218 80.764 64.3462 76.7962 60.8846C72.9564 57.4231 67.0687 55.6923 59.133 55.6923H21.1189L38.0141 38.1923V112.615Z" fill="black"/>
<path d="M134.881 160.308V25.6923H172.895V160.308H134.881Z" fill="black"/>
<path d="M262.145 163C251.521 163 241.666 161.333 232.578 158C223.619 154.538 215.811 149.667 209.156 143.385C202.628 137.103 197.508 129.731 193.796 121.269C190.084 112.679 188.229 103.256 188.229 93C188.229 82.7436 190.084 73.3846 193.796 64.9231C197.508 56.3333 202.628 48.8974 209.156 42.6154C215.811 36.3333 223.619 31.5256 232.578 28.1923C241.666 24.7308 251.521 23 262.145 23C274.56 23 285.632 25.1795 295.359 29.5385C305.215 33.8974 313.406 40.1795 319.934 48.3846L295.743 70.3077C291.391 65.1795 286.592 61.2692 281.344 58.5769C276.224 55.8846 270.464 54.5385 264.065 54.5385C258.561 54.5385 253.505 55.4359 248.898 57.2308C244.29 59.0256 240.322 61.6538 236.994 65.1154C233.794 68.4487 231.234 72.4872 229.315 77.2308C227.523 81.9744 226.627 87.2308 226.627 93C226.627 98.7692 227.523 104.026 229.315 108.769C231.234 113.513 233.794 117.615 236.994 121.077C240.322 124.41 244.29 126.974 248.898 128.769C253.505 130.564 258.561 131.462 264.065 131.462C270.464 131.462 276.224 130.115 281.344 127.423C286.592 124.731 291.391 120.821 295.743 115.692L319.934 137.615C313.406 145.692 305.215 151.974 295.359 156.462C285.632 160.82 274.56 163 262.145 163Z" fill="black"/>
<path d="M366.066 130.5L363.954 87.8077L421.743 25.6923H463.597L406 88.1923L384.881 110.308L366.066 130.5ZM332.083 160.308V25.6923H369.714V160.308H332.083ZM422.319 160.308L378.545 104.731L403.312 78.1923L466.477 160.308H422.319Z" fill="black"/>
<path d="M584.737 163C564.898 163 549.411 157.551 538.275 146.654C527.14 135.756 521.572 120.308 521.572 100.308V25.6923H559.586V99.1538C559.586 110.692 561.826 118.962 566.306 123.962C570.913 128.962 577.185 131.462 585.121 131.462C593.056 131.462 599.264 128.962 603.744 123.962C608.224 118.962 610.463 110.692 610.463 99.1538V25.6923H647.902V100.308C647.902 120.308 642.334 135.756 631.198 146.654C620.063 157.551 604.576 163 584.737 163Z" fill="black"/>
<path d="M668.854 160.308V25.6923H730.291C742.578 25.6923 753.138 27.6795 761.969 31.6538C770.929 35.6282 777.841 41.3974 782.704 48.9615C787.568 56.3974 790 65.2436 790 75.5C790 85.6282 787.568 94.4102 782.704 101.846C777.841 109.282 770.929 115.051 761.969 119.154C753.138 123.128 742.578 125.115 730.291 125.115H689.973L706.868 108.577V160.308H668.854ZM706.868 112.615L689.973 95.1154H727.987C735.923 95.1154 741.81 93.3846 745.65 89.9231C749.618 86.4615 751.602 81.6538 751.602 75.5C751.602 69.218 749.618 64.3462 745.65 60.8846C741.81 57.4231 735.923 55.6923 727.987 55.6923H689.973L706.868 38.1923V112.615Z" fill="black"/>
<path d="M773.762 54.938C770.055 54.938 766.616 54.3573 763.444 53.196C760.318 51.99 757.593 50.2927 755.27 48.104C752.992 45.9153 751.206 43.347 749.91 40.399C748.615 37.4063 747.967 34.1233 747.967 30.55C747.967 26.9767 748.615 23.716 749.91 20.768C751.206 17.7753 752.992 15.1847 755.27 12.996C757.593 10.8073 760.318 9.13233 763.444 7.971C766.616 6.765 770.055 6.162 773.762 6.162C778.095 6.162 781.959 6.92133 785.353 8.44C788.793 9.95867 791.651 12.1473 793.929 15.006L785.487 22.644C783.969 20.8573 782.294 19.495 780.462 18.557C778.676 17.619 776.666 17.15 774.432 17.15C772.512 17.15 770.747 17.4627 769.139 18.088C767.531 18.7133 766.147 19.629 764.985 20.835C763.869 21.9963 762.975 23.4033 762.305 25.056C761.68 26.7087 761.367 28.54 761.367 30.55C761.367 32.56 761.68 34.3913 762.305 36.044C762.975 37.6967 763.869 39.126 764.985 40.332C766.147 41.4933 767.531 42.3867 769.139 43.012C770.747 43.6373 772.512 43.95 774.432 43.95C776.666 43.95 778.676 43.481 780.462 42.543C782.294 41.605 783.969 40.2427 785.487 38.456L793.929 46.094C791.651 48.908 788.793 51.0967 785.353 52.66C781.959 54.1787 778.095 54.938 773.762 54.938ZM798.169 54V7.1H811.435V54H798.169ZM829.181 54V17.619H814.776V7.1H856.785V17.619H842.447V54H829.181ZM870.799 54V34.168L873.881 42.141L852.91 7.1H866.913L882.055 32.493H873.948L889.157 7.1H902.021L881.117 42.141L884.065 34.168V54H870.799Z" fill="black"/>
<path d="M763.444 53.196L761.14 59.1695L761.191 59.1892L761.243 59.208L763.444 53.196ZM755.27 48.104L750.835 52.7208L750.857 52.7423L750.88 52.7636L755.27 48.104ZM749.91 40.399L744.035 42.9422L744.042 42.9584L744.049 42.9745L749.91 40.399ZM749.91 20.768L755.772 23.3435L755.779 23.3274L755.786 23.3112L749.91 20.768ZM755.27 12.996L750.88 8.33637L750.857 8.35766L750.835 8.37917L755.27 12.996ZM763.444 7.971L765.674 13.9728L765.697 13.9642L765.72 13.9553L763.444 7.971ZM785.353 8.44L782.739 14.2843L782.753 14.2906L782.767 14.2969L785.353 8.44ZM793.929 15.006L798.225 19.7536L802.684 15.719L798.937 11.016L793.929 15.006ZM785.487 22.644L780.609 26.7905L784.886 31.8221L789.783 27.3916L785.487 22.644ZM780.462 18.557L777.486 24.2257L777.515 24.2407L777.544 24.2554L780.462 18.557ZM769.139 18.088L771.46 24.0551L771.46 24.0551L769.139 18.088ZM764.985 20.835L760.374 16.394L760.37 16.3974L764.985 20.835ZM762.305 25.056L756.372 22.6506L756.344 22.7201L756.317 22.7902L762.305 25.056ZM762.305 36.044L756.317 38.3098L756.344 38.3799L756.372 38.4494L762.305 36.044ZM764.985 40.332L760.288 44.6819L760.371 44.7722L760.458 44.8592L764.985 40.332ZM769.139 43.012L771.46 37.0449H771.46L769.139 43.012ZM780.462 42.543L777.544 36.8446L777.515 36.8593L777.486 36.8743L780.462 42.543ZM785.487 38.456L789.783 33.7084L784.886 29.2779L780.609 34.3095L785.487 38.456ZM793.929 46.094L798.906 50.1224L802.719 45.4122L798.225 41.3464L793.929 46.094ZM785.353 52.66L787.968 58.5043L787.985 58.4965L788.003 58.4886L785.353 52.66ZM773.762 48.5356C770.733 48.5356 768.046 48.063 765.646 47.184L761.243 59.208C765.185 60.6517 769.377 61.3404 773.762 61.3404V48.5356ZM765.749 47.2225C763.357 46.2999 761.35 45.0358 759.661 43.4444L750.88 52.7636C753.836 55.5496 757.279 57.6801 761.14 59.1695L765.749 47.2225ZM759.706 43.4872C758.044 41.8904 756.737 40.0195 755.772 37.8235L744.049 42.9745C745.675 46.6745 747.941 49.9402 750.835 52.7208L759.706 43.4872ZM755.786 37.8558C754.87 35.74 754.37 33.3329 754.37 30.55H741.565C741.565 34.9137 742.36 39.0727 744.035 42.9422L755.786 37.8558ZM754.37 30.55C754.37 27.7656 754.871 25.3948 755.772 23.3435L744.049 18.1925C742.36 22.0372 741.565 26.1877 741.565 30.55H754.37ZM755.786 23.3112C756.755 21.0727 758.061 19.1936 759.706 17.6128L750.835 8.37917C747.924 11.1757 745.657 14.4779 744.035 18.2248L755.786 23.3112ZM759.661 17.6556C761.332 16.0809 763.313 14.8496 765.674 13.9728L761.215 1.96919C757.322 3.41509 753.854 5.53379 750.88 8.33637L759.661 17.6556ZM765.72 13.9553C768.1 13.0503 770.761 12.5644 773.762 12.5644V-0.240442C769.35 -0.240442 765.131 0.479695 761.169 1.98666L765.72 13.9553ZM773.762 12.5644C777.341 12.5644 780.291 13.1894 782.739 14.2843L787.968 2.59574C783.626 0.653303 778.849 -0.240442 773.762 -0.240442V12.5644ZM782.767 14.2969C785.289 15.4103 787.308 16.9696 788.922 18.996L798.937 11.016C795.995 7.32503 792.297 4.50707 787.94 2.58312L782.767 14.2969ZM789.634 10.2584L781.192 17.8964L789.783 27.3916L798.225 19.7536L789.634 10.2584ZM790.366 18.4975C788.378 16.1587 786.059 14.2299 783.381 12.8586L777.544 24.2554C778.529 24.7601 779.56 25.5559 780.609 26.7905L790.366 18.4975ZM783.439 12.8883C780.639 11.4186 777.59 10.7476 774.432 10.7476V23.5524C775.742 23.5524 776.712 23.8194 777.486 24.2257L783.439 12.8883ZM774.432 10.7476C771.808 10.7476 769.246 11.1771 766.819 12.1209L771.46 24.0551C772.249 23.7483 773.216 23.5524 774.432 23.5524V10.7476ZM766.819 12.1209C764.373 13.0722 762.199 14.4985 760.374 16.394L769.597 25.276C770.095 24.7595 770.69 24.3545 771.46 24.0551L766.819 12.1209ZM760.37 16.3974C758.632 18.2058 757.315 20.3235 756.372 22.6506L768.239 27.4614C768.635 26.4831 769.106 25.7869 769.601 25.2726L760.37 16.3974ZM756.317 22.7902C755.383 25.2593 754.965 27.8713 754.965 30.55H767.77C767.77 29.2087 767.977 28.158 768.294 27.3218L756.317 22.7902ZM754.965 30.55C754.965 33.2287 755.383 35.8407 756.317 38.3098L768.294 33.7782C767.977 32.942 767.77 31.8913 767.77 30.55H754.965ZM756.372 38.4494C757.308 40.7584 758.602 42.8612 760.288 44.6819L769.683 35.9821C769.136 35.3908 768.643 34.6349 768.239 33.6386L756.372 38.4494ZM760.458 44.8592C762.279 46.6799 764.426 48.0486 766.819 48.9791L771.46 37.0449C770.637 36.7248 770.015 36.3068 769.513 35.8048L760.458 44.8592ZM766.819 48.9791C769.246 49.9229 771.808 50.3524 774.432 50.3524V37.5476C773.216 37.5476 772.249 37.3517 771.46 37.0449L766.819 48.9791ZM774.432 50.3524C777.59 50.3524 780.639 49.6814 783.439 48.2117L777.486 36.8743C776.712 37.2806 775.742 37.5476 774.432 37.5476V50.3524ZM783.381 48.2414C786.059 46.8701 788.378 44.9413 790.366 42.6025L780.609 34.3095C779.56 35.5441 778.529 36.3399 777.544 36.8446L783.381 48.2414ZM781.192 43.2036L789.634 50.8416L798.225 41.3464L789.783 33.7084L781.192 43.2036ZM788.953 42.0656C787.328 44.0732 785.279 45.661 782.704 46.8314L788.003 58.4886C792.306 56.5324 795.975 53.7428 798.906 50.1224L788.953 42.0656ZM782.739 46.8157C780.291 47.9106 777.341 48.5356 773.762 48.5356V61.3404C778.849 61.3404 783.626 60.4467 787.968 58.5043L782.739 46.8157ZM798.169 54H791.767V60.4024H798.169V54ZM798.169 7.1V0.697558H791.767V7.1H798.169ZM811.435 7.1H817.838V0.697558H811.435V7.1ZM811.435 54V60.4024H817.838V54H811.435ZM804.572 54V7.1H791.767V54H804.572ZM798.169 13.5024H811.435V0.697558H798.169V13.5024ZM805.033 7.1V54H817.838V7.1H805.033ZM811.435 47.5976H798.169V60.4024H811.435V47.5976ZM829.181 54H822.779V60.4024H829.181V54ZM829.181 17.619H835.584V11.2166H829.181V17.619ZM814.776 17.619H808.374V24.0214H814.776V17.619ZM814.776 7.1V0.697558H808.374V7.1H814.776ZM856.785 7.1H863.188V0.697558H856.785V7.1ZM856.785 17.619V24.0214H863.188V17.619H856.785ZM842.447 17.619V11.2166H836.045V17.619H842.447ZM842.447 54V60.4024H848.85V54H842.447ZM835.584 54V17.619H822.779V54H835.584ZM829.181 11.2166H814.776V24.0214H829.181V11.2166ZM821.179 17.619V7.1H808.374V17.619H821.179ZM814.776 13.5024H856.785V0.697558H814.776V13.5024ZM850.383 7.1V17.619H863.188V7.1H850.383ZM856.785 11.2166H842.447V24.0214H856.785V11.2166ZM836.045 17.619V54H848.85V17.619H836.045ZM842.447 47.5976H829.181V60.4024H842.447V47.5976ZM870.799 54H864.397V60.4024H870.799V54ZM870.799 34.168L876.771 31.8596L864.397 34.168H870.799ZM873.881 42.141L868.388 45.4288L879.853 39.8326L873.881 42.141ZM852.91 7.1V0.697558H841.617L847.417 10.3878L852.91 7.1ZM866.913 7.1L872.412 3.82092L870.55 0.697558H866.913V7.1ZM882.055 32.493V38.8954H893.328L887.554 29.2139L882.055 32.493ZM873.948 32.493L868.456 29.2032L862.651 38.8954H873.948V32.493ZM889.157 7.1V0.697558H885.529L883.665 3.81023L889.157 7.1ZM902.021 7.1L907.52 10.3801L913.296 0.697558H902.021V7.1ZM881.117 42.141L875.112 39.9206L886.616 45.4211L881.117 42.141ZM884.065 34.168H890.468L878.06 31.9476L884.065 34.168ZM884.065 54V60.4024H890.468V54H884.065ZM877.202 54V34.168H864.397V54H877.202ZM864.828 36.4764L867.91 44.4494L879.853 39.8326L876.771 31.8596L864.828 36.4764ZM879.375 38.8532L858.404 3.81215L847.417 10.3878L868.388 45.4288L879.375 38.8532ZM852.91 13.5024H866.913V0.697558H852.91V13.5024ZM861.414 10.3791L876.556 35.7721L887.554 29.2139L872.412 3.82092L861.414 10.3791ZM882.055 26.0906H873.948V38.8954H882.055V26.0906ZM879.441 35.7828L894.65 10.3898L883.665 3.81023L868.456 29.2032L879.441 35.7828ZM889.157 13.5024H902.021V0.697558H889.157V13.5024ZM896.523 3.81989L875.619 38.8609L886.616 45.4211L907.52 10.3801L896.523 3.81989ZM887.122 44.3614L890.07 36.3884L878.06 31.9476L875.112 39.9206L887.122 44.3614ZM877.663 34.168V54H890.468V34.168H877.663ZM884.065 47.5976H870.799V60.4024H884.065V47.5976Z" fill="white"/>
</svg>

<path d="M366.066 130.5L363.954 87.8077L421.743 25.6923H463.597L406 88.1923L384.881 110.308L366.066 130.5ZM332.083 160.308V25.6923H369.714V160.308H332.083ZM422.319 160.308L378.545 104.731L403.312 78.1923L466.477 160.308H422.319Z" fill="black"/>
<path d="M584.737 163C564.898 163 549.411 157.551 538.275 146.654C527.14 135.756 521.572 120.308 521.572 100.308V25.6923H559.586V99.1538C559.586 110.692 561.826 118.962 566.306 123.962C570.913 128.962 577.185 131.462 585.121 131.462C593.056 131.462 599.264 128.962 603.744 123.962C608.224 118.962 610.463 110.692 610.463 99.1538V25.6923H647.902V100.308C647.902 120.308 642.334 135.756 631.198 146.654C620.063 157.551 604.576 163 584.737 163Z" fill="black"/>
<path d="M668.854 160.308V25.6923H730.291C742.578 25.6923 753.138 27.6795 761.969 31.6538C770.929 35.6282 777.841 41.3974 782.704 48.9615C787.568 56.3974 790 65.2436 790 75.5C790 85.6282 787.568 94.4102 782.704 101.846C777.841 109.282 770.929 115.051 761.969 119.154C753.138 123.128 742.578 125.115 730.291 125.115H689.973L706.868 108.577V160.308H668.854ZM706.868 112.615L689.973 95.1154H727.987C735.923 95.1154 741.81 93.3846 745.65 89.9231C749.618 86.4615 751.602 81.6538 751.602 75.5C751.602 69.218 749.618 64.3462 745.65 60.8846C741.81 57.4231 735.923 55.6923 727.987 55.6923H689.973L706.868 38.1923V112.615Z" fill="black"/>
<path d="M773.762 54.938C770.055 54.938 766.616 54.3573 763.444 53.196C760.318 51.99 757.593 50.2927 755.27 48.104C752.992 45.9153 751.206 43.347 749.91 40.399C748.615 37.4063 747.967 34.1233 747.967 30.55C747.967 26.9767 748.615 23.716 749.91 20.768C751.206 17.7753 752.992 15.1847 755.27 12.996C757.593 10.8073 760.318 9.13233 763.444 7.971C766.616 6.765 770.055 6.162 773.762 6.162C778.095 6.162 781.959 6.92133 785.353 8.44C788.793 9.95867 791.651 12.1473 793.929 15.006L785.487 22.644C783.969 20.8573 782.294 19.495 780.462 18.557C778.676 17.619 776.666 17.15 774.432 17.15C772.512 17.15 770.747 17.4627 769.139 18.088C767.531 18.7133 766.147 19.629 764.985 20.835C763.869 21.9963 762.975 23.4033 762.305 25.056C761.68 26.7087 761.367 28.54 761.367 30.55C761.367 32.56 761.68 34.3913 762.305 36.044C762.975 37.6967 763.869 39.126 764.985 40.332C766.147 41.4933 767.531 42.3867 769.139 43.012C770.747 43.6373 772.512 43.95 774.432 43.95C776.666 43.95 778.676 43.481 780.462 42.543C782.294 41.605 783.969 40.2427 785.487 38.456L793.929 46.094C791.651 48.908 788.793 51.0967 785.353 52.66C781.959 54.1787 778.095 54.938 773.762 54.938ZM798.169 54V7.1H811.435V54H798.169ZM829.181 54V17.619H814.776V7.1H856.785V17.619H842.447V54H829.181ZM870.799 54V34.168L873.881 42.141L852.91 7.1H866.913L882.055 32.493H873.948L889.157 7.1H902.021L881.117 42.141L884.065 34.168V54H870.799Z" fill="black"/>
<path d="M763.444 53.196L761.14 59.1695L761.191 59.1892L761.243 59.208L763.444 53.196ZM755.27 48.104L750.835 52.7208L750.857 52.7423L750.88 52.7636L755.27 48.104ZM749.91 40.399L744.035 42.9422L744.042 42.9584L744.049 42.9745L749.91 40.399ZM749.91 20.768L755.772 23.3435L755.779 23.3274L755.786 23.3112L749.91 20.768ZM755.27 12.996L750.88 8.33637L750.857 8.35766L750.835 8.37917L755.27 12.996ZM763.444 7.971L765.674 13.9728L765.697 13.9642L765.72 13.9553L763.444 7.971ZM785.353 8.44L782.739 14.2843L782.753 14.2906L782.767 14.2969L785.353 8.44ZM793.929 15.006L798.225 19.7536L802.684 15.719L798.937 11.016L793.929 15.006ZM785.487 22.644L780.609 26.7905L784.886 31.8221L789.783 27.3916L785.487 22.644ZM780.462 18.557L777.486 24.2257L777.515 24.2407L777.544 24.2554L780.462 18.557ZM769.139 18.088L771.46 24.0551L771.46 24.0551L769.139 18.088ZM764.985 20.835L760.374 16.394L760.37 16.3974L764.985 20.835ZM762.305 25.056L756.372 22.6506L756.344 22.7201L756.317 22.7902L762.305 25.056ZM762.305 36.044L756.317 38.3098L756.344 38.3799L756.372 38.4494L762.305 36.044ZM764.985 40.332L760.288 44.6819L760.371 44.7722L760.458 44.8592L764.985 40.332ZM769.139 43.012L771.46 37.0449H771.46L769.139 43.012ZM780.462 42.543L777.544 36.8446L777.515 36.8593L777.486 36.8743L780.462 42.543ZM785.487 38.456L789.783 33.7084L784.886 29.2779L780.609 34.3095L785.487 38.456ZM793.929 46.094L798.906 50.1224L802.719 45.4122L798.225 41.3464L793.929 46.094ZM785.353 52.66L787.968 58.5043L787.985 58.4965L788.003 58.4886L785.353 52.66ZM773.762 48.5356C770.733 48.5356 768.046 48.063 765.646 47.184L761.243 59.208C765.185 60.6517 769.377 61.3404 773.762 61.3404V48.5356ZM765.749 47.2225C763.357 46.2999 761.35 45.0358 759.661 43.4444L750.88 52.7636C753.836 55.5496 757.279 57.6801 761.14 59.1695L765.749 47.2225ZM759.706 43.4872C758.044 41.8904 756.737 40.0195 755.772 37.8235L744.049 42.9745C745.675 46.6745 747.941 49.9402 750.835 52.7208L759.706 43.4872ZM755.786 37.8558C754.87 35.74 754.37 33.3329 754.37 30.55H741.565C741.565 34.9137 742.36 39.0727 744.035 42.9422L755.786 37.8558ZM754.37 30.55C754.37 27.7656 754.871 25.3948 755.772 23.3435L744.049 18.1925C742.36 22.0372 741.565 26.1877 741.565 30.55H754.37ZM755.786 23.3112C756.755 21.0727 758.061 19.1936 759.706 17.6128L750.835 8.37917C747.924 11.1757 745.657 14.4779 744.035 18.2248L755.786 23.3112ZM759.661 17.6556C761.332 16.0809 763.313 14.8496 765.674 13.9728L761.215 1.96919C757.322 3.41509 753.854 5.53379 750.88 8.33637L759.661 17.6556ZM765.72 13.9553C768.1 13.0503 770.761 12.5644 773.762 12.5644V-0.240442C769.35 -0.240442 765.131 0.479695 761.169 1.98666L765.72 13.9553ZM773.762 12.5644C777.341 12.5644 780.291 13.1894 782.739 14.2843L787.968 2.59574C783.626 0.653303 778.849 -0.240442 773.762 -0.240442V12.5644ZM782.767 14.2969C785.289 15.4103 787.308 16.9696 788.922 18.996L798.937 11.016C795.995 7.32503 792.297 4.50707 787.94 2.58312L782.767 14.2969ZM789.634 10.2584L781.192 17.8964L789.783 27.3916L798.225 19.7536L789.634 10.2584ZM790.366 18.4975C788.378 16.1587 786.059 14.2299 783.381 12.8586L777.544 24.2554C778.529 24.7601 779.56 25.5559 780.609 26.7905L790.366 18.4975ZM783.439 12.8883C780.639 11.4186 777.59 10.7476 774.432 10.7476V23.5524C775.742 23.5524 776.712 23.8194 777.486 24.2257L783.439 12.8883ZM774.432 10.7476C771.808 10.7476 769.246 11.1771 766.819 12.1209L771.46 24.0551C772.249 23.7483 773.216 23.5524 774.432 23.5524V10.7476ZM766.819 12.1209C764.373 13.0722 762.199 14.4985 760.374 16.394L769.597 25.276C770.095 24.7595 770.69 24.3545 771.46 24.0551L766.819 12.1209ZM760.37 16.3974C758.632 18.2058 757.315 20.3235 756.372 22.6506L768.239 27.4614C768.635 26.4831 769.106 25.7869 769.601 25.2726L760.37 16.3974ZM756.317 22.7902C755.383 25.2593 754.965 27.8713 754.965 30.55H767.77C767.77 29.2087 767.977 28.158 768.294 27.3218L756.317 22.7902ZM754.965 30.55C754.965 33.2287 755.383 35.8407 756.317 38.3098L768.294 33.7782C767.977 32.942 767.77 31.8913 767.77 30.55H754.965ZM756.372 38.4494C757.308 40.7584 758.602 42.8612 760.288 44.6819L769.683 35.9821C769.136 35.3908 768.643 34.6349 768.239 33.6386L756.372 38.4494ZM760.458 44.8592C762.279 46.6799 764.426 48.0486 766.819 48.9791L771.46 37.0449C770.637 36.7248 770.015 36.3068 769.513 35.8048L760.458 44.8592ZM766.819 48.9791C769.246 49.9229 771.808 50.3524 774.432 50.3524V37.5476C773.216 37.5476 772.249 37.3517 771.46 37.0449L766.819 48.9791ZM774.432 50.3524C777.59 50.3524 780.639 49.6814 783.439 48.2117L777.486 36.8743C776.712 37.2806 775.742 37.5476 774.432 37.5476V50.3524ZM783.381 48.2414C786.059 46.8701 788.378 44.9413 790.366 42.6025L780.609 34.3095C779.56 35.5441 778.529 36.3399 777.544 36.8446L783.381 48.2414ZM781.192 43.2036L789.634 50.8416L798.225 41.3464L789.783 33.7084L781.192 43.2036ZM788.953 42.0656C787.328 44.0732 785.279 45.661 782.704 46.8314L788.003 58.4886C792.306 56.5324 795.975 53.7428 798.906 50.1224L788.953 42.0656ZM782.739 46.8157C780.291 47.9106 777.341 48.5356 773.762 48.5356V61.3404C778.849 61.3404 783.626 60.4467 787.968 58.5043L782.739 46.8157ZM798.169 54H791.767V60.4024H798.169V54ZM798.169 7.1V0.697558H791.767V7.1H798.169ZM811.435 7.1H817.838V0.697558H811.435V7.1ZM811.435 54V60.4024H817.838V54H811.435ZM804.572 54V7.1H791.767V54H804.572ZM798.169 13.5024H811.435V0.697558H798.169V13.5024ZM805.033 7.1V54H817.838V7.1H805.033ZM811.435 47.5976H798.169V60.4024H811.435V47.5976ZM829.181 54H822.779V60.4024H829.181V54ZM829.181 17.619H835.584V11.2166H829.181V17.619ZM814.776 17.619H808.374V24.0214H814.776V17.619ZM814.776 7.1V0.697558H808.374V7.1H814.776ZM856.785 7.1H863.188V0.697558H856.785V7.1ZM856.785 17.619V24.0214H863.188V17.619H856.785ZM842.447 17.619V11.2166H836.045V17.619H842.447ZM842.447 54V60.4024H848.85V54H842.447ZM835.584 54V17.619H822.779V54H835.584ZM829.181 11.2166H814.776V24.0214H829.181V11.2166ZM821.179 17.619V7.1H808.374V17.619H821.179ZM814.776 13.5024H856.785V0.697558H814.776V13.5024ZM850.383 7.1V17.619H863.188V7.1H850.383ZM856.785 11.2166H842.447V24.0214H856.785V11.2166ZM836.045 17.619V54H848.85V17.619H836.045ZM842.447 47.5976H829.181V60.4024H842.447V47.5976ZM870.799 54H864.397V60.4024H870.799V54ZM870.799 34.168L876.771 31.8596L864.397 34.168H870.799ZM873.881 42.141L868.388 45.4288L879.853 39.8326L873.881 42.141ZM852.91 7.1V0.697558H841.617L847.417 10.3878L852.91 7.1ZM866.913 7.1L872.412 3.82092L870.55 0.697558H866.913V7.1ZM882.055 32.493V38.8954H893.328L887.554 29.2139L882.055 32.493ZM873.948 32.493L868.456 29.2032L862.651 38.8954H873.948V32.493ZM889.157 7.1V0.697558H885.529L883.665 3.81023L889.157 7.1ZM902.021 7.1L907.52 10.3801L913.296 0.697558H902.021V7.1ZM881.117 42.141L875.112 39.9206L886.616 45.4211L881.117 42.141ZM884.065 34.168H890.468L878.06 31.9476L884.065 34.168ZM884.065 54V60.4024H890.468V54H884.065ZM877.202 54V34.168H864.397V54H877.202ZM864.828 36.4764L867.91 44.4494L879.853 39.8326L876.771 31.8596L864.828 36.4764ZM879.375 38.8532L858.404 3.81215L847.417 10.3878L868.388 45.4288L879.375 38.8532ZM852.91 13.5024H866.913V0.697558H852.91V13.5024ZM861.414 10.3791L876.556 35.7721L887.554 29.2139L872.412 3.82092L861.414 10.3791ZM882.055 26.0906H873.948V38.8954H882.055V26.0906ZM879.441 35.7828L894.65 10.3898L883.665 3.81023L868.456 29.2032L879.441 35.7828ZM889.157 13.5024H902.021V0.697558H889.157V13.5024ZM896.523 3.81989L875.619 38.8609L886.616 45.4211L907.52 10.3801L896.523 3.81989ZM887.122 44.3614L890.07 36.3884L878.06 31.9476L875.112 39.9206L887.122 44.3614ZM877.663 34.168V54H890.468V34.168H877.663ZM884.065 47.5976H870.799V60.4024H884.065V47.5976Z" fill="white"/>
</svg>
