<svg width="24" height="24" viewBox="0 0 24 24" fill="none" xmlns="http://www.w3.org/2000/svg">
  <path
    d="M22.2691 0H1.7309C0.774902 0 0 0.774902 0 1.7309V22.2691C0 23.2251 0.774902 24 1.7309 24H12.8203V14.7188H9.70312V11.0859H12.8203V8.41241C12.8203 5.31207 14.7131 3.62457 17.4787 3.62457C18.8033 3.62457 19.9417 3.72327 20.2734 3.7674V7.00781H18.3664C16.8616 7.00781 16.5703 7.72284 16.5703 8.77222V11.0859H20.168L19.6992 14.7188H16.5703V24H22.2691C23.2251 24 24 23.2251 24 22.2691V1.7309C24 0.774902 23.2251 0 22.2691 0V0Z"
    fill="#64727D"
  />
</svg>
