<svg width="24" height="24" viewBox="0 0 24 24" fill="none" xmlns="http://www.w3.org/2000/svg">
<path d="M7.95044 9.26554L3.37231 13.8437C1.54256 15.6734 1.54256 18.64 3.37231 20.4698L3.53022 20.6277C5.35997 22.4574 8.32658 22.4574 10.1563 20.6277L20.6277 10.1563C22.4574 8.32658 22.4574 5.35997 20.6277 3.53022L20.4698 3.37231C18.64 1.54256 15.6734 1.54256 13.8437 3.37231L9.26563 7.95035L10.37 9.0547L14.948 4.47666C16.1679 3.25683 18.1456 3.25683 19.3654 4.47666L19.5233 4.63457C20.7432 5.8544 20.7432 7.83214 19.5233 9.05198L14.9453 13.63L16.0496 14.7343L14.7344 16.0495L13.6301 14.9452L9.05198 19.5233C7.83215 20.7432 5.8544 20.7432 4.63457 19.5233L4.47666 19.3654C3.25683 18.1456 3.25683 16.1679 4.47666 14.948L9.05479 10.3699L7.95044 9.26554Z" fill="#64727D"/>
<path d="M8.03035 14.6061L14.6063 8.03019L15.9215 9.34538L9.34554 15.9213L8.03035 14.6061Z" fill="#64727D"/>
</svg>
