<svg width="21" height="21" viewBox="0 0 21 21" fill="none" xmlns="http://www.w3.org/2000/svg">
<g clip-path="url(#clip0_525_7)">
<path fill-rule="evenodd" clip-rule="evenodd" d="M1.6 7.78555H16.1776V19.4002H1.6V7.78555ZM0 7.78555C0 6.90189 0.716344 6.18555 1.6 6.18555H16.1776C17.0613 6.18555 17.7776 6.90189 17.7776 7.78555V19.4002C17.7776 20.2839 17.0613 21.0002 16.1776 21.0002H1.6C0.716348 21.0002 0 20.2839 0 19.4002V7.78555ZM8.88683 10.6304C8.06864 10.6304 7.40536 11.2937 7.40536 12.1119V15.0748C7.40536 15.893 8.06864 16.5563 8.88683 16.5563C9.70502 16.5563 10.3683 15.893 10.3683 15.0748V12.1119C10.3683 11.2937 9.70502 10.6304 8.88683 10.6304Z" fill="#64727D"/>
<path d="M5.0927 7V4.70367C5.0927 2.65819 6.7508 1 8.7963 1C10.8418 1 12.5 2.65819 12.5 4.70367V7" stroke="#64727D" stroke-width="1.6"/>
</g>
<defs>
<clipPath id="clip0_525_7">
<rect width="21" height="21" fill="white"/>
</clipPath>
</defs>
</svg>
