<svg width="22" height="22" viewBox="0 0 18 18" fill="none" xmlns="http://www.w3.org/2000/svg">
  <path
    fill-rule="evenodd"
    clip-rule="evenodd"
    d="M7.91797 16.2739C7.91797 16.6881 8.25375 17.0239 8.66797 17.0239C9.08218 17.0239 9.41797 16.6881 9.41797 16.2739L9.41797 9.41726L16.2746 9.41726C16.6888 9.41726 17.0246 9.08148 17.0246 8.66726C17.0246 8.25305 16.6888 7.91726 16.2746 7.91726L9.41797 7.91726L9.41797 1.06066C9.41797 0.646447 9.08218 0.310661 8.66797 0.31066C8.25376 0.31066 7.91797 0.646447 7.91797 1.06066L7.91797 7.91726L1.06137 7.91726C0.647153 7.91726 0.311367 8.25305 0.311366 8.66726C0.311367 9.08148 0.647153 9.41726 1.06137 9.41726L7.91797 9.41726L7.91797 16.2739Z"
    fill="#64727D"
  />
</svg>
            