<svg width="24" height="24" viewBox="0 0 24 20" fill="none" xmlns="http://www.w3.org/2000/svg">
  <path
    d="M7.81828 19.0105C16.3093 19.0105 20.9527 11.976 20.9527 5.87612C20.9527 5.67633 20.9485 5.47737 20.9396 5.2795C21.8409 4.62784 22.6242 3.81464 23.2423 2.88902C22.4152 3.25682 21.5249 3.50408 20.5913 3.61595C21.5443 3.04423 22.2761 2.14021 22.6212 1.06255C21.7293 1.59134 20.7414 1.97551 19.6899 2.18301C18.8476 1.28573 17.6481 0.724609 16.3202 0.724609C13.771 0.724609 11.7036 2.79188 11.7036 5.34018C11.7036 5.70261 11.7442 6.05486 11.8233 6.3928C7.9867 6.19975 4.58446 4.36296 2.30791 1.56973C1.91163 2.2518 1.68294 3.04437 1.68294 3.89004C1.68294 5.4914 2.49793 6.90549 3.73714 7.73245C2.9798 7.7092 2.26842 7.50129 1.64648 7.15523C1.64579 7.17463 1.64579 7.19348 1.64579 7.21412C1.64579 9.44981 3.23697 11.3165 5.34951 11.7394C4.96148 11.845 4.55323 11.9018 4.13218 11.9018C3.83524 11.9018 3.54574 11.8726 3.26449 11.8186C3.85217 13.6527 5.55645 14.9874 7.57694 15.0248C5.9969 16.2632 4.00655 17.0009 1.84338 17.0009C1.47132 17.0009 1.10352 16.9796 0.742188 16.9369C2.78524 18.2464 5.21122 19.0106 7.81842 19.0106"
    fill="#64727D"
  />
</svg>
            