<svg width="20" height="21" viewBox="0 0 20 21" fill="none" xmlns="http://www.w3.org/2000/svg">
  <path
    fill-rule="evenodd"
    clip-rule="evenodd"
    d="M14 5.60029C14 7.76536 12.2092 9.5205 10 9.5205C7.79087 9.5205 6.00001 7.76536 6.00001 5.60029C6.00001 3.43522 7.79087 1.68009 10 1.68009C12.2092 1.68009 14 3.43522 14 5.60029ZM12.4576 10.6576C14.3835 9.75707 15.7143 7.83099 15.7143 5.60029C15.7143 2.50734 13.1559 0 10 0C6.8441 0 4.28573 2.50734 4.28573 5.60029C4.28573 7.83099 5.61648 9.75707 7.54238 10.6576C3.20782 11.7311 0 15.5784 0 20.16C0 20.6239 0.383756 21 0.857143 21C1.33053 21 1.71429 20.6239 1.71429 20.16C1.71429 15.6752 5.42393 12.0395 10 12.0395C14.5761 12.0395 18.2857 15.6752 18.2857 20.16C18.2857 20.6239 18.6695 21 19.1429 21C19.6162 21 20 20.6239 20 20.16C20 15.5784 16.7922 11.7311 12.4576 10.6576Z"
    fill="#64727D"
  />
</svg>
