<svg width="18" height="18" viewBox="0 0 18 18" fill="none" xmlns="http://www.w3.org/2000/svg">
<path fill-rule="evenodd" clip-rule="evenodd" d="M1.70711 0.706956C1.31658 0.316431 0.683417 0.316431 0.292893 0.706956C-0.0976312 1.09748 -0.0976309 1.73065 0.292893 2.12117L7.58609 9.41436L0.7071 16.2933C0.316576 16.6839 0.316576 17.317 0.7071 17.7076C1.09762 18.0981 1.73079 18.0981 2.12131 17.7076L9.0003 10.8286L15.8492 17.6775C16.2398 18.068 16.8729 18.068 17.2635 17.6775C17.654 17.287 17.654 16.6538 17.2635 16.2633L10.4145 9.41436L17.6777 2.15121C18.0682 1.76069 18.0682 1.12752 17.6777 0.736999C17.2871 0.346474 16.654 0.346474 16.2634 0.736999L9.0003 8.00015L1.70711 0.706956Z" fill="#64727D"/>
</svg>
