<svg width="24" height="24" viewBox="0 0 24 24" fill="none" xmlns="http://www.w3.org/2000/svg">
<path fill-rule="evenodd" clip-rule="evenodd" d="M10 2C8.89543 2 8 2.89543 8 4V5H4.5C3.94772 5 3.5 5.44772 3.5 6C3.5 6.55228 3.94772 7 4.5 7H5.06888L5.9362 19.1425C6.01096 20.1891 6.88184 21 7.93112 21H16.0689C17.1182 21 17.989 20.1891 18.0638 19.1425L18.9311 7H19.5C20.0523 7 20.5 6.55228 20.5 6C20.5 5.44772 20.0523 5 19.5 5H16V4C16 2.89543 15.1046 2 14 2H10ZM14 5V4H10V5H14ZM7.07398 7H16.926L16.0689 19H7.93112L7.07398 7ZM10 9C10.5523 9 11 9.44772 11 10V16C11 16.5523 10.5523 17 10 17C9.44772 17 9 16.5523 9 16V10C9 9.44772 9.44772 9 10 9ZM15 10C15 9.44772 14.5523 9 14 9C13.4477 9 13 9.44772 13 10V16C13 16.5523 13.4477 17 14 17C14.5523 17 15 16.5523 15 16V10Z" fill="#64727D"/>
</svg>
