<svg width="24" height="24" viewBox="0 0 24 24" fill="none" xmlns="http://www.w3.org/2000/svg">
<path fill-rule="evenodd" clip-rule="evenodd" d="M17.2659 4.91031L15.5562 6.62006L17.8358 8.89969L19.5455 7.18994L17.2659 4.91031ZM7.89413 14.2821L14.142 8.03427L16.4216 10.3139L10.1738 16.5617L7.89413 14.2821ZM6.64378 15.8602L5.42385 19.032L8.59568 17.8121L6.64378 15.8602ZM17.973 2.78899C17.5825 2.39846 16.9493 2.39846 16.5588 2.78899L5.28435 14.0635C5.18541 14.1624 5.10834 14.281 5.05811 14.4116L2.74946 20.4141C2.4384 21.2228 3.23304 22.0175 4.04178 21.7064L10.0443 19.3977C10.1749 19.3475 10.2935 19.2704 10.3924 19.1715L21.6669 7.89704C22.0574 7.50652 22.0574 6.87335 21.6669 6.48283L17.973 2.78899Z" fill="#64727D"/>
</svg>
