<svg class="btn-img" fill="#13aa57" aria-hidden="true" alt="reply" viewBox="0 0 12 11" xmlns="http://www.w3.org/2000/svg">
  <path
    d="M5.9585 0.601204C5.9585 0.0666672 5.31222 -0.201044 4.93423 0.176939L0.675653 4.43552C0.441339 4.66983 0.441338 5.04973 0.675653 5.28405L4.93423 9.54262C5.31221 9.9206 5.9585 9.6529 5.9585 9.11836V6.88846C6.92234 6.99689 7.89379 7.40181 8.76749 7.91575C9.7871 8.51552 10.6291 9.23753 11.1049 9.71334L11.7024 10.3108C11.7969 10.4053 11.9585 10.3384 11.9585 10.2048V9.35978C11.9585 6.60965 10.8888 4.94776 9.48965 3.99632C8.32522 3.2045 6.98058 2.93685 5.9585 2.87503V0.601204ZM4.9585 1.56689V3.85978H5.4585C6.40818 3.85978 7.7937 4.05237 8.92734 4.82325C9.83495 5.44042 10.6267 6.45836 10.8766 8.16975C10.4215 7.80103 9.87734 7.40842 9.27451 7.05381C8.17465 6.40684 6.83439 5.85978 5.4585 5.85978H4.9585V8.15268L1.6656 4.85978L4.9585 1.56689Z"
  />
</svg>