<svg width="20" height="22" viewBox="0 0 20 22" fill="none" xmlns="http://www.w3.org/2000/svg">
<path d="M13.4785 16.75H9.52154C9.34609 16.75 9.17618 16.8115 9.0414 16.9238L4.75 20.5V16.75H2.5C2.30109 16.75 2.11032 16.671 1.96967 16.5303C1.82902 16.3897 1.75 16.1989 1.75 16V2.5C1.75 2.30109 1.82902 2.11032 1.96967 1.96967C2.11032 1.82902 2.30109 1.75 2.5 1.75H17.5C17.6989 1.75 17.8897 1.82902 18.0303 1.96967C18.171 2.11032 18.25 2.30109 18.25 2.5V12.6487C18.25 12.7587 18.2258 12.8673 18.1792 12.9668C18.1326 13.0664 18.0646 13.1545 17.9801 13.2249L13.9586 16.5762C13.8238 16.6885 13.6539 16.75 13.4785 16.75Z" stroke="white" stroke-width="2" stroke-linecap="round" stroke-linejoin="round"/>
</svg>
