<svg width="25" height="25" viewBox="0 0 25 25" fill="none" xmlns="http://www.w3.org/2000/svg">
<path d="M14.8438 4.6875H5.46875C5.0375 4.6875 4.6875 5.0375 4.6875 5.46875C4.6875 5.9 5.0375 6.25 5.46875 6.25H14.8438C15.275 6.25 15.625 5.9 15.625 5.46875C15.625 5.0375 15.275 4.6875 14.8438 4.6875Z" fill="#3E3E3E"/>
<path d="M11.7188 7.8125H5.46875C5.0375 7.8125 4.6875 8.1625 4.6875 8.59375C4.6875 9.025 5.0375 9.375 5.46875 9.375H11.7188C12.15 9.375 12.5 9.025 12.5 8.59375C12.5 8.1625 12.15 7.8125 11.7188 7.8125Z" fill="#3E3E3E"/>
<path d="M17.1875 0H3.125C1.40156 0 0 1.40156 0 3.125V18.75C0 19.0531 0.175 19.3297 0.45 19.4578C0.554688 19.5063 0.66875 19.5312 0.78125 19.5312C0.960938 19.5312 1.13906 19.4688 1.28125 19.35L5.75156 15.625H17.1875C18.9109 15.625 20.3125 14.2234 20.3125 12.5V3.125C20.3125 1.40156 18.9109 0 17.1875 0ZM18.75 12.5C18.75 13.3609 18.05 14.0625 17.1875 14.0625H5.46875C5.28594 14.0625 5.10938 14.1266 4.96875 14.2438L1.5625 17.0828V3.125C1.5625 2.26406 2.2625 1.5625 3.125 1.5625H17.1875C18.05 1.5625 18.75 2.26406 18.75 3.125V12.5Z" fill="#3E3E3E"/>
<path d="M21.875 6.25C21.4438 6.25 21.0938 6.6 21.0938 7.03125C21.0938 7.4625 21.4438 7.8125 21.875 7.8125C22.7375 7.8125 23.4375 8.51406 23.4375 9.375V22.5922L20.8 20.4828C20.6625 20.3734 20.4891 20.3125 20.3125 20.3125H9.375C8.5125 20.3125 7.8125 19.6109 7.8125 18.75V17.9688C7.8125 17.5375 7.4625 17.1875 7.03125 17.1875C6.6 17.1875 6.25 17.5375 6.25 17.9688V18.75C6.25 20.4734 7.65156 21.875 9.375 21.875H20.0375L23.7297 24.8297C23.8719 24.9422 24.0453 25 24.2188 25C24.3328 25 24.4484 24.975 24.5578 24.9234C24.8281 24.7922 25 24.5187 25 24.2188V9.375C25 7.65156 23.5984 6.25 21.875 6.25Z" fill="#3E3E3E"/>
</svg>
