<svg width="25" height="25" xmlns="http://www.w3.org/2000/svg" fill="none">

 <g>
  <title>Layer 1</title>
  <path id="svg_1" fill="#ffffff" d="m14.8438,4.6875l-9.37505,0c-0.43125,0 -0.78125,0.35 -0.78125,0.78125c0,0.43125 0.35,0.78125 0.78125,0.78125l9.37505,0c0.4312,0 0.7812,-0.35 0.7812,-0.78125c0,-0.43125 -0.35,-0.78125 -0.7812,-0.78125z"/>
  <path id="svg_2" fill="#ffffff" d="m11.7188,7.8125l-6.25005,0c-0.43125,0 -0.78125,0.35 -0.78125,0.78125c0,0.43125 0.35,0.78125 0.78125,0.78125l6.25005,0c0.4312,0 0.7812,-0.35 0.7812,-0.78125c0,-0.43125 -0.35,-0.78125 -0.7812,-0.78125z"/>
  <path id="svg_3" fill="#ffffff" d="m17.1875,-1l-14.0625,0c-1.72344,0 -3.125,1.40156 -3.125,3.125l0,15.625c0,0.3031 0.175,0.5797 0.45,0.7078c0.10469,0.0485 0.21875,0.0734 0.33125,0.0734c0.17969,0 0.35781,-0.0624 0.5,-0.1812l4.47031,-3.725l11.43594,0c1.7234,0 3.125,-1.4016 3.125,-3.125l0,-9.375c0,-1.72344 -1.4016,-3.125 -3.125,-3.125zm1.5625,12.5c0,0.8609 -0.7,1.5625 -1.5625,1.5625l-11.71875,0c-0.18281,0 -0.35937,0.0641 -0.5,0.1813l-3.40625,2.839l0,-13.9578c0,-0.86094 0.7,-1.5625 1.5625,-1.5625l14.0625,0c0.8625,0 1.5625,0.70156 1.5625,1.5625l0,9.375z"/>
  <path id="svg_4" fill="#ffffff" d="m21.875,6.25c-0.4312,0 -0.7812,0.35 -0.7812,0.78125c0,0.43125 0.35,0.78125 0.7812,0.78125c0.8625,0 1.5625,0.70156 1.5625,1.5625l0,13.2172l-2.6375,-2.1094c-0.1375,-0.1094 -0.3109,-0.1703 -0.4875,-0.1703l-10.9375,0c-0.8625,0 -1.5625,-0.7016 -1.5625,-1.5625l0,-0.7812c0,-0.4313 -0.35,-0.7813 -0.78125,-0.7813c-0.43125,0 -0.78125,0.35 -0.78125,0.7813l0,0.7812c0,1.7234 1.40156,3.125 3.125,3.125l10.6625,0l3.6922,2.9547c0.1422,0.1125 0.3156,0.1703 0.4891,0.1703c0.114,0 0.2296,-0.025 0.339,-0.0766c0.2703,-0.1312 0.4422,-0.4047 0.4422,-0.7046l0,-14.8438c0,-1.72344 -1.4016,-3.125 -3.125,-3.125z"/>
  <path id="svg_5" d="m90.0525,2.33221l0.38197,0l0.11803,-0.38197l0.11803,0.38197l0.38197,0l-0.30902,0.23607l0.11804,0.38197l-0.30902,-0.23607l-0.30902,0.23607l0.11804,-0.38197l-0.30902,-0.23607z" fill="#ffffff"/>
  <path id="svg_6" d="m-57.2075,163.52221l0.56913,0l0.17587,-0.38197l0.17587,0.38197l0.56913,0l-0.46044,0.23607l0.17588,0.38197l-0.46044,-0.23607l-0.46044,0.23607l0.17588,-0.38197l-0.46044,-0.23607z" fill="#ffffff"/>
 </g>
</svg>