<svg width="18" height="18" viewBox="0 0 18 18" fill="none" xmlns="http://www.w3.org/2000/svg">
<path fill-rule="evenodd" clip-rule="evenodd" d="M1.70711 0.707444C1.31658 0.31692 0.683417 0.31692 0.292893 0.707444C-0.0976312 1.09797 -0.0976309 1.73113 0.292893 2.12166L7.58609 9.41485L0.7071 16.2938C0.316576 16.6844 0.316576 17.3175 0.7071 17.708C1.09762 18.0986 1.73079 18.0986 2.12131 17.708L9.0003 10.8291L15.8492 17.678C16.2398 18.0685 16.8729 18.0685 17.2635 17.678C17.654 17.2875 17.654 16.6543 17.2635 16.2638L10.4145 9.41485L17.6777 2.1517C18.0682 1.76118 18.0682 1.12801 17.6777 0.737487C17.2871 0.346962 16.654 0.346962 16.2634 0.737487L9.0003 8.00064L1.70711 0.707444Z" fill="white"/>
</svg>
