<svg width="20" height="20" viewBox="0 0 20 20" fill="none" xmlns="http://www.w3.org/2000/svg">
<path d="M12.2028 9.99935L19.6805 2.5213C19.8862 2.31545 19.9997 2.04081 20 1.74797C20 1.45496 19.8865 1.18 19.6805 0.974472L19.0252 0.31935C18.8192 0.113008 18.5446 0 18.2514 0C17.9587 0 17.6841 0.113008 17.478 0.31935L10.0003 7.79691L2.52228 0.31935C2.31659 0.113008 2.04179 0 1.74878 0C1.4561 0 1.1813 0.113008 0.97561 0.31935L0.32 0.974472C-0.106667 1.40114 -0.106667 2.09512 0.32 2.5213L7.79789 9.99935L0.32 17.4771C0.114146 17.6833 0.000813008 17.9579 0.000813008 18.2507C0.000813008 18.5436 0.114146 18.8182 0.32 19.0242L0.975447 19.6793C1.18114 19.8855 1.4561 19.9987 1.74862 19.9987C2.04163 19.9987 2.31642 19.8855 2.52211 19.6793L10.0002 12.2016L17.4779 19.6793C17.6839 19.8855 17.9585 19.9987 18.2512 19.9987H18.2515C18.5444 19.9987 18.819 19.8855 19.025 19.6793L19.6803 19.0242C19.886 18.8184 19.9995 18.5436 19.9995 18.2507C19.9995 17.9579 19.886 17.6833 19.6803 17.4772L12.2028 9.99935Z" fill="#3E3E3E"/>
</svg>
