<svg width="324" height="408" viewBox="0 0 324 408" fill="none" xmlns="http://www.w3.org/2000/svg">
<path fill-rule="evenodd" clip-rule="evenodd" d="M0.814972 213.755V402.448C0.814972 405.471 3.27997 407.965 6.30197 407.965H93.883H223.539H242.17H318.514C321.536 407.965 324.001 405.471 324.001 402.448V313.795V68.905V66.352H268.254C262.885 66.352 251.735 67.115 251.735 54.937L251.617 0.5H6.30096C3.27896 0.5 0.813965 2.965 0.813965 5.988V53.088V73.014V213.755H0.814972Z" fill="white"/>
<path fill-rule="evenodd" clip-rule="evenodd" d="M324 313.795V68.905V66.352V65.501C324 63.916 323.325 63.652 320.89 61.275L260.713 3.875C257.867 1.175 257.398 0.5 255.725 0.5H251.617H6.30096C3.27896 0.5 0.813965 2.965 0.813965 5.988V402.448C0.813965 405.471 3.27896 407.965 6.30096 407.965H318.513C321.535 407.965 324 405.471 324 402.448V313.795Z" fill="#EDF3F4"/>
<path fill-rule="evenodd" clip-rule="evenodd" d="M324 313.795V68.905V66.352C324 63.388 323.032 63.359 320.89 61.275L260.713 3.875C257.867 1.175 257.398 0.5 255.725 0.5H251.617H190.559C265.172 100.393 269.426 280.458 214.061 392.852C211.508 398.076 208.838 403.094 206.051 407.965H223.538H242.169H318.513C321.535 407.965 324 405.471 324 402.448V313.795Z" fill="#D7E7EC"/>
<path fill-rule="evenodd" clip-rule="evenodd" d="M251.734 54.936C251.734 67.114 262.883 66.351 268.253 66.351H324V65.5C324 63.915 323.325 63.651 320.89 61.274L260.713 3.87399C257.867 1.17399 257.398 0.498993 255.725 0.498993H251.617L251.734 54.936Z" fill="white"/>
<path fill-rule="evenodd" clip-rule="evenodd" d="M320.89 61.275L260.713 3.875C257.867 1.175 257.398 0.5 255.725 0.5H251.617L251.734 54.936C251.734 67.114 262.883 66.351 268.253 66.351H324V65.5C324 63.916 323.325 63.652 320.89 61.275Z" fill="#B5C4CF"/>
<path d="M274.414 120.506H53.5099C49.2429 120.506 45.7839 117.046 45.7839 112.777C45.7839 108.508 49.2429 105.048 53.5099 105.048H274.414C278.681 105.048 282.14 108.508 282.14 112.777C282.14 117.046 278.682 120.506 274.414 120.506Z" fill="#9AAFB7"/>
<path d="M274.414 175.411H53.5099C49.2429 175.411 45.7839 171.951 45.7839 167.682C45.7839 163.413 49.2429 159.953 53.5099 159.953H274.414C278.681 159.953 282.14 163.413 282.14 167.682C282.14 171.951 278.682 175.411 274.414 175.411Z" fill="#9AAFB7"/>
<path d="M274.414 230.317H53.5099C49.2429 230.317 45.7839 226.857 45.7839 222.588C45.7839 218.319 49.2429 214.859 53.5099 214.859H274.414C278.681 214.859 282.14 218.319 282.14 222.588C282.14 226.857 278.682 230.317 274.414 230.317Z" fill="#9AAFB7"/>
<path d="M274.414 285.223H53.5099C49.2429 285.223 45.7839 281.763 45.7839 277.494C45.7839 273.225 49.2429 269.765 53.5099 269.765H274.414C278.681 269.765 282.14 273.225 282.14 277.494C282.14 281.763 278.682 285.223 274.414 285.223Z" fill="#9AAFB7"/>
<path d="M274.414 340.129H53.5099C49.2429 340.129 45.7839 336.669 45.7839 332.4C45.7839 328.131 49.2429 324.671 53.5099 324.671H274.414C278.681 324.671 282.14 328.131 282.14 332.4C282.14 336.669 278.682 340.129 274.414 340.129Z" fill="#9AAFB7"/>
</svg>
