<svg id="Capa_1" enable-background="new 0 0 512 512" height="512" viewBox="0 0 512 512" width="512" xmlns="http://www.w3.org/2000/svg"><g><path d="m378.5 201h-245c67.655 0 122.5 54.845 122.5 122.5l-20 147.5h250c8.284 0 15-6.716 15-15v-132.5c0-67.655-54.845-122.5-122.5-122.5z" fill="#aadc1e"/><path d="m501 323.5c0-67.655-54.845-122.5-122.5-122.5v270h107.5c8.284 0 15-6.716 15-15z" fill="#8cc314"/><path d="m11 323.5v132.5c0 8.284 6.716 15 15 15h230v-147.5c0-67.655-54.845-122.5-122.5-122.5-67.655 0-122.5 54.845-122.5 122.5z" fill="#49acff"/><path d="m431 361c-8.284 0-15 6.716-15 15v95h30v-95c0-8.284-6.716-15-15-15z" fill="#64a000"/><path d="m66 471v-95c0-8.284 6.716-15 15-15s15 6.716 15 15v95" fill="#1790e7"/><path d="m32.5 316h-17.5c-8.284 0-15-6.716-15-15v-37.5c0-17.92 14.58-32.5 32.5-32.5 23.435 0 42.5 19.065 42.5 42.5s-19.065 42.5-42.5 42.5z" fill="#ffd5b6"/><path d="m437 273.5c0-23.435 19.065-42.5 42.5-42.5 17.92 0 32.5 14.58 32.5 32.5v37.5c0 8.284-6.716 15-15 15h-17.5c-23.435 0-42.5-19.065-42.5-42.5z" fill="#ffc896"/><path d="m256 323.5c0-67.655-54.845-122.5-122.5-122.5v270h122.5z" fill="#1790e7"/><path d="m133.5 231c-52.383 0-95-42.617-95-95s42.617-95 95-95 95 42.617 95 95-42.617 95-95 95z" fill="#ffd5b6"/><path d="m133.5 41v190c52.383 0 95-42.617 95-95s-42.617-95-95-95z" fill="#ffc896"/><path d="m378.5 231c-52.383 0-95-42.617-95-95s42.617-95 95-95 95 42.617 95 95-42.617 95-95 95z" fill="#ffd5b6"/><path d="m378.5 41v190c52.383 0 95-42.617 95-95s-42.617-95-95-95z" fill="#ffc896"/></g></svg>