<svg width="512" height="512" viewBox="0 0 512 512" fill="none" xmlns="http://www.w3.org/2000/svg">
<path d="M256 0C206.544 0 166.307 40.237 166.307 89.693V265.972C166.307 315.422 206.544 355.659 256 355.659C305.456 355.659 345.693 315.702 345.693 266.588V89.693C345.693 40.237 305.456 0 256 0ZM308.315 266.583C308.315 295.086 284.845 318.281 256 318.281C227.155 318.281 203.679 294.817 203.679 265.966V89.693C203.679 60.842 227.149 37.372 256 37.372C284.851 37.372 308.321 60.842 308.315 89.693V266.583Z" fill="#383838"/>
<path d="M274.686 409.226H237.314V493.314H274.686V409.226Z" fill="#383838"/>
<path d="M305.207 474.628H206.793C196.472 474.628 188.107 482.993 188.107 493.314C188.107 503.635 196.472 512 206.793 512H305.207C315.528 512 323.893 503.635 323.893 493.314C323.893 482.993 315.528 474.628 305.207 474.628Z" fill="#383838"/>
<path d="M397.392 234.822C387.071 234.822 378.706 243.187 378.706 253.508V268.457C378.706 336.113 323.657 391.163 256 391.163C188.338 391.163 133.294 336.114 133.294 268.457V253.508C133.294 243.187 124.929 234.822 114.608 234.822C104.287 234.822 95.922 243.187 95.922 253.508V268.457C95.922 356.724 167.733 428.535 256 428.535C344.267 428.535 416.078 356.724 416.078 268.457V253.508C416.078 243.188 407.713 234.822 397.392 234.822Z" fill="#383838"/>
</svg>
