<svg width="25" height="25" viewBox="0 0 25 25" fill="none" xmlns="http://www.w3.org/2000/svg">
<g clip-path="url(#clip0)">
<path d="M19.7917 12.5C19.2156 12.5 18.75 12.9667 18.75 13.5417V21.875C18.75 22.449 18.2833 22.9167 17.7083 22.9167H3.125C2.55 22.9167 2.08333 22.449 2.08333 21.875V7.29169C2.08333 6.71773 2.55 6.25002 3.125 6.25002H11.4583C12.0344 6.25002 12.5 5.78335 12.5 5.20835C12.5 4.63335 12.0344 4.16669 11.4583 4.16669H3.125C1.40208 4.16669 0 5.56877 0 7.29169V21.875C0 23.5979 1.40208 25 3.125 25H17.7083C19.4313 25 20.8333 23.5979 20.8333 21.875V13.5417C20.8333 12.9656 20.3677 12.5 19.7917 12.5Z" fill="#3E3E3E"/>
<path d="M9.76665 11.5511C9.69373 11.624 9.64477 11.7167 9.62394 11.8167L8.88748 15.5C8.8531 15.6708 8.90727 15.8469 9.03019 15.9708C9.12914 16.0698 9.26248 16.1229 9.39894 16.1229C9.43227 16.1229 9.46665 16.1198 9.50102 16.1125L13.1833 15.3761C13.2854 15.3552 13.3781 15.3063 13.45 15.2333L21.6916 6.99168L18.0094 3.30939L9.76665 11.5511Z" fill="#3E3E3E"/>
<path d="M24.2375 0.762512C23.2219 -0.253113 21.5698 -0.253113 20.5552 0.762512L19.1135 2.20418L22.7958 5.88647L24.2375 4.4448C24.7291 3.95418 25 3.30001 25 2.60418C25 1.90835 24.7291 1.25418 24.2375 0.762512Z" fill="#3E3E3E"/>
</g>
<defs>
<clipPath id="clip0">
<rect width="25" height="25" fill="white"/>
</clipPath>
</defs>
</svg>
