<svg width="20" height="20" viewBox="0 0 20 20" fill="none" xmlns="http://www.w3.org/2000/svg">
<g clip-path="url(#clip0)">
<path d="M19.153 7.28384C18.8266 6.95926 18.299 6.9607 17.9744 7.287L7.95669 17.3589C6.65701 18.6586 4.54614 18.6586 3.24404 17.3572C1.94291 16.0554 1.94291 13.9445 3.24419 12.6432L13.5585 2.27477C14.3699 1.46339 15.6891 1.46339 16.5029 2.27653C17.3164 3.09007 17.3164 4.40912 16.5027 5.22289L7.95825 13.7672C7.9577 13.7678 7.95723 13.7684 7.95669 13.769C7.63117 14.0927 7.1051 14.0922 6.78025 13.7674C6.45485 13.442 6.45485 12.9146 6.78025 12.5892L10.9046 8.46402C11.23 8.13855 11.2299 7.61088 10.9044 7.28548C10.579 6.96008 10.0513 6.96012 9.72591 7.28559L5.60163 11.4107C4.6254 12.3869 4.6254 13.9696 5.60171 14.9459C6.57798 15.9222 8.16067 15.9222 9.13699 14.9459C9.13812 14.9448 9.13902 14.9435 9.14011 14.9424L17.6812 6.40136C19.1458 4.93671 19.1458 2.56236 17.6812 1.09772C16.2163 -0.366069 13.8421 -0.366069 12.3784 1.09772L2.06409 11.4662C0.113495 13.4168 0.113495 16.5827 2.06549 18.5357C4.01878 20.488 7.18471 20.488 9.13683 18.5359L19.1562 8.46238C19.4807 8.13604 19.4793 7.60842 19.153 7.28384Z" fill="#383838"/>
</g>
<defs>
<clipPath id="clip0">
<rect width="20" height="20" fill="white"/>
</clipPath>
</defs>
</svg>
