<svg width="18" height="19" viewBox="0 0 18 19" fill="none" xmlns="http://www.w3.org/2000/svg">
<path fill-rule="evenodd" clip-rule="evenodd" d="M2.10573 16.8941C-0.530304 14.258 -0.530305 9.98416 2.10573 7.34812L7.76259 1.69127C9.61758 -0.163721 12.6251 -0.163721 14.4801 1.69127C16.3351 3.54626 16.3351 6.55379 14.4801 8.40878L8.72223 14.1667C7.64829 15.2406 5.90709 15.2406 4.83315 14.1667C3.7592 13.0927 3.7592 11.3515 4.83315 10.2776L10.389 4.72173C10.6819 4.42883 11.1568 4.42883 11.4496 4.72173C11.7425 5.01462 11.7425 5.48949 11.4496 5.78239L5.89381 11.3382C5.40565 11.8264 5.40565 12.6178 5.89381 13.106C6.38196 13.5941 7.17342 13.5941 7.66157 13.106L13.4194 7.34812C14.6886 6.07892 14.6886 4.02113 13.4194 2.75193C12.1502 1.48273 10.0925 1.48272 8.82325 2.75193L3.16639 8.40878C1.11614 10.459 1.11614 13.7832 3.16639 15.8334C5.21665 17.8837 8.54076 17.8837 10.591 15.8334L16.0458 10.3786C16.3387 10.0857 16.8136 10.0857 17.1065 10.3786C17.3994 10.6715 17.3994 11.1463 17.1065 11.4392L11.6517 16.8941C9.01564 19.5301 4.74177 19.5301 2.10573 16.8941Z" fill="white"/>
</svg>
