<svg width="210" height="210" viewBox="0 0 210 210" fill="none" xmlns="http://www.w3.org/2000/svg">
<g id="planet-earth" clip-path="url(#clip0)">
<g id="earth">
<path id="Vector" d="M158.362 120.813C158.362 82.6449 127.503 51.7037 89.4349 51.7037C51.3673 51.7037 20.5078 82.6449 20.5078 120.813C20.5078 158.982 51.3673 189.923 89.4349 189.923C127.503 189.923 158.362 158.982 158.362 120.813V120.813Z" fill="#89C8FD"/>
<path id="Vector_2" d="M89.4348 51.7037C85.8972 51.7037 82.4205 51.9713 79.0271 52.4872C112.155 57.518 137.545 86.1921 137.545 120.813C137.545 155.435 112.155 184.109 79.0271 189.14C82.4205 189.656 85.8972 189.923 89.4348 189.923C127.502 189.923 158.362 158.982 158.362 120.813C158.362 82.6449 127.502 51.7037 89.4348 51.7037V51.7037Z" fill="#60B6FF"/>
<path id="Vector_3" d="M80.4754 78.5626C69.8578 85.2164 61.8934 95.8612 67.8663 107.839C73.8392 119.815 87.1116 115.158 99.389 113.495C111.666 111.832 102.375 149.758 109.675 159.073C116.974 168.388 137.546 149.758 135.556 137.78C132.608 120.048 131.575 113.826 155.465 101.185L155.529 101.161C147.477 73.8938 123.101 53.6616 93.751 51.8431L93.7478 51.9473C93.7478 51.9473 91.093 71.9088 80.4754 78.5626Z" fill="#BAEB6C"/>
<path id="Vector_4" d="M43.6448 152.086C40.4565 147.224 49.286 135.786 51.2759 127.136C53.2674 118.485 41.3216 119.15 37.6719 116.156C34.0221 113.161 29.0442 100.187 25.3944 97.1926L24.8112 96.7328C22.0299 104.231 20.5078 112.344 20.5078 120.813C20.5078 143.657 31.5628 163.909 48.6003 176.491L48.6211 175.042C48.6211 175.042 51.2759 163.731 43.6448 152.086V152.086Z" fill="#BAEB6C"/>
<path id="Vector_5" d="M135.557 137.781C135.542 137.694 135.528 137.609 135.513 137.523C134.195 142.85 132.259 147.934 129.787 152.692C133.708 148.065 136.327 142.424 135.557 137.781Z" fill="#BAEB6C"/>
<path id="Vector_6" d="M93.7512 51.8431L93.748 51.9473C93.748 51.9473 93.5269 53.6135 92.9565 56.1402C117.127 65.2886 134.823 87.6645 137.258 114.466C140.304 110.3 145.875 106.259 155.465 101.185L155.529 101.161C147.477 73.8938 123.101 53.6616 93.7512 51.8431Z" fill="#96D629"/>
</g>
<path id="Vector_7" d="M89.3419 210C84.4601 210 79.543 209.599 74.6292 208.787C51.1397 204.908 30.5662 192.115 16.6994 172.764C2.83259 153.413 -2.66767 129.819 1.21279 106.331C1.49317 104.63 3.10495 103.479 4.80165 103.76C6.50316 104.04 7.65512 105.647 7.37314 107.349C3.76665 129.191 8.88079 151.131 21.7767 169.127C34.6726 187.122 53.8025 199.019 75.6481 202.627C120.744 210.077 163.484 179.448 170.933 134.358C174.539 112.516 169.425 90.5756 156.529 72.5799C143.635 54.5843 124.503 42.6882 102.659 39.0801C100.958 38.7997 99.8057 37.1928 100.086 35.4912C100.368 33.7897 101.978 32.6394 103.675 32.9198C127.166 36.7986 147.74 49.592 161.605 68.943C175.472 88.2941 180.972 111.888 177.093 135.376C173.214 158.863 160.419 179.435 141.066 193.3C125.761 204.266 107.804 210 89.3419 210V210Z" fill="#09A66D"/>
<g id="big-leaf">
<path id="Vector_8" d="M70.385 75.4223C37.0534 69.7667 16.3757 27.7994 16.3757 27.7994C16.3757 27.7994 49.741 -4.99873 83.0726 0.655338C116.404 6.30941 137.082 48.2767 137.082 48.2767C137.082 48.2767 103.717 81.0764 70.385 75.4223Z" fill="#49CB5C"/>
<path id="Vector_9" d="M83.0727 0.655267C76.7073 -0.424597 70.3435 -0.0993562 64.2087 1.12951C96.1481 8.30084 115.85 48.2767 115.85 48.2767C115.85 48.2767 94.0092 69.7442 68.0155 74.948C68.799 75.1243 69.5872 75.2861 70.3851 75.4223C103.717 81.0763 137.082 48.2767 137.082 48.2767C137.082 48.2767 116.404 6.30934 83.0727 0.655267V0.655267Z" fill="#07B128"/>
<path id="Vector_10" d="M135.198 44.792L102.601 39.2933L72.1538 0.0881348C69.7249 0.230728 67.3184 0.541549 64.944 0.986954L93.5011 37.7568L68.9222 33.6104L47.9498 6.476C45.9823 7.3636 44.0693 8.30568 42.2252 9.283L59.8443 32.0787L19.202 25.2214C17.3771 26.8156 16.3757 27.7993 16.3757 27.7993C16.3757 27.7993 17.0454 29.1564 18.3304 31.4074L58.7516 38.2263L36.334 55.5602C37.7776 57.047 39.2916 58.5162 40.8746 59.9421L67.131 39.641L93.1519 44.0309L57.7631 71.4105C59.9596 72.4359 62.2299 73.3235 64.5707 74.038L101.531 45.4456L134.148 50.9475C136.039 49.2989 137.082 48.2767 137.082 48.2767C137.082 48.2767 136.436 46.9693 135.198 44.792V44.792Z" fill="#09A66D"/>
</g>
<g id="small-leaf">
<path id="Vector_11" d="M159.753 34.6855C168.694 13.5272 199.675 6.40393 199.675 6.40393C199.675 6.40393 216.16 33.5848 207.219 54.7431C198.278 75.9014 167.296 83.0246 167.296 83.0246C167.296 83.0246 150.811 55.8438 159.753 34.6855Z" fill="#49CB5C"/>
<path id="Vector_12" d="M199.676 6.40393C199.676 6.40393 192.631 8.02533 184.29 12.0147C188.569 21.0798 195.353 39.4776 188.901 54.7431C184.224 65.8109 173.515 73.0383 164.365 77.4138C166.017 80.913 167.297 83.0246 167.297 83.0246C167.297 83.0246 198.278 75.9014 207.22 54.7431C216.16 33.5848 199.676 6.40393 199.676 6.40393Z" fill="#07B128"/>
<path id="Vector_13" d="M209.752 37.2922L185.927 47.2866L201.569 9.89026C200.45 7.67926 199.676 6.40393 199.676 6.40393C199.676 6.40393 198.202 6.74359 195.803 7.49341L179.637 46.141L169.613 21.4756C167.914 22.9736 166.312 24.6014 164.859 26.3654L176.218 54.3153L165.548 79.8251C166.589 81.8583 167.296 83.0246 167.296 83.0246C167.296 83.0246 168.898 82.6561 171.474 81.839L182.492 55.4993L209.742 44.0694C209.923 41.8055 209.914 39.5353 209.752 37.2922V37.2922Z" fill="#09A66D"/>
</g>
</g>
<defs>
<clipPath id="clip0">
<rect width="210" height="210" fill="white"/>
</clipPath>
</defs>
</svg>
