<svg xmlns="http://www.w3.org/2000/svg" xmlns:xlink="http://www.w3.org/1999/xlink" version="1.1" width="256" height="256" viewBox="0 0 256 256" xml:space="preserve">
<desc>Created with Fabric.js 1.7.22</desc>
<defs>
</defs>
<g transform="translate(128 128) scale(0.97 0.97)" style="">
	<g style="stroke: none; stroke-width: 0; stroke-dasharray: none; stroke-linecap: butt; stroke-linejoin: miter; stroke-miterlimit: 10; fill: none; fill-rule: nonzero; opacity: 1;" transform="translate(-130.05 -130.05000000000004) scale(2.89 2.89)" >
	<path d="M 89.121 84.879 L 63.874 59.632 c 5.55 -6.535 8.583 -14.734 8.583 -23.403 c 0 -9.677 -3.769 -18.775 -10.611 -25.617 C 55.003 3.769 45.905 0 36.229 0 S 17.454 3.769 10.611 10.611 C 3.769 17.454 0 26.552 0 36.229 s 3.769 18.774 10.611 25.617 c 6.842 6.843 15.94 10.611 25.617 10.611 c 8.669 0 16.868 -3.033 23.403 -8.583 l 25.247 25.247 C 85.465 89.707 86.232 90 87 90 s 1.535 -0.293 2.121 -0.879 C 90.293 87.95 90.293 86.05 89.121 84.879 z M 14.854 57.604 c -11.786 -11.786 -11.786 -30.964 0 -42.75 c 5.893 -5.893 13.634 -8.839 21.375 -8.839 s 15.481 2.947 21.375 8.839 c 11.786 11.786 11.786 30.964 0 42.75 C 45.816 69.389 26.64 69.389 14.854 57.604 z" style="stroke: none; stroke-width: 1; stroke-dasharray: none; stroke-linecap: butt; stroke-linejoin: miter; stroke-miterlimit: 10; fill: rgb(255,255,255); fill-rule: nonzero; opacity: 1;" transform=" matrix(1 0 0 1 0 0) " stroke-linecap="round" />
</g>
</g>
</svg>