<svg width="512" height="494" viewBox="0 0 512 494" fill="none" xmlns="http://www.w3.org/2000/svg">
<path d="M481.508 192.336L68.4139 20.926C51.0109 13.704 31.3499 16.881 17.1049 29.213C2.85991 41.547 -3.09809 60.551 1.55791 78.808L38.3269 223H218.353C226.637 223 233.354 229.716 233.354 238.001C233.354 246.285 226.638 253.002 218.353 253.002H38.3269L1.55791 397.193C-3.09809 415.451 2.85891 434.455 17.1049 446.788C31.3789 459.145 51.0419 462.283 68.4149 455.075L481.509 283.666C500.317 275.862 512 258.364 512 238.001C512 217.638 500.317 200.139 481.508 192.336Z" fill="#383838"/>
</svg>
