<svg width="26" height="22" viewBox="0 0 26 22" fill="none" xmlns="http://www.w3.org/2000/svg">
<path fill-rule="evenodd" clip-rule="evenodd" d="M25.4707 11C25.4707 11.3632 25.2738 11.6978 24.9563 11.8742L21.9132 13.5648C15.898 16.9066 9.55702 19.6249 2.98909 21.6774L2.10231 21.9545C1.79867 22.0494 1.46801 21.9941 1.2117 21.8057C0.955396 21.6173 0.804036 21.3181 0.804036 21L0.804037 13.3333C0.804037 12.812 1.20459 12.3781 1.72429 12.3365L2.02739 12.3123C4.89601 12.0828 7.74253 11.6438 10.5443 10.9996C7.70319 10.3464 4.81606 9.90432 1.90657 9.67769L1.72638 9.66365C1.20579 9.6231 0.804037 9.18884 0.804037 8.66667L0.804037 1.00001C0.804037 0.681889 0.955397 0.382749 1.2117 0.194316C1.46801 0.00588316 1.79867 -0.0493597 2.10231 0.045527L2.98908 0.322641C9.55702 2.37512 15.898 5.09344 21.9132 8.43523L24.9563 10.1258C25.2738 10.3022 25.4707 10.6368 25.4707 11ZM22.4116 11L20.942 10.1835C15.1716 6.97777 9.09533 4.35734 2.80404 2.36118L2.80404 7.7461C6.71082 8.09845 10.5751 8.82688 14.3431 9.92158L14.7497 10.0397C15.1772 10.1639 15.4711 10.5558 15.4707 11.001C15.4703 11.4462 15.1756 11.8375 14.7478 11.9608L14.2271 12.111C10.4958 13.1872 6.67075 13.9045 2.80404 14.2534L2.80404 19.6388C9.09532 17.6427 15.1715 15.0222 20.9419 11.8165L22.4116 11Z" fill="white"/>
</svg>
