<svg width="20" height="20" viewBox="0 0 20 20" fill="none" xmlns="http://www.w3.org/2000/svg">
<path fill-rule="evenodd" clip-rule="evenodd" d="M17.5725 7.66237L18.9763 7.90052C19.5737 8.00079 20.0082 8.51468 19.9999 9.12048V10.8794C19.9999 11.4852 19.5654 11.9991 18.9679 12.0994L17.5641 12.3333C17.4221 12.8013 17.2299 13.2567 17.0001 13.6953L17.8273 14.8568C18.1783 15.3498 18.1198 16.0225 17.6936 16.4486L16.4486 17.6936C16.2147 17.9276 15.9055 18.0571 15.5754 18.0571C15.3164 18.0571 15.0657 17.9777 14.8568 17.8273L13.6995 17.0001C13.265 17.2299 12.8096 17.4179 12.3375 17.5641L12.0994 18.9679C11.9991 19.5654 11.4852 19.9999 10.8794 19.9999H9.1163C8.5105 19.9999 7.99661 19.5654 7.89634 18.9679L7.66237 17.5641C7.20698 17.4221 6.76411 17.2424 6.34214 17.021L5.16813 17.8566C4.95924 18.007 4.71274 18.0864 4.4537 18.0864C4.12364 18.0864 3.81448 17.9569 3.58051 17.7229L2.33548 16.4779C1.90515 16.0517 1.85083 15.3791 2.20178 14.8861L3.02484 13.7413C2.79088 13.3068 2.59869 12.8514 2.45246 12.3835L1.03196 12.1411C0.434508 12.0409 0 11.527 0 10.9212V9.16226C0 8.55646 0.434508 8.04257 1.03196 7.9423L2.41904 7.70833C2.56109 7.23622 2.74492 6.78082 2.97471 6.34214L2.13911 5.16813C1.78817 4.67513 1.84666 4.00248 2.27281 3.57633L3.52202 2.3313C3.75181 2.09733 4.06515 1.96782 4.39521 1.96782C4.65424 1.96782 4.90492 2.0472 5.11382 2.19761L6.26276 3.02484C6.69727 2.79088 7.15266 2.59869 7.62059 2.45246L7.86292 1.03196C7.96319 0.434508 8.47708 0 9.08288 0H10.8418C11.4476 0 11.9615 0.434508 12.0618 1.03196L12.2957 2.41904C12.7845 2.56527 13.2567 2.76163 13.7079 2.99977L14.8694 2.17254C15.0782 2.02213 15.3247 1.94275 15.5838 1.94275C15.9138 1.94275 16.223 2.07227 16.457 2.30623L17.702 3.55126C18.1323 3.97742 18.1866 4.65007 17.8357 5.14307L17.0085 6.30036C17.2383 6.73487 17.4263 7.19026 17.5725 7.66237ZM17.9134 10.8885C17.9624 10.8809 17.9962 10.8395 17.9962 10.7906H18V9.20565C18 9.15671 17.9661 9.11529 17.9172 9.10776L16.336 8.84047C16.1402 8.81035 15.9784 8.66353 15.9294 8.46776C15.7864 7.91435 15.568 7.38353 15.2744 6.89035C15.1727 6.71718 15.1802 6.49882 15.2969 6.33694L16.2268 5.03059C16.2532 4.98918 16.2494 4.93647 16.2155 4.90259L15.0936 3.78071C15.0673 3.75435 15.0372 3.75059 15.0221 3.75059C15.0033 3.75059 14.9845 3.75812 14.9656 3.76941L13.6668 4.70306C13.5012 4.81976 13.2866 4.82729 13.1134 4.72565C12.6089 4.42824 12.0668 4.20612 11.4984 4.06306C11.3026 4.01412 11.1558 3.85224 11.1219 3.65271L10.8584 2.08282C10.8508 2.03388 10.8094 2 10.7605 2H9.17553C9.12659 2 9.08518 2.03388 9.07765 2.08282L8.80659 3.67529C8.77271 3.87106 8.62588 4.02918 8.43388 4.08188C7.88047 4.22494 7.34965 4.45082 6.86024 4.74447C6.68706 4.84612 6.46871 4.83859 6.30306 4.72188L5.00424 3.79576C4.98918 3.78447 4.97035 3.77694 4.94776 3.77694C4.92894 3.77694 4.90259 3.78071 4.87624 3.80706L3.75435 4.92894C3.72047 4.96282 3.71671 5.01929 3.74306 5.05694L4.68047 6.37459C4.79718 6.53647 4.80847 6.75106 4.70682 6.92423C4.41694 7.41741 4.20235 7.952 4.06306 8.50541C4.01412 8.70118 3.85224 8.848 3.65271 8.88188L2.08282 9.14541C2.03388 9.15294 2 9.19435 2 9.24329V10.8282C2 10.8772 2.03388 10.9186 2.08282 10.9261L3.67529 11.1972C3.87106 11.2311 4.02918 11.3779 4.08188 11.5699C4.22494 12.1233 4.45082 12.6541 4.74447 13.1435C4.84612 13.3167 4.83859 13.5351 4.72188 13.7007L3.79576 14.9995C3.76941 15.0409 3.77318 15.0936 3.80706 15.1275L4.92894 16.2494C4.95529 16.2758 4.98541 16.2795 5.00047 16.2795C5.01929 16.2795 5.03812 16.272 5.05694 16.2607L6.37459 15.3233C6.46118 15.2593 6.56659 15.2292 6.66823 15.2292C6.75482 15.2292 6.84518 15.2518 6.92423 15.2969C7.40988 15.5755 7.92941 15.7901 8.46776 15.9294C8.65976 15.9784 8.80659 16.1365 8.84047 16.336L9.104 17.9172C9.11153 17.9661 9.15294 18 9.20188 18H10.7868C10.8358 18 10.8772 17.9661 10.8847 17.9172L11.152 16.336C11.1821 16.1402 11.3289 15.9784 11.5247 15.9294C12.0781 15.7864 12.6089 15.568 13.1021 15.2744C13.2753 15.1727 13.4936 15.1802 13.6555 15.2969L14.9619 16.2268C14.9769 16.2381 14.9958 16.2456 15.0184 16.2456C15.0372 16.2456 15.0635 16.2419 15.0899 16.2155L16.2118 15.0936C16.2456 15.0598 16.2494 15.0033 16.2231 14.9656L15.2932 13.6555C15.1765 13.4899 15.1689 13.2753 15.2706 13.1021C15.5642 12.6089 15.7826 12.0781 15.9256 11.5247C15.9746 11.3327 16.1327 11.1859 16.3322 11.152L17.9134 10.8885ZM9 10C9 9.44875 9.44875 9 10 9C10.5513 9 11 9.44875 11 10C11 10.5513 10.5513 11 10 11C9.44875 11 9 10.5513 9 10ZM10 7C8.34418 7 7 8.34418 7 10C7 11.6558 8.34418 13 10 13C11.6558 13 13 11.6558 13 10C13 8.34418 11.6558 7 10 7Z" fill="white"/>
</svg>
