<svg width="512" height="512" viewBox="0 0 512 512" fill="none" xmlns="http://www.w3.org/2000/svg">
<path d="M256 0C114.84 0 0 114.84 0 256C0 397.16 114.84 512 256 512C397.16 512 512 397.16 512 256C512 114.84 397.16 0 256 0ZM256 482C131.383 482 30 380.617 30 256C30 131.383 131.383 30 256 30C380.617 30 482 131.383 482 256C482 380.617 380.617 482 256 482Z" fill="#383838"/>
<path d="M330.883 186.266C340.922 176.227 354.27 170.695 368.469 170.695C382.664 170.695 396.012 176.227 406.062 186.273C411.922 192.129 421.418 192.125 427.273 186.266C433.129 180.406 433.125 170.906 427.266 165.051C411.559 149.348 390.676 140.695 368.469 140.695C346.258 140.695 325.375 149.348 309.668 165.051L309.66 165.059C303.801 170.918 303.805 180.41 309.664 186.27C315.523 192.129 325.023 192.121 330.883 186.266V186.266Z" fill="#383838"/>
<path d="M105.945 186.266C115.988 176.227 129.336 170.695 143.531 170.695C157.73 170.695 171.078 176.227 181.129 186.273C186.988 192.129 196.484 192.125 202.34 186.266C208.195 180.406 208.191 170.906 202.332 165.051C186.625 149.348 165.742 140.695 143.531 140.695C121.324 140.695 100.441 149.348 84.7344 165.051L84.7266 165.059C78.8672 170.918 78.8711 180.41 84.7305 186.27C90.5898 192.129 100.09 192.121 105.945 186.266Z" fill="#383838"/>
<path d="M416.668 243H95.332C87.0508 243 80.332 249.715 80.332 258C80.332 355.02 158.98 433.668 256 433.668C353.02 433.668 431.668 355.02 431.668 258C431.668 249.715 424.949 243 416.668 243V243ZM256 403.668C180.051 403.668 118.5 345.898 111.09 273H400.91C393.5 345.895 331.957 403.668 256 403.668Z" fill="#383838"/>
</svg>
