<svg width="25" height="25" viewBox="0 0 25 25" fill="none" xmlns="http://www.w3.org/2000/svg">
<g clip-path="url(#clip0)">
<path d="M2.50002 15C3.88074 15 5.00004 13.8807 5.00004 12.4999C5.00004 11.1192 3.88074 9.99994 2.50002 9.99994C1.1193 9.99994 0 11.1192 0 12.4999C0 13.8807 1.1193 15 2.50002 15Z" fill="#3E3E3E"/>
<path d="M12.5 15C13.8807 15 15 13.8807 15 12.4999C15 11.1192 13.8807 9.99994 12.5 9.99994C11.1193 9.99994 10 11.1192 10 12.4999C10 13.8807 11.1193 15 12.5 15Z" fill="#3E3E3E"/>
<path d="M22.5 15C23.8807 15 25 13.8807 25 12.4999C25 11.1192 23.8807 9.99994 22.5 9.99994C21.1193 9.99994 20 11.1192 20 12.4999C20 13.8807 21.1193 15 22.5 15Z" fill="#3E3E3E"/>
</g>
<defs>
<clipPath id="clip0">
<rect width="25" height="25" fill="white"/>
</clipPath>
</defs>
</svg>
