<svg width="32" height="32" viewBox="0 0 32 32" fill="none" xmlns="http://www.w3.org/2000/svg">
<rect width="32" height="32" rx="16" fill="#3E3E3E"/>
<g clip-path="url(#clip0)">
<path d="M15.8575 15.6341C17.181 15.6341 18.3271 15.1594 19.2635 14.2228C20.2 13.2863 20.6747 12.1406 20.6747 10.8169C20.6747 9.49364 20.2 8.34771 19.2634 7.41097C18.3268 6.4747 17.1809 6 15.8575 6C14.5338 6 13.388 6.4747 12.4516 7.41113C11.5151 8.34756 11.0403 9.49349 11.0403 10.8169C11.0403 12.1406 11.5151 13.2865 12.4517 14.2229C13.3883 15.1592 14.5342 15.6341 15.8575 15.6341Z" fill="white"/>
<path d="M24.2863 21.379C24.2593 20.9893 24.2047 20.5642 24.1242 20.1152C24.0431 19.663 23.9385 19.2354 23.8134 18.8447C23.6842 18.4408 23.5084 18.0419 23.2911 17.6597C23.0656 17.2629 22.8007 16.9175 22.5034 16.6332C22.1926 16.3358 21.8121 16.0967 21.372 15.9223C20.9335 15.7488 20.4475 15.6609 19.9276 15.6609C19.7234 15.6609 19.526 15.7447 19.1447 15.9929C18.91 16.146 18.6355 16.323 18.3291 16.5188C18.0671 16.6857 17.7122 16.8421 17.2738 16.9837C16.8461 17.1221 16.4118 17.1923 15.9832 17.1923C15.5546 17.1923 15.1205 17.1221 14.6923 16.9837C14.2544 16.8422 13.8995 16.6858 13.6378 16.5189C13.3343 16.325 13.0596 16.148 12.8214 15.9928C12.4406 15.7445 12.243 15.6608 12.0388 15.6608C11.5188 15.6608 11.033 15.7488 10.5946 15.9225C10.1548 16.0966 9.77411 16.3357 9.46298 16.6334C9.16589 16.9178 8.90085 17.2631 8.67563 17.6597C8.4585 18.0419 8.28271 18.4406 8.15332 18.8448C8.02835 19.2356 7.92383 19.663 7.84265 20.1152C7.76224 20.5635 7.70761 20.9888 7.6806 21.3794C7.65405 21.7621 7.64062 22.1593 7.64062 22.5605C7.64062 23.6045 7.9725 24.4496 8.62695 25.073C9.27332 25.688 10.1286 26.0001 11.1686 26.0001H20.7987C21.8388 26.0001 22.6937 25.6882 23.3402 25.073C23.9948 24.4501 24.3267 23.6048 24.3267 22.5603C24.3266 22.1573 24.313 21.7598 24.2863 21.379Z" fill="white"/>
</g>
<defs>
<clipPath id="clip0">
<rect width="20" height="20" fill="white" transform="translate(6 6)"/>
</clipPath>
</defs>
</svg>
