<svg width="20" height="20" viewBox="0 0 20 20" fill="none" xmlns="http://www.w3.org/2000/svg">
<path fill-rule="evenodd" clip-rule="evenodd" d="M7.39583 2.5C7.10818 2.5 6.875 2.71986 6.875 2.99107V3.48214H4.79167C4.21637 3.48214 3.75 3.92186 3.75 4.46429V6.42857V7.41071V15.2679C3.75 15.8103 4.21637 16.25 4.79167 16.25H15.2083C15.7836 16.25 16.25 15.8103 16.25 15.2679V7.41071V6.42857V4.46429C16.25 3.92186 15.7836 3.48214 15.2083 3.48214H13.125V2.99107C13.125 2.71986 12.8918 2.5 12.6042 2.5C12.3165 2.5 12.0833 2.71986 12.0833 2.99107V3.48214H7.91667V2.99107C7.91667 2.71986 7.68348 2.5 7.39583 2.5ZM15.2083 6.42857V4.46429H13.125V4.95536C13.125 5.22657 12.8918 5.44643 12.6042 5.44643C12.3165 5.44643 12.0833 5.22657 12.0833 4.95536V4.46429H7.91667V4.95536C7.91667 5.22657 7.68348 5.44643 7.39583 5.44643C7.10818 5.44643 6.875 5.22657 6.875 4.95536V4.46429H4.79167L4.79167 6.42857H15.2083ZM4.79167 7.41071L4.79167 15.2679H15.2083V7.41071H4.79167Z" fill="#13AA57"/>
</svg>
