<svg width="23" height="24" viewBox="0 0 23 24" fill="none" xmlns="http://www.w3.org/2000/svg">
<path fill-rule="evenodd" clip-rule="evenodd" d="M13.6046 5.96573C14.1733 6.59242 14.5 7.45194 14.5 8.35714C14.5 8.63328 14.7239 8.85714 15 8.85714C15.2761 8.85714 15.5 8.63328 15.5 8.35714C15.5 7.21639 15.0892 6.11375 14.3452 5.29374C13.5996 4.4721 12.5774 4 11.5 4C10.4226 4 9.4004 4.47211 8.65484 5.29374C7.91076 6.11375 7.5 7.21639 7.5 8.35714L7.5 9.99976H7C5.89543 9.99976 5 10.8952 5 11.9998V17.9998C5 19.1043 5.89543 19.9998 7 19.9998H16C17.1046 19.9998 18 19.1043 18 17.9998V11.9998C18 10.8952 17.1046 9.99976 16 9.99976H8.5L8.5 8.35714C8.5 7.45194 8.82674 6.59242 9.3954 5.96573C9.96261 5.34065 10.7209 5 11.5 5C12.2791 5 13.0374 5.34065 13.6046 5.96573Z" fill="#313131"/>
</svg>
