<svg width="16" height="16" viewBox="0 0 16 16" fill="none" xmlns="http://www.w3.org/2000/svg">
<path fill-rule="evenodd" clip-rule="evenodd" d="M12.9753 2.17572C13.2096 1.94143 13.5895 1.94143 13.8237 2.17572C14.058 2.41001 14.058 2.78988 13.8238 3.02417L8.84841 7.99973L13.8243 12.9758C14.0586 13.2101 14.0586 13.59 13.8243 13.8243C13.59 14.0586 13.2102 14.0586 12.9759 13.8243L8 8.84818L3.02413 13.8243C2.78985 14.0586 2.41 14.0586 2.17571 13.8243C1.94143 13.59 1.94143 13.2101 2.17571 12.9758L7.15159 7.99973L2.17625 3.02417C1.94196 2.78988 1.94197 2.41001 2.17625 2.17572C2.41053 1.94143 2.79038 1.94143 3.02467 2.17572L8 7.15128L12.9753 2.17572Z" fill="#878787"/>
</svg>
