<svg width="24" height="24" viewBox="0 0 24 24" fill="none" xmlns="http://www.w3.org/2000/svg">
<path d="M24 12.3808C24 11.5843 23.9311 10.7836 23.7842 10H12V14.5119H18.7483C18.4682 15.9671 17.5685 17.2544 16.251 18.0724V21H20.277C22.6412 18.9593 24 15.9456 24 12.3808Z" fill="#4285F4"/>
<path d="M11.9084 24C15.2007 24 17.9771 22.9045 20 21.0136L16.0663 17.9227C14.9719 18.6773 13.559 19.1045 11.9129 19.1045C8.72828 19.1045 6.02809 16.9273 5.05925 14H1V17.1864C3.07224 21.3636 7.29297 24 11.9084 24Z" fill="#34A853"/>
<path d="M5 14.8449C4.52241 13.3236 4.52241 11.6764 5 10.1551V7H1.21282C-0.404273 10.4611 -0.404273 14.5389 1.21282 18L5 14.8449Z" fill="#FBBC04"/>
<path d="M11.8648 4.89366C13.5982 4.8664 15.2735 5.52968 16.5288 6.7472L20 3.21728C17.802 1.11841 14.8848 -0.0355109 11.8648 0.000833182C7.26781 0.000833182 3.06395 2.63578 1 6.81535L5.03856 10C5.99906 7.06976 8.69292 4.89366 11.8648 4.89366Z" fill="#EA4335"/>
</svg>
