<svg width="16" height="16" viewBox="0 0 16 16" fill="none" xmlns="http://www.w3.org/2000/svg">
<g clip-path="url(#clip0)">
<path fill-rule="evenodd" clip-rule="evenodd" d="M13.7766 1.11901C13.9881 1.29656 14.0156 1.61195 13.8381 1.82344L9.68469 6.77096C9.91231 7.12014 10.0456 7.54356 10.0456 7.99994C10.0456 9.19621 9.12976 10.166 7.99998 10.166C7.65493 10.166 7.32983 10.0755 7.04468 9.91576L2.92799 14.8196C2.75045 15.0311 2.43506 15.0586 2.22356 14.8811C2.01207 14.7035 1.98455 14.3881 2.16209 14.1766L4.09649 11.8724C2.6163 11.1158 1.24416 9.91656 0.0919832 8.2899C-0.0306618 8.11675 -0.030661 7.88505 0.0919853 7.7119C2.21482 4.7149 5.08433 3.16888 8.00066 3.16888C8.99866 3.16888 9.99117 3.34993 10.9502 3.70822L13.0722 1.18048C13.2497 0.968987 13.5651 0.941466 13.7766 1.11901ZM10.262 4.52791C9.51577 4.28772 8.75614 4.16888 8.00067 4.16888C5.55161 4.16888 3.05898 5.41779 1.1188 8.0009C2.19578 9.43479 3.44298 10.4576 4.75846 11.0838L6.31542 9.22915C6.08771 8.87993 5.95435 8.45643 5.95435 7.99994C5.95435 6.80368 6.87021 5.83392 7.99998 5.83392C8.34513 5.83392 8.67031 5.92443 8.95552 6.08425L10.262 4.52791ZM8.00066 11.833C7.42998 11.833 6.85692 11.7652 6.28905 11.6285L5.58055 12.4724C6.37339 12.7121 7.1852 12.833 8.00066 12.833C10.917 12.833 13.7865 11.287 15.9093 8.2899C16.032 8.11675 16.032 7.88505 15.9093 7.7119C14.879 6.2572 13.6727 5.14435 12.3705 4.38422L11.717 5.16267C12.8575 5.79767 13.9358 6.74045 14.8825 8.0009C12.9424 10.5841 10.4497 11.833 8.00066 11.833Z" fill="#878787"/>
</g>
<defs>
<clipPath id="clip0">
<path d="M0 0H16V16H0V0Z" fill="white"/>
</clipPath>
</defs>
</svg>
