<svg width="16" height="16" viewBox="0 0 16 16" fill="none" xmlns="http://www.w3.org/2000/svg">
<g clip-path="url(#clip0)">
<path fill-rule="evenodd" clip-rule="evenodd" d="M8.00066 11.833C5.55161 11.833 3.05898 10.5841 1.1188 8.00097C3.05898 5.41786 5.55161 4.16895 8.00067 4.16895C10.4497 4.16894 12.9424 5.41785 14.8825 8.00097C12.9424 10.5841 10.4497 11.833 8.00066 11.833ZM15.9093 7.71196C13.7865 4.71495 10.917 3.16894 8.00066 3.16895C5.08433 3.16895 2.21482 4.71496 0.0919853 7.71196C-0.030661 7.88511 -0.0306618 8.11682 0.0919832 8.28997C2.21482 11.287 5.08433 12.833 8.00066 12.833C10.917 12.833 13.7865 11.287 15.9093 8.28997C16.032 8.11682 16.032 7.88511 15.9093 7.71196ZM7.99998 10.166C9.12976 10.166 10.0456 9.19627 10.0456 8.00001C10.0456 6.80374 9.12976 5.83398 7.99998 5.83398C6.87021 5.83398 5.95435 6.80374 5.95435 8.00001C5.95435 9.19627 6.87021 10.166 7.99998 10.166Z" fill="#878787"/>
</g>
<defs>
<clipPath id="clip0">
<path d="M0 0H16V16H0V0Z" fill="white"/>
</clipPath>
</defs>
</svg>
