<svg width="16" height="16" viewBox="0 0 16 16" fill="none" xmlns="http://www.w3.org/2000/svg">
<g clip-path="url(#clip0_42439_164581)">
<path d="M8 6.095C7.62326 6.09514 7.25502 6.20699 6.94183 6.4164C6.62865 6.62581 6.38459 6.92338 6.24052 7.27148C6.09644 7.61959 6.05882 8.0026 6.13241 8.37208C6.20599 8.74157 6.38748 9.08094 6.65393 9.34729C6.92038 9.61364 7.25982 9.795 7.62933 9.86845C7.99884 9.9419 8.38184 9.90413 8.72989 9.75992C9.07794 9.61572 9.37542 9.37155 9.58471 9.05829C9.79401 8.74503 9.90571 8.37674 9.90571 8C9.90534 7.49476 9.70441 7.01032 9.34708 6.65313C8.98975 6.29593 8.50525 6.09519 8 6.095ZM12.4539 4.63071C12.3569 4.38494 12.2105 4.16172 12.0237 3.9749C11.8369 3.78807 11.6136 3.64162 11.3679 3.54464C10.6179 3.24857 8.83214 3.315 8 3.315C7.16786 3.315 5.38393 3.24607 4.63179 3.54464C4.38602 3.64162 4.16279 3.78807 3.97597 3.9749C3.78914 4.16172 3.64269 4.38494 3.54571 4.63071C3.25 5.38071 3.31607 7.16821 3.31607 7.99964C3.31607 8.83107 3.25 10.6164 3.54714 11.3689C3.64412 11.6147 3.79057 11.8379 3.97739 12.0247C4.16422 12.2116 4.38744 12.358 4.63321 12.455C5.38321 12.7511 7.16893 12.6846 8.00143 12.6846C8.83393 12.6846 10.6171 12.7536 11.3693 12.455C11.6151 12.358 11.8383 12.2116 12.0251 12.0247C12.2119 11.8379 12.3584 11.6147 12.4554 11.3689C12.7536 10.6189 12.685 8.83143 12.685 8C12.685 7.16857 12.7536 5.38357 12.4554 4.63107L12.4539 4.63071ZM8 10.9286C7.42078 10.9286 6.85457 10.7568 6.37297 10.435C5.89137 10.1132 5.51601 9.65584 5.29435 9.12072C5.0727 8.58559 5.0147 7.99675 5.1277 7.42866C5.2407 6.86058 5.51962 6.33876 5.92919 5.92919C6.33876 5.51962 6.86058 5.2407 7.42866 5.1277C7.99675 5.0147 8.58559 5.0727 9.12072 5.29435C9.65584 5.51601 10.1132 5.89137 10.435 6.37297C10.7568 6.85457 10.9286 7.42078 10.9286 8C10.929 8.38472 10.8536 8.76575 10.7066 9.12127C10.5596 9.4768 10.3439 9.79982 10.0719 10.0719C9.79982 10.3439 9.4768 10.5596 9.12127 10.7066C8.76575 10.8536 8.38472 10.929 8 10.9286ZM11.0493 5.63214C10.9141 5.63221 10.7819 5.59218 10.6694 5.51711C10.557 5.44205 10.4693 5.33531 10.4175 5.21041C10.3657 5.08551 10.3521 4.94806 10.3784 4.81543C10.4048 4.68281 10.4699 4.56097 10.5654 4.46534C10.661 4.3697 10.7828 4.30457 10.9154 4.27816C11.048 4.25176 11.1855 4.26527 11.3104 4.317C11.4354 4.36873 11.5421 4.45634 11.6173 4.56876C11.6924 4.68118 11.7325 4.81336 11.7325 4.94857C11.7329 5.03836 11.7155 5.12734 11.6814 5.21041C11.6473 5.29348 11.5972 5.369 11.5338 5.43264C11.4705 5.49628 11.3952 5.54679 11.3123 5.58127C11.2294 5.61575 11.1405 5.63353 11.0507 5.63357L11.0493 5.63214ZM14.2857 0H1.71429C1.25963 0 0.823594 0.180612 0.502103 0.502103C0.180612 0.823594 0 1.25963 0 1.71429L0 14.2857C0 14.7404 0.180612 15.1764 0.502103 15.4979C0.823594 15.8194 1.25963 16 1.71429 16H14.2857C14.7404 16 15.1764 15.8194 15.4979 15.4979C15.8194 15.1764 16 14.7404 16 14.2857V1.71429C16 1.25963 15.8194 0.823594 15.4979 0.502103C15.1764 0.180612 14.7404 0 14.2857 0ZM13.6743 10.3571C13.6282 11.2725 13.4193 12.0836 12.7511 12.75C12.0829 13.4164 11.2725 13.6296 10.3582 13.6732C9.415 13.7264 6.58714 13.7264 5.64393 13.6732C4.72857 13.6271 3.92036 13.4179 3.25107 12.75C2.58179 12.0821 2.37143 11.2707 2.32786 10.3571C2.27464 9.41357 2.27464 6.58536 2.32786 5.64286C2.37393 4.7275 2.58036 3.91643 3.25107 3.25C3.92179 2.58357 4.73214 2.37286 5.64393 2.32929C6.58714 2.27607 9.415 2.27607 10.3582 2.32929C11.2736 2.37536 12.0843 2.58464 12.7511 3.2525C13.4179 3.92036 13.6307 4.73179 13.6743 5.64714C13.7275 6.58714 13.7275 9.41286 13.6743 10.3571Z" fill="#64727D"/>
</g>
<defs>
<clipPath id="clip0_42439_164581">
<rect width="16" height="16" fill="white"/>
</clipPath>
</defs>
</svg>
