<svg width="16" height="16" viewBox="0 0 16 16" fill="none" xmlns="http://www.w3.org/2000/svg">
<path fill-rule="evenodd" clip-rule="evenodd" d="M14.8461 0H1.15393C0.516602 0 0 0.516602 0 1.15393V14.8461C0 15.4834 0.516602 16 1.15393 16H14.8461C15.4834 16 16 15.4834 16 14.8461V1.15393C16 0.516602 15.4834 0 14.8461 0ZM2 5.33333V14H4.66667V5.33333H2ZM4.66667 3.33333C4.66667 4.04133 4.19333 4.65067 3.33267 4.65067C2.52267 4.65067 2 4.076 2 3.368C2 2.64133 2.50667 2 3.33333 2C4.16 2 4.65067 2.60667 4.66667 3.33333ZM5.932 5.662C5.966 6.40533 6 7.266 6 8.296V14H8.66667V9.24067C8.66667 9.004 8.68333 8.768 8.75133 8.59867C8.93733 8.126 9.292 7.55267 10 7.55267C10.9287 7.55267 11.3333 8.36333 11.3333 9.426V14H14V9.03867C14 6.60733 12.7333 5.47733 11.0453 5.47733C9.66133 5.47733 8.83467 6.27 8.49733 6.81067H8.44667L8.328 5.662H5.932Z" fill="#64727D"/>
</svg>
