<svg width="16" height="16" viewBox="0 0 16 16" fill="none" xmlns="http://www.w3.org/2000/svg">
<path fill-rule="evenodd" clip-rule="evenodd" d="M1.15393 0H14.8461C15.4834 0 16 0.516602 16 1.15393V14.8461C16 15.4834 15.4834 16 14.8461 16H1.15393C0.516602 16 0 15.4834 0 14.8461V1.15393C0 0.516602 0.516602 0 1.15393 0ZM13.3099 5.67167C13.3099 9.22984 10.5582 13.3333 5.52656 13.3333C3.98156 13.3333 2.54402 12.8875 1.33333 12.1237C1.54745 12.1486 1.76541 12.161 1.98589 12.161C3.26776 12.161 4.44723 11.7307 5.38354 11.0083C4.18622 10.9865 3.17628 10.2079 2.82802 9.13802C2.99469 9.16957 3.16625 9.18658 3.34221 9.18658C3.59172 9.18658 3.83364 9.15343 4.06358 9.09187C2.81172 8.84514 1.8688 7.75628 1.8688 6.45215C1.8688 6.44011 1.8688 6.42912 1.86921 6.4178C2.23776 6.61966 2.65932 6.74094 3.10811 6.75451C2.37377 6.27212 1.89082 5.44725 1.89082 4.51314C1.89082 4.01984 2.02633 3.55752 2.26117 3.15965C3.61023 4.789 5.62636 5.86045 7.89991 5.97306C7.85303 5.77593 7.82897 5.57045 7.82897 5.35904C7.82897 3.87255 9.0541 2.66667 10.5647 2.66667C11.3516 2.66667 12.0624 2.99398 12.5616 3.51738C13.1847 3.39635 13.7701 3.17225 14.2986 2.86379C14.0941 3.49242 13.6605 4.01976 13.0957 4.35325C13.649 4.288 14.1765 4.14376 14.6667 3.92922C14.3004 4.46915 13.8362 4.94351 13.3021 5.32364C13.3074 5.43906 13.3099 5.55512 13.3099 5.67167Z" fill="#64727D"/>
</svg>
