<svg width="16" height="16" viewBox="0 0 16 16" fill="none" xmlns="http://www.w3.org/2000/svg">
<g clip-path="url(#clip0_42439_164583)">
<path fill-rule="evenodd" clip-rule="evenodd" d="M14.8461 0H1.15393C0.516602 0 0 0.516602 0 1.15393V14.8461C0 15.4834 0.516602 16 1.15393 16H14.8461C15.4834 16 16 15.4834 16 14.8461V1.15393C16 0.516602 15.4834 0 14.8461 0ZM14.56 6.04667C14.52 5.51333 14.46 5.09333 14.3733 4.78C14.2067 4.18 13.82 3.79333 13.22 3.62667C12.5333 3.44 10.7933 3.33333 8 3.33333L6.94 3.37333C6.20667 3.37333 5.41333 3.39333 4.54667 3.44C3.66667 3.48 3.09333 3.54 2.78 3.62667C2.18 3.79333 1.79333 4.18 1.62667 4.78C1.44 5.46667 1.33333 6.54 1.33333 8L1.37333 8.56C1.37333 8.96 1.39333 9.42 1.44 9.95333C1.48 10.4867 1.54 10.9067 1.62667 11.22C1.79333 11.82 2.18 12.2067 2.78 12.3733C3.46667 12.56 5.20667 12.6667 8 12.6667L9.06 12.6267C9.79333 12.6267 10.5867 12.6067 11.4533 12.56C12.3333 12.52 12.9067 12.46 13.22 12.3733C13.82 12.2067 14.2067 11.82 14.3733 11.22C14.56 10.5333 14.6667 9.46 14.6667 8L14.6267 7.44C14.6267 7.04 14.6067 6.58 14.56 6.04667ZM6.66667 10L10.1267 8L6.66667 6V10Z" fill="#64727D"/>
</g>
<defs>
<clipPath id="clip0_42439_164583">
<rect width="16" height="16" fill="white"/>
</clipPath>
</defs>
</svg>
