<svg width="24" height="24" viewBox="0 0 24 24" fill="none" xmlns="http://www.w3.org/2000/svg">
<g clip-path="url(#clip0_13353_62887)">
<path d="M12 9.1425C11.4349 9.14271 10.8825 9.31048 10.4128 9.6246C9.94298 9.93871 9.57689 10.3851 9.36078 10.9072C9.14467 11.4294 9.08823 12.0039 9.19861 12.5581C9.30899 13.1124 9.58122 13.6214 9.98089 14.0209C10.3806 14.4205 10.8897 14.6925 11.444 14.8027C11.9983 14.9128 12.5728 14.8562 13.0948 14.6399C13.6169 14.4236 14.0631 14.0573 14.3771 13.5874C14.691 13.1175 14.8586 12.5651 14.8586 12C14.858 11.2421 14.5566 10.5155 14.0206 9.97969C13.4846 9.4439 12.7579 9.14278 12 9.1425ZM18.6809 6.94607C18.5354 6.57742 18.3158 6.24258 18.0355 5.96234C17.7553 5.6821 17.4204 5.46243 17.0518 5.31696C15.9268 4.87286 13.2482 4.9725 12 4.9725C10.7518 4.9725 8.07589 4.86911 6.94768 5.31696C6.57902 5.46243 6.24419 5.6821 5.96395 5.96234C5.68371 6.24258 5.46404 6.57742 5.31857 6.94607C4.875 8.07107 4.97411 10.7523 4.97411 11.9995C4.97411 13.2466 4.875 15.9246 5.32071 17.0534C5.46618 17.422 5.68585 17.7569 5.96609 18.0371C6.24633 18.3174 6.58117 18.537 6.94982 18.6825C8.07482 19.1266 10.7534 19.027 12.0021 19.027C13.2509 19.027 15.9257 19.1304 17.0539 18.6825C17.4226 18.537 17.7574 18.3174 18.0377 18.0371C18.3179 17.7569 18.5376 17.422 18.683 17.0534C19.1304 15.9284 19.0275 13.2471 19.0275 12C19.0275 10.7529 19.1304 8.07536 18.683 6.94661L18.6809 6.94607ZM12 16.3929C11.1312 16.3929 10.2819 16.1352 9.55946 15.6525C8.83706 15.1698 8.27401 14.4838 7.94153 13.6811C7.60904 12.8784 7.52205 11.9951 7.69155 11.143C7.86105 10.2909 8.27943 9.50813 8.89378 8.89378C9.50813 8.27943 10.2909 7.86105 11.143 7.69155C11.9951 7.52205 12.8784 7.60904 13.6811 7.94153C14.4838 8.27401 15.1698 8.83706 15.6525 9.55946C16.1352 10.2819 16.3929 11.1312 16.3929 12C16.3936 12.5771 16.2804 13.1486 16.0599 13.6819C15.8394 14.2152 15.5158 14.6997 15.1078 15.1078C14.6997 15.5158 14.2152 15.8394 13.6819 16.0599C13.1486 16.2804 12.5771 16.3936 12 16.3929ZM16.5739 8.44821C16.3711 8.44832 16.1728 8.38827 16.0041 8.27567C15.8354 8.16307 15.7039 8.00297 15.6262 7.81562C15.5486 7.62827 15.5282 7.42208 15.5677 7.22315C15.6072 7.02421 15.7048 6.84146 15.8482 6.69801C15.9915 6.55456 16.1742 6.45685 16.3732 6.41724C16.5721 6.37763 16.7783 6.39791 16.9657 6.4755C17.153 6.55309 17.3132 6.68451 17.4259 6.85314C17.5386 7.02177 17.5988 7.22004 17.5988 7.42286C17.5993 7.55754 17.5733 7.69101 17.5221 7.81562C17.471 7.94022 17.3958 8.0535 17.3008 8.14896C17.2058 8.24442 17.0928 8.32019 16.9685 8.37191C16.8441 8.42363 16.7108 8.45029 16.5761 8.45036L16.5739 8.44821ZM21.4286 0H2.57143C1.88944 0 1.23539 0.270918 0.753154 0.753154C0.270918 1.23539 0 1.88944 0 2.57143L0 21.4286C0 22.1106 0.270918 22.7646 0.753154 23.2468C1.23539 23.7291 1.88944 24 2.57143 24H21.4286C22.1106 24 22.7646 23.7291 23.2468 23.2468C23.7291 22.7646 24 22.1106 24 21.4286V2.57143C24 1.88944 23.7291 1.23539 23.2468 0.753154C22.7646 0.270918 22.1106 0 21.4286 0ZM20.5114 15.5357C20.4423 16.9088 20.1289 18.1254 19.1266 19.125C18.1243 20.1246 16.9088 20.4445 15.5373 20.5098C14.1225 20.5896 9.88071 20.5896 8.46589 20.5098C7.09286 20.4407 5.88054 20.1268 4.87661 19.125C3.87268 18.1232 3.55714 16.9061 3.49179 15.5357C3.41196 14.1204 3.41196 9.87804 3.49179 8.46429C3.56089 7.09125 3.87054 5.87464 4.87661 4.875C5.88268 3.87536 7.09821 3.55929 8.46589 3.49393C9.88071 3.41411 14.1225 3.41411 15.5373 3.49393C16.9104 3.56304 18.1264 3.87696 19.1266 4.87875C20.1268 5.88054 20.4461 7.09768 20.5114 8.47071C20.5912 9.88071 20.5912 14.1193 20.5114 15.5357Z" fill="#878787"/>
</g>
<defs>
<clipPath id="clip0_13353_62887">
<rect width="24" height="24" fill="white"/>
</clipPath>
</defs>
</svg>
