<svg width="9" height="10" viewBox="0 0 9 10" fill="none" xmlns="http://www.w3.org/2000/svg">
<path fill-rule="evenodd" clip-rule="evenodd" d="M4.5 0C2.53856 0 0.88889 1.52505 0.88889 3.44737V3.44854V3.44966V3.45074V3.45203V3.45352V3.45463V3.45583V3.45712V3.45849V3.45996V3.46151V3.46316V3.46489V3.46671V3.46861V3.4706V3.47163V3.47268V3.47375V3.47485V3.47596V3.4771V3.47825V3.47943V3.48063V3.48185V3.4831V3.48436V3.48564V3.48695V3.48828V3.48962V3.49099V3.49238V3.49379V3.49522V3.49667V3.49815V3.49964V3.50115V3.50269V3.50424V3.50582V3.50741V3.50903V3.51066V3.51232V3.514V3.51569V3.51741V3.51915V3.52091V3.52268V3.52448V3.5263V3.52814V3.52999V3.53187V3.53377V3.53568V3.53762V3.53957V3.54155V3.54354V3.54556V3.54759V3.54965V3.55172V3.55381V3.55592V3.55805V3.5602V3.56237V3.56456V3.56676V3.56899V3.57123V3.5735V3.57578V3.57808V3.5804V3.58274V3.5851V3.58748V3.58987V3.59228V3.59472V3.59717V3.59964V3.60212V3.60463V3.60715V3.60969V3.61226V3.61483V3.61743V3.62005V3.62268V3.62533V3.628V3.63068V3.63339V3.63611V3.63885V3.64161V3.64439V3.64718V3.64999V3.65282V3.65566V3.65853V3.66141V3.66431V3.66722V3.67015V3.6731V3.67607V3.67906V3.68206V3.68508V3.68811V3.69116V3.69423V3.69732V3.70042V3.70354V3.70668V3.70983V3.713V3.71619V3.71939V3.72261V3.72585V3.7291V3.73237V3.73566V3.73896V3.74228V3.74561V3.74896V3.75233V3.75571V3.75911V3.76252V3.76595V3.7694V3.77286V3.77634V3.77984V3.78335V3.78687V3.79041V3.79397V3.79754V3.80113V3.80473V3.80835V3.81199V3.81564V3.8193V3.82298V3.82668V3.83039V3.83411V3.83785V3.84161V3.84538V3.84916V3.85297V3.85678V3.86061V3.86446V3.86832V3.87219V3.87608V3.87998V3.8839V3.88783V3.89178V3.89574V3.89972V3.90371V3.90771V3.91173V3.91576V3.91981V3.92387V3.92795V3.93203V3.93614V3.94026V3.94439V3.94853V3.95269V3.95686V3.96105V3.96525V3.96946V3.97369V3.97793V3.98218V3.98645V3.99073V3.99502V3.99933V4.00365V4.00799V4.01233V4.01669V4.02107V4.02545V4.02985V4.03426V4.03869V4.04313V4.04758V4.05204V4.05652V4.06101V4.06551V4.07002V4.07455V4.07909V4.08364V4.0882V4.09278V4.09737V4.10197V4.10658V4.11121V4.11585V4.1205V4.12516V4.12983V4.13452V4.13922V4.14393V4.14865V4.15338V4.15813V4.16288V4.16765V4.17243V4.17722V4.18203V4.18684V4.19167V4.1965V4.20135V4.20621V4.21108V4.21597V4.22086V4.22577V4.23068V4.23561V4.24055V4.2455V4.25046V4.25543V4.26041V4.2654V4.27041V4.27542V4.28045V4.28548V4.29053V4.29558V4.30065V4.30573V4.31081V4.31591V4.32102V4.32614V4.33127V4.33641V4.34156V4.34671V4.35188V4.35706V4.36225V4.36745V4.37266V4.37788V4.38311V4.38834V4.39359V4.39885V4.40412V4.40939V4.41468V4.41997V4.42528V4.43059V4.43592V4.44125V4.44659V4.45194V4.4573V4.46267V4.46805V4.47344V4.47884V4.48424V4.48966V4.49508V4.50051V4.50595V4.5114V4.51686V4.52233V4.5278V4.53329V4.53878V4.54428V4.54979V4.55531V4.56083V4.56637V4.57191V4.57746V4.58302V4.58858V4.59416V4.59974V4.60533V4.61093V4.61654V4.62215V4.62777V4.6334V4.63904V4.64469V4.65034V4.656V4.66167V4.66734V4.67303V4.67872V4.68441V4.69012V4.69583V4.70155V4.70727V4.71301V4.71875V4.7245V4.73025V4.73601V4.74178V4.74756V4.75334V4.75913V4.76492V4.77072V4.77653V4.78235V4.78817V4.794V4.79983V4.80567V4.81152V4.81738V4.82324V4.8291V4.83497V4.84085V4.84674V4.85263V4.85853V4.86443V4.87034V4.87625V4.88217V4.8881V4.89403V4.89997V4.90591V4.91186V4.91781V4.92377V4.92974V4.93571V4.94169V4.94767V4.95366V4.95965V4.96564V4.97165V4.97765V4.98367V4.98969V4.99571V5.00174V5.00777V5.01381V5.01985V5.0259V5.03195V5.038V5.04406V5.05013V5.0562V5.06228V5.06835V5.07444V5.08053V5.08662V5.09271V5.09882V5.10492V5.11103V5.11714V5.12326V5.12938V5.13551V5.14164V5.14777V5.15391V5.16005V5.16619V5.17234V5.17849V5.18465V5.19081V5.19697V5.20313V5.2093V5.21548V5.22165V5.22783V5.23402V5.2402V5.24639V5.25258V5.25878V5.26498V5.27118V5.27738V5.28359V5.2898V5.29601V5.30223V5.30845V5.31467V5.32089V5.32712V5.33335V5.33958V5.34581V5.35205V5.35829V5.36453V5.37077V5.37702V5.38327V5.38952V5.39577V5.40202V5.40828V5.41454V5.4208V5.42706V5.43332V5.43959V5.44586V5.45213V5.4584V5.46467V5.47094V5.47722V5.4835V5.48978V5.49606V5.50234V5.50862V5.5149V5.52119V5.52748V5.53376V5.54005V5.54634V5.55263C0.88889 6.30867 0.688777 6.97799 0.483821 7.46341C0.381878 7.70485 0.280353 7.89696 0.205579 8.02683C0.168256 8.09166 0.137791 8.14064 0.117541 8.17216C0.107422 8.18791 0.0998747 8.19926 0.0953214 8.20602L0.090932 8.21249C-0.01582 8.36501 -0.029575 8.56506 0.0562261 8.73036C0.142222 8.89603 0.313341 9 0.500002 9H3.08592C3.29261 9.58161 3.84903 10 4.5 10C5.15097 10 5.70739 9.58161 5.91409 9H8.5C8.68666 9 8.85778 8.89603 8.94378 8.73036C9.02973 8.56477 9.01634 8.36511 8.90907 8.21249L8.90468 8.20602C8.90013 8.19926 8.89258 8.18791 8.88246 8.17216C8.86221 8.14064 8.83175 8.09166 8.79442 8.02683C8.71965 7.89696 8.61812 7.70485 8.51618 7.46341C8.31123 6.97799 8.11111 6.30867 8.11111 5.55263V5.54634V5.54005V5.53376V5.52748V5.52119V5.5149V5.50862V5.50234V5.49606V5.48978V5.4835V5.47722V5.47094V5.46467V5.4584V5.45213V5.44586V5.43959V5.43332V5.42706V5.4208V5.41454V5.40828V5.40202V5.39577V5.38952V5.38327V5.37702V5.37077V5.36453V5.35829V5.35205V5.34581V5.33958V5.33335V5.32712V5.32089V5.31467V5.30845V5.30223V5.29601V5.2898V5.28359V5.27738V5.27118V5.26498V5.25878V5.25258V5.24639V5.2402V5.23402V5.22783V5.22165V5.21548V5.2093V5.20313V5.19697V5.19081V5.18465V5.17849V5.17234V5.16619V5.16005V5.15391V5.14777V5.14164V5.13551V5.12938V5.12326V5.11714V5.11103V5.10492V5.09882V5.09271V5.08662V5.08053V5.07444V5.06835V5.06228V5.0562V5.05013V5.04406V5.038V5.03195V5.0259V5.01985V5.01381V5.00777V5.00174V4.99571V4.98969V4.98367V4.97765V4.97165V4.96564V4.95965V4.95366V4.94767V4.94169V4.93571V4.92974V4.92377V4.91781V4.91186V4.90591V4.89997V4.89403V4.8881V4.88217V4.87625V4.87034V4.86443V4.85853V4.85263V4.84674V4.84085V4.83497V4.8291V4.82324V4.81738V4.81152V4.80567V4.79983V4.794V4.78817V4.78235V4.77653V4.77072V4.76492V4.75913V4.75334V4.74756V4.74178V4.73601V4.73025V4.7245V4.71875V4.71301V4.70727V4.70155V4.69583V4.69012V4.68441V4.67872V4.67303V4.66734V4.66167V4.656V4.65034V4.64469V4.63904V4.6334V4.62777V4.62215V4.61654V4.61093V4.60533V4.59974V4.59416V4.58858V4.58302V4.57746V4.57191V4.56637V4.56083V4.55531V4.54979V4.54428V4.53878V4.53329V4.5278V4.52233V4.51686V4.5114V4.50595V4.50051V4.49508V4.48966V4.48424V4.47884V4.47344V4.46805V4.46267V4.4573V4.45194V4.44659V4.44125V4.43592V4.43059V4.42528V4.41997V4.41468V4.40939V4.40412V4.39885V4.39359V4.38834V4.38311V4.37788V4.37266V4.36745V4.36225V4.35706V4.35188V4.34671V4.34156V4.33641V4.33127V4.32614V4.32102V4.31591V4.31081V4.30573V4.30065V4.29558V4.29053V4.28548V4.28045V4.27542V4.27041V4.2654V4.26041V4.25543V4.25046V4.2455V4.24055V4.23561V4.23068V4.22577V4.22086V4.21597V4.21108V4.20621V4.20135V4.1965V4.19167V4.18684V4.18203V4.17722V4.17243V4.16765V4.16288V4.15813V4.15338V4.14865V4.14393V4.13922V4.13452V4.12983V4.12516V4.1205V4.11585V4.11121V4.10658V4.10197V4.09737V4.09278V4.0882V4.08364V4.07909V4.07455V4.07002V4.06551V4.06101V4.05652V4.05204V4.04758V4.04313V4.03869V4.03426V4.02985V4.02545V4.02107V4.01669V4.01233V4.00799V4.00365V3.99933V3.99502V3.99073V3.98645V3.98218V3.97793V3.97369V3.96946V3.96525V3.96105V3.95686V3.95269V3.94853V3.94439V3.94026V3.93614V3.93203V3.92795V3.92387V3.91981V3.91576V3.91173V3.90771V3.90371V3.89972V3.89574V3.89178V3.88783V3.8839V3.87998V3.87608V3.87219V3.86832V3.86446V3.86061V3.85678V3.85297V3.84916V3.84538V3.84161V3.83785V3.83411V3.83039V3.82668V3.82298V3.8193V3.81564V3.81199V3.80835V3.80473V3.80113V3.79754V3.79397V3.79041V3.78687V3.78335V3.77984V3.77634V3.77286V3.7694V3.76595V3.76252V3.75911V3.75571V3.75233V3.74896V3.74561V3.74228V3.73896V3.73566V3.73237V3.7291V3.72585V3.72261V3.71939V3.71619V3.713V3.70983V3.70668V3.70354V3.70042V3.69732V3.69423V3.69116V3.68811V3.68508V3.68206V3.67906V3.67607V3.6731V3.67015V3.66722V3.66431V3.66141V3.65853V3.65566V3.65282V3.64999V3.64718V3.64439V3.64161V3.63885V3.63611V3.63339V3.63068V3.628V3.62533V3.62268V3.62005V3.61743V3.61483V3.61226V3.60969V3.60715V3.60463V3.60212V3.59964V3.59717V3.59472V3.59228V3.58987V3.58748V3.5851V3.58274V3.5804V3.57808V3.57578V3.5735V3.57123V3.56899V3.56676V3.56456V3.56237V3.5602V3.55805V3.55592V3.55381V3.55172V3.54965V3.54759V3.54556V3.54354V3.54155V3.53957V3.53762V3.53568V3.53377V3.53187V3.52999V3.52814V3.5263V3.52448V3.52268V3.52091V3.51915V3.51741V3.51569V3.514V3.51232V3.51066V3.50903V3.50741V3.50582V3.50424V3.50269V3.50115V3.49964V3.49815V3.49667V3.49522V3.49379V3.49238V3.49099V3.48962V3.48828V3.48695V3.48564V3.48436V3.4831V3.48185V3.48063V3.47943V3.47825V3.4771V3.47596V3.47485V3.47375V3.47268V3.47163V3.4706V3.4696V3.46765V3.46579V3.46401V3.46232V3.46073V3.45922V3.45779V3.45646V3.45522V3.45407V3.453V3.45158V3.45036V3.44935V3.44832C8.11111 1.526 6.46144 0 4.5 0ZM5.5 8H7.65944C7.63803 7.95264 7.61648 7.90341 7.59493 7.85238C7.35544 7.28517 7.11111 6.48081 7.11111 5.55263V5.54634V5.54005V5.53376V5.52748V5.52119V5.5149V5.50862V5.50234V5.49606V5.48978V5.4835V5.47722V5.47094V5.46467V5.4584V5.45213V5.44586V5.43959V5.43332V5.42706V5.4208V5.41454V5.40828V5.40202V5.39577V5.38952V5.38327V5.37702V5.37077V5.36453V5.35829V5.35205V5.34581V5.33958V5.33335V5.32712V5.32089V5.31467V5.30845V5.30223V5.29601V5.2898V5.28359V5.27738V5.27118V5.26498V5.25878V5.25258V5.24639V5.2402V5.23402V5.22783V5.22165V5.21548V5.2093V5.20313V5.19697V5.19081V5.18465V5.17849V5.17234V5.16619V5.16005V5.15391V5.14777V5.14164V5.13551V5.12938V5.12326V5.11714V5.11103V5.10492V5.09882V5.09271V5.08662V5.08053V5.07444V5.06835V5.06228V5.0562V5.05013V5.04406V5.038V5.03195V5.0259V5.01985V5.01381V5.00777V5.00174V4.99571V4.98969V4.98367V4.97765V4.97165V4.96564V4.95965V4.95366V4.94767V4.94169V4.93571V4.92974V4.92377V4.91781V4.91186V4.90591V4.89997V4.89403V4.8881V4.88217V4.87625V4.87034V4.86443V4.85853V4.85263V4.84674V4.84085V4.83497V4.8291V4.82324V4.81738V4.81152V4.80567V4.79983V4.794V4.78817V4.78235V4.77653V4.77072V4.76492V4.75913V4.75334V4.74756V4.74178V4.73601V4.73025V4.7245V4.71875V4.71301V4.70727V4.70155V4.69583V4.69012V4.68441V4.67872V4.67303V4.66734V4.66167V4.656V4.65034V4.64469V4.63904V4.6334V4.62777V4.62215V4.61654V4.61093V4.60533V4.59974V4.59416V4.58858V4.58302V4.57746V4.57191V4.56637V4.56083V4.55531V4.54979V4.54428V4.53878V4.53329V4.5278V4.52233V4.51686V4.5114V4.50595V4.50051V4.49508V4.48966V4.48424V4.47884V4.47344V4.46805V4.46267V4.4573V4.45194V4.44659V4.44125V4.43592V4.43059V4.42528V4.41997V4.41468V4.40939V4.40412V4.39885V4.39359V4.38834V4.38311V4.37788V4.37266V4.36745V4.36225V4.35706V4.35188V4.34671V4.34156V4.33641V4.33127V4.32614V4.32102V4.31591V4.31081V4.30573V4.30065V4.29558V4.29053V4.28548V4.28045V4.27542V4.27041V4.2654V4.26041V4.25543V4.25046V4.2455V4.24055V4.23561V4.23068V4.22577V4.22086V4.21597V4.21108V4.20621V4.20135V4.1965V4.19167V4.18684V4.18203V4.17722V4.17243V4.16765V4.16288V4.15813V4.15338V4.14865V4.14393V4.13922V4.13452V4.12983V4.12516V4.1205V4.11585V4.11121V4.10658V4.10197V4.09737V4.09278V4.0882V4.08364V4.07909V4.07455V4.07002V4.06551V4.06101V4.05652V4.05204V4.04758V4.04313V4.03869V4.03426V4.02985V4.02545V4.02107V4.01669V4.01233V4.00799V4.00365V3.99933V3.99502V3.99073V3.98645V3.98218V3.97793V3.97369V3.96946V3.96525V3.96105V3.95686V3.95269V3.94853V3.94439V3.94026V3.93614V3.93203V3.92795V3.92387V3.91981V3.91576V3.91173V3.90771V3.90371V3.89972V3.89574V3.89178V3.88783V3.8839V3.87998V3.87608V3.87219V3.86832V3.86446V3.86061V3.85678V3.85297V3.84916V3.84538V3.84161V3.83785V3.83411V3.83039V3.82668V3.82298V3.8193V3.81564V3.81199V3.80835V3.80473V3.80113V3.79754V3.79397V3.79041V3.78687V3.78335V3.77984V3.77634V3.77286V3.7694V3.76595V3.76252V3.75911V3.75571V3.75233V3.74896V3.74561V3.74228V3.73896V3.73566V3.73237V3.7291V3.72585V3.72261V3.71939V3.71619V3.713V3.70983V3.70668V3.70354V3.70042V3.69732V3.69423V3.69116V3.68811V3.68508V3.68206V3.67906V3.67607V3.6731V3.67015V3.66722V3.66431V3.66141V3.65853V3.65566V3.65282V3.64999V3.64718V3.64439V3.64161V3.63885V3.63611V3.63339V3.63068V3.628V3.62533V3.62268V3.62005V3.61743V3.61483V3.61226V3.60969V3.60715V3.60463V3.60212V3.59964V3.59717V3.59472V3.59228V3.58987V3.58748V3.5851V3.58274V3.5804V3.57808V3.57578V3.5735V3.57123V3.56899V3.56676V3.56456V3.56237V3.5602V3.55805V3.55592V3.55381V3.55172V3.54965V3.54759V3.54556V3.54354V3.54155V3.53957V3.53762V3.53568V3.53377V3.53187V3.52999V3.52814V3.5263V3.52448V3.52268V3.52091V3.51915V3.51741V3.51569V3.514V3.51232V3.51066V3.50903V3.50741V3.50582V3.50424V3.50269V3.50115V3.49964V3.49815V3.49667V3.49522V3.49379V3.49238V3.49099V3.48962V3.48828V3.48695V3.48564V3.48436V3.4831V3.48185V3.48063V3.47943V3.47825V3.4771V3.47596V3.47485V3.47375V3.47268V3.47163V3.4706V3.4696V3.46765V3.46579V3.46401V3.46232V3.46073V3.45922V3.45779V3.45646V3.45522V3.45407V3.453V3.45158V3.45036V3.44935V3.44832C7.11111 2.12854 5.96079 1 4.5 1C3.03922 1 1.88889 2.12759 1.88889 3.44737V3.44854V3.44966V3.45074V3.45203V3.45352V3.45463V3.45583V3.45712V3.45849V3.45996V3.46151V3.46316V3.46489V3.46671V3.46861V3.4706V3.47163V3.47268V3.47375V3.47485V3.47596V3.4771V3.47825V3.47943V3.48063V3.48185V3.4831V3.48436V3.48564V3.48695V3.48828V3.48962V3.49099V3.49238V3.49379V3.49522V3.49667V3.49815V3.49964V3.50115V3.50269V3.50424V3.50582V3.50741V3.50903V3.51066V3.51232V3.514V3.51569V3.51741V3.51915V3.52091V3.52268V3.52448V3.5263V3.52814V3.52999V3.53187V3.53377V3.53568V3.53762V3.53957V3.54155V3.54354V3.54556V3.54759V3.54965V3.55172V3.55381V3.55592V3.55805V3.5602V3.56237V3.56456V3.56676V3.56899V3.57123V3.5735V3.57578V3.57808V3.5804V3.58274V3.5851V3.58748V3.58987V3.59228V3.59472V3.59717V3.59964V3.60212V3.60463V3.60715V3.60969V3.61226V3.61483V3.61743V3.62005V3.62268V3.62533V3.628V3.63068V3.63339V3.63611V3.63885V3.64161V3.64439V3.64718V3.64999V3.65282V3.65566V3.65853V3.66141V3.66431V3.66722V3.67015V3.6731V3.67607V3.67906V3.68206V3.68508V3.68811V3.69116V3.69423V3.69732V3.70042V3.70354V3.70668V3.70983V3.713V3.71619V3.71939V3.72261V3.72585V3.7291V3.73237V3.73566V3.73896V3.74228V3.74561V3.74896V3.75233V3.75571V3.75911V3.76252V3.76595V3.7694V3.77286V3.77634V3.77984V3.78335V3.78687V3.79041V3.79397V3.79754V3.80113V3.80473V3.80835V3.81199V3.81564V3.8193V3.82298V3.82668V3.83039V3.83411V3.83785V3.84161V3.84538V3.84916V3.85297V3.85678V3.86061V3.86446V3.86832V3.87219V3.87608V3.87998V3.8839V3.88783V3.89178V3.89574V3.89972V3.90371V3.90771V3.91173V3.91576V3.91981V3.92387V3.92795V3.93203V3.93614V3.94026V3.94439V3.94853V3.95269V3.95686V3.96105V3.96525V3.96946V3.97369V3.97793V3.98218V3.98645V3.99073V3.99502V3.99933V4.00365V4.00799V4.01233V4.01669V4.02107V4.02545V4.02985V4.03426V4.03869V4.04313V4.04758V4.05204V4.05652V4.06101V4.06551V4.07002V4.07455V4.07909V4.08364V4.0882V4.09278V4.09737V4.10197V4.10658V4.11121V4.11585V4.1205V4.12516V4.12983V4.13452V4.13922V4.14393V4.14865V4.15338V4.15813V4.16288V4.16765V4.17243V4.17722V4.18203V4.18684V4.19167V4.1965V4.20135V4.20621V4.21108V4.21597V4.22086V4.22577V4.23068V4.23561V4.24055V4.2455V4.25046V4.25543V4.26041V4.2654V4.27041V4.27542V4.28045V4.28548V4.29053V4.29558V4.30065V4.30573V4.31081V4.31591V4.32102V4.32614V4.33127V4.33641V4.34156V4.34671V4.35188V4.35706V4.36225V4.36745V4.37266V4.37788V4.38311V4.38834V4.39359V4.39885V4.40412V4.40939V4.41468V4.41997V4.42528V4.43059V4.43592V4.44125V4.44659V4.45194V4.4573V4.46267V4.46805V4.47344V4.47884V4.48424V4.48966V4.49508V4.50051V4.50595V4.5114V4.51686V4.52233V4.5278V4.53329V4.53878V4.54428V4.54979V4.55531V4.56083V4.56637V4.57191V4.57746V4.58302V4.58858V4.59416V4.59974V4.60533V4.61093V4.61654V4.62215V4.62777V4.6334V4.63904V4.64469V4.65034V4.656V4.66167V4.66734V4.67303V4.67872V4.68441V4.69012V4.69583V4.70155V4.70727V4.71301V4.71875V4.7245V4.73025V4.73601V4.74178V4.74756V4.75334V4.75913V4.76492V4.77072V4.77653V4.78235V4.78817V4.794V4.79983V4.80567V4.81152V4.81738V4.82324V4.8291V4.83497V4.84085V4.84674V4.85263V4.85853V4.86443V4.87034V4.87625V4.88217V4.8881V4.89403V4.89997V4.90591V4.91186V4.91781V4.92377V4.92974V4.93571V4.94169V4.94767V4.95366V4.95965V4.96564V4.97165V4.97765V4.98367V4.98969V4.99571V5.00174V5.00777V5.01381V5.01985V5.0259V5.03195V5.038V5.04406V5.05013V5.0562V5.06228V5.06835V5.07444V5.08053V5.08662V5.09271V5.09882V5.10492V5.11103V5.11714V5.12326V5.12938V5.13551V5.14164V5.14777V5.15391V5.16005V5.16619V5.17234V5.17849V5.18465V5.19081V5.19697V5.20313V5.2093V5.21548V5.22165V5.22783V5.23402V5.2402V5.24639V5.25258V5.25878V5.26498V5.27118V5.27738V5.28359V5.2898V5.29601V5.30223V5.30845V5.31467V5.32089V5.32712V5.33335V5.33958V5.34581V5.35205V5.35829V5.36453V5.37077V5.37702V5.38327V5.38952V5.39577V5.40202V5.40828V5.41454V5.4208V5.42706V5.43332V5.43959V5.44586V5.45213V5.4584V5.46467V5.47094V5.47722V5.4835V5.48978V5.49606V5.50234V5.50862V5.5149V5.52119V5.52748V5.53376V5.54005V5.54634V5.55263C1.88889 6.48081 1.64456 7.28517 1.40507 7.85238C1.38353 7.90341 1.36197 7.95264 1.34056 8H3.5H5.5Z" fill="#13AA57"/>
<path d="M5.5 8H7.65944C7.63803 7.95264 7.61648 7.90341 7.59493 7.85238C7.35544 7.28517 7.11111 6.48081 7.11111 5.55263V5.54634V5.54005V5.53376V5.52748V5.52119V5.5149V5.50862V5.50234V5.49606V5.48978V5.4835V5.47722V5.47094V5.46467V5.4584V5.45213V5.44586V5.43959V5.43332V5.42706V5.4208V5.41454V5.40828V5.40202V5.39577V5.38952V5.38327V5.37702V5.37077V5.36453V5.35829V5.35205V5.34581V5.33958V5.33335V5.32712V5.32089V5.31467V5.30845V5.30223V5.29601V5.2898V5.28359V5.27738V5.27118V5.26498V5.25878V5.25258V5.24639V5.2402V5.23402V5.22783V5.22165V5.21548V5.2093V5.20313V5.19697V5.19081V5.18465V5.17849V5.17234V5.16619V5.16005V5.15391V5.14777V5.14164V5.13551V5.12938V5.12326V5.11714V5.11103V5.10492V5.09882V5.09271V5.08662V5.08053V5.07444V5.06835V5.06228V5.0562V5.05013V5.04406V5.038V5.03195V5.0259V5.01985V5.01381V5.00777V5.00174V4.99571V4.98969V4.98367V4.97765V4.97165V4.96564V4.95965V4.95366V4.94767V4.94169V4.93571V4.92974V4.92377V4.91781V4.91186V4.90591V4.89997V4.89403V4.8881V4.88217V4.87625V4.87034V4.86443V4.85853V4.85263V4.84674V4.84085V4.83497V4.8291V4.82324V4.81738V4.81152V4.80567V4.79983V4.794V4.78817V4.78235V4.77653V4.77072V4.76492V4.75913V4.75334V4.74756V4.74178V4.73601V4.73025V4.7245V4.71875V4.71301V4.70727V4.70155V4.69583V4.69012V4.68441V4.67872V4.67303V4.66734V4.66167V4.656V4.65034V4.64469V4.63904V4.6334V4.62777V4.62215V4.61654V4.61093V4.60533V4.59974V4.59416V4.58858V4.58302V4.57746V4.57191V4.56637V4.56083V4.55531V4.54979V4.54428V4.53878V4.53329V4.5278V4.52233V4.51686V4.5114V4.50595V4.50051V4.49508V4.48966V4.48424V4.47884V4.47344V4.46805V4.46267V4.4573V4.45194V4.44659V4.44125V4.43592V4.43059V4.42528V4.41997V4.41468V4.40939V4.40412V4.39885V4.39359V4.38834V4.38311V4.37788V4.37266V4.36745V4.36225V4.35706V4.35188V4.34671V4.34156V4.33641V4.33127V4.32614V4.32102V4.31591V4.31081V4.30573V4.30065V4.29558V4.29053V4.28548V4.28045V4.27542V4.27041V4.2654V4.26041V4.25543V4.25046V4.2455V4.24055V4.23561V4.23068V4.22577V4.22086V4.21597V4.21108V4.20621V4.20135V4.1965V4.19167V4.18684V4.18203V4.17722V4.17243V4.16765V4.16288V4.15813V4.15338V4.14865V4.14393V4.13922V4.13452V4.12983V4.12516V4.1205V4.11585V4.11121V4.10658V4.10197V4.09737V4.09278V4.0882V4.08364V4.07909V4.07455V4.07002V4.06551V4.06101V4.05652V4.05204V4.04758V4.04313V4.03869V4.03426V4.02985V4.02545V4.02107V4.01669V4.01233V4.00799V4.00365V3.99933V3.99502V3.99073V3.98645V3.98218V3.97793V3.97369V3.96946V3.96525V3.96105V3.95686V3.95269V3.94853V3.94439V3.94026V3.93614V3.93203V3.92795V3.92387V3.91981V3.91576V3.91173V3.90771V3.90371V3.89972V3.89574V3.89178V3.88783V3.8839V3.87998V3.87608V3.87219V3.86832V3.86446V3.86061V3.85678V3.85297V3.84916V3.84538V3.84161V3.83785V3.83411V3.83039V3.82668V3.82298V3.8193V3.81564V3.81199V3.80835V3.80473V3.80113V3.79754V3.79397V3.79041V3.78687V3.78335V3.77984V3.77634V3.77286V3.7694V3.76595V3.76252V3.75911V3.75571V3.75233V3.74896V3.74561V3.74228V3.73896V3.73566V3.73237V3.7291V3.72585V3.72261V3.71939V3.71619V3.713V3.70983V3.70668V3.70354V3.70042V3.69732V3.69423V3.69116V3.68811V3.68508V3.68206V3.67906V3.67607V3.6731V3.67015V3.66722V3.66431V3.66141V3.65853V3.65566V3.65282V3.64999V3.64718V3.64439V3.64161V3.63885V3.63611V3.63339V3.63068V3.628V3.62533V3.62268V3.62005V3.61743V3.61483V3.61226V3.60969V3.60715V3.60463V3.60212V3.59964V3.59717V3.59472V3.59228V3.58987V3.58748V3.5851V3.58274V3.5804V3.57808V3.57578V3.5735V3.57123V3.56899V3.56676V3.56456V3.56237V3.5602V3.55805V3.55592V3.55381V3.55172V3.54965V3.54759V3.54556V3.54354V3.54155V3.53957V3.53762V3.53568V3.53377V3.53187V3.52999V3.52814V3.5263V3.52448V3.52268V3.52091V3.51915V3.51741V3.51569V3.514V3.51232V3.51066V3.50903V3.50741V3.50582V3.50424V3.50269V3.50115V3.49964V3.49815V3.49667V3.49522V3.49379V3.49238V3.49099V3.48962V3.48828V3.48695V3.48564V3.48436V3.4831V3.48185V3.48063V3.47943V3.47825V3.4771V3.47596V3.47485V3.47375V3.47268V3.47163V3.4706V3.4696V3.46765V3.46579V3.46401V3.46232V3.46073V3.45922V3.45779V3.45646V3.45522V3.45407V3.453V3.45158V3.45036V3.44935V3.44832C7.11111 2.12854 5.96079 1 4.5 1C3.03922 1 1.88889 2.12759 1.88889 3.44737V3.44854V3.44966V3.45074V3.45203V3.45352V3.45463V3.45583V3.45712V3.45849V3.45996V3.46151V3.46316V3.46489V3.46671V3.46861V3.4706V3.47163V3.47268V3.47375V3.47485V3.47596V3.4771V3.47825V3.47943V3.48063V3.48185V3.4831V3.48436V3.48564V3.48695V3.48828V3.48962V3.49099V3.49238V3.49379V3.49522V3.49667V3.49815V3.49964V3.50115V3.50269V3.50424V3.50582V3.50741V3.50903V3.51066V3.51232V3.514V3.51569V3.51741V3.51915V3.52091V3.52268V3.52448V3.5263V3.52814V3.52999V3.53187V3.53377V3.53568V3.53762V3.53957V3.54155V3.54354V3.54556V3.54759V3.54965V3.55172V3.55381V3.55592V3.55805V3.5602V3.56237V3.56456V3.56676V3.56899V3.57123V3.5735V3.57578V3.57808V3.5804V3.58274V3.5851V3.58748V3.58987V3.59228V3.59472V3.59717V3.59964V3.60212V3.60463V3.60715V3.60969V3.61226V3.61483V3.61743V3.62005V3.62268V3.62533V3.628V3.63068V3.63339V3.63611V3.63885V3.64161V3.64439V3.64718V3.64999V3.65282V3.65566V3.65853V3.66141V3.66431V3.66722V3.67015V3.6731V3.67607V3.67906V3.68206V3.68508V3.68811V3.69116V3.69423V3.69732V3.70042V3.70354V3.70668V3.70983V3.713V3.71619V3.71939V3.72261V3.72585V3.7291V3.73237V3.73566V3.73896V3.74228V3.74561V3.74896V3.75233V3.75571V3.75911V3.76252V3.76595V3.7694V3.77286V3.77634V3.77984V3.78335V3.78687V3.79041V3.79397V3.79754V3.80113V3.80473V3.80835V3.81199V3.81564V3.8193V3.82298V3.82668V3.83039V3.83411V3.83785V3.84161V3.84538V3.84916V3.85297V3.85678V3.86061V3.86446V3.86832V3.87219V3.87608V3.87998V3.8839V3.88783V3.89178V3.89574V3.89972V3.90371V3.90771V3.91173V3.91576V3.91981V3.92387V3.92795V3.93203V3.93614V3.94026V3.94439V3.94853V3.95269V3.95686V3.96105V3.96525V3.96946V3.97369V3.97793V3.98218V3.98645V3.99073V3.99502V3.99933V4.00365V4.00799V4.01233V4.01669V4.02107V4.02545V4.02985V4.03426V4.03869V4.04313V4.04758V4.05204V4.05652V4.06101V4.06551V4.07002V4.07455V4.07909V4.08364V4.0882V4.09278V4.09737V4.10197V4.10658V4.11121V4.11585V4.1205V4.12516V4.12983V4.13452V4.13922V4.14393V4.14865V4.15338V4.15813V4.16288V4.16765V4.17243V4.17722V4.18203V4.18684V4.19167V4.1965V4.20135V4.20621V4.21108V4.21597V4.22086V4.22577V4.23068V4.23561V4.24055V4.2455V4.25046V4.25543V4.26041V4.2654V4.27041V4.27542V4.28045V4.28548V4.29053V4.29558V4.30065V4.30573V4.31081V4.31591V4.32102V4.32614V4.33127V4.33641V4.34156V4.34671V4.35188V4.35706V4.36225V4.36745V4.37266V4.37788V4.38311V4.38834V4.39359V4.39885V4.40412V4.40939V4.41468V4.41997V4.42528V4.43059V4.43592V4.44125V4.44659V4.45194V4.4573V4.46267V4.46805V4.47344V4.47884V4.48424V4.48966V4.49508V4.50051V4.50595V4.5114V4.51686V4.52233V4.5278V4.53329V4.53878V4.54428V4.54979V4.55531V4.56083V4.56637V4.57191V4.57746V4.58302V4.58858V4.59416V4.59974V4.60533V4.61093V4.61654V4.62215V4.62777V4.6334V4.63904V4.64469V4.65034V4.656V4.66167V4.66734V4.67303V4.67872V4.68441V4.69012V4.69583V4.70155V4.70727V4.71301V4.71875V4.7245V4.73025V4.73601V4.74178V4.74756V4.75334V4.75913V4.76492V4.77072V4.77653V4.78235V4.78817V4.794V4.79983V4.80567V4.81152V4.81738V4.82324V4.8291V4.83497V4.84085V4.84674V4.85263V4.85853V4.86443V4.87034V4.87625V4.88217V4.8881V4.89403V4.89997V4.90591V4.91186V4.91781V4.92377V4.92974V4.93571V4.94169V4.94767V4.95366V4.95965V4.96564V4.97165V4.97765V4.98367V4.98969V4.99571V5.00174V5.00777V5.01381V5.01985V5.0259V5.03195V5.038V5.04406V5.05013V5.0562V5.06228V5.06835V5.07444V5.08053V5.08662V5.09271V5.09882V5.10492V5.11103V5.11714V5.12326V5.12938V5.13551V5.14164V5.14777V5.15391V5.16005V5.16619V5.17234V5.17849V5.18465V5.19081V5.19697V5.20313V5.2093V5.21548V5.22165V5.22783V5.23402V5.2402V5.24639V5.25258V5.25878V5.26498V5.27118V5.27738V5.28359V5.2898V5.29601V5.30223V5.30845V5.31467V5.32089V5.32712V5.33335V5.33958V5.34581V5.35205V5.35829V5.36453V5.37077V5.37702V5.38327V5.38952V5.39577V5.40202V5.40828V5.41454V5.4208V5.42706V5.43332V5.43959V5.44586V5.45213V5.4584V5.46467V5.47094V5.47722V5.4835V5.48978V5.49606V5.50234V5.50862V5.5149V5.52119V5.52748V5.53376V5.54005V5.54634V5.55263C1.88889 6.48081 1.64456 7.28517 1.40507 7.85238C1.38353 7.90341 1.36197 7.95264 1.34056 8H3.5H5.5Z" fill="#13AA57"/>
</svg>
