<svg width="24" height="24" viewBox="0 0 24 24" fill="none" xmlns="http://www.w3.org/2000/svg">
  <path d="M12.0005 23.172C18.1709 23.172 23.173 18.1699 23.173 11.9996C23.173 5.82921 18.1709 0.827148 12.0005 0.827148C5.83019 0.827148 0.828125 5.82921 0.828125 11.9996C0.828125 18.1699 5.83019 23.172 12.0005 23.172Z" fill="#13AA57" stroke="#13AA57" stroke-width="1.5" stroke-linecap="round" stroke-linejoin="round"/>
  <path d="M20.3327 9.70033L14.341 9.18366L11.9994 3.66699L9.65768 9.19199L3.66602 9.70033L8.21602 13.642L6.84935 19.5003L11.9994 16.392L17.1494 19.5003L15.791 13.642L20.3327 9.70033ZM11.9994 14.8337L8.86602 16.7253L9.69935 13.1587L6.93268 10.7587L10.5827 10.442L11.9994 7.08366L13.4244 10.4503L17.0744 10.767L14.3077 13.167L15.141 16.7337L11.9994 14.8337Z" fill="white"/>
</svg>
