<svg width="18" height="19" viewBox="0 0 18 19" fill="none" xmlns="http://www.w3.org/2000/svg">
<path fill-rule="evenodd" clip-rule="evenodd" d="M7 0C5.89543 0 5 0.89543 5 2V3H1.5C0.947715 3 0.5 3.44772 0.5 4C0.5 4.55228 0.947715 5 1.5 5H2.06888L2.9362 17.1425C3.01096 18.1891 3.88184 19 4.93112 19H13.0689C14.1182 19 14.989 18.1891 15.0638 17.1425L15.9311 5H16.5C17.0523 5 17.5 4.55228 17.5 4C17.5 3.44772 17.0523 3 16.5 3H13V2C13 0.89543 12.1046 0 11 0H7ZM11 3V2H7V3H11ZM4.07398 5H13.926L13.0689 17H4.93112L4.07398 5ZM7 7C7.55228 7 8 7.44772 8 8V14C8 14.5523 7.55228 15 7 15C6.44772 15 6 14.5523 6 14V8C6 7.44772 6.44772 7 7 7ZM12 8C12 7.44772 11.5523 7 11 7C10.4477 7 10 7.44772 10 8V14C10 14.5523 10.4477 15 11 15C11.5523 15 12 14.5523 12 14V8Z" fill="#64727D"/>
</svg>
