<svg width="24" height="24" viewBox="0 0 24 24" fill="none" xmlns="http://www.w3.org/2000/svg">
  <path d="M7.81828 21.0105C16.3093 21.0105 20.9527 13.976 20.9527 7.87612C20.9527 7.67633 20.9485 7.47737 20.9396 7.2795C21.8409 6.62784 22.6242 5.81464 23.2423 4.88902C22.4152 5.25682 21.5249 5.50408 20.5913 5.61595C21.5443 5.04423 22.2761 4.14021 22.6212 3.06255C21.7293 3.59134 20.7414 3.97551 19.6899 4.18301C18.8476 3.28573 17.6481 2.72461 16.3202 2.72461C13.771 2.72461 11.7036 4.79188 11.7036 7.34018C11.7036 7.70261 11.7442 8.05486 11.8233 8.3928C7.9867 8.19975 4.58446 6.36296 2.30791 3.56973C1.91163 4.2518 1.68294 5.04437 1.68294 5.89004C1.68294 7.4914 2.49793 8.90549 3.73714 9.73245C2.9798 9.7092 2.26842 9.50129 1.64648 9.15523C1.64579 9.17463 1.64579 9.19348 1.64579 9.21412C1.64579 11.4498 3.23697 13.3165 5.34951 13.7394C4.96148 13.845 4.55323 13.9018 4.13218 13.9018C3.83524 13.9018 3.54574 13.8726 3.26449 13.8186C3.85217 15.6527 5.55645 16.9874 7.57694 17.0248C5.9969 18.2632 4.00655 19.0009 1.84338 19.0009C1.47132 19.0009 1.10352 18.9796 0.742188 18.9369C2.78524 20.2464 5.21122 21.0106 7.81842 21.0106" fill="#878787"/>
</svg>
