<svg width="24" height="24" viewBox="0 0 24 24" fill="none" xmlns="http://www.w3.org/2000/svg">
<path fill-rule="evenodd" clip-rule="evenodd" d="M1.7309 0H22.2691C23.2251 0 24 0.774902 24 1.7309V22.2691C24 23.2251 23.2251 24 22.2691 24H1.7309C0.774902 24 0 23.2251 0 22.2691V1.7309C0 0.774902 0.774902 0 1.7309 0ZM19.9648 8.5075C19.9648 13.8448 15.8374 19.9999 8.28983 19.9999C5.97233 19.9999 3.81604 19.3313 2 18.1855C2.32118 18.2228 2.64811 18.2415 2.97883 18.2415C4.90165 18.2415 6.67084 17.5961 8.07531 16.5125C6.27933 16.4797 4.76442 15.3119 4.24204 13.707C4.49203 13.7543 4.74937 13.7799 5.01331 13.7799C5.38758 13.7799 5.75047 13.7301 6.09538 13.6378C4.21758 13.2677 2.8032 11.6344 2.8032 9.67823C2.8032 9.66017 2.8032 9.64367 2.80381 9.6267C3.35665 9.92949 3.98898 10.1114 4.66217 10.1318C3.56066 9.40818 2.83622 8.17087 2.83622 6.76971C2.83622 6.02975 3.0395 5.33627 3.39175 4.73947C5.41534 7.18351 8.43954 8.79067 11.8499 8.95958C11.7795 8.66389 11.7435 8.35568 11.7435 8.03856C11.7435 5.80883 13.5811 4 15.847 4C17.0274 4 18.0936 4.49097 18.8424 5.27607C19.777 5.09452 20.6551 4.75837 21.4479 4.29569C21.1412 5.23863 20.4907 6.02963 19.6436 6.52988C20.4735 6.432 21.2648 6.21564 22 5.89383C21.4506 6.70373 20.7543 7.41527 19.9532 7.98546C19.9611 8.15859 19.9648 8.33268 19.9648 8.5075Z" fill="#878787"/>
</svg>
