<svg width="24" height="24" viewBox="0 0 24 24" fill="none" xmlns="http://www.w3.org/2000/svg">
<g clip-path="url(#clip0_42386_164762)">
<path d="M1.7309 0H22.2691C23.2251 0 24 0.774902 24 1.7309V22.2691C24 23.2251 23.2251 24 22.2691 24H1.7309C0.774902 24 0 23.2251 0 22.2691V1.7309C0 0.774902 0.774902 0 1.7309 0Z" fill="#64727D"/>
<path d="M10 15L15.19 12L10 9V15ZM21.56 7.17C21.69 7.64 21.78 8.27 21.84 9.07C21.91 9.87 21.94 10.56 21.94 11.16L22 12C22 14.19 21.84 15.8 21.56 16.83C21.31 17.73 20.73 18.31 19.83 18.56C19.36 18.69 18.5 18.78 17.18 18.84C15.88 18.91 14.69 18.94 13.59 18.94L12 19C7.81 19 5.2 18.84 4.17 18.56C3.27 18.31 2.69 17.73 2.44 16.83C2.31 16.36 2.22 15.73 2.16 14.93C2.09 14.13 2.06 13.44 2.06 12.84L2 12C2 9.81 2.16 8.2 2.44 7.17C2.69 6.27 3.27 5.69 4.17 5.44C4.64 5.31 5.5 5.22 6.82 5.16C8.12 5.09 9.31 5.06 10.41 5.06L12 5C16.19 5 18.8 5.16 19.83 5.44C20.73 5.69 21.31 6.27 21.56 7.17Z" fill="white"/>
</g>
<defs>
<clipPath id="clip0_42386_164762">
<rect width="24" height="24" fill="white"/>
</clipPath>
</defs>
</svg>
